<?xml version="1.0" encoding="utf-8"?>
<!-- Generator: Adobe Illustrator 21.1.0, SVG Export Plug-In . SVG Version: 6.00 Build 0)  -->
<svg version="1.1" id="Layer_1" xmlns="http://www.w3.org/2000/svg" xmlns:xlink="http://www.w3.org/1999/xlink" x="0px" y="0px"
	 viewBox="0 0 512 512" style="enable-background:new 0 0 512 512;" xml:space="preserve">
<style type="text/css">
	.st0{fill:#4D6FA9;}
	.st1{fill:#FFFFFF;}
</style>
<path class="st0" d="M476.7,512H35.3C15.9,512,0,496.1,0,476.7V35.3C0,15.9,15.9,0,35.3,0h441.4C496.1,0,512,15.9,512,35.3v441.4
	C512,496.1,496.1,512,476.7,512"/>
<path class="st1" d="M432.6,88.3v88.3h-79.4c-9.7,0-17.7,7.9-17.7,17.7v53h88.3v88.3h-88.3V512h-88.3V335.4h-70.6v-88.3h70.6v-53
	c0-55.6,42.4-101.5,97.1-105.9L432.6,88.3L432.6,88.3z"/>
</svg>
