<?xml version="1.0" encoding="utf-8"?>
<!-- Generator: Adobe Illustrator 21.1.0, SVG Export Plug-In . SVG Version: 6.00 Build 0)  -->
<svg version="1.1" id="Calque_1" xmlns="http://www.w3.org/2000/svg" xmlns:xlink="http://www.w3.org/1999/xlink" x="0px" y="0px"
	 viewBox="0 0 1400 306" style="enable-background:new 0 0 1400 306;" xml:space="preserve">
<style type="text/css">
	.st0{fill:#62A85C;}
	.st1{fill:#FFED91;}
	.st2{fill:#207166;}
	.st3{fill:#293F5A;}
</style>
<g>
	<polygon class="st0" points="68.1,129.5 59.7,144.1 76.5,144.1 	"/>
</g>
<g>
	<polygon class="st1" points="95.3,129.4 86.8,144.2 103.8,144.2 	"/>
</g>
<g>
	<polygon class="st1" points="260,129.4 251.5,144.2 268.5,144.2 	"/>
</g>
<g>
	<polygon class="st2" points="40.7,129.2 31.9,144.4 49.4,144.4 	"/>
</g>
<g>
	<polygon class="st0" points="232.8,129.5 224.4,144.1 241.2,144.1 	"/>
</g>
<g>
	<polygon class="st2" points="205.4,129.2 196.7,144.4 214.2,144.4 	"/>
</g>
<g>
	<polygon class="st3" points="12.9,129.2 4.2,144.4 21.7,144.4 	"/>
</g>
<g>
	<polygon class="st0" points="948.3,129.5 939.9,144.1 956.7,144.1 	"/>
</g>
<g>
	<polygon class="st2" points="646.3,129.2 637.5,144.4 655,144.4 	"/>
</g>
<g>
	<polygon class="st0" points="122.5,129.5 130.9,144.1 114.1,144.1 	"/>
</g>
<g>
	<polygon class="st2" points="149.9,129.2 158.7,144.4 141.2,144.4 	"/>
</g>
<g>
	<polygon class="st3" points="177.7,129.2 186.4,144.4 168.9,144.4 	"/>
</g>
<g>
	<polygon class="st1" points="424.7,129.4 416.2,144.2 433.3,144.2 	"/>
</g>
<g>
	<polygon class="st0" points="397.5,129.5 389.1,144.1 406,144.1 	"/>
</g>
<g>
	<polygon class="st2" points="370.1,129.2 361.4,144.4 378.9,144.4 	"/>
</g>
<g id="XMLID_2_">
	<polygon class="st0" points="287.2,129.5 295.6,144.1 278.8,144.1 	"/>
</g>
<g id="XMLID_1_">
	<polygon class="st2" points="314.6,129.2 323.4,144.4 305.9,144.4 	"/>
</g>
<g>
	<polygon class="st3" points="342.4,129.2 351.1,144.4 333.6,144.4 	"/>
</g>
<g>
	<polygon class="st0" points="453,129.5 444.6,144.1 461.5,144.1 	"/>
</g>
<g>
	<polygon class="st1" points="591.7,129.4 583.1,144.2 600.2,144.2 	"/>
</g>
<g>
	<polygon class="st0" points="564.5,129.5 556.1,144.1 572.9,144.1 	"/>
</g>
<g>
	<polygon class="st2" points="537.1,129.2 528.3,144.4 545.8,144.4 	"/>
</g>
<g>
	<polygon class="st2" points="481.6,129.2 490.3,144.4 472.8,144.4 	"/>
</g>
<g>
	<polygon class="st3" points="509.3,129.2 518.1,144.4 500.6,144.4 	"/>
</g>
<g>
	<polygon class="st0" points="729.2,129.5 720.8,144.1 737.6,144.1 	"/>
</g>
<g>
	<polygon class="st1" points="756.4,129.4 747.9,144.2 764.9,144.2 	"/>
</g>
<g>
	<polygon class="st1" points="921.1,129.4 912.6,144.2 929.7,144.2 	"/>
</g>
<g>
	<polygon class="st2" points="701.8,129.2 693,144.4 710.5,144.4 	"/>
</g>
<g>
	<polygon class="st0" points="893.9,129.5 885.5,144.1 902.3,144.1 	"/>
</g>
<g>
	<polygon class="st2" points="866.5,129.2 857.8,144.4 875.3,144.4 	"/>
</g>
<g>
	<polygon class="st3" points="674,129.2 665.3,144.4 682.8,144.4 	"/>
</g>
<g>
	<polygon class="st0" points="783.6,129.5 792,144.1 775.2,144.1 	"/>
</g>
<g>
	<polygon class="st2" points="811,129.2 819.8,144.4 802.3,144.4 	"/>
</g>
<g>
	<polygon class="st3" points="838.8,129.2 847.5,144.4 830,144.4 	"/>
</g>
<g>
	<polygon class="st0" points="618.9,129.5 610.5,144.1 627.3,144.1 	"/>
</g>
<g>
	<polygon class="st0" points="1030.9,129.5 1022.5,144.1 1039.3,144.1 	"/>
</g>
<g>
	<polygon class="st1" points="1058.1,129.4 1049.6,144.2 1066.6,144.2 	"/>
</g>
<g>
	<polygon class="st2" points="1003.5,129.2 994.8,144.4 1012.2,144.4 	"/>
</g>
<g>
	<polygon class="st3" points="975.7,129.2 967,144.4 984.5,144.4 	"/>
</g>
<g>
	<polygon class="st0" points="1250,129.5 1241.6,144.1 1258.4,144.1 	"/>
</g>
<g>
	<polygon class="st1" points="1222.8,129.4 1214.3,144.2 1231.4,144.2 	"/>
</g>
<g>
	<polygon class="st0" points="1195.6,129.5 1187.2,144.1 1204,144.1 	"/>
</g>
<g>
	<polygon class="st2" points="1168.2,129.2 1159.5,144.4 1177,144.4 	"/>
</g>
<g>
	<polygon class="st0" points="1085.3,129.5 1093.7,144.1 1076.9,144.1 	"/>
</g>
<g>
	<polygon class="st2" points="1112.7,129.2 1121.5,144.4 1104,144.4 	"/>
</g>
<g>
	<polygon class="st3" points="1140.5,129.2 1149.2,144.4 1131.7,144.4 	"/>
</g>
<g>
	<polygon class="st0" points="1332.6,129.5 1324.2,144.1 1341,144.1 	"/>
</g>
<g>
	<polygon class="st1" points="1359.8,129.4 1351.3,144.2 1368.3,144.2 	"/>
</g>
<g>
	<polygon class="st2" points="1305.2,129.2 1296.5,144.4 1313.9,144.4 	"/>
</g>
<g>
	<polygon class="st3" points="1277.4,129.2 1268.7,144.4 1286.2,144.4 	"/>
</g>
<g>
	<polygon class="st0" points="1387,129.5 1378.6,144.1 1395.4,144.1 	"/>
</g>
</svg>
