<?xml version="1.0" encoding="utf-8"?>
<!-- Generator: Adobe Illustrator 21.1.0, SVG Export Plug-In . SVG Version: 6.00 Build 0)  -->
<svg version="1.1" xmlns="http://www.w3.org/2000/svg" xmlns:xlink="http://www.w3.org/1999/xlink" x="0px" y="0px"
	 viewBox="0 0 612 792" style="enable-background:new 0 0 612 792;" xml:space="preserve">
<style type="text/css">
	.st0{display:none;}
	.st1{display:inline;}
	.st2{fill:#62A85C;}
	.st3{fill:#FFED91;}
	.st4{fill:#207166;}
	.st5{fill:#293F5A;}
	.st6{fill:none;}
	.st7{font-family:'Karla-Regular';}
	.st8{font-size:10.8057px;}
	.st9{font-size:12px;}
	.st10{font-size:11px;}
	.st11{clip-path:url(#SVGID_2_);}
	.st12{font-size:9.245px;}
	.st13{font-size:11.5562px;}
</style>
<g id="graph_x5F_03" class="st0">
	<g class="st1">
		<g>
			<g>
				<polygon class="st2" points="331.9,625.9 323.5,640.5 340.3,640.5 				"/>
			</g>
			<g>
				<polygon class="st3" points="331.9,649.6 323.4,664.4 340.4,664.4 				"/>
			</g>
			<g>
				<polygon class="st4" points="331.9,600.9 323.2,616 340.7,616 				"/>
			</g>
			<g>
				<polygon class="st5" points="331.9,576.3 323.2,591.5 340.7,591.5 				"/>
			</g>
			<rect x="347.5" y="632.9" class="st6" width="94.9" height="8.7"/>
			<text id="XMLID_8_" transform="matrix(1 0 0 1 347.5172 640.5981)" class="st7 st8">2016</text>
			<rect x="347.5" y="608.4" class="st6" width="94.9" height="8.7"/>
			<text id="XMLID_10_" transform="matrix(1 0 0 1 347.5172 616.1014)" class="st7 st8">2015</text>
			<rect x="347.5" y="583.9" class="st6" width="94.9" height="8.7"/>
			<text id="XMLID_11_" transform="matrix(1 0 0 1 347.5172 591.552)" class="st7 st8">2014</text>
			<rect x="348.6" y="656.9" class="st6" width="162.5" height="9.9"/>
			<text id="XMLID_7_" transform="matrix(1 0 0 1 348.6397 664.5657)" class="st7 st8">2017</text>
		</g>
		<polygon class="st5" points="56.5,511 30.3,666.2 82.7,666.2 		"/>
		<polygon class="st4" points="130.1,512.7 103.9,666.2 156.3,666.2 		"/>
		<polygon class="st2" points="201.9,488.8 175.7,666.2 228.2,666.2 		"/>
		<polygon class="st3" points="274.7,507.8 248.5,666.2 300.9,666.2 		"/>
		<text transform="matrix(1 0 0 1 50.3512 636.3333)" class="st3 st7 st9">97</text>
		<text transform="matrix(1 0 0 1 123.0638 636.3333)" class="st3 st7 st9">96</text>
		<text transform="matrix(1 0 0 1 192.6978 636.3333)" class="st5 st7 st9">111</text>
		<text transform="matrix(1 0 0 1 268.1567 636.3333)" class="st5 st7 st9">99</text>
		<text transform="matrix(1 0 0 1 30.2827 685.063)" class="st7 st10">Autorisations de recherche en cours</text>
	</g>
</g>
<g id="graph_x5F_01">
	<g>
		<defs>
			<rect id="SVGID_1_" x="13" y="47.5" width="403.5" height="193.5"/>
		</defs>
		<clipPath id="SVGID_2_">
			<use xlink:href="#SVGID_1_"  style="overflow:visible;"/>
		</clipPath>
		<g class="st11">
			<g>
				<polygon class="st5" points="58.2,55.8 32,198.4 84.4,198.4 				"/>
				<polygon class="st5" points="130.2,63.7 104.1,198.3 156.4,198.3 				"/>
				<polygon class="st5" points="202.2,60.9 176,198.3 228.3,198.3 				"/>
				<polygon class="st5" points="274.2,69.8 248.1,198.3 300.4,198.3 				"/>
				<polygon class="st4" points="58.2,127.3 32,198.4 84.4,198.4 				"/>
				<polygon class="st4" points="130.2,131.1 104.1,198.4 156.4,198.4 				"/>
				<polygon class="st4" points="202.2,129.8 176,198.4 228.3,198.4 				"/>
				<polygon class="st4" points="274.2,134.2 248.1,198.4 300.4,198.4 				"/>
				<polygon class="st2" points="58.2,151 32,198.4 84.4,198.4 				"/>
				<polygon class="st2" points="130.2,152.2 104.1,198.4 156.4,198.4 				"/>
				<polygon class="st2" points="202.2,154.1 176,198.4 228.3,198.4 				"/>
				<polygon class="st2" points="274.2,162.8 248.1,198.4 300.4,198.4 				"/>
				<polygon class="st3" points="58.2,172.9 32,198.4 84.4,198.4 				"/>
				<polygon class="st3" points="130.2,173.1 104.1,198.4 156.4,198.4 				"/>
				<polygon class="st3" points="202.2,174.6 176,198.4 228.3,198.4 				"/>
				<polygon class="st3" points="274.2,180.8 248.1,198.4 300.4,198.4 				"/>
			</g>
			<g>
				<path class="st5" d="M56.1,192.1c0.2,0,0.5,0.1,0.7,0.2c0.2,0.1,0.4,0.3,0.6,0.4c0.3,0.4,0.5,0.9,0.5,1.6c0,1.1-0.3,1.9-1,2.2
					c-0.2,0.1-0.5,0.2-0.7,0.2c-0.5,0-0.9-0.1-1.1-0.4c-0.3-0.3-0.4-0.6-0.4-1h0.6c0,0.3,0.1,0.5,0.3,0.6c0.2,0.2,0.4,0.2,0.6,0.2
					s0.4,0,0.6-0.1c0.4-0.3,0.6-0.9,0.6-1.8c0-0.2,0-0.4,0-0.5c0,0.4-0.2,0.7-0.4,0.8s-0.5,0.3-0.9,0.3s-0.7-0.1-0.9-0.4
					c-0.3-0.3-0.4-0.6-0.4-1c0-0.4,0.1-0.7,0.4-1C55.3,192.2,55.7,192.1,56.1,192.1z M56.8,192.8c-0.2-0.2-0.4-0.2-0.7-0.2
					c-0.3,0-0.5,0.1-0.7,0.2c-0.2,0.2-0.3,0.4-0.3,0.6c0,0.3,0.1,0.5,0.3,0.6c0.2,0.2,0.4,0.2,0.7,0.2s0.5-0.1,0.7-0.2
					s0.3-0.4,0.3-0.6S56.9,193,56.8,192.8z"/>
				<path class="st5" d="M59.2,196.1h2.6v0.5h-3.1v-0.7c0-0.5,0.2-0.9,0.6-1.1c0.1-0.1,0.3-0.1,0.4-0.2l0.9-0.3
					c0.4-0.2,0.7-0.5,0.7-0.9c0-0.2-0.1-0.4-0.2-0.5c-0.2-0.1-0.4-0.2-0.6-0.2c-0.3,0-0.5,0.1-0.7,0.2c-0.2,0.1-0.3,0.3-0.3,0.5
					h-0.6c0-0.4,0.2-0.7,0.5-0.9c0.3-0.2,0.6-0.3,1.1-0.3c0.4,0,0.8,0.1,1.1,0.4c0.3,0.2,0.4,0.5,0.4,0.9c0,0.4-0.1,0.6-0.3,0.9
					s-0.4,0.4-0.8,0.5l-0.9,0.4c-0.2,0.1-0.4,0.2-0.5,0.3c-0.1,0.1-0.2,0.3-0.2,0.5V196.1z"/>
			</g>
			<g>
				<path class="st5" d="M129,192.1c0.2,0,0.5,0.1,0.7,0.2c0.2,0.1,0.4,0.3,0.6,0.4c0.3,0.4,0.5,0.9,0.5,1.6c0,1.1-0.3,1.9-1,2.2
					c-0.2,0.1-0.5,0.2-0.7,0.2c-0.5,0-0.9-0.1-1.1-0.4c-0.3-0.3-0.4-0.6-0.4-1h0.6c0,0.3,0.1,0.5,0.3,0.6c0.2,0.2,0.4,0.2,0.6,0.2
					s0.4,0,0.6-0.1c0.4-0.3,0.6-0.9,0.6-1.8c0-0.2,0-0.4,0-0.5c0,0.4-0.2,0.7-0.4,0.8s-0.5,0.3-0.9,0.3s-0.7-0.1-0.9-0.4
					c-0.3-0.3-0.4-0.6-0.4-1c0-0.4,0.1-0.7,0.4-1C128.2,192.2,128.6,192.1,129,192.1z M129.7,192.8c-0.2-0.2-0.4-0.2-0.7-0.2
					c-0.3,0-0.5,0.1-0.7,0.2c-0.2,0.2-0.3,0.4-0.3,0.6c0,0.3,0.1,0.5,0.3,0.6c0.2,0.2,0.4,0.2,0.7,0.2s0.5-0.1,0.7-0.2
					s0.3-0.4,0.3-0.6S129.8,193,129.7,192.8z"/>
				<path class="st5" d="M131.5,192.5c0.3,0,0.6-0.2,0.8-0.4h0.4v4.4h-0.5v-3.8c-0.2,0.1-0.5,0.2-0.7,0.2V192.5z"/>
			</g>
			<g>
				<path class="st5" d="M199.4,194.3c-0.6-0.3-0.9-0.6-0.9-1.1c0-0.4,0.1-0.6,0.4-0.8s0.7-0.3,1.2-0.3s0.9,0.1,1.2,0.3
					c0.3,0.2,0.5,0.5,0.5,0.9c0,0.2-0.1,0.5-0.2,0.7s-0.4,0.3-0.7,0.4l0.1,0c0.3,0.1,0.6,0.3,0.7,0.4s0.3,0.4,0.3,0.7
					c0,0.4-0.2,0.6-0.5,0.9c-0.3,0.2-0.7,0.3-1.3,0.3s-1-0.1-1.3-0.4c-0.3-0.2-0.5-0.5-0.5-0.9c0-0.3,0.1-0.5,0.3-0.7
					C198.9,194.5,199.1,194.4,199.4,194.3z M199.9,194.5c-0.3,0-0.5,0.1-0.7,0.3c-0.2,0.2-0.3,0.3-0.3,0.6c0,0.2,0.1,0.4,0.3,0.5
					c0.2,0.1,0.5,0.2,0.9,0.2c0.4,0,0.6-0.1,0.9-0.2c0.2-0.1,0.3-0.3,0.3-0.4s-0.1-0.3-0.2-0.4c-0.1-0.1-0.3-0.2-0.5-0.3
					L199.9,194.5z M199.1,193.3c0,0.1,0.1,0.2,0.2,0.3c0.1,0.1,0.3,0.2,0.4,0.2l0.5,0.2c0.3,0,0.5-0.1,0.7-0.2s0.3-0.3,0.3-0.5
					s-0.1-0.4-0.3-0.5c-0.2-0.1-0.4-0.2-0.7-0.2c-0.3,0-0.6,0.1-0.7,0.2C199.2,192.9,199.1,193.1,199.1,193.3z"/>
				<path class="st5" d="M205.3,193.3c-0.1-0.5-0.3-0.7-0.7-0.7c-0.4,0-0.7,0.2-1,0.5c-0.2,0.3-0.3,0.8-0.3,1.4c0,0.2,0,0.5,0,0.6
					c0-0.4,0.2-0.7,0.4-0.9c0.2-0.2,0.5-0.3,0.9-0.3c0.4,0,0.7,0.1,1,0.4s0.4,0.6,0.4,1s-0.1,0.7-0.4,1c-0.3,0.2-0.6,0.4-1.1,0.4
					c-0.5,0-0.9-0.2-1.3-0.6s-0.5-1-0.5-1.7s0.2-1.2,0.5-1.7c0.3-0.4,0.8-0.6,1.3-0.6c0.4,0,0.7,0.1,1,0.3c0.2,0.2,0.4,0.5,0.4,0.9
					H205.3z M204.4,194.4c-0.3,0-0.5,0.1-0.7,0.2c-0.2,0.2-0.3,0.4-0.3,0.6c0,0.3,0.1,0.5,0.3,0.6s0.4,0.2,0.7,0.2
					c0.3,0,0.5-0.1,0.7-0.2c0.2-0.2,0.3-0.4,0.3-0.6s-0.1-0.5-0.3-0.6C204.9,194.5,204.7,194.4,204.4,194.4z"/>
			</g>
			<g>
				<path class="st5" d="M273.3,193.3c-0.1-0.5-0.3-0.7-0.7-0.7c-0.4,0-0.7,0.2-1,0.5c-0.2,0.3-0.3,0.8-0.3,1.4c0,0.2,0,0.5,0,0.6
					c0-0.4,0.2-0.7,0.4-0.9c0.2-0.2,0.5-0.3,0.9-0.3c0.4,0,0.7,0.1,1,0.4s0.4,0.6,0.4,1s-0.1,0.7-0.4,1c-0.3,0.2-0.6,0.4-1.1,0.4
					c-0.5,0-0.9-0.2-1.3-0.6s-0.5-1-0.5-1.7s0.2-1.2,0.5-1.7c0.3-0.4,0.8-0.6,1.3-0.6c0.4,0,0.7,0.1,1,0.3c0.2,0.2,0.4,0.5,0.4,0.9
					H273.3z M272.4,194.4c-0.3,0-0.5,0.1-0.7,0.2c-0.2,0.2-0.3,0.4-0.3,0.6c0,0.3,0.1,0.5,0.3,0.6s0.4,0.2,0.7,0.2
					c0.3,0,0.5-0.1,0.7-0.2c0.2-0.2,0.3-0.4,0.3-0.6s-0.1-0.5-0.3-0.6C272.9,194.5,272.7,194.4,272.4,194.4z"/>
				<path class="st5" d="M277.3,192.1v2.9h0.8v0.5h-0.8v1.1h-0.5v-1.1h-2.3v-0.4l2.3-3H277.3z M275.1,195.1h1.6V193L275.1,195.1z"/>
			</g>
			<g>
				<path class="st4" d="M265,209.1h4v0.8h-4.9v-1c0-0.8,0.3-1.4,0.9-1.8c0.2-0.1,0.4-0.2,0.7-0.3l1.4-0.5c0.7-0.3,1.1-0.7,1.1-1.4
					c0-0.4-0.1-0.6-0.4-0.9s-0.6-0.3-1-0.3s-0.8,0.1-1.1,0.3c-0.3,0.2-0.4,0.5-0.5,0.8h-1c0-0.6,0.3-1.1,0.7-1.4
					c0.4-0.3,1-0.5,1.7-0.5s1.3,0.2,1.7,0.6c0.4,0.4,0.7,0.9,0.7,1.4c0,0.6-0.1,1-0.4,1.3c-0.3,0.3-0.7,0.6-1.2,0.8l-1.4,0.6
					c-0.4,0.1-0.6,0.3-0.8,0.5c-0.2,0.2-0.3,0.4-0.3,0.7V209.1z"/>
				<path class="st4" d="M273,202.9c0.8,0,1.5,0.3,2,0.9c0.5,0.6,0.7,1.5,0.7,2.7c0,1.2-0.2,2-0.7,2.7c-0.5,0.6-1.1,0.9-2,0.9
					s-1.5-0.3-2-0.9c-0.5-0.6-0.7-1.5-0.7-2.7c0-1.2,0.2-2.1,0.7-2.7C271.5,203.2,272.2,202.9,273,202.9z M274.8,206.4
					c0-0.9-0.2-1.6-0.5-2.1c-0.3-0.5-0.8-0.7-1.3-0.7c-0.6,0-1,0.2-1.3,0.7c-0.3,0.5-0.5,1.2-0.5,2.1c0,0.9,0.2,1.6,0.5,2.1
					c0.3,0.5,0.8,0.7,1.3,0.7c0.6,0,1-0.2,1.3-0.7C274.7,208,274.8,207.3,274.8,206.4z"/>
				<path class="st4" d="M276.8,203.5c0.5-0.1,0.9-0.3,1.3-0.6h0.7v6.9H278V204c-0.4,0.2-0.7,0.4-1.1,0.4V203.5z"/>
				<path class="st4" d="M284.9,203v0.8l-3.2,6.1h-1.2l3.3-6.1h-3.7V203H284.9z"/>
			</g>
			<g>
				<path class="st4" d="M192.3,209.1h4v0.8h-4.9v-1c0-0.8,0.3-1.4,0.9-1.8c0.2-0.1,0.4-0.2,0.7-0.3l1.4-0.5
					c0.7-0.3,1.1-0.7,1.1-1.4c0-0.4-0.1-0.6-0.4-0.9s-0.6-0.3-1-0.3s-0.8,0.1-1.1,0.3c-0.3,0.2-0.4,0.5-0.5,0.8h-1
					c0-0.6,0.3-1.1,0.7-1.4c0.4-0.3,1-0.5,1.7-0.5s1.3,0.2,1.7,0.6c0.4,0.4,0.7,0.9,0.7,1.4c0,0.6-0.1,1-0.4,1.3
					c-0.3,0.3-0.7,0.6-1.2,0.8l-1.4,0.6c-0.4,0.1-0.6,0.3-0.8,0.5c-0.2,0.2-0.3,0.4-0.3,0.7V209.1z"/>
				<path class="st4" d="M200.4,202.9c0.8,0,1.5,0.3,2,0.9c0.5,0.6,0.7,1.5,0.7,2.7c0,1.2-0.2,2-0.7,2.7c-0.5,0.6-1.1,0.9-2,0.9
					s-1.5-0.3-2-0.9c-0.5-0.6-0.7-1.5-0.7-2.7c0-1.2,0.2-2.1,0.7-2.7C198.9,203.2,199.6,202.9,200.4,202.9z M202.2,206.4
					c0-0.9-0.2-1.6-0.5-2.1c-0.3-0.5-0.8-0.7-1.3-0.7c-0.6,0-1,0.2-1.3,0.7c-0.3,0.5-0.5,1.2-0.5,2.1c0,0.9,0.2,1.6,0.5,2.1
					c0.3,0.5,0.8,0.7,1.3,0.7c0.6,0,1-0.2,1.3-0.7C202,208,202.2,207.3,202.2,206.4z"/>
				<path class="st4" d="M204.2,203.5c0.5-0.1,0.9-0.3,1.3-0.6h0.7v6.9h-0.9V204c-0.4,0.2-0.7,0.4-1.1,0.4V203.5z"/>
				<path class="st4" d="M212,204.7c-0.1-0.7-0.5-1.1-1.2-1.1s-1.2,0.3-1.5,0.8c-0.4,0.5-0.5,1.3-0.5,2.2c0,0.4,0,0.7,0.1,1
					c0-0.7,0.3-1.2,0.6-1.5c0.4-0.3,0.8-0.5,1.4-0.5s1.1,0.2,1.5,0.6s0.6,0.9,0.6,1.6c0,0.6-0.2,1.1-0.6,1.5c-0.4,0.4-1,0.6-1.7,0.6
					c-0.8,0-1.5-0.3-2-1c-0.5-0.7-0.8-1.5-0.8-2.6c0-1.1,0.3-1.9,0.8-2.6c0.5-0.7,1.2-1,2.1-1c0.6,0,1.1,0.2,1.5,0.5
					c0.4,0.3,0.6,0.8,0.7,1.4H212z M210.6,206.5c-0.4,0-0.8,0.1-1,0.4c-0.3,0.3-0.4,0.6-0.4,1s0.1,0.7,0.4,1c0.3,0.2,0.6,0.4,1,0.4
					s0.8-0.1,1-0.4s0.4-0.6,0.4-1c0-0.4-0.1-0.8-0.4-1S211,206.5,210.6,206.5z"/>
			</g>
			<g>
				<path class="st4" d="M120.4,209.1h4v0.8h-4.9v-1c0-0.8,0.3-1.4,0.9-1.8c0.2-0.1,0.4-0.2,0.7-0.3l1.4-0.5
					c0.7-0.3,1.1-0.7,1.1-1.4c0-0.4-0.1-0.6-0.4-0.9s-0.6-0.3-1-0.3s-0.8,0.1-1.1,0.3c-0.3,0.2-0.4,0.5-0.5,0.8h-1
					c0-0.6,0.3-1.1,0.7-1.4c0.4-0.3,1-0.5,1.7-0.5s1.3,0.2,1.7,0.6c0.4,0.4,0.7,0.9,0.7,1.4c0,0.6-0.1,1-0.4,1.3
					c-0.3,0.3-0.7,0.6-1.2,0.8l-1.4,0.6c-0.4,0.1-0.6,0.3-0.8,0.5c-0.2,0.2-0.3,0.4-0.3,0.7V209.1z"/>
				<path class="st4" d="M128.5,202.9c0.8,0,1.5,0.3,2,0.9c0.5,0.6,0.7,1.5,0.7,2.7c0,1.2-0.2,2-0.7,2.7c-0.5,0.6-1.1,0.9-2,0.9
					c-0.8,0-1.5-0.3-2-0.9c-0.5-0.6-0.7-1.5-0.7-2.7c0-1.2,0.2-2.1,0.7-2.7C127,203.2,127.7,202.9,128.5,202.9z M130.3,206.4
					c0-0.9-0.2-1.6-0.5-2.1c-0.3-0.5-0.8-0.7-1.3-0.7c-0.6,0-1,0.2-1.3,0.7c-0.3,0.5-0.5,1.2-0.5,2.1c0,0.9,0.2,1.6,0.5,2.1
					c0.3,0.5,0.8,0.7,1.3,0.7c0.6,0,1-0.2,1.3-0.7C130.2,208,130.3,207.3,130.3,206.4z"/>
				<path class="st4" d="M132.3,203.5c0.5-0.1,0.9-0.3,1.3-0.6h0.7v6.9h-0.9V204c-0.4,0.2-0.7,0.4-1.1,0.4V203.5z"/>
				<path class="st4" d="M140.1,207.7c0-0.9-0.6-1.3-1.7-1.3h-1.9l0.3-3.4h3.8v0.8h-3l-0.2,2c0.4-0.1,0.7-0.1,1.1-0.1
					c0.8,0,1.3,0.2,1.8,0.5s0.6,0.8,0.6,1.5s-0.2,1.2-0.7,1.7c-0.5,0.4-1,0.7-1.8,0.7s-1.3-0.2-1.8-0.5c-0.5-0.4-0.7-0.9-0.7-1.5
					h0.9c0,0.6,0.3,1,0.9,1.2c0.2,0.1,0.4,0.1,0.6,0.1c0.5,0,0.8-0.1,1.1-0.4C140,208.5,140.1,208.1,140.1,207.7z"/>
			</g>
			<g>
				<path class="st4" d="M48.4,209.1h4v0.8h-4.9v-1c0-0.8,0.3-1.4,0.9-1.8c0.2-0.1,0.4-0.2,0.7-0.3l1.4-0.5c0.7-0.3,1.1-0.7,1.1-1.4
					c0-0.4-0.1-0.6-0.4-0.9s-0.6-0.3-1-0.3s-0.8,0.1-1.1,0.3c-0.3,0.2-0.4,0.5-0.5,0.8h-1c0-0.6,0.3-1.1,0.7-1.4
					c0.4-0.3,1-0.5,1.7-0.5s1.3,0.2,1.7,0.6c0.4,0.4,0.7,0.9,0.7,1.4c0,0.6-0.1,1-0.4,1.3c-0.3,0.3-0.7,0.6-1.2,0.8l-1.4,0.6
					c-0.4,0.1-0.6,0.3-0.8,0.5c-0.2,0.2-0.3,0.4-0.3,0.7V209.1z"/>
				<path class="st4" d="M56.5,202.9c0.8,0,1.5,0.3,2,0.9c0.5,0.6,0.7,1.5,0.7,2.7c0,1.2-0.2,2-0.7,2.7c-0.5,0.6-1.1,0.9-2,0.9
					s-1.5-0.3-2-0.9c-0.5-0.6-0.7-1.5-0.7-2.7c0-1.2,0.2-2.1,0.7-2.7C55,203.2,55.7,202.9,56.5,202.9z M58.3,206.4
					c0-0.9-0.2-1.6-0.5-2.1c-0.3-0.5-0.8-0.7-1.3-0.7c-0.6,0-1,0.2-1.3,0.7c-0.3,0.5-0.5,1.2-0.5,2.1c0,0.9,0.2,1.6,0.5,2.1
					c0.3,0.5,0.8,0.7,1.3,0.7c0.6,0,1-0.2,1.3-0.7C58.2,208,58.3,207.3,58.3,206.4z"/>
				<path class="st4" d="M60.3,203.5c0.5-0.1,0.9-0.3,1.3-0.6h0.7v6.9h-0.9V204c-0.4,0.2-0.7,0.4-1.1,0.4V203.5z"/>
				<path class="st4" d="M68.1,202.9v4.6h1.2v0.7h-1.2v1.7h-0.8v-1.7h-3.6v-0.7l3.6-4.7H68.1z M64.7,207.6h2.6v-3.3L64.7,207.6z"/>
			</g>
			<g>
				<path class="st5" d="M57.6,167.2v0.5l-2,3.9h-0.7l2.1-3.9h-2.4v-0.5H57.6z"/>
				<path class="st5" d="M59.1,169.4c-0.6-0.3-0.9-0.6-0.9-1.1c0-0.4,0.1-0.6,0.4-0.8s0.7-0.3,1.2-0.3s0.9,0.1,1.2,0.3
					c0.3,0.2,0.5,0.5,0.5,0.9c0,0.2-0.1,0.5-0.2,0.7s-0.4,0.3-0.7,0.4l0.1,0c0.3,0.1,0.6,0.3,0.7,0.4s0.3,0.4,0.3,0.7
					c0,0.4-0.2,0.6-0.5,0.9c-0.3,0.2-0.7,0.3-1.3,0.3s-1-0.1-1.3-0.4c-0.3-0.2-0.5-0.5-0.5-0.9c0-0.3,0.1-0.5,0.3-0.7
					C58.6,169.6,58.8,169.5,59.1,169.4z M59.6,169.6c-0.3,0-0.5,0.1-0.7,0.3c-0.2,0.2-0.3,0.3-0.3,0.6c0,0.2,0.1,0.4,0.3,0.5
					c0.2,0.1,0.5,0.2,0.9,0.2c0.4,0,0.6-0.1,0.9-0.2c0.2-0.1,0.3-0.3,0.3-0.4s-0.1-0.3-0.2-0.4c-0.1-0.1-0.3-0.2-0.5-0.3L59.6,169.6
					z M58.8,168.4c0,0.1,0.1,0.2,0.2,0.3c0.1,0.1,0.3,0.2,0.4,0.2l0.5,0.2c0.3,0,0.5-0.1,0.7-0.2s0.3-0.3,0.3-0.5s-0.1-0.4-0.3-0.5
					c-0.2-0.1-0.4-0.2-0.7-0.2c-0.3,0-0.6,0.1-0.7,0.2C58.9,168,58.8,168.2,58.8,168.4z"/>
			</g>
			<g>
				<path class="st5" d="M129.8,167.2v0.5l-2,3.9H127l2.1-3.9h-2.4v-0.5H129.8z"/>
				<path class="st5" d="M132.9,170.2c0-0.6-0.4-0.8-1.1-0.8h-1.2l0.2-2.1h2.4v0.5h-1.9l-0.1,1.3c0.2,0,0.5-0.1,0.7-0.1
					c0.5,0,0.9,0.1,1.1,0.3c0.3,0.2,0.4,0.5,0.4,1s-0.1,0.8-0.4,1.1s-0.7,0.4-1.1,0.4s-0.8-0.1-1.1-0.3c-0.3-0.2-0.4-0.5-0.4-1h0.6
					c0,0.4,0.2,0.6,0.6,0.7c0.1,0,0.3,0,0.4,0c0.3,0,0.5-0.1,0.7-0.3C132.8,170.7,132.9,170.5,132.9,170.2z"/>
			</g>
			<g>
				<path class="st5" d="M201.6,168.5v0.5l-2,3.9h-0.7l2.1-3.9h-2.4v-0.5H201.6z"/>
				<path class="st5" d="M205.3,169.6c0,0.5-0.3,0.8-0.8,1c0.3,0.1,0.5,0.2,0.7,0.4c0.2,0.2,0.3,0.4,0.3,0.7c0,0.4-0.1,0.7-0.4,0.9
					s-0.7,0.4-1.2,0.4c-0.5,0-0.9-0.1-1.2-0.4c-0.3-0.2-0.5-0.6-0.5-1.1h0.6c0,0.3,0.1,0.5,0.3,0.7c0.2,0.2,0.5,0.2,0.8,0.2
					c0.3,0,0.6-0.1,0.8-0.2s0.3-0.4,0.3-0.6c0-0.2-0.1-0.4-0.3-0.6c-0.2-0.1-0.5-0.2-0.8-0.2h-0.5v-0.4h0.3c0.3,0,0.6-0.1,0.8-0.2
					c0.2-0.1,0.3-0.3,0.3-0.5s-0.1-0.4-0.2-0.6c-0.2-0.1-0.4-0.2-0.6-0.2c-0.3,0-0.5,0-0.7,0.1c-0.2,0.1-0.3,0.3-0.4,0.5h-0.6
					c0.1-0.4,0.2-0.7,0.5-0.9c0.3-0.2,0.6-0.3,1-0.3s0.8,0.1,1.1,0.3C205.1,169,205.3,169.3,205.3,169.6z"/>
			</g>
			<g>
				<path class="st5" d="M273.3,176.1c-0.1-0.5-0.3-0.7-0.7-0.7c-0.4,0-0.7,0.2-1,0.5c-0.2,0.3-0.3,0.8-0.3,1.4c0,0.2,0,0.5,0,0.6
					c0-0.4,0.2-0.7,0.4-0.9c0.2-0.2,0.5-0.3,0.9-0.3c0.4,0,0.7,0.1,1,0.4s0.4,0.6,0.4,1s-0.1,0.7-0.4,1c-0.3,0.2-0.6,0.4-1.1,0.4
					c-0.5,0-0.9-0.2-1.3-0.6s-0.5-1-0.5-1.7s0.2-1.2,0.5-1.7c0.3-0.4,0.8-0.6,1.3-0.6c0.4,0,0.7,0.1,1,0.3c0.2,0.2,0.4,0.5,0.4,0.9
					H273.3z M272.4,177.2c-0.3,0-0.5,0.1-0.7,0.2c-0.2,0.2-0.3,0.4-0.3,0.6c0,0.3,0.1,0.5,0.3,0.6s0.4,0.2,0.7,0.2
					c0.3,0,0.5-0.1,0.7-0.2c0.2-0.2,0.3-0.4,0.3-0.6s-0.1-0.5-0.3-0.6C272.9,177.3,272.7,177.2,272.4,177.2z"/>
				<path class="st5" d="M277.3,174.9v2.9h0.8v0.5h-0.8v1.1h-0.5v-1.1h-2.3v-0.4l2.3-3H277.3z M275.1,177.9h1.6v-2.1L275.1,177.9z"
					/>
			</g>
			<g>
				<path class="st3" d="M55.5,147.1c-0.6-0.3-0.9-0.6-0.9-1.1c0-0.4,0.1-0.6,0.4-0.8s0.7-0.3,1.2-0.3s0.9,0.1,1.2,0.3
					c0.3,0.2,0.5,0.5,0.5,0.9c0,0.2-0.1,0.5-0.2,0.7s-0.4,0.3-0.7,0.4l0.1,0c0.3,0.1,0.6,0.3,0.7,0.4s0.3,0.4,0.3,0.7
					c0,0.4-0.2,0.6-0.5,0.9c-0.3,0.2-0.7,0.3-1.3,0.3s-1-0.1-1.3-0.4c-0.3-0.2-0.5-0.5-0.5-0.9c0-0.3,0.1-0.5,0.3-0.7
					C54.9,147.3,55.2,147.2,55.5,147.1z M56,147.3c-0.3,0-0.5,0.1-0.7,0.3c-0.2,0.2-0.3,0.3-0.3,0.6c0,0.2,0.1,0.4,0.3,0.5
					c0.2,0.1,0.5,0.2,0.9,0.2c0.4,0,0.6-0.1,0.9-0.2c0.2-0.1,0.3-0.3,0.3-0.4s-0.1-0.3-0.2-0.4c-0.1-0.1-0.3-0.2-0.5-0.3L56,147.3z
					 M55.2,146.1c0,0.1,0.1,0.2,0.2,0.3c0.1,0.1,0.3,0.2,0.4,0.2l0.5,0.2c0.3,0,0.5-0.1,0.7-0.2s0.3-0.3,0.3-0.5s-0.1-0.4-0.3-0.5
					c-0.2-0.1-0.4-0.2-0.7-0.2c-0.3,0-0.6,0.1-0.7,0.2C55.3,145.7,55.2,145.9,55.2,146.1z"/>
				<path class="st3" d="M61.4,147.9c0-0.6-0.4-0.8-1.1-0.8h-1.2l0.2-2.1h2.4v0.5h-1.9l-0.1,1.3c0.2,0,0.5-0.1,0.7-0.1
					c0.5,0,0.9,0.1,1.1,0.3c0.3,0.2,0.4,0.5,0.4,1s-0.1,0.8-0.4,1.1s-0.7,0.4-1.1,0.4s-0.8-0.1-1.1-0.3c-0.3-0.2-0.4-0.5-0.4-1h0.6
					c0,0.4,0.2,0.6,0.6,0.7c0.1,0,0.3,0,0.4,0c0.3,0,0.5-0.1,0.7-0.3C61.3,148.4,61.4,148.2,61.4,147.9z"/>
			</g>
			<g>
				<path class="st3" d="M129.8,146.6v0.5l-2,3.9H127l2.1-3.9h-2.4v-0.5H129.8z"/>
				<path class="st3" d="M132.9,149.6c0-0.6-0.4-0.8-1.1-0.8h-1.2l0.2-2.1h2.4v0.5h-1.9l-0.1,1.3c0.2,0,0.5-0.1,0.7-0.1
					c0.5,0,0.9,0.1,1.1,0.3c0.3,0.2,0.4,0.5,0.4,1s-0.1,0.8-0.4,1.1s-0.7,0.4-1.1,0.4s-0.8-0.1-1.1-0.3c-0.3-0.2-0.4-0.5-0.4-1h0.6
					c0,0.4,0.2,0.6,0.6,0.7c0.1,0,0.3,0,0.4,0c0.3,0,0.5-0.1,0.7-0.3C132.8,150.1,132.9,149.9,132.9,149.6z"/>
			</g>
			<g>
				<path class="st3" d="M199.8,149.9c-0.6-0.3-0.9-0.6-0.9-1.1c0-0.4,0.1-0.6,0.4-0.8s0.7-0.3,1.2-0.3s0.9,0.1,1.2,0.3
					c0.3,0.2,0.5,0.5,0.5,0.9c0,0.2-0.1,0.5-0.2,0.7s-0.4,0.3-0.7,0.4l0.1,0c0.3,0.1,0.6,0.3,0.7,0.4s0.3,0.4,0.3,0.7
					c0,0.4-0.2,0.6-0.5,0.9c-0.3,0.2-0.7,0.3-1.3,0.3s-1-0.1-1.3-0.4c-0.3-0.2-0.5-0.5-0.5-0.9c0-0.3,0.1-0.5,0.3-0.7
					C199.2,150.1,199.5,150,199.8,149.9z M200.3,150.2c-0.3,0-0.5,0.1-0.7,0.3c-0.2,0.2-0.3,0.3-0.3,0.6s0.1,0.4,0.3,0.5
					c0.2,0.1,0.5,0.2,0.9,0.2c0.4,0,0.6-0.1,0.9-0.2c0.2-0.1,0.3-0.3,0.3-0.4c0-0.2-0.1-0.3-0.2-0.4c-0.1-0.1-0.3-0.2-0.5-0.3
					L200.3,150.2z M199.5,148.9c0,0.1,0.1,0.2,0.2,0.3c0.1,0.1,0.3,0.2,0.4,0.2l0.5,0.2c0.3,0,0.5-0.1,0.7-0.2s0.3-0.3,0.3-0.5
					s-0.1-0.4-0.3-0.5c-0.2-0.1-0.4-0.2-0.7-0.2c-0.3,0-0.6,0.1-0.7,0.2C199.6,148.5,199.5,148.7,199.5,148.9z"/>
				<path class="st3" d="M205.8,147.8v0.5l-2,3.9h-0.7l2.1-3.9h-2.4v-0.5H205.8z"/>
			</g>
			<g>
				<path class="st3" d="M269.3,155.2c0.3,0,0.6-0.2,0.8-0.4h0.4v4.4H270v-3.8c-0.2,0.1-0.5,0.2-0.7,0.2V155.2z"/>
				<path class="st3" d="M273.4,154.7c0.5,0,1,0.2,1.3,0.6c0.3,0.4,0.5,1,0.5,1.7c0,0.7-0.2,1.3-0.5,1.7c-0.3,0.4-0.7,0.6-1.3,0.6
					s-1-0.2-1.3-0.6s-0.5-1-0.5-1.7s0.2-1.3,0.5-1.7C272.4,154.9,272.9,154.7,273.4,154.7z M274.5,157c0-0.6-0.1-1-0.3-1.3
					c-0.2-0.3-0.5-0.5-0.9-0.5c-0.4,0-0.7,0.2-0.9,0.5c-0.2,0.3-0.3,0.7-0.3,1.3c0,0.6,0.1,1,0.3,1.3c0.2,0.3,0.5,0.5,0.9,0.5
					c0.4,0,0.7-0.2,0.9-0.5C274.4,158,274.5,157.6,274.5,157z"/>
				<path class="st3" d="M276.5,158.7h2.6v0.5h-3.1v-0.7c0-0.5,0.2-0.9,0.6-1.1c0.1-0.1,0.3-0.1,0.4-0.2l0.9-0.3
					c0.4-0.2,0.7-0.5,0.7-0.9c0-0.2-0.1-0.4-0.2-0.5c-0.2-0.1-0.4-0.2-0.6-0.2c-0.3,0-0.5,0.1-0.7,0.2c-0.2,0.1-0.3,0.3-0.3,0.5H276
					c0-0.4,0.2-0.7,0.5-0.9c0.3-0.2,0.6-0.3,1.1-0.3c0.4,0,0.8,0.1,1.1,0.4c0.3,0.2,0.4,0.5,0.4,0.9c0,0.4-0.1,0.6-0.3,0.9
					s-0.4,0.4-0.8,0.5l-0.9,0.4c-0.2,0.1-0.4,0.2-0.5,0.3c-0.1,0.1-0.2,0.3-0.2,0.5V158.7z"/>
			</g>
			<g>
				<path class="st3" d="M53.2,124.1h2.6v0.5h-3.1v-0.7c0-0.5,0.2-0.9,0.6-1.1c0.1-0.1,0.3-0.1,0.4-0.2l0.9-0.3
					c0.4-0.2,0.7-0.5,0.7-0.9c0-0.2-0.1-0.4-0.2-0.5c-0.2-0.1-0.4-0.2-0.6-0.2c-0.3,0-0.5,0.1-0.7,0.2c-0.2,0.1-0.3,0.3-0.3,0.5
					h-0.6c0-0.4,0.2-0.7,0.5-0.9c0.3-0.2,0.6-0.3,1.1-0.3c0.4,0,0.8,0.1,1.1,0.4c0.3,0.2,0.4,0.5,0.4,0.9c0,0.4-0.1,0.6-0.3,0.9
					s-0.4,0.4-0.8,0.5l-0.9,0.4c-0.2,0.1-0.4,0.2-0.5,0.3c-0.1,0.1-0.2,0.3-0.2,0.5V124.1z"/>
				<path class="st3" d="M59.3,123.1c0-0.6-0.4-0.8-1.1-0.8H57l0.2-2.1h2.4v0.5h-1.9l-0.1,1.3c0.2,0,0.5-0.1,0.7-0.1
					c0.5,0,0.9,0.1,1.1,0.3c0.3,0.2,0.4,0.5,0.4,1s-0.1,0.8-0.4,1.1s-0.7,0.4-1.1,0.4s-0.8-0.1-1.1-0.3c-0.3-0.2-0.4-0.5-0.4-1h0.6
					c0,0.4,0.2,0.6,0.6,0.7c0.1,0,0.3,0,0.4,0c0.3,0,0.5-0.1,0.7-0.3C59.2,123.7,59.3,123.4,59.3,123.1z"/>
				<path class="st3" d="M63.2,123.1c0-0.6-0.4-0.8-1.1-0.8H61l0.2-2.1h2.4v0.5h-1.9l-0.1,1.3c0.2,0,0.5-0.1,0.7-0.1
					c0.5,0,0.9,0.1,1.1,0.3c0.3,0.2,0.4,0.5,0.4,1s-0.1,0.8-0.4,1.1s-0.7,0.4-1.1,0.4s-0.8-0.1-1.1-0.3c-0.3-0.2-0.4-0.5-0.4-1h0.6
					c0,0.4,0.2,0.6,0.6,0.7c0.1,0,0.3,0,0.4,0c0.3,0,0.5-0.1,0.7-0.3C63.1,123.7,63.2,123.4,63.2,123.1z"/>
			</g>
			<g>
				<path class="st3" d="M126.1,129.1h2.6v0.5h-3.1v-0.7c0-0.5,0.2-0.9,0.6-1.1c0.1-0.1,0.3-0.1,0.4-0.2l0.9-0.3
					c0.4-0.2,0.7-0.5,0.7-0.9c0-0.2-0.1-0.4-0.2-0.5c-0.2-0.1-0.4-0.2-0.6-0.2c-0.3,0-0.5,0.1-0.7,0.2c-0.2,0.1-0.3,0.3-0.3,0.5
					h-0.6c0-0.4,0.2-0.7,0.5-0.9c0.3-0.2,0.6-0.3,1.1-0.3c0.4,0,0.8,0.1,1.1,0.4c0.3,0.2,0.4,0.5,0.4,0.9c0,0.4-0.1,0.6-0.3,0.9
					s-0.4,0.4-0.8,0.5l-0.9,0.4c-0.2,0.1-0.4,0.2-0.5,0.3c-0.1,0.1-0.2,0.3-0.2,0.5V129.1z"/>
				<path class="st3" d="M132.2,125.1v2.9h0.8v0.5h-0.8v1.1h-0.5v-1.1h-2.3v-0.4l2.3-3H132.2z M130,128.1h1.6V126L130,128.1z"/>
				<path class="st3" d="M133.4,125.5c0.3,0,0.6-0.2,0.8-0.4h0.4v4.4h-0.5v-3.8c-0.2,0.1-0.5,0.2-0.7,0.2V125.5z"/>
			</g>
			<g>
				<path class="st3" d="M197.2,127h2.6v0.5h-3.1v-0.7c0-0.5,0.2-0.9,0.6-1.1c0.1-0.1,0.3-0.1,0.4-0.2l0.9-0.3
					c0.4-0.2,0.7-0.5,0.7-0.9c0-0.2-0.1-0.4-0.2-0.5c-0.2-0.1-0.4-0.2-0.6-0.2c-0.3,0-0.5,0.1-0.7,0.2c-0.2,0.1-0.3,0.3-0.3,0.5
					h-0.6c0-0.4,0.2-0.7,0.5-0.9c0.3-0.2,0.6-0.3,1.1-0.3c0.4,0,0.8,0.1,1.1,0.4c0.3,0.2,0.4,0.5,0.4,0.9c0,0.4-0.1,0.6-0.3,0.9
					s-0.4,0.4-0.8,0.5l-0.9,0.4c-0.2,0.1-0.4,0.2-0.5,0.3c-0.1,0.1-0.2,0.3-0.2,0.5V127z"/>
				<path class="st3" d="M203.2,123v2.9h0.8v0.5h-0.8v1.1h-0.5v-1.1h-2.3V126l2.3-3H203.2z M201.1,126h1.6v-2.1L201.1,126z"/>
				<path class="st3" d="M207.1,124.2c-0.1-0.5-0.3-0.7-0.7-0.7c-0.4,0-0.7,0.2-1,0.5c-0.2,0.3-0.3,0.8-0.3,1.4c0,0.2,0,0.5,0,0.6
					c0-0.4,0.2-0.7,0.4-0.9c0.2-0.2,0.5-0.3,0.9-0.3c0.4,0,0.7,0.1,1,0.4s0.4,0.6,0.4,1s-0.1,0.7-0.4,1c-0.3,0.2-0.6,0.4-1.1,0.4
					c-0.5,0-0.9-0.2-1.3-0.6s-0.5-1-0.5-1.7s0.2-1.2,0.5-1.7c0.3-0.4,0.8-0.6,1.3-0.6c0.4,0,0.7,0.1,1,0.3c0.2,0.2,0.4,0.5,0.4,0.9
					H207.1z M206.3,125.3c-0.3,0-0.5,0.1-0.7,0.2c-0.2,0.2-0.3,0.4-0.3,0.6c0,0.3,0.1,0.5,0.3,0.6s0.4,0.2,0.7,0.2
					c0.3,0,0.5-0.1,0.7-0.2c0.2-0.2,0.3-0.4,0.3-0.6s-0.1-0.5-0.3-0.6C206.7,125.4,206.5,125.3,206.3,125.3z"/>
			</g>
			<g>
				<path class="st3" d="M269.1,132h2.6v0.5h-3.1v-0.7c0-0.5,0.2-0.9,0.6-1.1c0.1-0.1,0.3-0.1,0.4-0.2l0.9-0.3
					c0.4-0.2,0.7-0.5,0.7-0.9c0-0.2-0.1-0.4-0.2-0.5c-0.2-0.1-0.4-0.2-0.6-0.2c-0.3,0-0.5,0.1-0.7,0.2c-0.2,0.1-0.3,0.3-0.3,0.5
					h-0.6c0-0.4,0.2-0.7,0.5-0.9c0.3-0.2,0.6-0.3,1.1-0.3c0.4,0,0.8,0.1,1.1,0.4c0.3,0.2,0.4,0.5,0.4,0.9c0,0.4-0.1,0.6-0.3,0.9
					s-0.4,0.4-0.8,0.5l-0.9,0.4c-0.2,0.1-0.4,0.2-0.5,0.3c-0.1,0.1-0.2,0.3-0.2,0.5V132z"/>
				<path class="st3" d="M275.7,129.2c0,0.5-0.3,0.8-0.8,1c0.3,0.1,0.5,0.2,0.7,0.4c0.2,0.2,0.3,0.4,0.3,0.7c0,0.4-0.1,0.7-0.4,0.9
					s-0.7,0.4-1.2,0.4c-0.5,0-0.9-0.1-1.2-0.4c-0.3-0.2-0.5-0.6-0.5-1.1h0.6c0,0.3,0.1,0.5,0.3,0.7c0.2,0.2,0.5,0.2,0.8,0.2
					c0.3,0,0.6-0.1,0.8-0.2s0.3-0.4,0.3-0.6c0-0.2-0.1-0.4-0.3-0.6c-0.2-0.1-0.5-0.2-0.8-0.2h-0.5V130h0.3c0.3,0,0.6-0.1,0.8-0.2
					c0.2-0.1,0.3-0.3,0.3-0.5s-0.1-0.4-0.2-0.6c-0.2-0.1-0.4-0.2-0.6-0.2c-0.3,0-0.5,0-0.7,0.1c-0.2,0.1-0.3,0.3-0.4,0.5h-0.6
					c0.1-0.4,0.2-0.7,0.5-0.9c0.3-0.2,0.6-0.3,1-0.3s0.8,0.1,1.1,0.3C275.5,128.6,275.7,128.9,275.7,129.2z"/>
				<path class="st3" d="M278.4,128c0.5,0,1,0.2,1.3,0.6c0.3,0.4,0.5,1,0.5,1.7c0,0.7-0.2,1.3-0.5,1.7c-0.3,0.4-0.7,0.6-1.3,0.6
					s-1-0.2-1.3-0.6s-0.5-1-0.5-1.7s0.2-1.3,0.5-1.7C277.4,128.2,277.8,128,278.4,128z M279.5,130.3c0-0.6-0.1-1-0.3-1.3
					c-0.2-0.3-0.5-0.5-0.9-0.5c-0.4,0-0.7,0.2-0.9,0.5c-0.2,0.3-0.3,0.7-0.3,1.3c0,0.6,0.1,1,0.3,1.3c0.2,0.3,0.5,0.5,0.9,0.5
					c0.4,0,0.7-0.2,0.9-0.5C279.4,131.3,279.5,130.9,279.5,130.3z"/>
			</g>
			<g>
				<polygon class="st5" points="331.2,110.1 322.4,125.3 340,125.3 				"/>
				<g>
					<path d="M346.8,118.4h5.4v0.7h-2.3v6.2H349v-6.2h-2.3V118.4z"/>
					<path d="M354.4,120c0.7,0,1.3,0.2,1.8,0.7s0.7,1.2,0.7,2c0,0.9-0.2,1.6-0.7,2c-0.5,0.5-1,0.7-1.8,0.7s-1.3-0.2-1.8-0.7
						c-0.5-0.5-0.7-1.2-0.7-2c0-0.9,0.2-1.6,0.7-2S353.6,120,354.4,120z M355.9,122.7c0-0.6-0.1-1.1-0.4-1.5
						c-0.3-0.4-0.7-0.5-1.2-0.5s-0.9,0.2-1.2,0.5s-0.4,0.8-0.4,1.5c0,0.6,0.1,1.1,0.4,1.5c0.3,0.4,0.6,0.5,1.1,0.5s0.9-0.2,1.2-0.5
						C355.8,123.8,355.9,123.3,355.9,122.7z"/>
					<path d="M361.2,125.2c-0.6,0.3-1.2,0.4-1.7,0.2c-0.4-0.1-0.6-0.4-0.8-0.7c-0.1-0.2-0.1-0.4-0.1-0.7v-3.2h-0.8v-0.7h0.8v-1.5
						h0.9v1.5h1.6v0.7h-1.6v3.2c0,0.5,0.2,0.8,0.7,0.8c0.3,0,0.6-0.1,0.9-0.2L361.2,125.2z"/>
					<path d="M365.9,121.9c0-0.5-0.1-0.8-0.3-1c-0.2-0.2-0.5-0.3-0.9-0.3c-0.4,0-0.7,0.1-0.9,0.2c-0.2,0.2-0.3,0.4-0.3,0.7h-1
						c0-0.8,0.4-1.3,1.3-1.5c0.3-0.1,0.5-0.1,0.9-0.1c0.7,0,1.2,0.2,1.5,0.5c0.4,0.3,0.5,0.8,0.5,1.5v3.4H366l-0.1-0.9
						c-0.3,0.7-0.9,1-1.7,1c-0.6,0-1-0.2-1.4-0.5c-0.3-0.3-0.5-0.7-0.5-1.2s0.2-0.8,0.6-1.1c0.4-0.3,0.8-0.4,1.4-0.4
						s1.1,0.1,1.6,0.3V121.9z M365.9,123.2c-0.5-0.1-1-0.2-1.4-0.2s-0.7,0.1-0.9,0.2c-0.2,0.1-0.4,0.4-0.4,0.7c0,0.7,0.4,1,1.1,1
						c0.4,0,0.8-0.2,1.1-0.5C365.7,124,365.9,123.6,365.9,123.2z"/>
					<path d="M368.8,117.9h0.9v7.5h-0.9V117.9z"/>
				</g>
			</g>
			<g>
				<polygon class="st4" points="331.2,134.3 322.4,149.6 340,149.6 				"/>
				<g>
					<path d="M351.5,144.4c-0.1-0.7-0.6-1-1.5-1c-0.5,0-0.8,0.1-1.1,0.3c-0.3,0.2-0.4,0.4-0.4,0.7c0,0.3,0.1,0.5,0.2,0.6
						c0.2,0.1,0.4,0.3,0.7,0.4l1.4,0.5c0.5,0.2,0.9,0.4,1.2,0.7c0.3,0.3,0.4,0.7,0.4,1.2c0,0.5-0.2,1-0.7,1.3
						c-0.5,0.4-1.1,0.5-1.8,0.5s-1.4-0.2-1.9-0.6c-0.5-0.4-0.7-0.9-0.8-1.6h0.8c0,0.5,0.2,0.8,0.5,1c0.3,0.2,0.7,0.4,1.2,0.4
						s0.9-0.1,1.2-0.3s0.4-0.5,0.4-0.8s-0.1-0.5-0.3-0.7c-0.2-0.2-0.4-0.3-0.8-0.4l-1.2-0.5c-0.6-0.2-1-0.4-1.3-0.7
						c-0.3-0.3-0.4-0.7-0.4-1.2s0.2-0.9,0.6-1.3c0.4-0.3,1-0.5,1.7-0.5c0.7,0,1.3,0.2,1.7,0.5c0.4,0.3,0.6,0.8,0.7,1.3H351.5z"/>
					<path d="M358.1,148.5c-0.4,0.8-0.9,1.1-1.7,1.1c-0.6,0-1.1-0.2-1.4-0.5c-0.4-0.3-0.5-0.8-0.5-1.5v-3.3h0.9v3.3
						c0,0.9,0.4,1.3,1.2,1.3c0.5,0,0.9-0.2,1.2-0.5s0.5-0.8,0.5-1.4v-2.7h0.9v5.3h-0.9V148.5z"/>
					<path d="M361.6,143.1c-0.2,0-0.3,0-0.4-0.1s-0.1-0.2-0.1-0.4s0-0.3,0.1-0.4s0.2-0.1,0.4-0.1c0.2,0,0.3,0,0.4,0.1
						s0.2,0.2,0.2,0.4s-0.1,0.3-0.2,0.4S361.8,143.1,361.6,143.1z M361.2,144.3h0.9v5.3h-0.9V144.3z"/>
					<path d="M364.5,144.3l1.6,4.3l1.6-4.3h1l-2.1,5.3h-1l-2.1-5.3H364.5z"/>
					<path d="M370.5,143.1c-0.2,0-0.3,0-0.4-0.1s-0.1-0.2-0.1-0.4s0-0.3,0.1-0.4s0.2-0.1,0.4-0.1c0.2,0,0.3,0,0.4,0.1
						s0.2,0.2,0.2,0.4s-0.1,0.3-0.2,0.4S370.6,143.1,370.5,143.1z M370,144.3h0.9v5.3H370V144.3z"/>
					<path d="M373.5,144.6c0.4-0.3,0.9-0.4,1.5-0.4c0.6,0,1.1,0.1,1.5,0.4c0.4,0.3,0.5,0.6,0.6,1h-0.8c-0.1-0.5-0.5-0.7-1.2-0.7
						c-0.4,0-0.6,0.1-0.8,0.2c-0.2,0.2-0.3,0.3-0.3,0.5s0.1,0.3,0.2,0.5c0.1,0.1,0.4,0.2,0.7,0.3l1.1,0.4c0.4,0.1,0.8,0.3,1,0.5
						s0.4,0.5,0.4,0.9c0,0.4-0.2,0.7-0.6,1s-0.9,0.5-1.6,0.5c-0.7,0-1.2-0.2-1.6-0.5c-0.4-0.3-0.6-0.7-0.6-1.2h0.8
						c0,0.3,0.1,0.6,0.4,0.7s0.6,0.2,1,0.2c0.4,0,0.7-0.1,0.9-0.2c0.2-0.2,0.4-0.4,0.4-0.6s-0.1-0.4-0.2-0.5
						c-0.1-0.1-0.4-0.2-0.7-0.3l-1-0.3c-0.9-0.3-1.4-0.7-1.4-1.4C373,145.2,373.2,144.8,373.5,144.6z"/>
				</g>
			</g>
			<g>
				<polygon class="st2" points="331.2,158.5 322.4,173.8 340,173.8 				"/>
				<g>
					<path d="M352.6,168.9c0,0.6-0.2,1-0.5,1.4c-0.3,0.4-0.8,0.6-1.3,0.7l2,2.9h-1.1l-1.8-2.8h-1.2v2.8h-0.9v-6.9h2.4
						c0.8,0,1.4,0.2,1.8,0.6S352.6,168.3,352.6,168.9z M350.2,170.4c0.5,0,0.9-0.1,1.2-0.4s0.4-0.6,0.4-1c0-0.4-0.1-0.7-0.4-1
						c-0.3-0.2-0.6-0.4-1.1-0.4h-1.5v2.7H350.2z"/>
					<path d="M356.4,173.2c0.7,0,1.1-0.3,1.2-1h0.9c-0.1,0.5-0.3,0.9-0.7,1.2s-0.9,0.4-1.4,0.4c-0.7,0-1.3-0.3-1.7-0.8
						s-0.7-1.2-0.7-2s0.2-1.5,0.7-2c0.4-0.5,1-0.7,1.8-0.7s1.3,0.3,1.7,0.9c0.4,0.6,0.5,1.3,0.4,2.1h-3.6c0,0.5,0.1,1,0.4,1.3
						C355.5,173.1,355.9,173.2,356.4,173.2z M357,169.3c-0.2-0.1-0.4-0.1-0.6-0.1c-0.4,0-0.8,0.2-1.1,0.5c-0.3,0.3-0.4,0.7-0.5,1.1
						h2.8C357.7,170,357.5,169.5,357,169.3z"/>
					<path d="M362,168.4c0.6,0,1.1,0.2,1.5,0.5c0.4,0.3,0.6,0.7,0.7,1.2l-0.9,0.1c-0.1-0.3-0.2-0.5-0.5-0.7s-0.4-0.3-0.7-0.3
						c-0.5,0-0.8,0.2-1.1,0.5c-0.3,0.4-0.4,0.8-0.4,1.4c0,0.6,0.1,1.1,0.4,1.5c0.3,0.4,0.6,0.6,1.1,0.6c0.4,0,0.7-0.1,0.9-0.3
						s0.3-0.5,0.3-0.8h0.9c0,0.6-0.2,1-0.6,1.4s-0.9,0.5-1.5,0.5c-0.7,0-1.2-0.3-1.7-0.8c-0.5-0.5-0.7-1.2-0.7-2
						c0-0.8,0.2-1.5,0.7-2S361.4,168.4,362,168.4z"/>
					<path d="M366.8,169.5c0.4-0.7,0.9-1.1,1.7-1.1c0.6,0,1.1,0.2,1.5,0.6s0.5,1,0.5,1.7v3.1h-0.9v-3.1c0-0.5-0.1-0.9-0.4-1.1
						s-0.6-0.4-1-0.4s-0.8,0.2-1.1,0.6c-0.3,0.4-0.4,0.9-0.4,1.6v2.5h-0.9v-7.5h0.9V169.5z"/>
					<path d="M374.4,173.2c0.7,0,1.1-0.3,1.2-1h0.9c-0.1,0.5-0.3,0.9-0.7,1.2s-0.9,0.4-1.4,0.4c-0.7,0-1.3-0.3-1.7-0.8
						s-0.7-1.2-0.7-2s0.2-1.5,0.7-2c0.4-0.5,1-0.7,1.8-0.7s1.3,0.3,1.7,0.9c0.4,0.6,0.5,1.3,0.4,2.1h-3.6c0,0.5,0.1,1,0.4,1.3
						C373.5,173.1,373.9,173.2,374.4,173.2z M375,169.3c-0.2-0.1-0.4-0.1-0.6-0.1c-0.4,0-0.8,0.2-1.1,0.5c-0.3,0.3-0.4,0.7-0.5,1.1
						h2.8C375.7,170,375.4,169.5,375,169.3z"/>
					<path d="M380.4,169.3c-0.8,0-1.3,0.7-1.3,2v2.6h-0.9v-5.3h0.9v1c0.3-0.7,0.7-1.1,1.4-1.1c0.2,0,0.4,0,0.6,0.1l0,0.8
						C380.8,169.3,380.6,169.3,380.4,169.3z"/>
					<path d="M384.2,168.4c0.6,0,1.1,0.2,1.5,0.5c0.4,0.3,0.6,0.7,0.7,1.2l-0.9,0.1c-0.1-0.3-0.2-0.5-0.5-0.7s-0.4-0.3-0.7-0.3
						c-0.5,0-0.8,0.2-1.1,0.5c-0.3,0.4-0.4,0.8-0.4,1.4c0,0.6,0.1,1.1,0.4,1.5c0.3,0.4,0.6,0.6,1.1,0.6c0.4,0,0.7-0.1,0.9-0.3
						s0.3-0.5,0.3-0.8h0.9c0,0.6-0.2,1-0.6,1.4s-0.9,0.5-1.5,0.5c-0.7,0-1.2-0.3-1.7-0.8c-0.5-0.5-0.7-1.2-0.7-2
						c0-0.8,0.2-1.5,0.7-2S383.5,168.4,384.2,168.4z"/>
					<path d="M388.9,169.5c0.4-0.7,0.9-1.1,1.7-1.1c0.6,0,1.1,0.2,1.5,0.6s0.5,1,0.5,1.7v3.1h-0.9v-3.1c0-0.5-0.1-0.9-0.4-1.1
						s-0.6-0.4-1-0.4s-0.8,0.2-1.1,0.6c-0.3,0.4-0.4,0.9-0.4,1.6v2.5h-0.9v-7.5h0.9V169.5z"/>
					<path d="M396.5,173.2c0.7,0,1.1-0.3,1.2-1h0.9c-0.1,0.5-0.3,0.9-0.7,1.2s-0.9,0.4-1.4,0.4c-0.7,0-1.3-0.3-1.7-0.8
						s-0.7-1.2-0.7-2s0.2-1.5,0.7-2c0.4-0.5,1-0.7,1.8-0.7s1.3,0.3,1.7,0.9c0.4,0.6,0.5,1.3,0.4,2.1H395c0,0.5,0.1,1,0.4,1.3
						C395.7,173.1,396,173.2,396.5,173.2z M397.2,169.3c-0.2-0.1-0.4-0.1-0.6-0.1c-0.4,0-0.8,0.2-1.1,0.5c-0.3,0.3-0.4,0.7-0.5,1.1
						h2.8C397.8,170,397.6,169.5,397.2,169.3z"/>
				</g>
			</g>
			<g>
				<polygon class="st3" points="331.2,182.8 322.4,198.1 340,198.1 				"/>
				<g>
					<path d="M347.8,191.1h0.9v6.9h-0.9V191.1z"/>
					<path d="M351.7,193.8c0.3-0.8,0.9-1.1,1.8-1.1c0.6,0,1.1,0.2,1.5,0.6c0.3,0.4,0.5,1,0.5,1.7v3.1h-0.9V195
						c0-0.5-0.1-0.9-0.4-1.1s-0.6-0.4-1-0.4c-0.4,0-0.8,0.2-1.1,0.5c-0.3,0.4-0.4,0.9-0.4,1.5v2.6h-0.9v-5.3h0.7L351.7,193.8z"/>
					<path d="M357.6,192.8l1.6,4.3l1.6-4.3h1l-2.1,5.3h-1l-2.1-5.3H357.6z"/>
					<path d="M364.9,197.5c0.7,0,1.1-0.3,1.2-1h0.9c-0.1,0.5-0.3,0.9-0.7,1.2s-0.9,0.4-1.4,0.4c-0.7,0-1.3-0.3-1.7-0.8
						s-0.7-1.2-0.7-2s0.2-1.5,0.7-2c0.4-0.5,1-0.7,1.8-0.7s1.3,0.3,1.7,0.9c0.4,0.6,0.5,1.3,0.4,2.1h-3.6c0,0.5,0.1,1,0.4,1.3
						C364,197.3,364.4,197.5,364.9,197.5z M365.5,193.5c-0.2-0.1-0.4-0.1-0.6-0.1c-0.4,0-0.8,0.2-1.1,0.5c-0.3,0.3-0.4,0.7-0.5,1.1
						h2.8C366.2,194.2,366,193.7,365.5,193.5z"/>
					<path d="M369.6,193.8c0.3-0.8,0.9-1.1,1.8-1.1c0.6,0,1.1,0.2,1.5,0.6c0.3,0.4,0.5,1,0.5,1.7v3.1h-0.9V195
						c0-0.5-0.1-0.9-0.4-1.1s-0.6-0.4-1-0.4c-0.4,0-0.8,0.2-1.1,0.5c-0.3,0.4-0.4,0.9-0.4,1.5v2.6h-0.9v-5.3h0.7L369.6,193.8z"/>
					<path d="M378.1,197.9c-0.6,0.3-1.2,0.4-1.7,0.2c-0.4-0.1-0.6-0.4-0.8-0.7c-0.1-0.2-0.1-0.4-0.1-0.7v-3.2h-0.8v-0.7h0.8v-1.5
						h0.9v1.5h1.6v0.7h-1.6v3.2c0,0.5,0.2,0.8,0.7,0.8c0.3,0,0.6-0.1,0.9-0.2L378.1,197.9z"/>
					<path d="M382.8,194.6c0-0.5-0.1-0.8-0.3-1c-0.2-0.2-0.5-0.3-0.9-0.3c-0.4,0-0.7,0.1-0.9,0.2c-0.2,0.2-0.3,0.4-0.3,0.7h-1
						c0-0.8,0.4-1.3,1.3-1.5c0.3-0.1,0.5-0.1,0.9-0.1c0.7,0,1.2,0.2,1.5,0.5c0.4,0.3,0.5,0.8,0.5,1.5v3.4h-0.7l-0.1-0.9
						c-0.3,0.7-0.9,1-1.7,1c-0.6,0-1-0.2-1.4-0.5c-0.3-0.3-0.5-0.7-0.5-1.2s0.2-0.8,0.6-1.1c0.4-0.3,0.8-0.4,1.4-0.4
						s1.1,0.1,1.6,0.3V194.6z M382.8,195.9c-0.5-0.1-1-0.2-1.4-0.2s-0.7,0.1-0.9,0.2c-0.2,0.1-0.4,0.4-0.4,0.7c0,0.7,0.4,1,1.1,1
						c0.4,0,0.8-0.2,1.1-0.5C382.6,196.7,382.8,196.3,382.8,195.9z"/>
					<path d="M386.1,191.6c-0.2,0-0.3,0-0.4-0.1s-0.1-0.2-0.1-0.4s0-0.3,0.1-0.4s0.2-0.1,0.4-0.1c0.2,0,0.3,0,0.4,0.1
						s0.2,0.2,0.2,0.4s-0.1,0.3-0.2,0.4S386.3,191.6,386.1,191.6z M385.7,192.8h0.9v5.3h-0.9V192.8z"/>
					<path d="M391.1,193.5c-0.8,0-1.3,0.7-1.3,2v2.6h-0.9v-5.3h0.9v1c0.3-0.7,0.7-1.1,1.4-1.1c0.2,0,0.4,0,0.6,0.1l0,0.8
						C391.5,193.6,391.3,193.5,391.1,193.5z"/>
					<path d="M395,197.5c0.7,0,1.1-0.3,1.2-1h0.9c-0.1,0.5-0.3,0.9-0.7,1.2s-0.9,0.4-1.4,0.4c-0.7,0-1.3-0.3-1.7-0.8s-0.7-1.2-0.7-2
						s0.2-1.5,0.7-2c0.4-0.5,1-0.7,1.8-0.7s1.3,0.3,1.7,0.9c0.4,0.6,0.5,1.3,0.4,2.1h-3.6c0,0.5,0.1,1,0.4,1.3
						C394.1,197.3,394.5,197.5,395,197.5z M395.6,193.5c-0.2-0.1-0.4-0.1-0.6-0.1c-0.4,0-0.8,0.2-1.1,0.5c-0.3,0.3-0.4,0.7-0.5,1.1
						h2.8C396.3,194.2,396,193.7,395.6,193.5z"/>
				</g>
			</g>
		</g>
	</g>
</g>
<g id="graph_x5F_02" class="st0">
	<g class="st1">
		<text transform="matrix(1 0 0 1 32.4774 470.3964)" class="st7 st10">Projets de gestion du milieu naturel</text>
		<g>
			<polygon id="XMLID_1_" class="st5" points="58.6,269.9 32.5,437.7 84.7,437.7 			"/>
			<polygon class="st5" points="130.5,274.5 104.4,437.7 156.6,437.7 			"/>
			<polygon class="st5" points="202.7,282.1 176.6,437.7 228.8,437.7 			"/>
			<polygon class="st5" points="274.7,266.7 248.5,437.7 300.9,437.7 			"/>
			<polygon class="st2" points="58.6,353.8 32.5,437.7 84.7,437.7 			"/>
			<polygon class="st2" points="130.5,356.1 104.4,437.7 156.6,437.7 			"/>
			<polygon class="st2" points="202.7,355.3 176.6,437.7 228.8,437.7 			"/>
			<polygon class="st2" points="274.7,352.2 248.5,437.7 300.9,437.7 			"/>
			<polygon class="st3" points="58.6,403.8 32.5,437.7 84.7,437.7 			"/>
			<polygon class="st3" points="130.5,402.1 104.4,437.6 156.6,437.6 			"/>
			<polygon class="st3" points="202.4,404.7 176.6,437.7 228.2,437.7 			"/>
			<polygon class="st3" points="274.7,401.5 248.5,437.7 300.9,437.7 			"/>
			<text transform="matrix(1 0 0 1 53.8471 430.2286)" class="st5 st7 st12">44</text>
			<text transform="matrix(1 0 0 1 125.746 430.2286)" class="st5 st7 st12">46</text>
			<text transform="matrix(1 0 0 1 197.6566 430.2286)" class="st5 st7 st12">43</text>
			<text transform="matrix(1 0 0 1 269.955 430.2286)" class="st5 st7 st12">47</text>
			<text transform="matrix(1 0 0 1 53.8471 396.8927)" class="st5 st7 st12">65</text>
			<text transform="matrix(1 0 0 1 125.746 396.8927)" class="st5 st7 st12">60</text>
			<text transform="matrix(1 0 0 1 197.6566 396.8927)" class="st5 st7 st12">64</text>
			<text transform="matrix(1 0 0 1 269.955 396.8927)" class="st5 st7 st12">64</text>
			<text transform="matrix(1 0 0 1 51.0907 347.3038)" class="st3 st7 st12">109</text>
			<text transform="matrix(1 0 0 1 122.9896 347.3038)" class="st3 st7 st12">106</text>
			<text transform="matrix(1 0 0 1 197.2714 347.3038)" class="st3 st7 st12">95</text>
			<text transform="matrix(1 0 0 1 267.1986 347.3038)" class="st3 st7 st12">111</text>
			<rect x="45.5" y="442.6" class="st6" width="24.7" height="8.2"/>
			<text id="XMLID_5_" transform="matrix(1 0 0 1 45.4706 450.7608)" class="st5 st7 st13">2013</text>
			<rect x="118.2" y="442.6" class="st6" width="24.7" height="8.2"/>
			<text id="XMLID_4_" transform="matrix(1 0 0 1 118.162 450.7608)" class="st5 st7 st13">2014</text>
			<rect x="190.1" y="442.6" class="st6" width="24.7" height="8.2"/>
			<text id="XMLID_3_" transform="matrix(1 0 0 1 190.0726 450.7608)" class="st5 st7 st13">2015</text>
			<rect x="262.4" y="442.6" class="st6" width="24.7" height="8.2"/>
			<text id="XMLID_2_" transform="matrix(1 0 0 1 262.371 450.7608)" class="st5 st7 st13">2017</text>
		</g>
		<g>
			<g>
				<polygon class="st2" points="331.6,400.3 323.2,414.9 340,414.9 				"/>
			</g>
			<g>
				<polygon class="st3" points="331.6,424 323.1,438.7 340.1,438.7 				"/>
			</g>
			<g>
				<polygon class="st5" points="331.6,375.2 322.8,390.4 340.3,390.4 				"/>
				<g>
					<path d="M347,383.5h5.3v0.7h-2.2v6.1h-0.9v-6.1H347V383.5z"/>
					<path d="M354.5,385c0.7,0,1.3,0.2,1.8,0.7s0.7,1.1,0.7,2c0,0.9-0.2,1.5-0.7,2c-0.4,0.5-1,0.7-1.8,0.7c-0.7,0-1.3-0.2-1.8-0.7
						c-0.4-0.5-0.7-1.1-0.7-2c0-0.9,0.2-1.6,0.7-2C353.2,385.3,353.8,385,354.5,385z M356.1,387.8c0-0.6-0.1-1.1-0.4-1.5
						c-0.3-0.4-0.6-0.5-1.1-0.5c-0.5,0-0.9,0.2-1.2,0.5s-0.4,0.8-0.4,1.5c0,0.6,0.1,1.1,0.4,1.5c0.3,0.4,0.6,0.5,1.1,0.5
						s0.9-0.2,1.2-0.5C356,388.9,356.1,388.4,356.1,387.8z"/>
					<path d="M361.3,390.2c-0.6,0.3-1.2,0.4-1.7,0.2c-0.4-0.1-0.6-0.4-0.8-0.7c-0.1-0.2-0.1-0.4-0.1-0.7v-3.2h-0.8v-0.7h0.8v-1.5
						h0.9v1.5h1.6v0.7h-1.6v3.2c0,0.5,0.2,0.8,0.7,0.8c0.3,0,0.6-0.1,0.9-0.2L361.3,390.2z"/>
					<path d="M365.9,387c0-0.5-0.1-0.8-0.3-1c-0.2-0.2-0.5-0.3-0.9-0.3c-0.4,0-0.7,0.1-0.9,0.2c-0.2,0.1-0.3,0.4-0.3,0.7h-0.9
						c0-0.8,0.4-1.3,1.3-1.5c0.3-0.1,0.5-0.1,0.9-0.1c0.6,0,1.2,0.2,1.5,0.5c0.4,0.3,0.5,0.8,0.5,1.5v3.4h-0.7l-0.1-0.9
						c-0.3,0.7-0.9,1-1.7,1c-0.6,0-1-0.2-1.3-0.5c-0.3-0.3-0.5-0.7-0.5-1.2s0.2-0.8,0.6-1.1c0.4-0.3,0.8-0.4,1.4-0.4
						c0.6,0,1.1,0.1,1.6,0.3V387z M365.9,388.2c-0.5-0.1-1-0.2-1.4-0.2s-0.7,0.1-0.9,0.2c-0.2,0.1-0.4,0.4-0.4,0.7
						c0,0.7,0.4,1,1.1,1c0.4,0,0.8-0.2,1.1-0.5C365.8,389.1,365.9,388.7,365.9,388.2z"/>
					<path d="M368.8,383h0.9v7.4h-0.9V383z"/>
				</g>
			</g>
			<rect x="347.2" y="407.3" class="st6" width="94.9" height="8.7"/>
			<text id="XMLID_9_" transform="matrix(1 0 0 1 347.181 414.9793)" class="st7 st8">Éléments naturels</text>
			<rect x="348.3" y="431.3" class="st6" width="162.5" height="9.9"/>
			<text id="XMLID_6_" transform="matrix(1 0 0 1 348.3035 438.9468)" class="st7 st8">Activités et infrastructures</text>
		</g>
	</g>
</g>
</svg>
