<svg id="Calque_1" data-name="Calque 1" xmlns="http://www.w3.org/2000/svg" xmlns:xlink="http://www.w3.org/1999/xlink" viewBox="0 0 301.71 191.26"><defs><clipPath id="clip-path" transform="translate(-53.03 -229.98)"><rect x="46.82" y="224.48" width="311.81" height="201.52" style="fill:none"/></clipPath></defs><title>Moose_final</title><g style="clip-path:url(#clip-path)"><path d="M203.82,271.11" transform="translate(-53.03 -229.98)" style="fill:none;stroke:#1d1d1b;stroke-miterlimit:10"/><path d="M203.82,271.11c5.09-.89,15.76-2.76,22.22-3.59,7.88-1,23.62,3.11,28.49,3.49a.68.68,0,0,1,.58.94,21.74,21.74,0,0,0-.41,16.17,1.4,1.4,0,0,1-.12,1.24c-3.4,5.52-19.73,55.32-20.16,59.4-.46,4.28-6.54,19.16-9.44,22.62" transform="translate(-53.03 -229.98)" style="fill:none;stroke:#1d1d1b;stroke-miterlimit:10"/><path d="M203.82,313.49c6,1,11.51,5.39,15.32,17,3.93,11.92,3.67,25.3,3.9,29s4.58,20.91,4.11,31.37-4.43,15.82-8.59,18.49c-3.51,2.26-9.9,4-14.74,4.35" transform="translate(-53.03 -229.98)" style="fill:none;stroke:#1d1d1b;stroke-miterlimit:10"/><path d="M207.35,413.3s2.05-24.69,19.53-19.32C226.88,394,226.48,410.9,207.35,413.3Z" transform="translate(-53.03 -229.98)" style="fill:#1d1d1b"/><path d="M203.82,420.74c5.7-.16,18.35-2,18.51-14.88" transform="translate(-53.03 -229.98)" style="fill:none;stroke:#1d1d1b;stroke-miterlimit:10"/><path d="M322.09,275.41s8.36-3.17,11.86-15.34,1.73-18.48-2.65-18.24S331.13,256,326,261.05c-8.68,8.52-12.16,3.92-17.46,7.19l-5.27,7.18s12.63-14.36,11.16-29.19-10.27-17.51-13.29-14.83,1.83,12.65,4.35,17.51-5.46,26.52-23.59,23.61-26.31-1.5-26.31-1.5c-4.64,8.88-.54,17.85-.54,17.85a35.3,35.3,0,0,1,7.27-.89s16-1.16,24.9-.6c6.81.42,19.45-1.79,24.59-2.6s26.55-.08,34.09-12.48c11.73-19.28,8.55-25.38,5.86-27.32s-7.66,13.88-10.86,17.78-10.13,6.32-11.08,6.08C329.78,268.84,328.49,271.58,322.09,275.41Z" transform="translate(-53.03 -229.98)" style="fill:#1d1d1b;stroke:#1d1d1b;stroke-miterlimit:10"/><path d="M232.59,320.84s2.36-6,5-8.76,7-7.85,9.05-2.72l-1.85,5.46s-5.06,4.7-11.56,4.55" transform="translate(-53.03 -229.98)" style="fill:#1d1d1b"/><path d="M244.84,314.82s-5.19,4.69-11.68,4.55" transform="translate(-53.03 -229.98)" style="fill:none;stroke:#1d1d1b;stroke-miterlimit:10"/><path d="M255.58,271l-1.39,4.38a18,18,0,0,0-.66,2.2,9.74,9.74,0,0,0-.16,2.29c0,.77.11,1.52.16,2.28,0,.38.12.75.17,1.12l.08.56.12.55a34.33,34.33,0,0,0,1.14,4.43l-.07,0a12.25,12.25,0,0,1-1.86-4.3,13.69,13.69,0,0,1-.15-4.69c0-.39.11-.77.17-1.16s.09-.77.16-1.15c.09-.77.16-1.55.3-2.32a11.34,11.34,0,0,1,1.92-4.26Z" transform="translate(-53.03 -229.98)" style="fill:#1d1d1b"/><path d="M253.62,270.71l-1.24,4.69a19.51,19.51,0,0,0-.62,2.36,11,11,0,0,0-.11,2.43,31.4,31.4,0,0,0,.59,4.77,34.75,34.75,0,0,0,1.26,4.67l-.07,0a13.15,13.15,0,0,1-2-4.54,15.26,15.26,0,0,1-.22-4.95c0-.42.1-.82.15-1.23l.13-1.22c.08-.82.12-1.64.25-2.46a13,13,0,0,1,1.78-4.6Z" transform="translate(-53.03 -229.98)" style="fill:#1d1d1b"/><path d="M251.66,270.37l-1.11,5a21.64,21.64,0,0,0-.56,2.51,12.26,12.26,0,0,0-.07,2.57,35.1,35.1,0,0,0,.67,5,35.75,35.75,0,0,0,1.37,4.92l-.06,0a13.83,13.83,0,0,1-2.09-4.78,17.28,17.28,0,0,1-.3-5.22c0-.43.1-.86.13-1.29s.06-.86.11-1.29c.05-.87.08-1.74.19-2.6a14.88,14.88,0,0,1,1.65-4.93Z" transform="translate(-53.03 -229.98)" style="fill:#1d1d1b"/><path d="M249.7,270c-.33,1.8-.63,3.56-1,5.33a24,24,0,0,0-.51,2.66,14.32,14.32,0,0,0,0,2.7,44.81,44.81,0,0,0,.75,5.32,36.34,36.34,0,0,0,1.49,5.16l-.06,0a14.83,14.83,0,0,1-2.21-5,19.51,19.51,0,0,1-.38-5.49c.08-.91.14-1.82.2-2.72s.05-1.83.13-2.74a16.68,16.68,0,0,1,1.53-5.25Z" transform="translate(-53.03 -229.98)" style="fill:#1d1d1b"/><path d="M247.74,269.7c-.28,1.89-.54,3.76-.86,5.63-.1.46-.17.93-.26,1.4a10.87,10.87,0,0,0-.19,1.41,16.83,16.83,0,0,0,0,2.84,51.92,51.92,0,0,0,.83,5.59,38,38,0,0,0,1.61,5.41l-.06,0a16,16,0,0,1-2.33-5.28A22.24,22.24,0,0,1,246,281c.07-1,.11-1.91.15-2.87s0-1.91.09-2.87a18.83,18.83,0,0,1,1.39-5.57Z" transform="translate(-53.03 -229.98)" style="fill:#1d1d1b"/><path d="M245.77,269.36c-.23,2-.45,4-.72,5.93-.1.49-.17,1-.24,1.48a12.42,12.42,0,0,0-.17,1.48,17.55,17.55,0,0,0,.06,3,54.52,54.52,0,0,0,.91,5.86,37.71,37.71,0,0,0,1.73,5.67l-.06,0a16.81,16.81,0,0,1-2.45-5.52,25,25,0,0,1-.55-6c.06-1,.09-2,.11-3s0-2,0-3a21.25,21.25,0,0,1,1.28-5.89Z" transform="translate(-53.03 -229.98)" style="fill:#1d1d1b"/><path d="M243.81,269c-.18,2.09-.38,4.16-.61,6.23-.08.51-.15,1-.21,1.55s-.13,1-.15,1.56a23.25,23.25,0,0,0,.11,3.12c.25,2.08.55,4.12,1,6.14a37.51,37.51,0,0,0,1.85,5.92l-.06,0a17.68,17.68,0,0,1-2.57-5.78,27.28,27.28,0,0,1-.63-6.3c0-1.05.05-2.1.06-3.15s-.06-2.1,0-3.16a23.83,23.83,0,0,1,1.16-6.19Z" transform="translate(-53.03 -229.98)" style="fill:#1d1d1b"/><path d="M241.85,268.69c-.14,2.2-.3,4.36-.49,6.53-.08.54-.14,1.08-.19,1.62a15.07,15.07,0,0,0-.12,1.64,23.65,23.65,0,0,0,.15,3.26c.29,2.17.6,4.31,1.09,6.41a37,37,0,0,0,2,6.18l-.06,0a18.4,18.4,0,0,1-2.69-6,29.14,29.14,0,0,1-.72-6.57c0-1.1,0-2.2,0-3.29s-.09-2.2-.07-3.3a26,26,0,0,1,1.05-6.5Z" transform="translate(-53.03 -229.98)" style="fill:#1d1d1b"/><path d="M239.89,268.36c-.1,2.29-.22,4.55-.38,6.82-.12,1.13-.24,2.27-.26,3.41a25.85,25.85,0,0,0,.2,3.4c.32,2.26.64,4.5,1.17,6.69a38.44,38.44,0,0,0,2.1,6.44l-.06,0a19.37,19.37,0,0,1-2.81-6.29A30.53,30.53,0,0,1,239,282c0-.57,0-1.15,0-1.72s0-1.14,0-1.71c0-1.15-.13-2.29-.12-3.44a28.44,28.44,0,0,1,.94-6.8Z" transform="translate(-53.03 -229.98)" style="fill:#1d1d1b"/><path d="M237.93,268c-.06,2.38-.15,4.74-.28,7.11-.09,1.18-.2,2.36-.21,3.55a26.38,26.38,0,0,0,.26,3.55,69.88,69.88,0,0,0,1.26,7,36.58,36.58,0,0,0,2.23,6.7l-.07,0a20.28,20.28,0,0,1-2.94-6.55l-.38-1.76c-.1-.59-.17-1.19-.25-1.78a17.78,17.78,0,0,1-.18-1.79c0-.59-.08-1.19-.08-1.79s0-1.19,0-1.79,0-1.19,0-1.78c0-1.19-.16-2.39-.17-3.58a31,31,0,0,1,.83-7.11Z" transform="translate(-53.03 -229.98)" style="fill:#1d1d1b"/><path d="M236,267.69c0,2.48-.07,4.94-.17,7.41-.08,1.23-.17,2.46-.16,3.7a28.68,28.68,0,0,0,.3,3.69,73.3,73.3,0,0,0,1.36,7.24,36.8,36.8,0,0,0,2.35,7l-.07,0a20.79,20.79,0,0,1-3.06-6.8l-.41-1.83-.28-1.85c-.11-.61-.14-1.24-.2-1.86s-.09-1.24-.1-1.86,0-1.24-.07-1.86,0-1.24-.07-1.86c-.06-1.23-.19-2.47-.21-3.71a33.55,33.55,0,0,1,.71-7.41Z" transform="translate(-53.03 -229.98)" style="fill:#1d1d1b"/><path d="M234,267.36c0,2.57,0,5.13-.07,7.69-.06,1.28-.13,2.57-.11,3.85a32.84,32.84,0,0,0,.35,3.83,75.61,75.61,0,0,0,1.45,7.52,36.9,36.9,0,0,0,2.48,7.22l-.07,0a21.78,21.78,0,0,1-3.19-7.06c-.14-.63-.3-1.26-.43-1.9l-.3-1.92a33.35,33.35,0,0,1-.35-3.86c-.06-1.29-.1-2.57-.19-3.86s-.22-2.57-.26-3.86a36.83,36.83,0,0,1,.61-7.7Z" transform="translate(-53.03 -229.98)" style="fill:#1d1d1b"/><path d="M249.32,301.87" transform="translate(-53.03 -229.98)" style="fill:none"/><path d="M229.82,311" transform="translate(-53.03 -229.98)" style="fill:none"/><path d="M224.05,329.23a51.28,51.28,0,0,1,3.46-9.28c1.54-2.94,3.17-5.8,4.84-8.66a28.73,28.73,0,0,1,2.87-4.07,17,17,0,0,1,3.73-3.39,7.79,7.79,0,0,1,4.9-1.3,7.64,7.64,0,0,1,4.46,2.22l-.05.06a8.26,8.26,0,0,0-4.45-1.7,7.52,7.52,0,0,0-4.43,1.4,27.55,27.55,0,0,0-6.69,7,36.21,36.21,0,0,0-2.58,4.21c-.77,1.45-1.39,3-2,4.49l-3.95,9.05Z" transform="translate(-53.03 -229.98)" style="fill:#1d1d1b"/><path d="M224.91,331.06a52.6,52.6,0,0,1,3.2-9.32c1.45-3,3-5.85,4.53-8.76a31,31,0,0,1,2.67-4.17,17.66,17.66,0,0,1,3.49-3.58,8.08,8.08,0,0,1,4.73-1.75,6.87,6.87,0,0,1,4.53,2l-.05.06a7.31,7.31,0,0,0-4.47-1.47,8,8,0,0,0-4.26,1.81,29.79,29.79,0,0,0-6.29,7.32,35.15,35.15,0,0,0-2.41,4.27c-.72,1.47-1.29,3-1.89,4.53L225,331.08Z" transform="translate(-53.03 -229.98)" style="fill:#1d1d1b"/><path d="M225.77,332.88a54.9,54.9,0,0,1,3-9.35c1.36-3,2.8-5.91,4.22-8.86a26.16,26.16,0,0,1,5.72-8,8.41,8.41,0,0,1,4.53-2.15,6.07,6.07,0,0,1,1.28,0c.42.09.83.21,1.23.33s.76.37,1.11.59l1,.75,0,.06a6.21,6.21,0,0,0-4.49-1.18,8.32,8.32,0,0,0-4.07,2.18,33,33,0,0,0-5.89,7.62,37.76,37.76,0,0,0-2.25,4.33c-.67,1.49-1.19,3-1.75,4.56l-3.47,9.14Z" transform="translate(-53.03 -229.98)" style="fill:#1d1d1b"/><path d="M226.63,334.7a55.65,55.65,0,0,1,2.73-9.38c1.27-3,2.61-6,3.92-9a28.79,28.79,0,0,1,5.3-8.28,8.82,8.82,0,0,1,4.3-2.54,5.28,5.28,0,0,1,2.53.14c.39.14.77.34,1.14.51l1,.73,0,.06a5.47,5.47,0,0,0-4.5-.86,8.66,8.66,0,0,0-3.87,2.53,45,45,0,0,0-7.59,12.29c-.62,1.5-1.09,3.06-1.61,4.6-1.06,3.07-2.13,6.13-3.24,9.19Z" transform="translate(-53.03 -229.98)" style="fill:#1d1d1b"/><path d="M253.28,291.71c-2.25,1-4.5,1.86-6.78,2.7-1.15.4-2.31.78-3.43,1.25a29.23,29.23,0,0,0-3.26,1.64,66.55,66.55,0,0,0-6.1,3.91,17.39,17.39,0,0,0-5.05,5.06l-.07,0a12.93,12.93,0,0,1,4.64-5.68,28.25,28.25,0,0,1,3.11-2,32.52,32.52,0,0,1,3.29-1.64c1.12-.5,2.23-1,3.34-1.5s2.18-1.09,3.3-1.59a36.16,36.16,0,0,1,7-2.2Z" transform="translate(-53.03 -229.98)" style="fill:#1d1d1b"/><path d="M252.13,294.71l-6.52,1.87a33.79,33.79,0,0,0-3.26,1c-.53.2-1,.43-1.56.66s-1,.53-1.5.8a39.92,39.92,0,0,0-5.54,3.8,25.06,25.06,0,0,0-4.53,4.93l-.06,0a15.56,15.56,0,0,1,4.07-5.52,23.88,23.88,0,0,1,5.88-3.55c.52-.23,1.06-.43,1.57-.67s1.06-.41,1.58-.65c1.05-.44,2.08-.93,3.16-1.32a25.11,25.11,0,0,1,6.69-1.36Z" transform="translate(-53.03 -229.98)" style="fill:#1d1d1b"/><path d="M251,297.7a55.58,55.58,0,0,0-6.23.86l-1.55.3c-.51.12-1,.26-1.52.41a14,14,0,0,0-2.84,1.36,31,31,0,0,0-2.59,1.76,30.5,30.5,0,0,0-2.34,2.06,36.79,36.79,0,0,0-4.11,4.74l-.07,0a18.08,18.08,0,0,1,3.62-5.27,17.28,17.28,0,0,1,5.3-3.62c1-.46,2-.81,3-1.22.5-.18,1-.39,1.49-.58l1.52-.51a16,16,0,0,1,6.38-.32Z" transform="translate(-53.03 -229.98)" style="fill:#1d1d1b"/><path d="M249.81,300.7a17,17,0,0,0-5.81-.37,10.23,10.23,0,0,0-1.45.17,6.49,6.49,0,0,0-1.43.35c-.23.08-.47.14-.7.24l-.66.34a9,9,0,0,0-1.26.76,27.94,27.94,0,0,0-4.36,3.91l-1.94,2.22c-.59.79-1.2,1.57-1.85,2.33l-.07,0c.45-.89.94-1.77,1.45-2.63s1.17-1.64,1.82-2.41c.35-.36.7-.73,1.07-1.08a8.26,8.26,0,0,1,1.14-1l1.21-.92c.43-.26.88-.49,1.32-.74a12,12,0,0,1,1.36-.64,10.47,10.47,0,0,1,1.39-.58,14.2,14.2,0,0,1,2.88-.91,9.3,9.3,0,0,1,5.92.92Z" transform="translate(-53.03 -229.98)" style="fill:#1d1d1b"/><path d="M248.65,303.68a7.91,7.91,0,0,0-5.06-1.86,6.31,6.31,0,0,0-1.37.08,5.22,5.22,0,0,0-1.36.34,6.78,6.78,0,0,0-1.27.62c-.39.26-.76.55-1.15.82s-.68.65-1,1a11.68,11.68,0,0,0-1,1c-.61.71-1.3,1.35-1.86,2.11-.31.36-.6.72-.92,1.08a13.34,13.34,0,0,0-.9,1.09c-.58.75-1.17,1.49-1.81,2.21l-.07,0c.44-.85.92-1.69,1.41-2.51a25.64,25.64,0,0,1,1.67-2.35,18.78,18.78,0,0,1,4.29-3.86c.42-.24.85-.46,1.26-.71a14.12,14.12,0,0,1,1.3-.62,8.64,8.64,0,0,1,2.8-.83,5.89,5.89,0,0,1,5.14,2.44Z" transform="translate(-53.03 -229.98)" style="fill:#1d1d1b"/><path d="M243.81,318c-1,.43-2.06.81-3.1,1.17s-2.07.74-3.14,1a20.15,20.15,0,0,0-3.13,1l-.74.34a1.5,1.5,0,0,0-.62.43,6.47,6.47,0,0,0-.8,1.38c-.89,2-1.55,4.08-2.28,6.15s-1.44,4.16-2.25,6.22c0,0,0,0,0,0a.05.05,0,0,1,0,0,50.42,50.42,0,0,1,1.58-6.44c.33-1.06.71-2.1,1.13-3.13a23,23,0,0,1,1.42-3,7,7,0,0,1,1-1.38,1.85,1.85,0,0,1,.76-.44l.77-.31c1-.4,2-.89,3-1.33a21.92,21.92,0,0,1,3.14-1.07,23.85,23.85,0,0,1,3.26-.67s0,0,0,0A.05.05,0,0,1,243.81,318Z" transform="translate(-53.03 -229.98)" style="fill:#1d1d1b"/><path d="M243.34,319.4c-1.06.41-2.12.8-3.19,1.15s-2.13.7-3.22,1a13.28,13.28,0,0,0-3.12,1.27,3.58,3.58,0,0,0-.87,1.32c-.22.5-.42,1-.62,1.55-.77,2.1-1.38,4.27-2.07,6.42s-1.35,4.3-2.11,6.44a.05.05,0,0,1,0,0s0,0,0,0a65,65,0,0,1,1.44-6.65,49.45,49.45,0,0,1,2.24-6.43,14.82,14.82,0,0,1,.78-1.54,3.86,3.86,0,0,1,1.13-1.37c1.06-.47,2.09-.88,3.12-1.4A15.69,15.69,0,0,1,240,320a18.88,18.88,0,0,1,3.35-.64,0,0,0,0,1,0,0S243.36,319.39,243.34,319.4Z" transform="translate(-53.03 -229.98)" style="fill:#1d1d1b"/><path d="M242.86,320.88c-1,.51-2,.95-3.06,1.36s-2.05.81-3.11,1.12a5.84,5.84,0,0,0-2.82,1.53,21.12,21.12,0,0,0-1,3.12c-.63,2.13-1.26,4.26-2,6.37s-1.51,4.17-2.26,6.27a.05.05,0,0,1-.06,0,.07.07,0,0,1,0-.06,34,34,0,0,1,1.38-6.57c.3-1.07.67-2.13,1.05-3.17s.78-2.1,1.21-3.13a32.8,32.8,0,0,1,1.47-3.06,6,6,0,0,1,1.36-1.07c.47-.3.95-.61,1.45-.89a14.05,14.05,0,0,1,3.11-1.28,18.59,18.59,0,0,1,3.3-.68.06.06,0,0,1,.06.05A.05.05,0,0,1,242.86,320.88Z" transform="translate(-53.03 -229.98)" style="fill:#1d1d1b"/><path d="M229,343.55a47.11,47.11,0,0,1,1.46-6.56c.33-1.07.73-2.12,1.1-3.18s.68-2.14,1-3.21.6-2.17,1-3.23a5.75,5.75,0,0,1,.85-1.59,9.64,9.64,0,0,1,1.4-1.07,12,12,0,0,1,6.46-2s0,0,0,0,0,0,0,0a19.29,19.29,0,0,0-6,2.59,14.24,14.24,0,0,0-1.31.91,6.14,6.14,0,0,0-.78,1.33c-.45,1-.9,2-1.29,3.08a29.58,29.58,0,0,0-1,3.19l-.75,3.27c-.6,2.16-1.22,4.3-2,6.41a0,0,0,0,1-.05,0S229,343.57,229,343.55Z" transform="translate(-53.03 -229.98)" style="fill:#1d1d1b"/><path d="M229,346.56a45.76,45.76,0,0,1,1.65-6.57c.37-1.07.81-2.12,1.17-3.19s.65-2.16.93-3.26.58-2.18.94-3.26c.17-.54.36-1.08.56-1.62.11-.27.21-.53.35-.81a5.16,5.16,0,0,1,.29-.46,3.4,3.4,0,0,1,.39-.3,17.43,17.43,0,0,1,3.12-1.49,32.89,32.89,0,0,1,3.23-1.05,0,0,0,0,1,0,0,.08.08,0,0,1,0,.05l-3,1.52a26.6,26.6,0,0,0-2.89,1.6,2.28,2.28,0,0,0-.28.22,2.26,2.26,0,0,1-.16.26L235,329c-.21.52-.42,1-.62,1.56l-1.21,3.16c-.4,1.05-.78,2.12-1.09,3.2s-.53,2.2-.8,3.3a55,55,0,0,1-2.18,6.41,0,0,0,0,1-.05,0S229,346.58,229,346.56Z" transform="translate(-53.03 -229.98)" style="fill:#1d1d1b"/><path d="M229.32,349.66a51.59,51.59,0,0,1,1.6-6.6c.35-1.08.77-2.13,1.14-3.2s.66-2.17.94-3.26a63.48,63.48,0,0,1,1.9-6.55,7.85,7.85,0,0,1,.35-.83.89.89,0,0,1,.19-.27l.21-.16.4-.24a13,13,0,0,1,1.58-.71,24.72,24.72,0,0,1,3.26-1s0,0,0,0a0,0,0,0,1,0,.05c-1,.53-2,1.05-3,1.55-.5.25-1,.52-1.45.79-.21.14-.5.31-.48.39a7.46,7.46,0,0,0-.32.74c-.8,2.08-1.5,4.24-2.31,6.36-.38,1.06-.73,2.14-1,3.23l-.78,3.31a58.59,58.59,0,0,1-2.15,6.44,0,0,0,0,1,0,0S229.31,349.68,229.32,349.66Z" transform="translate(-53.03 -229.98)" style="fill:#1d1d1b"/><path d="M229.7,352.76a45.72,45.72,0,0,1,1.41-6.57c.34-1.07.74-2.12,1.07-3.19s.59-2.16.84-3.25a47.89,47.89,0,0,1,1.91-6.47,13,13,0,0,1,.74-1.56,4.53,4.53,0,0,1,1.29-1.26,6.91,6.91,0,0,1,3.16-1.27s0,0,0,0l0,0a8.79,8.79,0,0,0-2.82,1.66,4,4,0,0,0-1,1.15c-.24.47-.44,1-.64,1.49-.8,2.06-1.49,4.19-2.26,6.29-.38,1.06-.72,2.12-1,3.21s-.46,2.19-.69,3.28a58,58,0,0,1-1.94,6.43,0,0,0,0,1-.05,0S229.7,352.78,229.7,352.76Z" transform="translate(-53.03 -229.98)" style="fill:#1d1d1b"/><path d="M231,356.84A46.79,46.79,0,0,1,232,351.2c.47-1.86,1.22-3.64,1.68-5.49s.82-3.75,1.37-5.59a26,26,0,0,1,.91-2.75,7.21,7.21,0,0,1,.33-.69,1.25,1.25,0,0,1,.31-.39,3.21,3.21,0,0,1,.3-.21,6.44,6.44,0,0,1,.63-.36l.33-.16.18-.07.08,0,.09.12h-.09a0,0,0,0,1,0,0v0l0,0v0h0s-.09-.12.09.1c0,0,0,.05,0,.08l-.11.16-.22.29c-.14.2-.32.36-.48.55s-.17.16-.26.25l-.12.18c-.09.18-.19.39-.28.6-.35.86-.69,1.75-1,2.65-.59,1.81-1.29,3.6-1.81,5.44s-.76,3.75-1.24,5.6-1,3.68-1.68,5.49a0,0,0,0,1-.05,0A.05.05,0,0,1,231,356.84Z" transform="translate(-53.03 -229.98)" style="fill:#1d1d1b"/><path d="M230.2,354.68a49.55,49.55,0,0,1,1.33-6.06c.58-2,1.39-3.9,1.89-5.91s.94-4,1.59-6c.16-.5.31-1,.5-1.49a5.47,5.47,0,0,1,.75-1.52,4.59,4.59,0,0,1,2.87-1.38s0,0,0,0a.05.05,0,0,1,0,0,8.49,8.49,0,0,0-2.32,1.85,7.71,7.71,0,0,0-.58,1.27l-.54,1.43c-.66,1.95-1.4,3.88-2.05,5.84s-1,4-1.49,6-1.15,4-1.9,5.9a0,0,0,0,1-.05,0S230.19,354.7,230.2,354.68Z" transform="translate(-53.03 -229.98)" style="fill:#1d1d1b"/><path d="M226,369.84a39.44,39.44,0,0,1-1.74-8c-.31-2.74-.48-5.46-.73-8.18a123.59,123.59,0,0,0-2-16.28A52.46,52.46,0,0,0,216.2,322a18.27,18.27,0,0,0-5.22-6.06,29.14,29.14,0,0,0-7.17-3.85l0-.07a25.55,25.55,0,0,1,7.49,3.43,17.65,17.65,0,0,1,5.55,6.16,45.13,45.13,0,0,1,5,15.67c.42,2.71.76,5.43,1.15,8.14s.8,5.42,1.11,8.15c.14,1.36.29,2.73.38,4.09s.17,2.73.3,4.09a58.11,58.11,0,0,0,1.24,8.09Z" transform="translate(-53.03 -229.98)" style="fill:#1d1d1b"/><path d="M227,367.76a47.39,47.39,0,0,1-1.81-8c-.4-2.71-.52-5.44-.82-8.13s-.56-5.41-1-8.09-1-5.36-1.6-8a71.33,71.33,0,0,0-2.13-7.84,41.24,41.24,0,0,0-3.37-7.33,19.12,19.12,0,0,0-5.31-5.93,29.37,29.37,0,0,0-7.16-3.78l0-.07A25.37,25.37,0,0,1,211.3,314a18.11,18.11,0,0,1,5.64,6c2.91,4.72,4.34,10.15,5.24,15.5l1.46,8c.46,2.69,1,5.36,1.36,8.07s.44,5.45.77,8.13a76.05,76.05,0,0,0,1.31,8Z" transform="translate(-53.03 -229.98)" style="fill:#1d1d1b"/><path d="M228,365.67a57.8,57.8,0,0,1-1.86-7.93c-.21-1.34-.39-2.69-.52-4s-.2-2.7-.36-4a77.94,77.94,0,0,0-1.25-8c-.53-2.65-1.24-5.27-1.94-7.88l-1-3.94c-.34-1.3-.75-2.58-1.2-3.85a37.6,37.6,0,0,0-3.5-7.22c-2.77-4.61-7.49-7.67-12.55-9.51l0-.07a25.1,25.1,0,0,1,7.45,3.3,18.85,18.85,0,0,1,5.73,5.86,32.64,32.64,0,0,1,3.51,7.41,71.46,71.46,0,0,1,1.95,7.92l1.8,7.93c.59,2.64,1.21,5.29,1.6,8s.43,5.41.84,8.08.81,5.34,1.36,8Z" transform="translate(-53.03 -229.98)" style="fill:#1d1d1b"/><path d="M229,363.59a68.57,68.57,0,0,1-2.84-15.93,49.75,49.75,0,0,0-1.42-7.93c-.67-2.61-1.55-5.16-2.35-7.74s-1.33-5.25-2.31-7.73a34.7,34.7,0,0,0-3.63-7.1c-2.91-4.49-7.59-7.52-12.63-9.37l0-.07a25.52,25.52,0,0,1,7.42,3.28,19.74,19.74,0,0,1,5.83,5.72,30.63,30.63,0,0,1,3.66,7.3c1,2.57,1.32,5.27,2,7.86s1.46,5.19,2.21,7.78a59.1,59.1,0,0,1,1.79,7.93c.28,2.71.47,5.35.9,8s.86,5.31,1.39,8Z" transform="translate(-53.03 -229.98)" style="fill:#1d1d1b"/><path d="M230,361.5A73.58,73.58,0,0,1,227,345.64a32.44,32.44,0,0,0-1.5-7.84c-.8-2.57-1.88-5-2.81-7.56a34.7,34.7,0,0,1-1.21-3.87,31,31,0,0,0-1.21-3.79,31.6,31.6,0,0,0-3.76-7,25.47,25.47,0,0,0-12.73-9.16l0-.08a24.83,24.83,0,0,1,7.43,3.19,21.12,21.12,0,0,1,5.91,5.59,28.67,28.67,0,0,1,3.79,7.2,27.76,27.76,0,0,1,1.13,3.91c.28,1.3.61,2.59,1,3.87,1.61,5.1,4,10,4.54,15.48a152.72,152.72,0,0,0,2.41,15.89Z" transform="translate(-53.03 -229.98)" style="fill:#1d1d1b"/><path d="M231,359.42c-.7-2.59-1.32-5.2-1.84-7.83a74.09,74.09,0,0,1-1.22-8,29.83,29.83,0,0,0-1.59-7.77c-.85-2.53-2.09-4.92-3.16-7.38a25.38,25.38,0,0,1-1.36-3.81A29.45,29.45,0,0,0,216.64,314a26.82,26.82,0,0,0-12.83-9l0-.08a23.75,23.75,0,0,1,13.43,8.6,27,27,0,0,1,3.91,7.11,25.14,25.14,0,0,1,1.11,3.9,22.58,22.58,0,0,0,1.13,3.82c1,2.49,2.31,4.82,3.35,7.31a21.92,21.92,0,0,1,1.76,7.89,142.05,142.05,0,0,0,2.53,15.83Z" transform="translate(-53.03 -229.98)" style="fill:#1d1d1b"/><path d="M230.54,313.5a34.22,34.22,0,0,0-3.3-8.53,20.6,20.6,0,0,0-2.52-3.83,16.28,16.28,0,0,0-3.44-3,25.45,25.45,0,0,0-8.35-3.58,43.3,43.3,0,0,0-9.11-1.18v-.07a27.22,27.22,0,0,1,9.3.47,21.18,21.18,0,0,1,4.43,1.55,18.35,18.35,0,0,1,4,2.48,29.36,29.36,0,0,1,6.26,6.89,20.18,20.18,0,0,1,1.93,4.26,17.88,17.88,0,0,1,.9,4.58Z" transform="translate(-53.03 -229.98)" style="fill:#1d1d1b"/><path d="M229.61,315.53a43.82,43.82,0,0,0-3.3-8.39A21.64,21.64,0,0,0,224,303.3a17.52,17.52,0,0,0-3.24-3.14,24.92,24.92,0,0,0-8-4,37.77,37.77,0,0,0-8.89-1.43v-.08a24.83,24.83,0,0,1,9.11.74,20.56,20.56,0,0,1,8,4.4,33.52,33.52,0,0,1,5.89,7,21.54,21.54,0,0,1,1.85,4.2,20.24,20.24,0,0,1,1,4.48Z" transform="translate(-53.03 -229.98)" style="fill:#1d1d1b"/><path d="M228.68,317.55a56.36,56.36,0,0,0-3.22-8.28,24.18,24.18,0,0,0-2.22-3.85,18,18,0,0,0-3.07-3.21,24.53,24.53,0,0,0-7.66-4.28,33.4,33.4,0,0,0-8.69-1.71v-.07a22.52,22.52,0,0,1,9,1,20.17,20.17,0,0,1,7.68,4.73A36.33,36.33,0,0,1,226,309a21.11,21.11,0,0,1,1.76,4.16,26.4,26.4,0,0,1,1,4.4Z" transform="translate(-53.03 -229.98)" style="fill:#1d1d1b"/><path d="M227.75,319.58a84.52,84.52,0,0,0-3.14-8.19,24.27,24.27,0,0,0-2.09-3.85,18.19,18.19,0,0,0-2.9-3.29,24.41,24.41,0,0,0-7.32-4.61,30,30,0,0,0-8.48-2v-.07a20.72,20.72,0,0,1,8.77,1.31,19.86,19.86,0,0,1,7.32,5.06,40.16,40.16,0,0,1,5.26,7.15,22,22,0,0,1,1.66,4.13,35.54,35.54,0,0,1,1,4.32Z" transform="translate(-53.03 -229.98)" style="fill:#1d1d1b"/><path d="M226.82,321.6c-1.11-2.7-1.84-5.51-3.07-8.1a28.38,28.38,0,0,0-1.95-3.85,19.65,19.65,0,0,0-2.74-3.35,25,25,0,0,0-7-4.89,26.91,26.91,0,0,0-8.25-2.3V299a19.59,19.59,0,0,1,8.59,1.65,20.05,20.05,0,0,1,7,5.35c1,1.1,1.8,2.3,2.64,3.48a34.63,34.63,0,0,1,2.31,3.73,20.77,20.77,0,0,1,1.57,4.1c.37,1.4.73,2.81,1,4.24Z" transform="translate(-53.03 -229.98)" style="fill:#1d1d1b"/><path d="M225.89,323.63c-.55-1.32-1-2.68-1.5-4a42.25,42.25,0,0,0-1.5-4,28.91,28.91,0,0,0-1.82-3.86,20.93,20.93,0,0,0-2.58-3.41,25.35,25.35,0,0,0-6.64-5.18,24.21,24.21,0,0,0-8-2.61v-.08a17.88,17.88,0,0,1,8.4,2,20.19,20.19,0,0,1,6.58,5.63c.9,1.13,1.68,2.34,2.47,3.54a37.53,37.53,0,0,1,2.19,3.73,21.17,21.17,0,0,1,1.48,4.08c.37,1.37.73,2.76,1,4.17Z" transform="translate(-53.03 -229.98)" style="fill:#1d1d1b"/><path d="M225,325.65a21.63,21.63,0,0,1-1.53-4,40.49,40.49,0,0,0-1.4-4,30.39,30.39,0,0,0-1.72-3.87,20.89,20.89,0,0,0-2.43-3.46,26.46,26.46,0,0,0-6.3-5.47,21.82,21.82,0,0,0-7.81-2.92v-.08a16.54,16.54,0,0,1,8.22,2.32,20.73,20.73,0,0,1,6.22,5.9c.83,1.16,1.57,2.38,2.31,3.59l1.09,1.84c.33.63.7,1.25,1,1.9a20.8,20.8,0,0,1,1.39,4.07c.31,1.37.63,2.75,1,4.1Z" transform="translate(-53.03 -229.98)" style="fill:#1d1d1b"/><path d="M224,327.68a14.79,14.79,0,0,1-1.56-3.95,37.28,37.28,0,0,0-1.31-4,36.24,36.24,0,0,0-1.58-3.88,21.65,21.65,0,0,0-2.25-3.54,27.24,27.24,0,0,0-5.94-5.76,19.66,19.66,0,0,0-7.58-3.25v-.07a15.1,15.1,0,0,1,8,2.65,21.32,21.32,0,0,1,5.81,6.2c.77,1.19,1.46,2.42,2.15,3.65a39.39,39.39,0,0,1,2,3.76,21.82,21.82,0,0,1,1.26,4.07,24.43,24.43,0,0,0,1.07,4Z" transform="translate(-53.03 -229.98)" style="fill:#1d1d1b"/><path d="M229.24,303.44a66.94,66.94,0,0,0-5.15-5.23,23.42,23.42,0,0,0-2.78-2.38l-.76-.53-.8-.44a12.61,12.61,0,0,0-1.65-.81,25.35,25.35,0,0,0-7-1.89l-1.8-.2h-1.82c-.3,0-.61,0-.91,0l-.91.1c-.61.06-1.22.12-1.84.16l0-.07c.6-.17,1.2-.32,1.8-.47l.91-.21c.31-.06.62-.07.93-.1l1.88-.13c.62,0,1.25.08,1.87.12a18.71,18.71,0,0,1,7.08,2.32c.57.26,1.06.65,1.6.95s1.05.65,1.56,1a32,32,0,0,1,3.06,2.11,21,21,0,0,1,4.8,5.65Z" transform="translate(-53.03 -229.98)" style="fill:#1d1d1b"/><path d="M230.61,302.45a60.71,60.71,0,0,0-5.33-5.65,26.29,26.29,0,0,0-2.93-2.54,11.68,11.68,0,0,0-1.65-1,12.72,12.72,0,0,0-1.74-.85c-.61-.23-1.2-.5-1.81-.7l-1.84-.57c-.61-.2-1.25-.27-1.87-.41l-.94-.2-1-.08a30.65,30.65,0,0,0-7.71.1l0-.07a19.68,19.68,0,0,1,7.82-.83,19.14,19.14,0,0,1,7.5,2.39c.6.28,1.14.67,1.7,1s1.12.67,1.66,1.05a35.87,35.87,0,0,1,3.21,2.28,21.54,21.54,0,0,1,5,6.07Z" transform="translate(-53.03 -229.98)" style="fill:#1d1d1b"/><path d="M232,301.46a55.59,55.59,0,0,0-5.49-6.07,27.32,27.32,0,0,0-3.09-2.69,12.41,12.41,0,0,0-1.74-1.09l-.89-.5-.95-.4c-.64-.24-1.24-.55-1.9-.74l-1.94-.61c-.66-.16-1.33-.27-2-.41-.33-.05-.66-.15-1-.19l-1-.09a33.24,33.24,0,0,0-8.15.16l0-.08a21.47,21.47,0,0,1,8.25-.87l1,.09a9,9,0,0,1,1,.22c.68.16,1.36.3,2,.5l2,.73a16.2,16.2,0,0,1,1.87.92c.31.17.62.31.92.49l.88.55c.58.37,1.18.71,1.74,1.12a34.65,34.65,0,0,1,3.37,2.43,24.74,24.74,0,0,1,2.87,3,19.44,19.44,0,0,1,2.27,3.48Z" transform="translate(-53.03 -229.98)" style="fill:#1d1d1b"/><path d="M233.34,300.47a52.63,52.63,0,0,0-5.65-6.53,27.59,27.59,0,0,0-3.23-2.87,13.76,13.76,0,0,0-1.82-1.17c-.31-.18-.62-.36-.94-.53l-1-.43a39,39,0,0,0-4-1.44,30.48,30.48,0,0,0-4.22-.71c-.71-.05-1.42-.2-2.13-.18h-2.15a14,14,0,0,0-2.15.15c-.72.08-1.44.15-2.17.21l0-.07a21.27,21.27,0,0,1,17.07,1.67l1,.51.92.59c.61.39,1.25.74,1.83,1.19s1.23.8,1.8,1.25,1.17.88,1.72,1.37a24.57,24.57,0,0,1,3,3.23,20.06,20.06,0,0,1,2.32,3.71Z" transform="translate(-53.03 -229.98)" style="fill:#1d1d1b"/><path d="M234.71,299.48a50.24,50.24,0,0,0-5.83-6.92c-.53-.53-1.09-1-1.63-1.57a22,22,0,0,0-1.76-1.43,14.71,14.71,0,0,0-1.91-1.22,12.38,12.38,0,0,0-2-1,34.65,34.65,0,0,0-4.26-1.48,30.27,30.27,0,0,0-4.43-.71,28.05,28.05,0,0,0-4.49-.15,15.52,15.52,0,0,0-2.26.17c-.75.09-1.51.15-2.27.22l0-.07c.74-.17,1.48-.36,2.23-.52a13.65,13.65,0,0,1,2.27-.39l2.31-.15.57,0,.58,0,1.15.09a21.21,21.21,0,0,1,8.8,2.62l1,.53c.34.18.65.41,1,.6l1,.61a8.82,8.82,0,0,1,1,.63c.61.45,1.27.86,1.88,1.32s1.21.94,1.79,1.44,1.12,1.05,1.62,1.64,1,1.15,1.46,1.78a20.34,20.34,0,0,1,2.39,3.92Z" transform="translate(-53.03 -229.98)" style="fill:#1d1d1b"/><path d="M236.08,298.49a48.27,48.27,0,0,0-6-7.36,26.55,26.55,0,0,0-3.53-3.17,21.4,21.4,0,0,0-4.13-2.36,32.77,32.77,0,0,0-4.48-1.51,33.46,33.46,0,0,0-4.65-.79,40.11,40.11,0,0,0-9.47.34l0-.08a26.78,26.78,0,0,1,9.56-1.05,24.27,24.27,0,0,1,9.24,2.72c1.42.76,2.77,1.62,4.1,2.51a37.27,37.27,0,0,1,3.81,2.95,24.55,24.55,0,0,1,5.63,7.77Z" transform="translate(-53.03 -229.98)" style="fill:#1d1d1b"/><path d="M237.45,297.51a47.56,47.56,0,0,0-6.16-7.86,28,28,0,0,0-3.68-3.37,22.29,22.29,0,0,0-4.33-2.51,31.79,31.79,0,0,0-4.7-1.61,32.46,32.46,0,0,0-4.89-.84,42.66,42.66,0,0,0-10,.36l0-.07a28.58,28.58,0,0,1,10-1.09,25.3,25.3,0,0,1,9.7,2.88,45.3,45.3,0,0,1,4.3,2.67,37.23,37.23,0,0,1,4,3.14,25.81,25.81,0,0,1,5.78,8.26Z" transform="translate(-53.03 -229.98)" style="fill:#1d1d1b"/><path d="M234,290.33a19.1,19.1,0,0,0-2.57-3.35A20.8,20.8,0,0,0,230,285.5c-.54-.44-1.06-.91-1.61-1.35a20.29,20.29,0,0,0-3.53-2.32c-.65-.28-1.29-.58-2-.81s-1.37-.38-2.05-.57a38.9,38.9,0,0,0-8.4-.74c-.71,0-1.41,0-2.11.07l-2.12.11c-1.41.15-2.82.34-4.25.45v-.08c1.38-.35,2.78-.69,4.19-.95a40.76,40.76,0,0,1,4.28-.4l2.16,0c.72,0,1.44.15,2.15.22a23.31,23.31,0,0,1,4.22.9c.68.24,1.34.5,2,.71s1.31.58,2,.84,1.29.63,1.94.93,1.24.74,1.86,1.11a18.28,18.28,0,0,1,1.69,1.36c.5.53,1,1,1.48,1.59a12.86,12.86,0,0,1,2.2,3.7Z" transform="translate(-53.03 -229.98)" style="fill:#1d1d1b"/><path d="M203.81,279a28.94,28.94,0,0,1,8.11-1.24c1.37,0,2.74.14,4.1.25s2.73.21,4.09.4a21.39,21.39,0,0,1,7.76,2.78,18.62,18.62,0,0,1,6,5.62l-.06,0a26.68,26.68,0,0,0-6.34-5,27.91,27.91,0,0,0-7.43-3,21.77,21.77,0,0,0-4-.58,34.52,34.52,0,0,0-4.07.13c-2.71.14-5.39.39-8.11.69Z" transform="translate(-53.03 -229.98)" style="fill:#1d1d1b"/><path d="M203.81,277.63a29.52,29.52,0,0,1,7.8-1.22c1.32,0,2.63.06,3.95.09s2.62.05,3.95.12a16.32,16.32,0,0,1,3.92.66,22.71,22.71,0,0,1,3.74,1.39,21.74,21.74,0,0,1,6.45,4.57l-.05.05a36,36,0,0,0-6.74-3.9,27.68,27.68,0,0,0-7.37-2.35,25.51,25.51,0,0,0-3.9-.3c-1.31,0-2.62.16-3.92.29-2.6.2-5.19.4-7.81.67Z" transform="translate(-53.03 -229.98)" style="fill:#1d1d1b"/><path d="M203.81,276.27a32.34,32.34,0,0,1,7.55-1.22c1.27,0,2.55,0,3.82,0l3.82-.12a16.07,16.07,0,0,1,3.85.31,26.48,26.48,0,0,1,3.72,1,32.38,32.38,0,0,1,3.54,1.5,17.73,17.73,0,0,1,3.27,2l0,.06a51.82,51.82,0,0,0-7-2.82,30.18,30.18,0,0,0-7.32-1.63,28.33,28.33,0,0,0-3.8-.05c-1.27.07-2.53.25-3.79.4-2.52.27-5,.43-7.57.67Z" transform="translate(-53.03 -229.98)" style="fill:#1d1d1b"/><path d="M203.81,275a39.1,39.1,0,0,1,7.33-1.36l3.73-.19,3.72-.31a13.19,13.19,0,0,1,1.89,0c.63,0,1.25.11,1.87.19,1.23.17,2.46.36,3.68.62s2.42.59,3.62.94a16.72,16.72,0,0,1,3.49,1.36l0,.06a33.49,33.49,0,0,0-3.59-.86l-3.64-.71c-1.21-.24-2.42-.5-3.63-.71l-1.82-.3a18.12,18.12,0,0,0-1.82-.13,27,27,0,0,0-3.71.13c-1.23.13-2.45.37-3.67.57-2.45.35-4.91.6-7.39.81Z" transform="translate(-53.03 -229.98)" style="fill:#1d1d1b"/><path d="M203.81,273.66a45.88,45.88,0,0,1,7.23-1.3c1.22-.11,2.44-.16,3.66-.29s2.42-.34,3.62-.55A20.25,20.25,0,0,1,222,271a32.6,32.6,0,0,1,3.7.11c1.22.12,2.44.3,3.65.52a17.1,17.1,0,0,1,3.56,1l0,.07a33.62,33.62,0,0,0-3.61-.47c-1.21-.13-2.43-.21-3.64-.3s-2.42-.18-3.62-.2a34.46,34.46,0,0,0-3.63.18c-1.22.09-2.43.2-3.64.38s-2.41.45-3.61.66c-2.41.39-4.85.61-7.29.76Z" transform="translate(-53.03 -229.98)" style="fill:#1d1d1b"/><path d="M203.82,272.31A60.47,60.47,0,0,1,211,271c1.21-.13,2.43-.22,3.62-.42a32.54,32.54,0,0,0,3.55-.79c.6-.17,1.13-.35,1.73-.54a10.58,10.58,0,0,1,1.82-.4,30.13,30.13,0,0,1,3.67-.32c1.22,0,2.44,0,3.66.06a16.5,16.5,0,0,1,3.63.54l0,.07a27.31,27.31,0,0,0-3.62,0c-1.21,0-2.42.09-3.62.15s-2.41.13-3.6.25a14.19,14.19,0,0,0-1.75.29l-.89.22-.91.16c-1.21.19-2.41.35-3.61.57s-2.37.53-3.56.78a47.6,47.6,0,0,1-7.25.81Z" transform="translate(-53.03 -229.98)" style="fill:#1d1d1b"/><path d="M225,371.41l-5.74,9.92A67.58,67.58,0,0,0,214,391.48c-1.44,3.54-2.87,7.08-4,10.71a63.56,63.56,0,0,0-2.58,11.11h-.08A39.42,39.42,0,0,1,209.23,402c.3-.91.58-1.84.9-2.74l1.07-2.68c.33-.9.76-1.76,1.15-2.64s.8-1.74,1.25-2.59L218.74,381a73.24,73.24,0,0,1,6.21-9.67Z" transform="translate(-53.03 -229.98)" style="fill:#1d1d1b"/><path d="M224.6,368.3,218.77,379a76,76,0,0,0-5.36,11c-1.44,3.8-2.87,7.6-4,11.5a69.28,69.28,0,0,0-2.49,11.88h-.07a43.19,43.19,0,0,1,1.81-12.1c.3-1,.58-2,.89-2.93l1.06-2.88c.34-1,.76-1.9,1.15-2.84s.81-1.88,1.25-2.79l5.19-11.08a81.32,81.32,0,0,1,6.32-10.47Z" transform="translate(-53.03 -229.98)" style="fill:#1d1d1b"/><path d="M224.18,365.2l-5.92,11.51a83.17,83.17,0,0,0-5.4,11.75c-1.45,4.06-2.89,8.12-4,12.28a75.29,75.29,0,0,0-2.38,12.67h-.08a47.49,47.49,0,0,1,1.71-12.86c.3-1,.57-2.09.88-3.13l1.06-3.07c.33-1,.75-2,1.15-3s.8-2,1.25-3l1.31-3c.44-1,.89-2,1.31-3,.89-2,1.69-4,2.62-5.94a89.57,89.57,0,0,1,6.41-11.27Z" transform="translate(-53.03 -229.98)" style="fill:#1d1d1b"/><path d="M223.77,362.1l-6,12.3A90.7,90.7,0,0,0,212.3,387c-1.45,4.32-2.88,8.65-4,13.07a80,80,0,0,0-2.29,13.44H206a51.41,51.41,0,0,1,1.61-13.63l.87-3.33,1-3.27c.33-1.1.75-2.16,1.15-3.24s.8-2.14,1.26-3.19l2.63-6.33c.9-2.1,1.7-4.25,2.65-6.33a97.51,97.51,0,0,1,6.5-12.08Z" transform="translate(-53.03 -229.98)" style="fill:#1d1d1b"/><path d="M223.35,359l-6.1,13.09a98.74,98.74,0,0,0-5.5,13.34c-1.46,4.59-2.89,9.18-3.95,13.86a85.13,85.13,0,0,0-2.19,14.22h-.08A56.3,56.3,0,0,1,207,399.12l.86-3.53,1-3.47c.33-1.16.75-2.29,1.15-3.43s.8-2.28,1.26-3.4l2.65-6.73c.91-2.23,1.72-4.51,2.67-6.72A105.67,105.67,0,0,1,223.29,359Z" transform="translate(-53.03 -229.98)" style="fill:#1d1d1b"/><path d="M222.94,355.9c-2.11,4.61-4.15,9.25-6.19,13.88a107.21,107.21,0,0,0-5.56,14.14c-1.46,4.85-2.89,9.7-3.94,14.65a91,91,0,0,0-2.09,15h-.07a60,60,0,0,1,1.41-15.17l.85-3.72,1-3.67c.33-1.23.75-2.42,1.15-3.63s.8-2.41,1.27-3.59l2.66-7.14c.92-2.36,1.74-4.77,2.71-7.12a114.44,114.44,0,0,1,6.69-13.67Z" transform="translate(-53.03 -229.98)" style="fill:#1d1d1b"/><path d="M222.52,352.8c-2.14,4.87-4.21,9.77-6.28,14.67a115.08,115.08,0,0,0-5.6,14.93c-1.46,5.11-2.89,10.24-3.93,15.44a97.14,97.14,0,0,0-2,15.78h-.08A65.11,65.11,0,0,1,206,397.69l.84-3.92,1-3.87c.32-1.29.74-2.56,1.15-3.83s.8-2.54,1.26-3.79l2.69-7.53c.92-2.5,1.75-5,2.73-7.52a124.48,124.48,0,0,1,6.78-14.47Z" transform="translate(-53.03 -229.98)" style="fill:#1d1d1b"/><path d="M225.49,372.5a73.1,73.1,0,0,1-3.57,7.07c-.68,1.13-1.4,2.24-2,3.39s-1.23,2.33-1.79,3.53c-1.12,2.39-2.29,4.76-3.48,7.11l-1.83,3.5a26.78,26.78,0,0,0-1.67,3.56H211a16.19,16.19,0,0,1,1.21-3.8c.52-1.22,1.06-2.43,1.65-3.61,1.19-2.36,2.46-4.68,3.82-6.94.68-1.14,1.34-2.28,1.94-3.46s1.14-2.39,1.72-3.57a63.36,63.36,0,0,1,4.06-6.81Z" transform="translate(-53.03 -229.98)" style="fill:#1d1d1b"/><path d="M225.73,375.11a39.19,39.19,0,0,1-2.72,5.56c-.54.88-1.13,1.73-1.64,2.62s-1,1.82-1.41,2.75a70.09,70.09,0,0,1-6.07,10.77l-.07,0a70,70,0,0,1,5.78-10.93c.55-.87,1.08-1.76,1.55-2.68s.87-1.87,1.31-2.8a40.73,40.73,0,0,1,3.21-5.29Z" transform="translate(-53.03 -229.98)" style="fill:#1d1d1b"/><path d="M226,377.73a25.81,25.81,0,0,1-2.22,4.35c-.45.67-.95,1.32-1.38,2a19.34,19.34,0,0,0-1.14,2.16c-.69,1.48-1.44,2.92-2.22,4.34s-1.68,2.77-2.53,4.16l-.07,0a22.27,22.27,0,0,1,1.9-4.52c.79-1.43,1.63-2.82,2.56-4.17a21,21,0,0,0,1.28-2.07c.39-.72.7-1.48,1.06-2.21a24.36,24.36,0,0,1,2.7-4.07Z" transform="translate(-53.03 -229.98)" style="fill:#1d1d1b"/><path d="M226.21,380.34a17.59,17.59,0,0,1-1.89,3.37c-.4.52-.84,1-1.2,1.53a12.13,12.13,0,0,0-.94,1.69c-.53,1.18-1.14,2.31-1.73,3.44a34.91,34.91,0,0,0-1.76,3.38h-.08a9.52,9.52,0,0,1,1.13-3.74,23.69,23.69,0,0,1,2.09-3.28,15.69,15.69,0,0,0,1.09-1.61c.31-.56.57-1.16.87-1.73a14.92,14.92,0,0,1,2.36-3.08Z" transform="translate(-53.03 -229.98)" style="fill:#1d1d1b"/><path d="M226.45,383a10.5,10.5,0,0,1-1.52,2.67c-.33.4-.7.76-1,1.17a7.58,7.58,0,0,0-.77,1.32,29.18,29.18,0,0,1-1.46,2.7c-.54.86-1.12,1.68-1.73,2.52l-.07,0a9.3,9.3,0,0,1,1.12-2.9,17.62,17.62,0,0,1,1.79-2.51,8.47,8.47,0,0,0,.92-1.24c.26-.44.45-.92.7-1.38a9.45,9.45,0,0,1,2-2.36Z" transform="translate(-53.03 -229.98)" style="fill:#1d1d1b"/><path d="M227.12,384.68a7.94,7.94,0,0,1-1.35,2.2c-.29.32-.63.6-.9.94a5.34,5.34,0,0,0-.64,1.11c-.35.8-.75,1.54-1.14,2.29l-1.31,2.2-.07,0a5.86,5.86,0,0,1,.67-2.55,10.3,10.3,0,0,1,1.5-2.14,7,7,0,0,0,.79-1c.23-.37.39-.78.6-1.16a6.44,6.44,0,0,1,1.79-1.89Z" transform="translate(-53.03 -229.98)" style="fill:#1d1d1b"/><path d="M227.19,387.42a4.65,4.65,0,0,1-1.12,1.45,6.54,6.54,0,0,0-.74.56,2.44,2.44,0,0,0-.48.77c-.23.57-.5,1.09-.74,1.62s-.53,1-.85,1.59h-.07a3.2,3.2,0,0,1,.19-1.91,4.76,4.76,0,0,1,1.13-1.53,4.16,4.16,0,0,0,.64-.69c.17-.25.29-.56.47-.82a3.07,3.07,0,0,1,1.52-1.09Z" transform="translate(-53.03 -229.98)" style="fill:#1d1d1b"/><path d="M227.13,390.82a2.59,2.59,0,0,1-.93.25.87.87,0,0,0-.48,0,.55.55,0,0,0-.31.37,3.83,3.83,0,0,1-.84,1.77h-.07a1.6,1.6,0,0,1-.12-1.13,1.63,1.63,0,0,1,.73-.91,3,3,0,0,0,.48-.3,2.18,2.18,0,0,1,.45-.4.94.94,0,0,1,1.12.28Z" transform="translate(-53.03 -229.98)" style="fill:#1d1d1b"/><path d="M204.74,408.17a73.78,73.78,0,0,1,1.82-15c.54-2.47,1.24-4.9,1.85-7.35l1.91-7.33a114.16,114.16,0,0,1,4.81-14.36,52.57,52.57,0,0,1,7.45-13.18l.06.05a74.79,74.79,0,0,0-6.79,13.42c-1.89,4.66-3.57,9.4-5.14,14.19a100,100,0,0,0-3.54,14.68c-.94,4.94-1.83,9.89-2.36,14.91Z" transform="translate(-53.03 -229.98)" style="fill:#1d1d1b"/><path d="M204.55,402.79a66.5,66.5,0,0,1,1.85-14.32c.55-2.35,1.26-4.65,1.88-7l1.92-7A105.53,105.53,0,0,1,215,360.9c.47-1.11,1-2.21,1.53-3.28l.82-1.61.89-1.58a36.5,36.5,0,0,1,4.17-5.92l.06.05a68.32,68.32,0,0,0-6.76,12.65c-1.88,4.41-3.56,8.9-5.13,13.45A92.87,92.87,0,0,0,207,388.6c-.95,4.71-1.86,9.41-2.39,14.19Z" transform="translate(-53.03 -229.98)" style="fill:#1d1d1b"/><path d="M204.49,397.41a59.35,59.35,0,0,1,1.88-13.59c.55-2.22,1.25-4.41,1.87-6.6l1.92-6.59a97.15,97.15,0,0,1,4.78-12.88c.47-1,1-2.08,1.51-3.09l.81-1.52.89-1.47a32.09,32.09,0,0,1,4.12-5.5l.06.05a61.18,61.18,0,0,0-6.69,11.85c-1.86,4.16-3.53,8.4-5.09,12.69-.75,2.15-1.48,4.32-2.06,6.53-.32,1.09-.55,2.21-.81,3.32s-.47,2.23-.71,3.35c-.95,4.46-1.88,8.91-2.4,13.45Z" transform="translate(-53.03 -229.98)" style="fill:#1d1d1b"/><path d="M204.44,392a53.37,53.37,0,0,1,1.87-12.82c.55-2.1,1.25-4.15,1.87-6.21l1.89-6.2a86.13,86.13,0,0,1,4.72-12.08c.46-1,1-2,1.49-2.89.27-.48.52-.95.8-1.42L218,349A28.46,28.46,0,0,1,222,344l.06.06a53.69,53.69,0,0,0-6.59,11c-1.84,3.88-3.49,7.86-5,11.88-.74,2-1.47,4.06-2,6.14-.32,1-.56,2.08-.81,3.13s-.48,2.1-.7,3.15a126.47,126.47,0,0,0-2.4,12.68Z" transform="translate(-53.03 -229.98)" style="fill:#1d1d1b"/><path d="M204.39,386.64a47.59,47.59,0,0,1,1.86-12.08c.54-2,1.23-3.89,1.84-5.84L210,362.9a78,78,0,0,1,4.63-11.34c.45-.91.93-1.82,1.46-2.69.27-.44.52-.89.79-1.32l.86-1.28a24.62,24.62,0,0,1,4-4.63l.05.05a47,47,0,0,0-6.48,10.22c-1.8,3.63-3.42,7.35-4.93,11.13-.73,1.9-1.45,3.8-2,5.76-.31,1-.55,2-.79,2.95s-.48,2-.7,3a115.12,115.12,0,0,0-2.38,11.94Z" transform="translate(-53.03 -229.98)" style="fill:#1d1d1b"/><path d="M204.34,381.26A42.22,42.22,0,0,1,206.17,370c.53-1.83,1.21-3.62,1.81-5.43l1.82-5.41a67.66,67.66,0,0,1,4.52-10.51c.44-.85.91-1.68,1.43-2.48s1.05-1.61,1.62-2.38a21,21,0,0,1,3.93-4.16l0,.05A40.12,40.12,0,0,0,215,349c-1.75,3.35-3.34,6.79-4.82,10.29-.71,1.75-1.41,3.52-2,5.34-.3.91-.54,1.82-.77,2.75s-.47,1.84-.68,2.76a108.09,108.09,0,0,0-2.36,11.11Z" transform="translate(-53.03 -229.98)" style="fill:#1d1d1b"/><path d="M204.29,375.88a27,27,0,0,1,.53-5.32,45.88,45.88,0,0,1,1.28-5.2c.53-1.7,1.17-3.36,1.77-5l1.78-5a59.51,59.51,0,0,1,4.39-9.74c.43-.79.91-1.54,1.41-2.28a25.69,25.69,0,0,1,1.58-2.18,18.35,18.35,0,0,1,3.86-3.71l0,.06a33.69,33.69,0,0,0-6.2,8.5c-1.73,3.07-3.27,6.26-4.7,9.51a47.9,47.9,0,0,0-1.91,5c-.3.84-.54,1.69-.76,2.55s-.46,1.71-.66,2.57a94.37,94.37,0,0,0-2.34,10.35Z" transform="translate(-53.03 -229.98)" style="fill:#1d1d1b"/><path d="M204.24,370.49a24.23,24.23,0,0,1,.51-4.94,43.9,43.9,0,0,1,1.24-4.8c.52-1.58,1.14-3.11,1.71-4.66l1.7-4.65a53,53,0,0,1,4.23-9,23.3,23.3,0,0,1,1.37-2.08,22.23,22.23,0,0,1,1.54-2,15.23,15.23,0,0,1,3.76-3.26l0,.07a28,28,0,0,0-6,7.65,95,95,0,0,0-4.53,8.74,46.55,46.55,0,0,0-1.84,4.58c-.27.77-.51,1.56-.72,2.36s-.44,1.58-.63,2.38a87.19,87.19,0,0,0-2.28,9.58Z" transform="translate(-53.03 -229.98)" style="fill:#1d1d1b"/><path d="M204.19,365.11a20.66,20.66,0,0,1,.52-4.57,35.86,35.86,0,0,1,1.22-4.43c.51-1.44,1.11-2.85,1.67-4.27l1.66-4.27a44.77,44.77,0,0,1,4.11-8.22,22.31,22.31,0,0,1,1.34-1.89,20.81,20.81,0,0,1,1.5-1.76,13.13,13.13,0,0,1,3.67-2.79l0,.07a23.37,23.37,0,0,0-5.87,6.8,79.66,79.66,0,0,0-4.4,8c-.35.68-.66,1.38-1,2.08a22.71,22.71,0,0,0-.83,2.12c-.54,1.43-.91,2.91-1.33,4.37a80.86,80.86,0,0,0-2.26,8.82Z" transform="translate(-53.03 -229.98)" style="fill:#1d1d1b"/><path d="M204.13,359.73a17.12,17.12,0,0,1,.52-4.16,33.48,33.48,0,0,1,1.19-4c.5-1.3,1.09-2.56,1.63-3.84l1.59-3.86a39.13,39.13,0,0,1,4-7.37,21.42,21.42,0,0,1,2.76-3.18,10.18,10.18,0,0,1,3.53-2.27l0,.07a18.82,18.82,0,0,0-5.67,5.84,71,71,0,0,0-4.24,7.09,33,33,0,0,0-1.74,3.77c-.5,1.29-.88,2.63-1.27,3.95a69.26,69.26,0,0,0-2.22,8Z" transform="translate(-53.03 -229.98)" style="fill:#1d1d1b"/><path d="M203.78,354.25a13.86,13.86,0,0,1,.54-3.74,28.29,28.29,0,0,1,1.18-3.58c.5-1.15,1.08-2.27,1.61-3.4l1.56-3.42a31.54,31.54,0,0,1,3.88-6.47,18,18,0,0,1,2.68-2.7,8.91,8.91,0,0,1,3.38-1.73l0,.07a15.6,15.6,0,0,0-5.45,4.86A55.21,55.21,0,0,0,209,340.3a27.45,27.45,0,0,0-1.7,3.33c-.49,1.15-.86,2.34-1.25,3.52a61.46,61.46,0,0,0-2.23,7.1Z" transform="translate(-53.03 -229.98)" style="fill:#1d1d1b"/><path d="M203.78,348.81a11.71,11.71,0,0,1,.54-3.32,23.65,23.65,0,0,1,1.13-3.15c.47-1,1-2,1.53-3l1.47-3a25,25,0,0,1,3.7-5.61,13.58,13.58,0,0,1,2.57-2.21,7.33,7.33,0,0,1,3.16-1.21v.08a12.54,12.54,0,0,0-5.15,3.87,46.66,46.66,0,0,0-3.93,5.28,22.78,22.78,0,0,0-1.61,2.9c-.46,1-.81,2.07-1.17,3.11a62.2,62.2,0,0,0-2.17,6.24Z" transform="translate(-53.03 -229.98)" style="fill:#1d1d1b"/><path d="M203.79,343.45a9.84,9.84,0,0,1,.53-2.9,18.73,18.73,0,0,1,1.07-2.72c.45-.87,1-1.7,1.45-2.55l1.38-2.58a18.49,18.49,0,0,1,3.5-4.73,7.89,7.89,0,0,1,5.33-2.4v.08a10.09,10.09,0,0,0-4.79,2.9,32.48,32.48,0,0,0-3.7,4.37,16.06,16.06,0,0,0-1.52,2.47c-.42.87-.74,1.79-1.09,2.69-.69,1.79-1.54,3.53-2.09,5.37Z" transform="translate(-53.03 -229.98)" style="fill:#1d1d1b"/><path d="M203.78,338a9.48,9.48,0,0,1,.56-2.49,14.51,14.51,0,0,1,1-2.31c.42-.73.91-1.43,1.36-2.13s.87-1.44,1.31-2.17a13.48,13.48,0,0,1,3.34-3.85,6.57,6.57,0,0,1,4.86-1.4v.08a8.6,8.6,0,0,0-4.38,2,23.69,23.69,0,0,0-3.49,3.45,13.2,13.2,0,0,0-1.43,2.05,24.32,24.32,0,0,0-1,2.28c-.66,1.52-1.45,3-2.07,4.53Z" transform="translate(-53.03 -229.98)" style="fill:#1d1d1b"/><path d="M203.79,332.59a11,11,0,0,1,1.42-4c.37-.61.84-1.15,1.24-1.74s.78-1.17,1.2-1.75a5.89,5.89,0,0,1,.65-.86,6.82,6.82,0,0,1,.74-.78c.28-.24.54-.49.83-.72l.92-.59a6.68,6.68,0,0,1,4.24-.66v.07a11,11,0,0,0-3.85,1.29,15.71,15.71,0,0,0-3.22,2.51,9,9,0,0,0-1.31,1.63,16.29,16.29,0,0,0-.89,1.89c-.59,1.26-1.23,2.48-1.9,3.73Z" transform="translate(-53.03 -229.98)" style="fill:#1d1d1b"/><path d="M203.79,327.09a7.57,7.57,0,0,1,1.43-3c.36-.43.79-.81,1.17-1.21s.73-.84,1.11-1.27a7.24,7.24,0,0,1,2.75-2,5.59,5.59,0,0,1,3.4-.23v.08a12.63,12.63,0,0,0-3.08.89,14.59,14.59,0,0,0-2.79,1.57,5.45,5.45,0,0,0-1.19,1.11,10.25,10.25,0,0,0-.85,1.42,26.1,26.1,0,0,1-1.87,2.7Z" transform="translate(-53.03 -229.98)" style="fill:#1d1d1b"/><path d="M203.79,321.33a4,4,0,0,1,1.31-1.93c.32-.23.68-.4,1-.62a8.7,8.7,0,0,0,.91-.72,5.13,5.13,0,0,1,2.11-1.09,4.44,4.44,0,0,1,2.37.13v.08c-.76.2-1.47.36-2.16.57s-1.38.41-2.1.66a3.23,3.23,0,0,0-1,.56,7.48,7.48,0,0,0-.72.88,9.17,9.17,0,0,1-1.68,1.53Z" transform="translate(-53.03 -229.98)" style="fill:#1d1d1b"/><path d="M203.8,317.09a2,2,0,0,1,1-1.08c.24-.08.51-.1.75-.18a2.65,2.65,0,0,0,.65-.37,3.19,3.19,0,0,1,1.42-.56,2.58,2.58,0,0,1,1.51.29v.07a7.82,7.82,0,0,1-1.39.43c-.46.06-.91.13-1.4.16a1.53,1.53,0,0,0-.69.2,3.57,3.57,0,0,0-.53.5,3.09,3.09,0,0,1-1.32.6Z" transform="translate(-53.03 -229.98)" style="fill:#1d1d1b"/><g id="_Groupe_" data-name="&lt;Groupe&gt;"><path d="M222.19,408.19a15.81,15.81,0,0,1-4,3c-.75.37-1.54.68-2.3,1s-1.5.72-2.25,1.11a19.46,19.46,0,0,1-4.77,1.68,13.83,13.83,0,0,1-5.05,0V415a41.14,41.14,0,0,0,4.89-.73c1.6-.34,3.18-.77,4.77-1.27a12.71,12.71,0,0,0,2.29-1c.74-.39,1.41-.89,2.1-1.34,1.39-.89,2.82-1.72,4.28-2.55Z" transform="translate(-53.03 -229.98)" style="fill:#1d1d1b"/></g><g id="_Groupe_2" data-name="&lt;Groupe&gt;"><path d="M221.92,410A14.68,14.68,0,0,1,218,413c-.74.35-1.5.64-2.25,1s-1.46.69-2.19,1.06a18.76,18.76,0,0,1-4.62,1.61,14.66,14.66,0,0,1-4.9.08v-.07c1.62-.23,3.19-.43,4.74-.8s3.09-.72,4.63-1.2a12.79,12.79,0,0,0,2.24-.9c.71-.37,1.37-.86,2-1.29,1.36-.86,2.74-1.65,4.16-2.45Z" transform="translate(-53.03 -229.98)" style="fill:#1d1d1b"/></g><g id="_Groupe_3" data-name="&lt;Groupe&gt;"><path d="M221.12,412.14a12.74,12.74,0,0,1-3.72,2.76c-.7.32-1.44.58-2.15.87s-1.4.64-2.1,1a16.83,16.83,0,0,1-4.44,1.38,13.45,13.45,0,0,1-4.65-.11v-.08c1.54-.18,3-.29,4.51-.6a44,44,0,0,0,4.43-1,10.39,10.39,0,0,0,2.14-.79c.68-.34,1.31-.79,1.95-1.19,1.3-.8,2.61-1.53,4-2.28Z" transform="translate(-53.03 -229.98)" style="fill:#1d1d1b"/></g><g id="_Groupe_4" data-name="&lt;Groupe&gt;"><path d="M219.45,414.78a10.78,10.78,0,0,1-3.48,2.13c-.65.22-1.33.37-2,.58s-1.27.46-1.91.72a18.37,18.37,0,0,1-3.93,1.11,15.56,15.56,0,0,1-4.09.09v-.08c1.34-.32,2.65-.52,4-.79s2.63-.49,4-.73a10.2,10.2,0,0,0,1.94-.55c.62-.26,1.21-.61,1.8-.92,1.2-.6,2.42-1.11,3.69-1.62Z" transform="translate(-53.03 -229.98)" style="fill:#1d1d1b"/></g><path d="M203.82,271.11" transform="translate(-53.03 -229.98)" style="fill:none;stroke:#1d1d1b;stroke-miterlimit:10"/><path d="M204,271.11" transform="translate(-53.03 -229.98)" style="fill:none;stroke:#1d1d1b;stroke-miterlimit:10"/><path d="M203.94,317.15a3.13,3.13,0,0,1-1.33-.6,4.18,4.18,0,0,0-.53-.5,1.46,1.46,0,0,0-.69-.2c-.49,0-.94-.1-1.39-.16a7.15,7.15,0,0,1-1.4-.43v-.07a2.6,2.6,0,0,1,1.51-.29,3.15,3.15,0,0,1,1.42.56,2.53,2.53,0,0,0,.66.37c.23.08.5.1.74.18a2,2,0,0,1,1,1.08Z" transform="translate(-53.03 -229.98)" style="fill:#1d1d1b"/><path d="M204,271.11c-5.08-.89-15.75-2.76-22.22-3.59-7.87-1-23.61,3.11-28.49,3.49a.67.67,0,0,0-.57.94,21.81,21.81,0,0,1,.4,16.17,1.4,1.4,0,0,0,.12,1.24c3.4,5.52,19.73,55.32,20.16,59.4.46,4.28,6.54,19.16,9.44,22.62" transform="translate(-53.03 -229.98)" style="fill:none;stroke:#1d1d1b;stroke-miterlimit:10"/><path d="M204,313.49c-6,1-11.5,5.39-15.32,17-3.92,11.92-3.67,25.3-3.89,29s-4.59,20.91-4.11,31.37,4.42,15.82,8.59,18.5c3.5,2.25,9.89,4,14.74,4.34" transform="translate(-53.03 -229.98)" style="fill:none;stroke:#1d1d1b;stroke-miterlimit:10"/><path d="M200.43,413.3s-2.05-24.69-19.52-19.32C180.91,394,181.31,410.9,200.43,413.3Z" transform="translate(-53.03 -229.98)" style="fill:#1d1d1b"/><path d="M204,420.74c-5.7-.16-18.35-2-18.51-14.88" transform="translate(-53.03 -229.98)" style="fill:none;stroke:#1d1d1b;stroke-miterlimit:10"/><path d="M85.69,275.41s-8.36-3.17-11.86-15.34-1.73-18.48,2.65-18.24.17,14.15,5.34,19.22c8.69,8.52,12.16,3.92,17.47,7.19l5.26,7.18S91.92,261.06,93.4,246.23s10.26-17.51,13.29-14.83-1.84,12.65-4.36,17.51,5.46,26.52,23.59,23.61,26.32-1.5,26.32-1.5c4.63,8.88.53,17.85.53,17.85a35.15,35.15,0,0,0-7.27-.89s-16-1.16-24.89-.6c-6.81.42-19.46-1.79-24.6-2.6s-26.55-.08-34.09-12.48C50.19,253,53.37,246.92,56.06,245s7.66,13.88,10.86,17.78,10.13,6.32,11.08,6.08C78,268.84,79.29,271.58,85.69,275.41Z" transform="translate(-53.03 -229.98)" style="fill:#1d1d1b;stroke:#1d1d1b;stroke-miterlimit:10"/><path d="M175.19,320.84s-2.36-6-5.05-8.76-7-7.85-9-2.72l1.85,5.46s5.06,4.7,11.56,4.55" transform="translate(-53.03 -229.98)" style="fill:#1d1d1b"/><path d="M162.94,314.82s5.19,4.69,11.68,4.55" transform="translate(-53.03 -229.98)" style="fill:none;stroke:#1d1d1b;stroke-miterlimit:10"/><path d="M152.27,271a11.34,11.34,0,0,1,1.92,4.26c.14.77.21,1.55.3,2.32.07.38.09.77.16,1.15s.13.77.17,1.16a13.45,13.45,0,0,1-.15,4.69,11.89,11.89,0,0,1-1.86,4.3l-.07,0a34,34,0,0,0,1.15-4.43l.12-.55.07-.56c.06-.37.13-.74.17-1.12.05-.76.14-1.51.16-2.28a9.24,9.24,0,0,0-.16-2.29,18.56,18.56,0,0,0-.66-2.2L152.2,271Z" transform="translate(-53.03 -229.98)" style="fill:#1d1d1b"/><path d="M154.23,270.67a13,13,0,0,1,1.79,4.6c.12.82.17,1.64.24,2.46l.13,1.22c.05.41.13.81.15,1.23a15,15,0,0,1-.22,4.95,13.15,13.15,0,0,1-2,4.54l-.07,0a34.75,34.75,0,0,0,1.26-4.67,31.4,31.4,0,0,0,.59-4.77,11,11,0,0,0-.11-2.43,20.78,20.78,0,0,0-.61-2.35l-1.25-4.7Z" transform="translate(-53.03 -229.98)" style="fill:#1d1d1b"/><path d="M156.19,270.34a14.67,14.67,0,0,1,1.66,4.93c.1.86.13,1.73.18,2.6.05.43.08.86.12,1.29s.11.86.12,1.29a17,17,0,0,1-.3,5.22,14,14,0,0,1-2.08,4.78l-.07,0a35.75,35.75,0,0,0,1.37-4.92,35.1,35.1,0,0,0,.67-5,11.64,11.64,0,0,0-.07-2.57,21.64,21.64,0,0,0-.56-2.51l-1.11-5Z" transform="translate(-53.03 -229.98)" style="fill:#1d1d1b"/><path d="M158.16,270a16.93,16.93,0,0,1,1.52,5.25c.08.91.1,1.83.13,2.74s.12,1.81.2,2.72a19.51,19.51,0,0,1-.38,5.49,15,15,0,0,1-2.2,5l-.07,0a36.34,36.34,0,0,0,1.49-5.16,42.84,42.84,0,0,0,.75-5.32,14.32,14.32,0,0,0,0-2.7,24,24,0,0,0-.51-2.66c-.35-1.77-.65-3.53-1-5.33Z" transform="translate(-53.03 -229.98)" style="fill:#1d1d1b"/><path d="M160.12,269.68a19.16,19.16,0,0,1,1.4,5.57c.06,1,.06,1.92.08,2.87s.08,1.91.15,2.87a21.81,21.81,0,0,1-.46,5.75A15.76,15.76,0,0,1,159,292l-.06,0a36.75,36.75,0,0,0,1.61-5.41,49.54,49.54,0,0,0,.83-5.59,16.83,16.83,0,0,0,0-2.84,12.93,12.93,0,0,0-.2-1.41c-.09-.47-.16-.94-.26-1.4-.31-1.87-.58-3.73-.85-5.63Z" transform="translate(-53.03 -229.98)" style="fill:#1d1d1b"/><path d="M162.08,269.35a21.11,21.11,0,0,1,1.28,5.88c0,1,0,2,0,3s.05,2,.11,3a25,25,0,0,1-.55,6,16.81,16.81,0,0,1-2.45,5.52l-.06,0a36.59,36.59,0,0,0,1.73-5.67,57.16,57.16,0,0,0,.92-5.86,18.64,18.64,0,0,0,0-3,12.42,12.42,0,0,0-.17-1.48c-.07-.49-.14-1-.23-1.48-.28-2-.5-3.93-.73-5.93Z" transform="translate(-53.03 -229.98)" style="fill:#1d1d1b"/><path d="M164,269a23.83,23.83,0,0,1,1.16,6.19c0,1.06,0,2.11,0,3.16s0,2.1.06,3.15a27.27,27.27,0,0,1-.62,6.3,17.91,17.91,0,0,1-2.58,5.78l-.06,0a38.63,38.63,0,0,0,1.86-5.92c.44-2,.74-4.06,1-6.14a21.7,21.7,0,0,0,.11-3.12c0-.52-.08-1-.15-1.56s-.13-1-.21-1.55c-.23-2.07-.43-4.14-.61-6.23Z" transform="translate(-53.03 -229.98)" style="fill:#1d1d1b"/><path d="M166,268.68a25.58,25.58,0,0,1,1.05,6.5c0,1.1-.05,2.2-.07,3.3s0,2.19,0,3.29a29.14,29.14,0,0,1-.72,6.57,18.4,18.4,0,0,1-2.69,6l-.06,0a38.4,38.4,0,0,0,2-6.19,64.44,64.44,0,0,0,1.08-6.41,25.33,25.33,0,0,0,.16-3.26c0-.55-.07-1.09-.13-1.64s-.11-1.08-.18-1.62c-.2-2.17-.36-4.33-.5-6.53Z" transform="translate(-53.03 -229.98)" style="fill:#1d1d1b"/><path d="M168,268.35a28.44,28.44,0,0,1,.94,6.8c0,1.15-.09,2.3-.12,3.44,0,.57,0,1.14,0,1.71s0,1.15,0,1.72a31.11,31.11,0,0,1-.8,6.85,19.6,19.6,0,0,1-2.82,6.29l-.06,0a37.54,37.54,0,0,0,2.1-6.44,67.25,67.25,0,0,0,1.17-6.69,24.16,24.16,0,0,0,.21-3.4c0-1.14-.15-2.28-.26-3.41-.17-2.27-.29-4.53-.39-6.82Z" transform="translate(-53.03 -229.98)" style="fill:#1d1d1b"/><path d="M169.93,268a31.53,31.53,0,0,1,.82,7.11c0,1.19-.12,2.39-.17,3.58,0,.59,0,1.19,0,1.78s0,1.2,0,1.79a17.73,17.73,0,0,1-.08,1.79c0,.6-.08,1.2-.17,1.79s-.16,1.19-.26,1.78l-.38,1.76a20.07,20.07,0,0,1-2.94,6.55l-.06,0a36.55,36.55,0,0,0,2.22-6.7,67.12,67.12,0,0,0,1.26-7,26.38,26.38,0,0,0,.26-3.55c0-1.19-.11-2.37-.21-3.55-.13-2.37-.22-4.73-.28-7.11Z" transform="translate(-53.03 -229.98)" style="fill:#1d1d1b"/><path d="M171.89,267.68a34.17,34.17,0,0,1,.72,7.41c0,1.24-.16,2.48-.22,3.72,0,.61-.06,1.23-.07,1.85s0,1.24-.07,1.86-.05,1.25-.1,1.87-.09,1.24-.2,1.85l-.28,1.85-.41,1.83a20.94,20.94,0,0,1-3.06,6.81l-.06,0a38.28,38.28,0,0,0,2.35-7,72.73,72.73,0,0,0,1.35-7.24,28.7,28.7,0,0,0,.31-3.69c0-1.24-.09-2.47-.17-3.7-.09-2.47-.14-4.93-.17-7.41Z" transform="translate(-53.03 -229.98)" style="fill:#1d1d1b"/><path d="M173.85,267.35a36.83,36.83,0,0,1,.61,7.7c0,1.29-.19,2.58-.26,3.86s-.12,2.57-.19,3.86a35.69,35.69,0,0,1-.34,3.86l-.31,1.92c-.12.64-.28,1.27-.43,1.9a21.78,21.78,0,0,1-3.19,7.06l-.06,0a37.54,37.54,0,0,0,2.47-7.22,75.61,75.61,0,0,0,1.45-7.52,30.8,30.8,0,0,0,.35-3.83c0-1.28,0-2.57-.11-3.85-.06-2.56-.08-5.11-.07-7.69Z" transform="translate(-53.03 -229.98)" style="fill:#1d1d1b"/><path d="M158.47,301.87" transform="translate(-53.03 -229.98)" style="fill:none"/><path d="M178,311" transform="translate(-53.03 -229.98)" style="fill:none"/><path d="M183.66,329.26l-3.95-9.05c-.65-1.51-1.27-3-2-4.49a33.66,33.66,0,0,0-2.58-4.21,27.55,27.55,0,0,0-6.69-7,7.59,7.59,0,0,0-4.43-1.4,8.26,8.26,0,0,0-4.45,1.7l-.05-.06a7.11,7.11,0,0,1,9.36-.91,16.7,16.7,0,0,1,3.73,3.38,28.79,28.79,0,0,1,2.88,4.07c1.66,2.86,3.29,5.72,4.84,8.66a51.25,51.25,0,0,1,3.45,9.28Z" transform="translate(-53.03 -229.98)" style="fill:#1d1d1b"/><path d="M182.8,331.08,179.1,322c-.61-1.52-1.18-3.06-1.89-4.53a36.62,36.62,0,0,0-2.42-4.27,30,30,0,0,0-6.28-7.32,8.1,8.1,0,0,0-4.27-1.81,7.31,7.31,0,0,0-4.47,1.47l0-.06a6.83,6.83,0,0,1,4.52-2,8.08,8.08,0,0,1,4.73,1.75,17.4,17.4,0,0,1,3.49,3.58,32.12,32.12,0,0,1,2.68,4.17c1.53,2.91,3.07,5.8,4.52,8.76a52.6,52.6,0,0,1,3.2,9.32Z" transform="translate(-53.03 -229.98)" style="fill:#1d1d1b"/><path d="M181.94,332.9l-3.47-9.14c-.55-1.53-1.08-3.07-1.74-4.56a36.3,36.3,0,0,0-2.26-4.33,33.18,33.18,0,0,0-5.88-7.62,8.39,8.39,0,0,0-4.08-2.18,6.21,6.21,0,0,0-4.49,1.18l0-.06,1-.75c.35-.22.74-.4,1.11-.59s.81-.24,1.23-.33a6.09,6.09,0,0,1,1.28,0,8.41,8.41,0,0,1,4.53,2.15,26.28,26.28,0,0,1,5.72,8c1.42,2.95,2.87,5.88,4.22,8.86a54.9,54.9,0,0,1,3,9.35Z" transform="translate(-53.03 -229.98)" style="fill:#1d1d1b"/><path d="M181.08,334.72c-1.11-3.06-2.18-6.12-3.24-9.19-.51-1.54-1-3.1-1.61-4.6a45,45,0,0,0-7.59-12.29,8.74,8.74,0,0,0-3.87-2.53,5.44,5.44,0,0,0-4.49.86l-.05-.06,1-.73c.37-.17.75-.37,1.14-.51a5.28,5.28,0,0,1,2.53-.14,8.85,8.85,0,0,1,4.31,2.54,29,29,0,0,1,5.29,8.28c1.31,3,2.66,5.95,3.93,9a55.46,55.46,0,0,1,2.72,9.39Z" transform="translate(-53.03 -229.98)" style="fill:#1d1d1b"/><path d="M154.53,291.64a36.28,36.28,0,0,1,7,2.2c1.12.5,2.2,1.07,3.3,1.59s2.23,1,3.35,1.5a34.75,34.75,0,0,1,3.29,1.64,28.12,28.12,0,0,1,3.1,2,12.93,12.93,0,0,1,4.64,5.68l-.07,0a17.39,17.39,0,0,0-5.05-5.06,65.22,65.22,0,0,0-6.1-3.91,28.39,28.39,0,0,0-3.26-1.64c-1.12-.47-2.28-.85-3.43-1.24-2.28-.85-4.53-1.74-6.78-2.71Z" transform="translate(-53.03 -229.98)" style="fill:#1d1d1b"/><path d="M155.67,294.63a25.11,25.11,0,0,1,6.69,1.36c1.08.39,2.11.88,3.16,1.32.52.24,1,.44,1.58.65s1.05.44,1.57.67a23.44,23.44,0,0,1,5.88,3.56,15.43,15.43,0,0,1,4.07,5.51l-.06,0A24.75,24.75,0,0,0,174,302.8a39.34,39.34,0,0,0-5.54-3.8c-.5-.27-1-.56-1.5-.8s-1-.46-1.56-.66a30.43,30.43,0,0,0-3.26-1l-6.51-1.88Z" transform="translate(-53.03 -229.98)" style="fill:#1d1d1b"/><path d="M156.81,297.63a15.92,15.92,0,0,1,6.37.32l1.53.51c.49.19,1,.4,1.49.58,1,.41,2,.76,3,1.22a17.36,17.36,0,0,1,5.29,3.62,17.89,17.89,0,0,1,3.62,5.27l-.06,0a38.37,38.37,0,0,0-4.12-4.74c-.72-.75-1.54-1.38-2.33-2.06s-1.68-1.25-2.6-1.76a14,14,0,0,0-2.84-1.36c-.5-.15-1-.29-1.52-.41l-1.55-.3a58,58,0,0,0-6.23-.86Z" transform="translate(-53.03 -229.98)" style="fill:#1d1d1b"/><path d="M157.94,300.63a9.32,9.32,0,0,1,5.92-.92,14.49,14.49,0,0,1,2.89.91,10.35,10.35,0,0,1,1.38.58,11.24,11.24,0,0,1,1.36.64c.44.25.89.48,1.32.74l1.21.92a7.71,7.71,0,0,1,1.14,1c.37.35.72.72,1.08,1.08.64.77,1.23,1.59,1.81,2.41s1,1.74,1.45,2.63l-.06,0c-.66-.76-1.27-1.54-1.86-2.33l-1.94-2.22a27.94,27.94,0,0,0-4.36-3.91,8.43,8.43,0,0,0-1.26-.76l-.66-.34c-.22-.1-.47-.16-.7-.24a7.11,7.11,0,0,0-1.43-.35,10.06,10.06,0,0,0-1.45-.17,17,17,0,0,0-5.81.37Z" transform="translate(-53.03 -229.98)" style="fill:#1d1d1b"/><path d="M159.07,303.63a5.89,5.89,0,0,1,5.14-2.44,8.64,8.64,0,0,1,2.8.83,14.12,14.12,0,0,1,1.3.62c.41.25.84.47,1.27.71a18.78,18.78,0,0,1,4.28,3.87,23.72,23.72,0,0,1,1.67,2.34c.5.83,1,1.66,1.41,2.51l-.07,0c-.64-.72-1.23-1.46-1.81-2.21a13.34,13.34,0,0,0-.9-1.09c-.32-.36-.61-.72-.92-1.08-.56-.76-1.24-1.4-1.86-2.11a11.68,11.68,0,0,0-1-1c-.35-.31-.67-.66-1-1s-.76-.56-1.15-.82a7.11,7.11,0,0,0-1.27-.62,5.25,5.25,0,0,0-1.35-.34,6.44,6.44,0,0,0-1.38-.08,7.91,7.91,0,0,0-5.06,1.86Z" transform="translate(-53.03 -229.98)" style="fill:#1d1d1b"/><path d="M164,317.92a23.85,23.85,0,0,1,3.26.67,21.92,21.92,0,0,1,3.14,1.07c1,.44,2,.93,3,1.33l.77.31a1.85,1.85,0,0,1,.76.44,7,7,0,0,1,1,1.38,24.48,24.48,0,0,1,1.43,3c.41,1,.8,2.07,1.12,3.13a50.42,50.42,0,0,1,1.58,6.44s0,0,0,0l0,0c-.81-2.06-1.52-4.15-2.25-6.22s-1.39-4.17-2.28-6.15a7.17,7.17,0,0,0-.79-1.38,1.57,1.57,0,0,0-.62-.43l-.75-.34a20.15,20.15,0,0,0-3.13-1c-1.07-.27-2.1-.65-3.14-1S165,318.42,164,318a.05.05,0,0,1,0-.05Z" transform="translate(-53.03 -229.98)" style="fill:#1d1d1b"/><path d="M164.46,319.32a18.88,18.88,0,0,1,3.35.64,16,16,0,0,1,3.2,1.19c1,.52,2.05.93,3.11,1.4a3.86,3.86,0,0,1,1.13,1.37,13.08,13.08,0,0,1,.78,1.54,48,48,0,0,1,2.24,6.43,62.49,62.49,0,0,1,1.45,6.65,0,0,0,0,1,0,0,.05.05,0,0,1,0,0c-.76-2.13-1.41-4.3-2.1-6.44s-1.3-4.32-2.08-6.42c-.2-.52-.4-1.05-.62-1.55a3.58,3.58,0,0,0-.87-1.32,13.28,13.28,0,0,0-3.12-1.27c-1.08-.3-2.16-.61-3.22-1s-2.13-.74-3.19-1.15a0,0,0,0,1,0,0S164.44,319.32,164.46,319.32Z" transform="translate(-53.03 -229.98)" style="fill:#1d1d1b"/><path d="M165,320.78a18.41,18.41,0,0,1,3.3.68,13.62,13.62,0,0,1,3.11,1.29c.5.27,1,.58,1.45.88a6.27,6.27,0,0,1,1.37,1.07c.59,1,1,2,1.46,3.06s.83,2.08,1.21,3.13.75,2.1,1.06,3.17a34.71,34.71,0,0,1,1.37,6.57.06.06,0,0,1-.05.06.07.07,0,0,1,0,0c-.75-2.1-1.54-4.17-2.26-6.27s-1.34-4.24-2-6.37a21.12,21.12,0,0,0-1-3.12,5.84,5.84,0,0,0-2.82-1.53c-1.06-.31-2.08-.71-3.11-1.12s-2-.85-3.06-1.36a.06.06,0,0,1,0-.07A.05.05,0,0,1,165,320.78Z" transform="translate(-53.03 -229.98)" style="fill:#1d1d1b"/><path d="M178.76,343.57c-.8-2.1-1.42-4.25-2-6.41l-.76-3.27a29.53,29.53,0,0,0-1-3.19c-.4-1.05-.85-2.07-1.3-3.08a6.14,6.14,0,0,0-.78-1.33,14.24,14.24,0,0,0-1.31-.91,19.19,19.19,0,0,0-6-2.59.05.05,0,0,1,0-.05l0,0a12,12,0,0,1,6.46,2,11,11,0,0,1,1.39,1.07,5.49,5.49,0,0,1,.85,1.59c.41,1.06.7,2.15,1,3.23s.62,2.15,1,3.21.77,2.11,1.11,3.18a47.08,47.08,0,0,1,1.45,6.56s0,0,0,0S178.77,343.59,178.76,343.57Z" transform="translate(-53.03 -229.98)" style="fill:#1d1d1b"/><path d="M178.73,346.58a53.12,53.12,0,0,1-2.17-6.41c-.28-1.1-.5-2.21-.81-3.3s-.69-2.15-1.09-3.2l-1.21-3.16c-.2-.53-.41-1-.62-1.56l-.33-.73c-.06-.08-.1-.17-.16-.26a3.2,3.2,0,0,0-.27-.22,26.76,26.76,0,0,0-2.9-1.6l-3-1.52a0,0,0,0,1,0-.05s0,0,0,0a32.89,32.89,0,0,1,3.23,1.05,17.85,17.85,0,0,1,3.13,1.49,4.5,4.5,0,0,1,.38.3,5.21,5.21,0,0,1,.3.46c.13.28.24.54.35.81.19.54.38,1.08.55,1.62.36,1.08.66,2.17.94,3.26s.58,2.19.93,3.26.8,2.12,1.17,3.19a47.15,47.15,0,0,1,1.66,6.57,0,0,0,0,1,0,0S178.74,346.6,178.73,346.58Z" transform="translate(-53.03 -229.98)" style="fill:#1d1d1b"/><path d="M178.39,349.68a58.59,58.59,0,0,1-2.15-6.44l-.78-3.31c-.28-1.09-.63-2.17-1-3.23-.8-2.12-1.51-4.28-2.31-6.36a7.51,7.51,0,0,0-.31-.74c0-.08-.28-.25-.48-.39-.47-.27-1-.54-1.46-.79-1-.5-2-1-3-1.55,0,0,0,0,0-.05a0,0,0,0,1,.05,0,26.7,26.7,0,0,1,3.25,1,13,13,0,0,1,1.58.71l.4.24.21.16a.89.89,0,0,1,.19.27c.15.3.25.56.36.83a66,66,0,0,1,1.89,6.55c.28,1.09.58,2.18.95,3.26s.78,2.12,1.13,3.2a53.36,53.36,0,0,1,1.61,6.6,0,0,0,0,1-.08,0Z" transform="translate(-53.03 -229.98)" style="fill:#1d1d1b"/><path d="M178,352.78a56,56,0,0,1-1.95-6.43c-.23-1.09-.42-2.2-.69-3.28s-.62-2.15-1-3.21c-.77-2.1-1.46-4.23-2.26-6.29-.2-.51-.4-1-.64-1.49a3.86,3.86,0,0,0-1-1.15,8.68,8.68,0,0,0-2.82-1.66,0,0,0,0,1,0,0s0,0,0,0a7,7,0,0,1,3.17,1.27,4.5,4.5,0,0,1,1.28,1.26,14.82,14.82,0,0,1,.75,1.56,49.34,49.34,0,0,1,1.9,6.47c.25,1.09.52,2.18.84,3.25s.73,2.12,1.07,3.19a43.16,43.16,0,0,1,1.41,6.57.05.05,0,0,1,0,.05S178,352.8,178,352.78Z" transform="translate(-53.03 -229.98)" style="fill:#1d1d1b"/><path d="M176.76,356.86c-.67-1.81-1.19-3.65-1.67-5.49s-.7-3.77-1.25-5.6-1.22-3.63-1.81-5.44c-.3-.9-.64-1.79-1-2.65a4.75,4.75,0,0,0-.28-.6l-.12-.18c-.09-.09-.18-.16-.26-.25s-.33-.35-.48-.55l-.22-.29-.1-.16a.22.22,0,0,1-.05-.08l.09-.1h0l0,0,0,0a0,0,0,0,1,0,.06h-.12l.09-.12.09,0,.17.07.33.16a6.44,6.44,0,0,1,.63.36,3.21,3.21,0,0,1,.3.21,1.38,1.38,0,0,1,.31.39,5.41,5.41,0,0,1,.33.69,28.62,28.62,0,0,1,.92,2.75c.55,1.84.88,3.74,1.37,5.59s1.21,3.63,1.67,5.49a46.79,46.79,0,0,1,1.09,5.64s0,0,0,0Z" transform="translate(-53.03 -229.98)" style="fill:#1d1d1b"/><path d="M177.51,354.7c-.75-1.94-1.35-3.91-1.9-5.9s-.83-4.06-1.49-6-1.39-3.89-2.05-5.84l-.54-1.43a7.71,7.71,0,0,0-.58-1.27,8.35,8.35,0,0,0-2.32-1.85,0,0,0,0,1,0-.05l0,0a4.59,4.59,0,0,1,2.87,1.38,5.82,5.82,0,0,1,.76,1.52c.18.49.33,1,.49,1.49.66,2,1.09,4,1.6,6s1.3,3.92,1.88,5.91a51.52,51.52,0,0,1,1.34,6.06,0,0,0,0,1,0,0Z" transform="translate(-53.03 -229.98)" style="fill:#1d1d1b"/><path d="M181.69,369.82a56.66,56.66,0,0,0,1.24-8.09c.13-1.36.21-2.71.3-4.08s.24-2.74.38-4.1c.32-2.73.75-5.44,1.11-8.15s.73-5.43,1.15-8.14a44.94,44.94,0,0,1,5-15.67,17.52,17.52,0,0,1,5.54-6.16A25.55,25.55,0,0,1,204,312l0,.07a29.32,29.32,0,0,0-7.17,3.85,18.24,18.24,0,0,0-5.21,6.06,51.89,51.89,0,0,0-5.31,15.35,123.61,123.61,0,0,0-2.05,16.28c-.25,2.72-.42,5.44-.73,8.18a39.44,39.44,0,0,1-1.74,8Z" transform="translate(-53.03 -229.98)" style="fill:#1d1d1b"/><path d="M180.7,367.74a78.75,78.75,0,0,0,1.32-8c.32-2.68.38-5.42.76-8.13s.9-5.38,1.37-8.07l1.45-8c.9-5.35,2.33-10.78,5.24-15.5a18.14,18.14,0,0,1,5.65-6,25.2,25.2,0,0,1,7.46-3.36l0,.07a29.31,29.31,0,0,0-7.15,3.78,19,19,0,0,0-5.32,5.93,41.24,41.24,0,0,0-3.37,7.33,71.33,71.33,0,0,0-2.13,7.84c-.61,2.65-1.17,5.32-1.6,8s-.73,5.39-1,8.09-.42,5.42-.81,8.13a48.41,48.41,0,0,1-1.82,8Z" transform="translate(-53.03 -229.98)" style="fill:#1d1d1b"/><path d="M179.71,365.65c.55-2.65,1-5.31,1.36-8s.48-5.36.84-8.08,1-5.34,1.6-8l1.81-7.93a69.25,69.25,0,0,1,1.94-7.92,32.64,32.64,0,0,1,3.51-7.41,19,19,0,0,1,5.73-5.86,25.22,25.22,0,0,1,7.45-3.3l0,.07c-5.06,1.84-9.78,4.9-12.55,9.51a37.6,37.6,0,0,0-3.5,7.22c-.45,1.27-.85,2.55-1.19,3.85l-1,3.94c-.7,2.61-1.41,5.23-1.94,7.88a80.77,80.77,0,0,0-1.25,8c-.16,1.34-.23,2.67-.35,4s-.32,2.7-.53,4a56.37,56.37,0,0,1-1.86,7.93Z" transform="translate(-53.03 -229.98)" style="fill:#1d1d1b"/><path d="M178.72,363.57c.53-2.65,1-5.3,1.39-8s.62-5.31.9-8a59.45,59.45,0,0,1,1.79-7.93c.75-2.59,1.52-5.18,2.21-7.78s1.08-5.29,2-7.86a30.6,30.6,0,0,1,3.65-7.3,19.74,19.74,0,0,1,5.83-5.72,25.52,25.52,0,0,1,7.42-3.28l0,.07c-5,1.85-9.72,4.88-12.63,9.37a34.7,34.7,0,0,0-3.63,7.1c-1,2.48-1.45,5.15-2.3,7.73s-1.69,5.13-2.35,7.74a48.67,48.67,0,0,0-1.43,7.93,68.57,68.57,0,0,1-2.84,15.93Z" transform="translate(-53.03 -229.98)" style="fill:#1d1d1b"/><path d="M177.73,361.48a155.41,155.41,0,0,0,2.4-15.89c.55-5.45,2.93-10.38,4.55-15.48.4-1.28.73-2.57,1-3.87a27.76,27.76,0,0,1,1.13-3.91,28.67,28.67,0,0,1,3.79-7.2,21.12,21.12,0,0,1,5.91-5.59,24.83,24.83,0,0,1,7.43-3.19l0,.08a25.47,25.47,0,0,0-12.73,9.16,32,32,0,0,0-3.76,7,31,31,0,0,0-1.21,3.79,34.05,34.05,0,0,1-1.21,3.87c-.93,2.53-2,5-2.8,7.56a32,32,0,0,0-1.51,7.84,73.58,73.58,0,0,1-2.95,15.86Z" transform="translate(-53.03 -229.98)" style="fill:#1d1d1b"/><path d="M176.74,359.4a144.38,144.38,0,0,0,2.52-15.83,21.92,21.92,0,0,1,1.76-7.89c1-2.49,2.37-4.82,3.35-7.31a22.58,22.58,0,0,0,1.13-3.82,26.29,26.29,0,0,1,1.11-3.9,26.71,26.71,0,0,1,3.92-7.11,23.72,23.72,0,0,1,13.42-8.6l0,.08a26.75,26.75,0,0,0-12.82,9A29.3,29.3,0,0,0,186,324.66a25.38,25.38,0,0,1-1.36,3.81c-1.07,2.46-2.31,4.85-3.16,7.38a30.67,30.67,0,0,0-1.59,7.77,73.71,73.71,0,0,1-1.22,8q-.78,3.95-1.84,7.83Z" transform="translate(-53.03 -229.98)" style="fill:#1d1d1b"/><path d="M177.17,313.5a17.88,17.88,0,0,1,.9-4.58,19.72,19.72,0,0,1,1.94-4.26,29.54,29.54,0,0,1,6.25-6.89,18.42,18.42,0,0,1,4-2.48,21,21,0,0,1,4.43-1.55,27.15,27.15,0,0,1,9.29-.47v.07a43.3,43.3,0,0,0-9.11,1.18,25.45,25.45,0,0,0-8.35,3.58,16.57,16.57,0,0,0-3.44,3,21.11,21.11,0,0,0-2.52,3.83,33.81,33.81,0,0,0-3.29,8.53Z" transform="translate(-53.03 -229.98)" style="fill:#1d1d1b"/><path d="M178.1,315.52a22.78,22.78,0,0,1,2.82-8.68,33.52,33.52,0,0,1,5.89-7,20.56,20.56,0,0,1,8-4.4,24.83,24.83,0,0,1,9.11-.74v.08a37.77,37.77,0,0,0-8.89,1.43,24.92,24.92,0,0,0-8,4,17.52,17.52,0,0,0-3.24,3.14,22.24,22.24,0,0,0-2.36,3.84,43.14,43.14,0,0,0-3.29,8.39Z" transform="translate(-53.03 -229.98)" style="fill:#1d1d1b"/><path d="M179,317.54a26.4,26.4,0,0,1,1-4.4,21.11,21.11,0,0,1,1.76-4.16,36.38,36.38,0,0,1,5.57-7.08,20,20,0,0,1,7.68-4.73,22.47,22.47,0,0,1,8.94-1v.07a33.25,33.25,0,0,0-8.68,1.71,24.47,24.47,0,0,0-7.67,4.28,17.56,17.56,0,0,0-3.06,3.21,23.49,23.49,0,0,0-2.23,3.85,57.5,57.5,0,0,0-3.22,8.28Z" transform="translate(-53.03 -229.98)" style="fill:#1d1d1b"/><path d="M180,319.56a37.52,37.52,0,0,1,1-4.32,22,22,0,0,1,1.66-4.13,40.66,40.66,0,0,1,5.26-7.15,19.86,19.86,0,0,1,7.32-5.06,20.72,20.72,0,0,1,8.77-1.31v.07a30,30,0,0,0-8.48,2,24.73,24.73,0,0,0-7.32,4.61,18.58,18.58,0,0,0-2.9,3.29,25.1,25.1,0,0,0-2.09,3.85,84.52,84.52,0,0,0-3.14,8.19Z" transform="translate(-53.03 -229.98)" style="fill:#1d1d1b"/><path d="M180.89,321.58c.29-1.43.64-2.84,1-4.24a20.77,20.77,0,0,1,1.57-4.1,34.63,34.63,0,0,1,2.31-3.73c.85-1.18,1.68-2.38,2.64-3.48a20.09,20.09,0,0,1,7-5.34A19.49,19.49,0,0,1,204,299v.08a27,27,0,0,0-8.25,2.3,25,25,0,0,0-7,4.89,20.61,20.61,0,0,0-2.75,3.35A28.38,28.38,0,0,0,184,313.5c-1.23,2.59-1.95,5.4-3.07,8.1Z" transform="translate(-53.03 -229.98)" style="fill:#1d1d1b"/><path d="M181.82,323.6c.29-1.41.65-2.79,1-4.17a21.17,21.17,0,0,1,1.48-4.08,37.53,37.53,0,0,1,2.19-3.73c.79-1.2,1.58-2.41,2.47-3.54a20.29,20.29,0,0,1,6.58-5.63,17.9,17.9,0,0,1,8.4-2v.08a24.21,24.21,0,0,0-8,2.61,25.51,25.51,0,0,0-6.64,5.18,20.32,20.32,0,0,0-2.57,3.41,28.33,28.33,0,0,0-1.83,3.86,42.25,42.25,0,0,0-1.5,4c-.46,1.36-.95,2.72-1.5,4Z" transform="translate(-53.03 -229.98)" style="fill:#1d1d1b"/><path d="M182.75,325.62c.41-1.35.73-2.73,1.05-4.1a20.13,20.13,0,0,1,1.38-4.07c.29-.65.66-1.27,1-1.9l1.09-1.84c.74-1.21,1.48-2.43,2.32-3.59a20.58,20.58,0,0,1,6.21-5.9A16.54,16.54,0,0,1,204,301.9V302a22,22,0,0,0-7.81,2.92,26.46,26.46,0,0,0-6.3,5.47,22,22,0,0,0-2.43,3.46,30.33,30.33,0,0,0-1.71,3.87,38.1,38.1,0,0,0-1.41,4,22,22,0,0,1-1.53,4Z" transform="translate(-53.03 -229.98)" style="fill:#1d1d1b"/><path d="M183.68,327.64a24.43,24.43,0,0,0,1.07-4,21.13,21.13,0,0,1,1.27-4.07,37.15,37.15,0,0,1,1.95-3.76c.69-1.23,1.39-2.46,2.15-3.65a21.32,21.32,0,0,1,5.81-6.2,15.11,15.11,0,0,1,8-2.65v.07a19.55,19.55,0,0,0-7.57,3.25,27.29,27.29,0,0,0-5.95,5.76,21.65,21.65,0,0,0-2.25,3.54,36.24,36.24,0,0,0-1.58,3.88,37.28,37.28,0,0,0-1.31,4,15.11,15.11,0,0,1-1.55,3.95Z" transform="translate(-53.03 -229.98)" style="fill:#1d1d1b"/><path d="M178.48,303.39a21,21,0,0,1,4.8-5.65,33.27,33.27,0,0,1,3.06-2.11c.51-.35,1-.69,1.56-1s1-.69,1.6-.94a18.78,18.78,0,0,1,7.08-2.33c.63,0,1.25-.1,1.88-.12l1.87.13c.31,0,.62,0,.93.1l.91.21c.61.15,1.21.3,1.8.47l0,.07c-.62,0-1.23-.1-1.84-.16l-.91-.1c-.3,0-.61,0-.91,0h-1.81l-1.81.2a25.35,25.35,0,0,0-7,1.89,13.26,13.26,0,0,0-1.65.81l-.8.44-.76.53a24.25,24.25,0,0,0-2.78,2.38,66.94,66.94,0,0,0-5.15,5.23Z" transform="translate(-53.03 -229.98)" style="fill:#1d1d1b"/><path d="M177.11,302.41a21.89,21.89,0,0,1,5-6.07,36,36,0,0,1,3.22-2.28c.53-.38,1.09-.72,1.65-1.05s1.1-.72,1.7-1a19.19,19.19,0,0,1,7.5-2.39,19.65,19.65,0,0,1,7.82.83l0,.08a30.19,30.19,0,0,0-7.71-.11l-1,.08-.94.2c-.63.14-1.27.22-1.88.41l-1.84.57c-.61.2-1.2.47-1.8.7a11.36,11.36,0,0,0-1.75.86,12.22,12.22,0,0,0-1.65,1,26.29,26.29,0,0,0-2.93,2.54,59.31,59.31,0,0,0-5.32,5.65Z" transform="translate(-53.03 -229.98)" style="fill:#1d1d1b"/><path d="M175.74,301.42a19.44,19.44,0,0,1,2.27-3.48,24.74,24.74,0,0,1,2.87-3,36.43,36.43,0,0,1,3.37-2.43c.56-.41,1.16-.75,1.75-1.12l.87-.55c.3-.17.61-.32.92-.49a16.2,16.2,0,0,1,1.87-.92l2-.73c.67-.2,1.35-.34,2-.5a9,9,0,0,1,1-.22l1-.09a21.47,21.47,0,0,1,8.25.87l0,.08a33.16,33.16,0,0,0-8.14-.16l-1,.09c-.34,0-.67.14-1,.19-.66.14-1.33.25-2,.41l-1.94.61c-.65.19-1.26.5-1.9.74-.31.14-.64.26-.94.4s-.61.33-.9.5a13.69,13.69,0,0,0-1.74,1.09,27.32,27.32,0,0,0-3.09,2.69,55.59,55.59,0,0,0-5.49,6.07Z" transform="translate(-53.03 -229.98)" style="fill:#1d1d1b"/><path d="M174.37,300.43a20.06,20.06,0,0,1,2.32-3.71,24.57,24.57,0,0,1,3-3.23c.55-.49,1.15-.92,1.72-1.37s1.21-.82,1.8-1.25,1.22-.8,1.83-1.19l.92-.59,1-.51a23.37,23.37,0,0,1,4-1.75,22.51,22.51,0,0,1,13,.08l0,.07-2.17-.2a12.81,12.81,0,0,0-2.15-.16h-2.14c-.72,0-1.43.13-2.14.18a29.08,29.08,0,0,0-4.22.72,35.51,35.51,0,0,0-4,1.44l-1,.42-1,.53a15.21,15.21,0,0,0-1.82,1.17,28.43,28.43,0,0,0-3.23,2.87,52.63,52.63,0,0,0-5.65,6.53Z" transform="translate(-53.03 -229.98)" style="fill:#1d1d1b"/><path d="M173,299.45a19.81,19.81,0,0,1,2.38-3.92c.44-.63,1-1.19,1.46-1.78s1.09-1.09,1.62-1.64,1.2-1,1.8-1.44,1.26-.86,1.87-1.32a9.9,9.9,0,0,1,1-.63l1-.6c.33-.2.64-.43,1-.61l1-.53a21.21,21.21,0,0,1,8.8-2.62l1.15-.09.58,0,.58,0,2.3.15a13.47,13.47,0,0,1,2.27.39c.75.16,1.49.35,2.23.52l0,.07c-.76-.07-1.52-.13-2.27-.22a15.49,15.49,0,0,0-2.25-.17,28.14,28.14,0,0,0-4.5.15,30.49,30.49,0,0,0-4.43.71,34.65,34.65,0,0,0-4.26,1.48,11.91,11.91,0,0,0-2,1,16,16,0,0,0-1.92,1.22,22,22,0,0,0-1.76,1.43c-.54.53-1.1,1-1.63,1.57a50.24,50.24,0,0,0-5.83,6.92Z" transform="translate(-53.03 -229.98)" style="fill:#1d1d1b"/><path d="M171.64,298.46a24.36,24.36,0,0,1,5.62-7.77,37.27,37.27,0,0,1,3.81-2.95c1.33-.89,2.68-1.75,4.1-2.51a24.32,24.32,0,0,1,9.24-2.72,26.78,26.78,0,0,1,9.56,1.05l0,.08a40.11,40.11,0,0,0-9.47-.34,30.34,30.34,0,0,0-9.13,2.3,21.4,21.4,0,0,0-4.13,2.36,26.55,26.55,0,0,0-3.53,3.17,48.88,48.88,0,0,0-6,7.36Z" transform="translate(-53.03 -229.98)" style="fill:#1d1d1b"/><path d="M170.27,297.47a25.81,25.81,0,0,1,5.78-8.26,37.23,37.23,0,0,1,4-3.14,45.3,45.3,0,0,1,4.3-2.67,25.16,25.16,0,0,1,9.7-2.87,28.34,28.34,0,0,1,10,1.08l0,.07a42.66,42.66,0,0,0-10-.36,32.33,32.33,0,0,0-4.88.84,33.12,33.12,0,0,0-4.71,1.61,21.92,21.92,0,0,0-4.32,2.51,28.11,28.11,0,0,0-3.69,3.37,47,47,0,0,0-6.15,7.86Z" transform="translate(-53.03 -229.98)" style="fill:#1d1d1b"/><path d="M173.68,290.3a12.67,12.67,0,0,1,2.21-3.7c.44-.57,1-1.06,1.47-1.59a18.28,18.28,0,0,1,1.69-1.36c.62-.37,1.21-.8,1.86-1.11s1.27-.66,1.94-.93,1.31-.58,2-.84,1.35-.47,2-.71a23.21,23.21,0,0,1,4.21-.9c.71-.07,1.43-.22,2.15-.22l2.16,0a41.2,41.2,0,0,1,4.29.4c1.41.26,2.8.6,4.18.95v.08c-1.43-.11-2.84-.3-4.24-.45l-2.12-.11c-.71,0-1.41-.11-2.12-.07a38.9,38.9,0,0,0-8.4.74c-.68.19-1.37.36-2,.57s-1.32.53-2,.81a20.29,20.29,0,0,0-3.53,2.32c-.55.44-1.07.91-1.61,1.35a20.8,20.8,0,0,0-1.49,1.48,19.59,19.59,0,0,0-2.57,3.35Z" transform="translate(-53.03 -229.98)" style="fill:#1d1d1b"/><path d="M204,279c-2.72-.3-5.4-.55-8.11-.69a34.52,34.52,0,0,0-4.07-.13,21.89,21.89,0,0,0-4,.58,27.91,27.91,0,0,0-7.43,3,26.88,26.88,0,0,0-6.34,5l-.06,0a18.62,18.62,0,0,1,6-5.62,21.46,21.46,0,0,1,7.76-2.78c1.36-.19,2.73-.3,4.09-.4s2.73-.23,4.1-.25A28.94,28.94,0,0,1,204,279Z" transform="translate(-53.03 -229.98)" style="fill:#1d1d1b"/><path d="M204,277.7c-2.61-.27-5.21-.47-7.81-.67-1.3-.13-2.6-.27-3.91-.29a25.55,25.55,0,0,0-3.91.3,27.68,27.68,0,0,0-7.37,2.35,35.61,35.61,0,0,0-6.73,3.9l-.06-.05a21.74,21.74,0,0,1,6.45-4.57,22.71,22.71,0,0,1,3.74-1.39,16.32,16.32,0,0,1,3.93-.66c1.32-.07,2.63-.08,3.94-.12s2.63-.11,3.95-.09a29.52,29.52,0,0,1,7.8,1.22Z" transform="translate(-53.03 -229.98)" style="fill:#1d1d1b"/><path d="M204,276.34c-2.53-.24-5-.4-7.57-.67-1.26-.15-2.52-.33-3.79-.4a28.35,28.35,0,0,0-3.8.05,30.18,30.18,0,0,0-7.32,1.63,51.18,51.18,0,0,0-7,2.82l0-.06a18.07,18.07,0,0,1,3.27-2,32.38,32.38,0,0,1,3.54-1.5,26.25,26.25,0,0,1,3.73-1,15.94,15.94,0,0,1,3.84-.31l3.82.12c1.27,0,2.55,0,3.83,0a32.17,32.17,0,0,1,7.54,1.22Z" transform="translate(-53.03 -229.98)" style="fill:#1d1d1b"/><path d="M204,275c-2.47-.21-4.93-.45-7.38-.81-1.23-.2-2.45-.44-3.68-.57a26.92,26.92,0,0,0-3.7-.13,18.32,18.32,0,0,0-1.83.13l-1.82.3c-1.21.21-2.42.47-3.63.71l-3.63.71a33.1,33.1,0,0,0-3.6.86l0-.06a16.72,16.72,0,0,1,3.49-1.36c1.2-.35,2.4-.67,3.62-.94s2.45-.45,3.69-.62c.61-.08,1.23-.15,1.86-.19a13.19,13.19,0,0,1,1.89,0l3.72.31,3.73.19A39.1,39.1,0,0,1,204,275Z" transform="translate(-53.03 -229.98)" style="fill:#1d1d1b"/><path d="M204,273.73c-2.44-.15-4.88-.37-7.29-.76-1.2-.21-2.4-.48-3.61-.66s-2.42-.29-3.64-.38a34.46,34.46,0,0,0-3.63-.18c-1.2,0-2.41.11-3.62.2s-2.43.18-3.64.3a33.62,33.62,0,0,0-3.61.47l0-.07a17.1,17.1,0,0,1,3.56-1c1.21-.22,2.43-.4,3.65-.52a32.6,32.6,0,0,1,3.7-.11,20.25,20.25,0,0,1,3.67.48c1.2.21,2.41.41,3.62.55s2.44.18,3.66.29a45.88,45.88,0,0,1,7.23,1.3Z" transform="translate(-53.03 -229.98)" style="fill:#1d1d1b"/><path d="M204,272.39a47.31,47.31,0,0,1-7.25-.81c-1.2-.25-2.38-.56-3.57-.77s-2.4-.39-3.61-.58l-.91-.16-.89-.22a14.19,14.19,0,0,0-1.75-.29c-1.19-.12-2.39-.18-3.6-.25s-2.41-.13-3.62-.15a29.15,29.15,0,0,0-3.62,0l0-.07a16.68,16.68,0,0,1,3.63-.54c1.22-.06,2.44-.1,3.67-.06a30.14,30.14,0,0,1,3.66.32,13.32,13.32,0,0,1,1.83.4c.6.19,1.13.37,1.72.54a35.1,35.1,0,0,0,3.55.8c1.2.19,2.41.28,3.62.41a60.64,60.64,0,0,1,7.17,1.32Z" transform="translate(-53.03 -229.98)" style="fill:#1d1d1b"/><path d="M182.83,371.36A73.24,73.24,0,0,1,189,381l5.14,10.28c.45.85.86,1.72,1.25,2.59s.82,1.74,1.15,2.64l1.07,2.68c.32.9.6,1.83.9,2.74a39.42,39.42,0,0,1,1.92,11.34h-.08a63.56,63.56,0,0,0-2.58-11.11c-1.13-3.63-2.56-7.17-4-10.71a67.58,67.58,0,0,0-5.31-10.15l-5.73-9.92Z" transform="translate(-53.03 -229.98)" style="fill:#1d1d1b"/><path d="M183.24,368.26a81.32,81.32,0,0,1,6.32,10.47l5.19,11.08c.45.92.86,1.85,1.25,2.79s.82,1.87,1.15,2.84l1.06,2.88c.32,1,.59,1.95.89,2.93a43.25,43.25,0,0,1,1.81,12.1h-.07a69.46,69.46,0,0,0-2.48-11.88c-1.12-3.9-2.55-7.7-4-11.5A76,76,0,0,0,189,379l-5.83-10.72Z" transform="translate(-53.03 -229.98)" style="fill:#1d1d1b"/><path d="M183.66,365.16a89,89,0,0,1,6.41,11.28c.93,1.95,1.73,4,2.62,5.93.42,1,.87,2,1.32,3l1.3,3c.45,1,.86,2,1.25,3s.82,2,1.15,3l1.06,3.07c.31,1,.58,2.09.88,3.13a47.49,47.49,0,0,1,1.71,12.86h-.08a74.3,74.3,0,0,0-2.38-12.67c-1.09-4.16-2.53-8.22-4-12.28a83.23,83.23,0,0,0-5.41-11.75L183.6,365.2Z" transform="translate(-53.03 -229.98)" style="fill:#1d1d1b"/><path d="M184.08,362.06a98.92,98.92,0,0,1,6.51,12.08c.94,2.08,1.75,4.23,2.64,6.33l2.64,6.33c.45,1.05.86,2.12,1.25,3.19s.82,2.14,1.15,3.24l1.06,3.27.86,3.33a51.41,51.41,0,0,1,1.61,13.63h-.07A80,80,0,0,0,199.44,400c-1.07-4.42-2.51-8.75-4-13.07A88.35,88.35,0,0,0,190,374.4l-6-12.3Z" transform="translate(-53.03 -229.98)" style="fill:#1d1d1b"/><path d="M184.49,359a105.67,105.67,0,0,1,6.61,12.88c1,2.21,1.77,4.49,2.67,6.72l2.65,6.73c.46,1.12.86,2.26,1.26,3.4s.82,2.27,1.15,3.43l1,3.47.86,3.53a56.3,56.3,0,0,1,1.51,14.39h-.08A86.16,86.16,0,0,0,200,399.29c-1.07-4.68-2.5-9.27-4-13.86a98.79,98.79,0,0,0-5.51-13.34L184.43,359Z" transform="translate(-53.03 -229.98)" style="fill:#1d1d1b"/><path d="M184.91,355.86a113.91,113.91,0,0,1,6.7,13.68c1,2.34,1.79,4.75,2.7,7.12l2.67,7.13c.46,1.18.86,2.38,1.26,3.59s.82,2.41,1.15,3.63l1,3.67.85,3.72a60,60,0,0,1,1.41,15.17h-.07a91,91,0,0,0-2.09-15c-1.05-4.95-2.48-9.8-3.94-14.65A107.21,107.21,0,0,0,191,369.78c-2-4.63-4.08-9.26-6.19-13.88Z" transform="translate(-53.03 -229.98)" style="fill:#1d1d1b"/><path d="M185.33,352.76a124.48,124.48,0,0,1,6.78,14.47c1,2.48,1.81,5,2.73,7.52l2.69,7.53c.46,1.25.86,2.52,1.27,3.79s.82,2.54,1.15,3.83l1,3.87.84,3.92a64.62,64.62,0,0,1,1.31,15.93h-.08a97.14,97.14,0,0,0-2-15.78c-1-5.2-2.47-10.32-3.93-15.44a115.63,115.63,0,0,0-5.6-14.93c-2.07-4.9-4.14-9.8-6.28-14.67Z" transform="translate(-53.03 -229.98)" style="fill:#1d1d1b"/><path d="M182.35,372.46a64.35,64.35,0,0,1,4.06,6.81c.58,1.18,1.11,2.4,1.72,3.57s1.26,2.32,1.94,3.46c1.36,2.26,2.63,4.58,3.82,6.94.59,1.18,1.13,2.39,1.65,3.61a15.73,15.73,0,0,1,1.21,3.8h-.07A26.13,26.13,0,0,0,195,397.1l-1.83-3.5c-1.19-2.35-2.36-4.72-3.47-7.11-.56-1.2-1.15-2.38-1.8-3.53s-1.37-2.26-2-3.39a73.1,73.1,0,0,1-3.57-7.07Z" transform="translate(-53.03 -229.98)" style="fill:#1d1d1b"/><path d="M182.11,375.08a40.73,40.73,0,0,1,3.21,5.29c.44.93.84,1.89,1.31,2.81s1,1.8,1.56,2.67A70,70,0,0,1,194,396.78l-.07,0A70.09,70.09,0,0,1,187.82,386c-.43-.93-.89-1.86-1.4-2.75s-1.11-1.74-1.65-2.62a40.29,40.29,0,0,1-2.72-5.56Z" transform="translate(-53.03 -229.98)" style="fill:#1d1d1b"/><path d="M181.87,377.69a24.77,24.77,0,0,1,2.7,4.07c.36.73.67,1.49,1.06,2.21a21,21,0,0,0,1.28,2.07,47.06,47.06,0,0,1,2.56,4.17,22.88,22.88,0,0,1,1.91,4.52l-.08,0c-.84-1.39-1.72-2.75-2.53-4.16s-1.53-2.86-2.21-4.34a21.15,21.15,0,0,0-1.14-2.16c-.43-.69-.93-1.34-1.39-2a26.58,26.58,0,0,1-2.22-4.35Z" transform="translate(-53.03 -229.98)" style="fill:#1d1d1b"/><path d="M181.63,380.3a14.58,14.58,0,0,1,2.36,3.08c.3.57.56,1.17.88,1.73a15.59,15.59,0,0,0,1.08,1.61A23.69,23.69,0,0,1,188,390a9.52,9.52,0,0,1,1.13,3.74h-.08a32.82,32.82,0,0,0-1.76-3.38c-.59-1.13-1.2-2.26-1.73-3.44a12.13,12.13,0,0,0-.94-1.69c-.36-.53-.8-1-1.19-1.52a17.48,17.48,0,0,1-1.9-3.38Z" transform="translate(-53.03 -229.98)" style="fill:#1d1d1b"/><path d="M181.39,382.92a9.49,9.49,0,0,1,2,2.36c.24.46.43.94.69,1.38a8.66,8.66,0,0,0,.92,1.24,18.52,18.52,0,0,1,1.8,2.51,9.53,9.53,0,0,1,1.11,2.9l-.06,0c-.62-.84-1.2-1.66-1.74-2.52a30.35,30.35,0,0,1-1.46-2.69,7.31,7.31,0,0,0-.77-1.33c-.3-.41-.68-.77-1-1.17a10.8,10.8,0,0,1-1.52-2.67Z" transform="translate(-53.03 -229.98)" style="fill:#1d1d1b"/><path d="M180.72,384.63a6.31,6.31,0,0,1,1.79,1.89c.21.38.37.79.6,1.16a7,7,0,0,0,.79,1,10.3,10.3,0,0,1,1.5,2.14,5.87,5.87,0,0,1,.68,2.55l-.08,0-1.31-2.2c-.39-.75-.79-1.49-1.14-2.29a5.34,5.34,0,0,0-.64-1.11c-.27-.34-.61-.62-.9-.93a8.4,8.4,0,0,1-1.35-2.21Z" transform="translate(-53.03 -229.98)" style="fill:#1d1d1b"/><path d="M180.64,387.36a3.09,3.09,0,0,1,1.53,1.09c.17.26.29.57.47.82a3.71,3.71,0,0,0,.63.69,4.76,4.76,0,0,1,1.13,1.53,3.2,3.2,0,0,1,.2,1.91h-.08c-.32-.57-.58-1.07-.85-1.59s-.51-1-.73-1.62a2.47,2.47,0,0,0-.49-.77,6.54,6.54,0,0,0-.74-.56,4.81,4.81,0,0,1-1.12-1.45Z" transform="translate(-53.03 -229.98)" style="fill:#1d1d1b"/><path d="M180.62,390.75a.94.94,0,0,1,1.12-.28,3,3,0,0,1,.46.4,2.51,2.51,0,0,0,.47.3,1.63,1.63,0,0,1,.73.91,1.65,1.65,0,0,1-.11,1.13h-.08a3.83,3.83,0,0,1-.84-1.77.54.54,0,0,0-.3-.37.91.91,0,0,0-.49,0,2.59,2.59,0,0,1-.93-.25Z" transform="translate(-53.03 -229.98)" style="fill:#1d1d1b"/><path d="M203,408.18c-.53-5-1.42-10-2.36-14.91a100.26,100.26,0,0,0-3.54-14.68c-1.57-4.79-3.25-9.53-5.13-14.19a74.83,74.83,0,0,0-6.8-13.42l.06-.05a52.57,52.57,0,0,1,7.45,13.18,112.57,112.57,0,0,1,4.81,14.36l1.91,7.33c.62,2.45,1.31,4.88,1.85,7.35a74.5,74.5,0,0,1,1.83,15Z" transform="translate(-53.03 -229.98)" style="fill:#1d1d1b"/><path d="M203.16,402.79c-.53-4.78-1.44-9.48-2.39-14.19a92.87,92.87,0,0,0-3.58-13.94c-1.57-4.55-3.25-9-5.13-13.45a68.88,68.88,0,0,0-6.75-12.65l.05-.05a36.5,36.5,0,0,1,4.17,5.92l.89,1.58.82,1.61c.56,1.07,1.06,2.17,1.53,3.28a105.53,105.53,0,0,1,4.81,13.63l1.93,7c.62,2.33,1.32,4.63,1.87,7a67.23,67.23,0,0,1,1.86,14.32Z" transform="translate(-53.03 -229.98)" style="fill:#1d1d1b"/><path d="M203.21,397.41c-.52-4.54-1.45-9-2.4-13.45-.23-1.12-.45-2.24-.71-3.35s-.49-2.23-.81-3.32c-.57-2.21-1.31-4.38-2.06-6.53-1.56-4.29-3.23-8.53-5.09-12.68a60.45,60.45,0,0,0-6.69-11.86l.06-.05a32.09,32.09,0,0,1,4.12,5.5l.89,1.48.81,1.51c.55,1,1,2,1.51,3.09a95.77,95.77,0,0,1,4.78,12.88l1.92,6.59c.62,2.2,1.32,4.38,1.87,6.6a59.43,59.43,0,0,1,1.88,13.59Z" transform="translate(-53.03 -229.98)" style="fill:#1d1d1b"/><path d="M203.26,392a126.47,126.47,0,0,0-2.4-12.68c-.22-1.05-.44-2.1-.7-3.15s-.49-2.1-.8-3.13c-.57-2.08-1.3-4.11-2-6.14-1.54-4-3.19-8-5-11.88a54.18,54.18,0,0,0-6.6-11l.06-.06a28.46,28.46,0,0,1,4.07,5.07l.87,1.37c.28.47.53.94.8,1.42.54.94,1,1.9,1.49,2.89a86.13,86.13,0,0,1,4.72,12.08l1.9,6.2c.61,2.06,1.31,4.11,1.86,6.21A53.37,53.37,0,0,1,203.34,392Z" transform="translate(-53.03 -229.98)" style="fill:#1d1d1b"/><path d="M203.32,386.65a117.84,117.84,0,0,0-2.39-11.94c-.22-1-.44-2-.7-3s-.48-2-.79-2.95c-.55-2-1.27-3.86-2-5.76-1.51-3.77-3.13-7.5-4.93-11.13A46.62,46.62,0,0,0,186,341.69l.05-.05a24.62,24.62,0,0,1,4,4.63l.86,1.28c.27.43.52.88.79,1.32.53.87,1,1.78,1.46,2.69a78,78,0,0,1,4.63,11.34l1.86,5.82c.61,1.95,1.3,3.87,1.84,5.84a47.59,47.59,0,0,1,1.86,12.08Z" transform="translate(-53.03 -229.98)" style="fill:#1d1d1b"/><path d="M203.37,381.26A103,103,0,0,0,201,370.15c-.21-.92-.43-1.85-.68-2.76s-.47-1.84-.77-2.74c-.54-1.83-1.25-3.59-2-5.35-1.48-3.5-3.06-6.94-4.82-10.29a40.12,40.12,0,0,0-6.35-9.34l0-.05a21.3,21.3,0,0,1,3.94,4.16c.57.77,1.12,1.56,1.61,2.38a26.56,26.56,0,0,1,1.43,2.48A67.66,67.66,0,0,1,198,359.15l1.82,5.41c.6,1.81,1.28,3.6,1.81,5.43a42.22,42.22,0,0,1,1.83,11.27Z" transform="translate(-53.03 -229.98)" style="fill:#1d1d1b"/><path d="M203.42,375.88a96.69,96.69,0,0,0-2.33-10.35c-.21-.86-.43-1.71-.67-2.57s-.46-1.71-.75-2.55a50.29,50.29,0,0,0-1.91-5c-1.44-3.25-3-6.44-4.71-9.51a33.69,33.69,0,0,0-6.2-8.5l0-.06a17.92,17.92,0,0,1,3.86,3.72,24,24,0,0,1,1.58,2.17,25.51,25.51,0,0,1,1.42,2.28,61.25,61.25,0,0,1,4.39,9.74l1.77,5c.6,1.67,1.24,3.33,1.77,5a43.84,43.84,0,0,1,1.28,5.2,27.12,27.12,0,0,1,.53,5.32Z" transform="translate(-53.03 -229.98)" style="fill:#1d1d1b"/><path d="M203.47,370.5a89.49,89.49,0,0,0-2.27-9.58c-.2-.8-.42-1.59-.64-2.38s-.45-1.59-.72-2.36A44.21,44.21,0,0,0,198,351.6a95,95,0,0,0-4.53-8.74,28,28,0,0,0-6-7.65l.05-.07a15.6,15.6,0,0,1,3.76,3.26,24.14,24.14,0,0,1,1.53,2c.49.68,1,1.36,1.38,2.08a53,53,0,0,1,4.22,9l1.7,4.65c.58,1.55,1.19,3.08,1.71,4.66a43.9,43.9,0,0,1,1.24,4.8,25,25,0,0,1,.52,4.95Z" transform="translate(-53.03 -229.98)" style="fill:#1d1d1b"/><path d="M203.52,365.12a78.64,78.64,0,0,0-2.26-8.82c-.42-1.46-.79-2.94-1.32-4.37a22.78,22.78,0,0,0-.84-2.12c-.3-.7-.61-1.4-1-2.08a80.8,80.8,0,0,0-4.4-8,23.22,23.22,0,0,0-5.87-6.8l0-.07a13.08,13.08,0,0,1,3.66,2.79,19.48,19.48,0,0,1,1.5,1.77,20.67,20.67,0,0,1,1.34,1.88,44.77,44.77,0,0,1,4.11,8.22l1.66,4.27c.56,1.42,1.16,2.83,1.68,4.27a39.76,39.76,0,0,1,1.22,4.43,21.28,21.28,0,0,1,.52,4.57Z" transform="translate(-53.03 -229.98)" style="fill:#1d1d1b"/><path d="M203.57,359.73a69.26,69.26,0,0,0-2.22-8c-.39-1.32-.77-2.65-1.26-3.95a34.75,34.75,0,0,0-1.74-3.77A73,73,0,0,0,194.1,337a18.71,18.71,0,0,0-5.67-5.84l0-.07a10.32,10.32,0,0,1,3.54,2.27,20.94,20.94,0,0,1,2.75,3.19,38.19,38.19,0,0,1,4,7.36l1.59,3.86c.55,1.28,1.14,2.54,1.64,3.84a35.38,35.38,0,0,1,1.18,4,16.64,16.64,0,0,1,.52,4.16Z" transform="translate(-53.03 -229.98)" style="fill:#1d1d1b"/><path d="M203.92,354.25a64.07,64.07,0,0,0-2.22-7.1c-.39-1.18-.77-2.37-1.25-3.52a29,29,0,0,0-1.7-3.33,59.15,59.15,0,0,0-4.14-6.16,15.63,15.63,0,0,0-5.46-4.86l0-.07a8.94,8.94,0,0,1,3.37,1.73,17.54,17.54,0,0,1,2.68,2.7,31.54,31.54,0,0,1,3.88,6.47l1.56,3.42c.53,1.13,1.11,2.25,1.61,3.4a30,30,0,0,1,1.19,3.58,14.31,14.31,0,0,1,.53,3.74Z" transform="translate(-53.03 -229.98)" style="fill:#1d1d1b"/><path d="M203.92,348.82a59.79,59.79,0,0,0-2.17-6.24c-.36-1-.71-2.1-1.17-3.11a23.48,23.48,0,0,0-1.61-2.9,46.66,46.66,0,0,0-3.93-5.28,12.47,12.47,0,0,0-5.15-3.87l0-.08a7.29,7.29,0,0,1,3.15,1.21,14,14,0,0,1,2.58,2.21,25.31,25.31,0,0,1,3.69,5.61l1.47,3c.51,1,1.06,2,1.53,3a25.19,25.19,0,0,1,1.14,3.15,12.06,12.06,0,0,1,.53,3.32Z" transform="translate(-53.03 -229.98)" style="fill:#1d1d1b"/><path d="M203.92,343.45c-.56-1.84-1.41-3.58-2.1-5.37-.34-.9-.67-1.82-1.09-2.69a16.82,16.82,0,0,0-1.51-2.47,33.3,33.3,0,0,0-3.71-4.37,10.11,10.11,0,0,0-4.78-2.9v-.08a7.89,7.89,0,0,1,5.33,2.4,18.49,18.49,0,0,1,3.5,4.73l1.38,2.58c.48.85,1,1.68,1.45,2.55a18.73,18.73,0,0,1,1.07,2.72,9.84,9.84,0,0,1,.53,2.9Z" transform="translate(-53.03 -229.98)" style="fill:#1d1d1b"/><path d="M203.92,338c-.62-1.54-1.41-3-2.06-4.53-.33-.76-.62-1.55-1-2.28a12.55,12.55,0,0,0-1.43-2.05,23.69,23.69,0,0,0-3.49-3.45,8.6,8.6,0,0,0-4.38-2v-.08a6.6,6.6,0,0,1,4.87,1.4,13.79,13.79,0,0,1,3.34,3.85c.43.73.85,1.46,1.3,2.17s.94,1.4,1.36,2.13a14,14,0,0,1,1,2.31A9.48,9.48,0,0,1,204,338Z" transform="translate(-53.03 -229.98)" style="fill:#1d1d1b"/><path d="M203.92,332.61c-.67-1.24-1.31-2.47-1.9-3.73a17.1,17.1,0,0,0-.89-1.89,8.92,8.92,0,0,0-1.31-1.63,15.32,15.32,0,0,0-3.22-2.5,10.5,10.5,0,0,0-3.85-1.29v-.08a6.62,6.62,0,0,1,4.24.67l.93.58c.28.23.55.48.82.72a6.05,6.05,0,0,1,.74.78,5.89,5.89,0,0,1,.65.86c.42.58.78,1.19,1.21,1.75s.86,1.13,1.23,1.74a11.15,11.15,0,0,1,1.43,4Z" transform="translate(-53.03 -229.98)" style="fill:#1d1d1b"/><path d="M203.93,327.12a26.22,26.22,0,0,1-1.88-2.7,11.27,11.27,0,0,0-.84-1.42,5.5,5.5,0,0,0-1.2-1.11,14.52,14.52,0,0,0-2.78-1.57,12.71,12.71,0,0,0-3.09-.89v-.08a5.59,5.59,0,0,1,3.4.23,7.28,7.28,0,0,1,2.76,2c.37.43.72.86,1.1,1.27s.81.78,1.17,1.21a7.57,7.57,0,0,1,1.43,3Z" transform="translate(-53.03 -229.98)" style="fill:#1d1d1b"/><path d="M203.93,321.38a9.17,9.17,0,0,1-1.68-1.53,7.48,7.48,0,0,0-.72-.88,3.23,3.23,0,0,0-1-.56c-.72-.25-1.39-.49-2.1-.66s-1.39-.37-2.16-.57v-.08a4.44,4.44,0,0,1,2.37-.13,5.07,5.07,0,0,1,2.11,1.09,8.7,8.7,0,0,0,.91.72c.32.22.68.39,1,.62a4.1,4.1,0,0,1,1.31,1.93Z" transform="translate(-53.03 -229.98)" style="fill:#1d1d1b"/><g id="_Groupe_5" data-name="&lt;Groupe&gt;"><path d="M185.64,408.13c1.46.83,2.88,1.66,4.27,2.55A24.1,24.1,0,0,0,192,412a12.81,12.81,0,0,0,2.3,1c1.58.5,3.17.93,4.77,1.27A41,41,0,0,0,204,415V415a13.83,13.83,0,0,1-5.05,0,19.46,19.46,0,0,1-4.77-1.68c-.74-.39-1.49-.75-2.25-1.11s-1.55-.65-2.3-1a15.81,15.81,0,0,1-4-3Z" transform="translate(-53.03 -229.98)" style="fill:#1d1d1b"/></g><g id="_Groupe_6" data-name="&lt;Groupe&gt;"><path d="M185.91,410c1.42.8,2.81,1.59,4.16,2.45a24.13,24.13,0,0,0,2,1.29,13.1,13.1,0,0,0,2.24.9c1.54.48,3.08.87,4.64,1.2s3.11.57,4.73.8v.07a14.34,14.34,0,0,1-4.89-.08A18.69,18.69,0,0,1,194.2,415c-.73-.37-1.46-.72-2.19-1.06s-1.51-.62-2.25-1a14.63,14.63,0,0,1-3.89-2.93Z" transform="translate(-53.03 -229.98)" style="fill:#1d1d1b"/></g><g id="_Groupe_7" data-name="&lt;Groupe&gt;"><path d="M186.71,412.08c1.36.75,2.67,1.48,4,2.28.64.4,1.27.85,1.95,1.19a10.27,10.27,0,0,0,2.15.79,43.17,43.17,0,0,0,4.42,1c1.48.31,3,.42,4.52.6V418a13.44,13.44,0,0,1-4.65.11,16.83,16.83,0,0,1-4.44-1.38c-.7-.32-1.39-.66-2.1-1s-1.45-.55-2.15-.87a12.7,12.7,0,0,1-3.71-2.76Z" transform="translate(-53.03 -229.98)" style="fill:#1d1d1b"/></g><g id="_Groupe_8" data-name="&lt;Groupe&gt;"><path d="M188.37,414.72c1.27.51,2.49,1,3.7,1.62.59.31,1.17.66,1.79.92a9.43,9.43,0,0,0,1.95.55c1.32.24,2.63.51,3.95.73s2.62.47,4,.79v.08a15.64,15.64,0,0,1-4.1-.09,18.37,18.37,0,0,1-3.93-1.11c-.64-.26-1.26-.52-1.91-.72s-1.32-.36-2-.58a10.72,10.72,0,0,1-3.49-2.13Z" transform="translate(-53.03 -229.98)" style="fill:#1d1d1b"/></g><path d="M204,271.11" transform="translate(-53.03 -229.98)" style="fill:none;stroke:#1d1d1b;stroke-miterlimit:10"/></g></svg>