<?xml version="1.0" encoding="utf-8"?>
<!-- Generator: Adobe Illustrator 22.0.1, SVG Export Plug-In . SVG Version: 6.00 Build 0)  -->
<svg version="1.1" id="Calque_1" xmlns="http://www.w3.org/2000/svg" xmlns:xlink="http://www.w3.org/1999/xlink" x="0px" y="0px"
	 viewBox="0 0 442.1 263" style="enable-background:new 0 0 442.1 263;" xml:space="preserve">
<style type="text/css">
	.st0{fill:#C09356;}
	.st1{fill:#F9E2BD;}
	.st2{fill:#EEC788;}
	.st3{fill:#4C2B1D;}
	.st4{fill:#FFFFFF;}
	.st5{fill:none;stroke:#C09356;stroke-miterlimit:10;}
	.st6{fill:#EA9E98;}
</style>
<g>
	<path class="st0" d="M303.1,206.7l0.8-11c0,0,1.8-3.9,3.8-9.4h-54.4v4.3l9.8,2.8c0,0,8.6,20,32.2,38.1l-4.3,9.8
		c0,0-16.1-3.1-14.5,13.3H304C303.8,254.6,325.8,224,303.1,206.7z"/>
	<path class="st0" d="M199.1,191.8h-21.8l-10.4,51.8c0,0-16.1,1.6-13,14.9h26.3c0,0,15.2-36.6,18.8-49.8L199.1,191.8L199.1,191.8z"
		/>
	<path class="st0" d="M184.9,83.5l21.2,8.6l5.5-21.2C192,72.5,184.9,83.5,184.9,83.5z"/>
	<path class="st1" d="M300.3,140.8c0,0-29.7-4-35.3-22.8c-4.7-15.7,5.5-37.2,36.9-35.3c40,2.4,58.9,51,21.2,77.7l-9.4-6.3l10.2-21.2
		l-7.8-9.4l-13.3-0.8L300.3,140.8z"/>
	<path class="st2" d="M163.7,153.3c0,0,2.4,37.7,18.1,44.7l-6.7,45.5c0,0-16.1,1.6-12.9,14.9h26.3c0,0,18.8-45.5,19.6-53.4
		c0,0,15.7,2.4,51.8-15.7l13.7,3.9c0,0,8.6,20,32.2,38.1l-4.3,9.8c0,0-16.1-3.1-14.5,13.3h27.5c0,0,22-30.6-0.8-47.9l0.8-11
		c0,0,6.3-13.3,7.8-25.9c1.5-11.8-3.1-20.4-3.1-20.4s15.7-22.8,0-33c0,0-27.5-7.8-18.8,24.3c0,0,2.4-20.4,13.3-15.7
		c0,0,9.7,14.9-7.6,21.2c0,0-90.5-11.8-89.7-26.3v-14.5c0,0,11.8-11.8,14.1-26.7c0,0-11.8-3.9-31.4,6.3c0,0-18.1-9.4-27.5-0.8
		c-9.4,8.6-15.7,18.4-15.7,18.4s-16.9,3.5-20.8,3.5c-3.9,0-7.1,13.3,1.6,18.1C145.3,129,160.6,132.9,163.7,153.3z"/>
	<path class="st1" d="M136.7,124.3c8.6,4.7,23.9,8.6,27.1,29c0,0,2.4,37.7,18.1,44.7c-10.2-21.2-3.4-46.5,4.7-58.9
		c26.8-40.8,8.3-47.3-2.4-47.9c-14.1-0.8-21.2,15.7-21.2,15.7l-27.9-0.8l-1.3,0.5C130.6,109.2,129,120.1,136.7,124.3z"/>
	<path class="st1" d="M214.8,170.6c3.1,15.7-6.7,34.5-6.7,34.5s15.7,2.4,51.8-15.7l13.7,3.9c0,0,8.6,20,32.2,38.1
		c-11-10.6-35.3-56.1-35.3-56.1C238.3,186.3,214.8,170.6,214.8,170.6z"/>
	<g>
		<path class="st2" d="M169.3,108c2.7,2.7,7.1,2.6,9.8-0.2c2.7-2.7,2.6-7.1-0.2-9.8c-2.7-2.7-7.1-2.6-9.8,0.2
			C166.5,101,166.6,105.4,169.3,108z"/>
		<path class="st3" d="M177,103.1c1.1-3.3-3.8-7.1-6.9-3.3c-2.7,3.4,0.3,8,4.5,6.2C176.2,105.3,176.6,104.2,177,103.1z"/>
		<path class="st4" d="M171,103.2c0.6,0.5,1.5,0.5,2,0c0.5-0.6,0.5-1.5,0-2c-0.6-0.5-1.5-0.5-2,0C170.4,101.8,170.4,102.7,171,103.2
			z"/>
	</g>
	<path class="st3" d="M155.8,120c-7.6,0.1-17.6,4.4-24-0.5c-0.8-0.6-1.6,0.7-0.8,1.3c6.5,5,16.1,1.2,23.8,0.8
		C155.1,121,155.4,120.5,155.8,120z"/>
	<path class="st3" d="M142.3,111.5c3.7-2.6,3.6-6.3,0.3-8.1c-2.4-1.3-7.3-2.8-9.8-1.2c-2.5,1.7-3.6,6.8-1.6,9.3
		C133.7,114.4,139.6,113.4,142.3,111.5z"/>
	<path class="st1" d="M203.8,89c0,0,9.4-6.3,22-6.3c0,0-4.7,13.3-11.8,18.8L203.8,89z"/>
</g>
<polyline class="st5" points="328.5,84 344.5,60.6 387.5,60.6 "/>
<polyline class="st5" points="203.6,60.6 187.6,37.1 144.6,37.1 "/>
<polyline class="st5" points="153.5,93.2 137.5,69.8 94.5,69.8 "/>
<polyline class="st5" points="137.6,136.9 121.6,160.4 78.6,160.4 "/>
<polyline class="st5" points="160.6,189.3 144.6,212.7 101.6,212.7 "/>
<polyline class="st5" points="244.7,124.6 260.7,13.6 303.7,13.6 "/>
<g>
	<path class="st6" d="M398.3,61.9l0.4,0.6c-0.7,0.4-1.2,0.6-1.5,0.6s-0.7-0.2-1.3-0.6l-2-1.2c-0.9-0.1-1.6-0.4-2.1-1
		s-0.7-1.4-0.7-2.5c0-0.5,0.1-1,0.2-1.5c0.2-0.4,0.4-0.8,0.7-1.1c0.3-0.3,0.6-0.6,1.1-0.7s0.9-0.3,1.4-0.3s0.9,0.1,1.3,0.2
		c0.4,0.2,0.7,0.4,1,0.7c0.3,0.3,0.5,0.7,0.6,1.1s0.2,0.9,0.2,1.5c0,0.5-0.1,0.9-0.2,1.3s-0.3,0.7-0.5,1s-0.4,0.6-0.7,0.8
		c-0.3,0.2-0.6,0.4-1,0.5l1.1,0.6c0.4,0.3,0.8,0.4,1.1,0.4c0.2,0,0.5-0.1,0.8-0.3L398.3,61.9z M394.4,55c-0.7,0-1.3,0.2-1.6,0.7
		c-0.4,0.5-0.6,1.1-0.6,2s0.2,1.6,0.5,2.1c0.4,0.5,0.9,0.7,1.6,0.7s1.2-0.2,1.6-0.7s0.5-1.2,0.5-2.1C396.4,55.9,395.7,55,394.4,55z"
		/>
	<path class="st6" d="M403.4,56v4.5l0.8,0.2v0.6h-1.7l-0.1-0.7c-0.3,0.2-0.6,0.4-1,0.6c-0.4,0.1-0.7,0.2-0.9,0.2
		c-0.5,0-0.9-0.2-1.2-0.5c-0.3-0.3-0.4-0.8-0.4-1.3v-2.8l-0.8-0.2V56h1.8v3.5c0,0.4,0.1,0.6,0.2,0.8c0.1,0.2,0.4,0.3,0.6,0.3
		c0.3,0,0.5-0.1,0.8-0.2c0.2-0.1,0.4-0.3,0.5-0.4l0.2-0.2v-3l-0.9-0.2V56H403.4z"/>
	<path class="st6" d="M409.4,58.7h-3.5c0,0.5,0.1,1,0.4,1.3s0.6,0.5,1.1,0.5c0.1,0,0.3,0,0.4,0s0.3-0.1,0.4-0.1s0.2-0.1,0.4-0.1
		c0.1,0,0.2-0.1,0.3-0.1l0.2-0.1l0.3,0.5c-0.2,0.2-0.4,0.3-0.6,0.4c-0.2,0.1-0.4,0.2-0.7,0.3c-0.3,0.1-0.5,0.1-0.8,0.1
		c-0.8,0-1.4-0.2-1.8-0.7s-0.6-1.1-0.6-2c0-0.4,0.1-0.8,0.2-1.1s0.3-0.6,0.5-0.9s0.5-0.4,0.8-0.6c0.3-0.1,0.6-0.2,1-0.2
		c1.4,0,2.1,0.8,2.1,2.4L409.4,58.7z M406,58h2.4c0-0.4-0.1-0.7-0.3-1c-0.2-0.3-0.5-0.4-0.8-0.4c-0.4,0-0.7,0.1-0.9,0.4
		C406.2,57.3,406,57.6,406,58z"/>
	<path class="st6" d="M415.2,56v4.5l0.8,0.2v0.6h-1.7l-0.1-0.7c-0.3,0.2-0.6,0.4-1,0.6c-0.4,0.1-0.7,0.2-0.9,0.2
		c-0.5,0-0.9-0.2-1.2-0.5c-0.3-0.3-0.4-0.8-0.4-1.3v-2.8l-0.8-0.2V56h1.8v3.5c0,0.4,0.1,0.6,0.2,0.8c0.1,0.2,0.4,0.3,0.6,0.3
		c0.3,0,0.5-0.1,0.8-0.2c0.2-0.1,0.4-0.3,0.5-0.4l0.2-0.2v-3l-0.9-0.2V56H415.2z"/>
	<path class="st6" d="M421.2,58.7h-3.5c0,0.5,0.1,1,0.4,1.3s0.6,0.5,1.1,0.5c0.1,0,0.3,0,0.4,0s0.3-0.1,0.4-0.1s0.2-0.1,0.4-0.1
		c0.1,0,0.2-0.1,0.3-0.1l0.2-0.1l0.3,0.5c-0.2,0.2-0.4,0.3-0.6,0.4c-0.2,0.1-0.4,0.2-0.7,0.3c-0.3,0.1-0.5,0.1-0.8,0.1
		c-0.8,0-1.4-0.2-1.8-0.7s-0.6-1.1-0.6-2c0-0.4,0.1-0.8,0.2-1.1s0.3-0.6,0.5-0.9s0.5-0.4,0.8-0.6c0.3-0.1,0.6-0.2,1-0.2
		c1.4,0,2.1,0.8,2.1,2.4L421.2,58.7z M417.8,58h2.4c0-0.4-0.1-0.7-0.3-1c-0.2-0.3-0.5-0.4-0.8-0.4c-0.4,0-0.7,0.1-0.9,0.4
		C418,57.3,417.8,57.6,417.8,58z"/>
	<path class="st6" d="M395.4,70.7h-3.5c0,0.5,0.1,1,0.4,1.3s0.6,0.5,1.1,0.5c0.1,0,0.3,0,0.4,0s0.3-0.1,0.4-0.1s0.2-0.1,0.4-0.1
		c0.1,0,0.2-0.1,0.3-0.1l0.2-0.1l0.3,0.5c-0.2,0.2-0.4,0.3-0.6,0.4c-0.2,0.1-0.4,0.2-0.7,0.3c-0.3,0.1-0.5,0.1-0.8,0.1
		c-0.8,0-1.4-0.2-1.8-0.7s-0.6-1.1-0.6-2c0-0.4,0.1-0.8,0.2-1.1s0.3-0.6,0.5-0.9s0.5-0.4,0.8-0.6c0.3-0.1,0.6-0.2,1-0.2
		c1.4,0,2.1,0.8,2.1,2.4L395.4,70.7z M391.9,70h2.4c0-0.4-0.1-0.7-0.3-1c-0.2-0.3-0.5-0.4-0.8-0.4c-0.4,0-0.7,0.1-0.9,0.4
		C392.1,69.3,392,69.6,391.9,70z M394.7,66l-2.1,1.3l-0.3-0.5l2-1.5L394.7,66z"/>
	<path class="st6" d="M397.7,68l0.1,0.6c0.5-0.4,1-0.7,1.5-0.7c0.7,0,1.2,0.2,1.6,0.7s0.5,1.1,0.5,2c0,0.4-0.1,0.8-0.2,1.1
		s-0.3,0.6-0.5,0.9s-0.5,0.4-0.8,0.6c-0.3,0.1-0.7,0.2-1.2,0.2c-0.3,0-0.6,0-0.9-0.1v1.6l1.1,0.2v0.5H396V75l0.8-0.2v-6l-0.8-0.2V68
		H397.7z M397.9,69.4v3c0.2,0.1,0.6,0.2,1.1,0.2c1,0,1.5-0.7,1.5-2c0-0.6-0.1-1-0.3-1.4c-0.2-0.3-0.5-0.5-1-0.5
		c-0.3,0-0.5,0.1-0.7,0.2S398,69.1,397.9,69.4z"/>
	<path class="st6" d="M402.7,68.3c0.7-0.3,1.4-0.4,2-0.4s1,0.1,1.3,0.4s0.5,0.6,0.5,1.2v3.1l0.8,0.2v0.6h-1.5l-0.2-0.7
		c-0.5,0.5-1.1,0.8-1.6,0.8s-0.9-0.1-1.2-0.4c-0.3-0.3-0.4-0.6-0.4-1.1c0-1,0.8-1.6,2.3-1.6h0.8v-0.8c0-0.6-0.3-0.9-1-0.9
		c-0.4,0-0.7,0-0.9,0.1h-0.1l-0.1,0.8h-0.7L402.7,68.3z M405.5,71h-0.7c-0.5,0-0.9,0.1-1.1,0.2s-0.3,0.3-0.3,0.6s0.1,0.5,0.2,0.6
		s0.3,0.2,0.5,0.2c0.1,0,0.2,0,0.3-0.1c0.1,0,0.2-0.1,0.3-0.2s0.2-0.1,0.3-0.2s0.2-0.1,0.2-0.2l0.2-0.2V71H405.5z"/>
	<path class="st6" d="M409.8,68v4.5l0.8,0.2v0.5H408v-0.5l0.8-0.2v-3.7l-0.8-0.2V68H409.8z M409.3,65.6c0.4,0,0.6,0.2,0.6,0.8
		c0,0.2-0.1,0.4-0.2,0.5s-0.3,0.2-0.5,0.2s-0.3-0.1-0.4-0.2c-0.1-0.1-0.2-0.3-0.2-0.5s0.1-0.4,0.2-0.5
		C408.9,65.7,409.1,65.6,409.3,65.6z"/>
	<path class="st6" d="M411.4,71.7h0.7l0.1,0.9c0.1,0,0.2,0,0.3,0.1s0.3,0,0.4,0c0.4,0,0.7-0.1,0.9-0.2c0.2-0.1,0.3-0.3,0.3-0.6
		c0-0.2-0.1-0.3-0.2-0.4c-0.1-0.1-0.3-0.2-0.5-0.3s-0.4-0.1-0.7-0.2c-0.2-0.1-0.5-0.2-0.7-0.3s-0.4-0.3-0.5-0.5s-0.2-0.4-0.2-0.7
		c0-0.5,0.2-0.9,0.5-1.1s0.8-0.4,1.3-0.4c0.2,0,0.5,0,0.7,0.1c0.2,0,0.5,0.1,0.7,0.2l0.2,0.1v1.4h-0.6l-0.2-0.8
		c-0.1,0-0.2,0-0.3-0.1s-0.3,0-0.5,0c-0.1,0-0.2,0-0.3,0c-0.1,0-0.2,0.1-0.3,0.1c-0.1,0-0.2,0.1-0.2,0.2c0,0.1-0.1,0.2-0.1,0.3
		c0,0.2,0.1,0.3,0.2,0.5s0.3,0.2,0.5,0.3s0.4,0.2,0.7,0.2c0.2,0.1,0.5,0.2,0.7,0.3s0.4,0.3,0.5,0.4c0.1,0.2,0.2,0.4,0.2,0.7
		s-0.1,0.5-0.2,0.7s-0.3,0.4-0.5,0.5s-0.4,0.2-0.7,0.3c-0.3,0.1-0.6,0.1-0.9,0.1c-0.1,0-0.2,0-0.4,0c-0.1,0-0.2,0-0.4,0
		c-0.1,0-0.2,0-0.3-0.1s-0.2,0-0.3-0.1l-0.2-0.1L411.4,71.7z"/>
	<path class="st6" d="M416.1,71.7h0.7l0.1,0.9c0.1,0,0.2,0,0.3,0.1s0.3,0,0.4,0c0.4,0,0.7-0.1,0.9-0.2c0.2-0.1,0.3-0.3,0.3-0.6
		c0-0.2-0.1-0.3-0.2-0.4c-0.1-0.1-0.3-0.2-0.5-0.3s-0.4-0.1-0.7-0.2c-0.2-0.1-0.5-0.2-0.7-0.3s-0.4-0.3-0.5-0.5s-0.2-0.4-0.2-0.7
		c0-0.5,0.2-0.9,0.5-1.1s0.8-0.4,1.3-0.4c0.2,0,0.5,0,0.7,0.1c0.2,0,0.5,0.1,0.7,0.2l0.2,0.1v1.4h-0.6l-0.2-0.8
		c-0.1,0-0.2,0-0.3-0.1s-0.3,0-0.5,0c-0.1,0-0.2,0-0.3,0c-0.1,0-0.2,0.1-0.3,0.1c-0.1,0-0.2,0.1-0.2,0.2c0,0.1-0.1,0.2-0.1,0.3
		c0,0.2,0.1,0.3,0.2,0.5s0.3,0.2,0.5,0.3s0.4,0.2,0.7,0.2c0.2,0.1,0.5,0.2,0.7,0.3s0.4,0.3,0.5,0.4c0.1,0.2,0.2,0.4,0.2,0.7
		s-0.1,0.5-0.2,0.7s-0.3,0.4-0.5,0.5s-0.4,0.2-0.7,0.3c-0.3,0.1-0.6,0.1-0.9,0.1c-0.1,0-0.2,0-0.4,0c-0.1,0-0.2,0-0.4,0
		c-0.1,0-0.2,0-0.3-0.1s-0.2,0-0.3-0.1l-0.2-0.1L416.1,71.7z"/>
	<path class="st6" d="M425.2,70.7h-3.5c0,0.5,0.1,1,0.4,1.3s0.6,0.5,1.1,0.5c0.1,0,0.3,0,0.4,0s0.3-0.1,0.4-0.1s0.2-0.1,0.4-0.1
		c0.1,0,0.2-0.1,0.3-0.1l0.2-0.1l0.3,0.5c-0.2,0.2-0.4,0.3-0.6,0.4c-0.2,0.1-0.4,0.2-0.7,0.3c-0.3,0.1-0.5,0.1-0.8,0.1
		c-0.8,0-1.4-0.2-1.8-0.7s-0.6-1.1-0.6-2c0-0.4,0.1-0.8,0.2-1.1s0.3-0.6,0.5-0.9s0.5-0.4,0.8-0.6c0.3-0.1,0.6-0.2,1-0.2
		c1.4,0,2.1,0.8,2.1,2.4L425.2,70.7z M421.8,70h2.4c0-0.4-0.1-0.7-0.3-1c-0.2-0.3-0.5-0.4-0.8-0.4c-0.4,0-0.7,0.1-0.9,0.4
		C422,69.3,421.8,69.6,421.8,70z"/>
	<path class="st6" d="M427,72c0.4,0,0.7,0.2,0.7,0.7c0,0.6-0.4,1.3-1.2,2.1l-0.4-0.4c0.4-0.5,0.5-0.8,0.5-1.1v-0.1
		c0-0.1,0-0.1-0.1-0.2c0-0.1-0.1-0.1-0.1-0.2c0-0.1,0-0.2,0-0.2c0-0.2,0.1-0.3,0.2-0.4S426.8,72,427,72z"/>
	<path class="st6" d="M395.4,82.7h-3.5c0,0.5,0.1,1,0.4,1.3s0.6,0.5,1.1,0.5c0.1,0,0.3,0,0.4,0s0.3-0.1,0.4-0.1s0.2-0.1,0.4-0.1
		c0.1,0,0.2-0.1,0.3-0.1l0.2-0.1l0.3,0.5c-0.2,0.2-0.4,0.3-0.6,0.4c-0.2,0.1-0.4,0.2-0.7,0.3c-0.3,0.1-0.5,0.1-0.8,0.1
		c-0.8,0-1.4-0.2-1.8-0.7s-0.6-1.1-0.6-2c0-0.4,0.1-0.8,0.2-1.1s0.3-0.6,0.5-0.9s0.5-0.4,0.8-0.6c0.3-0.1,0.6-0.2,1-0.2
		c1.4,0,2.1,0.8,2.1,2.4L395.4,82.7z M391.9,82h2.4c0-0.4-0.1-0.7-0.3-1c-0.2-0.3-0.5-0.4-0.8-0.4c-0.4,0-0.7,0.1-0.9,0.4
		C392.1,81.3,392,81.6,391.9,82z"/>
	<path class="st6" d="M397.8,80l0.1,0.7c0.1-0.1,0.2-0.1,0.3-0.2s0.3-0.2,0.4-0.3c0.2-0.1,0.3-0.2,0.5-0.2c0.2-0.1,0.4-0.1,0.6-0.1
		c0.5,0,0.9,0.2,1.2,0.5c0.3,0.3,0.4,0.8,0.4,1.3v2.8l0.8,0.2v0.5h-2.4v-0.5l0.6-0.2v-2.7c0-0.4-0.1-0.6-0.2-0.8s-0.4-0.3-0.6-0.3
		c-0.1,0-0.3,0-0.4,0.1s-0.3,0.1-0.4,0.1c-0.1,0.1-0.2,0.1-0.3,0.2c-0.1,0.1-0.2,0.1-0.2,0.2l-0.2,0.2v3l0.7,0.2v0.5h-2.5v-0.5
		l0.8-0.2v-3.7l-0.8-0.2V80H397.8z"/>
	<path class="st6" d="M404.5,80l0.1,0.7c0.5-0.6,1-0.8,1.5-0.8c0.3,0,0.5,0,0.8,0.1h0.1v1.5h-0.7l-0.1-0.8c-0.6,0-1.1,0.3-1.5,0.8v3
		l1,0.2v0.5h-2.8v-0.5l0.8-0.2v-3.7l-0.8-0.2V80H404.5z"/>
	<path class="st6" d="M407.5,82.7c0-0.4,0.1-0.8,0.2-1.2s0.3-0.6,0.5-0.9c0.2-0.2,0.5-0.4,0.8-0.6c0.3-0.1,0.7-0.2,1-0.2
		c0.7,0,1.3,0.2,1.7,0.7c0.4,0.5,0.6,1.1,0.6,2c0,0.4-0.1,0.8-0.2,1.1s-0.3,0.6-0.5,0.9s-0.5,0.4-0.8,0.6c-0.3,0.1-0.7,0.2-1,0.2
		c-0.8,0-1.3-0.2-1.8-0.7C407.7,84.2,407.5,83.6,407.5,82.7z M410,80.7c-1,0-1.5,0.6-1.5,2c0,1.3,0.5,1.9,1.4,1.9
		c0.5,0,0.8-0.2,1.1-0.5c0.2-0.3,0.3-0.8,0.3-1.5C411.3,81.3,410.9,80.7,410,80.7z"/>
	<path class="st6" d="M418.2,80v4.5l0.8,0.2v0.6h-1.7l-0.1-0.7c-0.3,0.2-0.6,0.4-1,0.6c-0.4,0.1-0.7,0.2-0.9,0.2
		c-0.5,0-0.9-0.2-1.2-0.5c-0.3-0.3-0.4-0.8-0.4-1.3v-2.8l-0.8-0.2V80h1.8v3.5c0,0.4,0.1,0.6,0.2,0.8s0.4,0.3,0.6,0.3
		c0.3,0,0.5-0.1,0.8-0.2c0.2-0.1,0.4-0.3,0.5-0.4l0.2-0.2v-3l-0.9-0.2V80H418.2z"/>
	<path class="st6" d="M421.4,77.6v6.9l1,0.2v0.5h-2.9v-0.5l0.8-0.2v-6.1l-0.8-0.2v-0.5L421.4,77.6z"/>
	<path class="st6" d="M427.3,82.7h-3.5c0,0.5,0.1,1,0.4,1.3s0.6,0.5,1.1,0.5c0.1,0,0.3,0,0.4,0s0.3-0.1,0.4-0.1s0.2-0.1,0.4-0.1
		c0.1,0,0.2-0.1,0.3-0.1l0.2-0.1l0.3,0.5c-0.2,0.2-0.4,0.3-0.6,0.4c-0.2,0.1-0.4,0.2-0.7,0.3c-0.3,0.1-0.5,0.1-0.8,0.1
		c-0.8,0-1.4-0.2-1.8-0.7s-0.6-1.1-0.6-2c0-0.4,0.1-0.8,0.2-1.1s0.3-0.6,0.5-0.9s0.5-0.4,0.8-0.6c0.3-0.1,0.6-0.2,1-0.2
		c1.4,0,2.1,0.8,2.1,2.4L427.3,82.7z M423.9,82h2.4c0-0.4-0.1-0.7-0.3-1c-0.2-0.3-0.5-0.4-0.8-0.4c-0.4,0-0.7,0.1-0.9,0.4
		C424.1,81.3,424,81.6,423.9,82z M426.6,78l-2.1,1.3l-0.3-0.5l2-1.5L426.6,78z"/>
	<path class="st6" d="M432.6,82.7h-3.5c0,0.5,0.1,1,0.4,1.3s0.6,0.5,1.1,0.5c0.1,0,0.3,0,0.4,0s0.3-0.1,0.4-0.1s0.2-0.1,0.4-0.1
		c0.1,0,0.2-0.1,0.3-0.1l0.2-0.1l0.3,0.5c-0.2,0.2-0.4,0.3-0.6,0.4c-0.2,0.1-0.4,0.2-0.7,0.3c-0.3,0.1-0.5,0.1-0.8,0.1
		c-0.8,0-1.4-0.2-1.8-0.7s-0.6-1.1-0.6-2c0-0.4,0.1-0.8,0.2-1.1s0.3-0.6,0.5-0.9s0.5-0.4,0.8-0.6c0.3-0.1,0.6-0.2,1-0.2
		c1.4,0,2.1,0.8,2.1,2.4L432.6,82.7z M429.2,82h2.4c0-0.4-0.1-0.7-0.3-1c-0.2-0.3-0.5-0.4-0.8-0.4c-0.4,0-0.7,0.1-0.9,0.4
		C429.4,81.3,429.3,81.6,429.2,82z"/>
	<path class="st6" d="M395.4,94.7h-3.5c0,0.5,0.1,1,0.4,1.3s0.6,0.5,1.1,0.5c0.1,0,0.3,0,0.4,0s0.3-0.1,0.4-0.1s0.2-0.1,0.4-0.1
		c0.1,0,0.2-0.1,0.3-0.1l0.2-0.1l0.3,0.5c-0.2,0.2-0.4,0.3-0.6,0.4c-0.2,0.1-0.4,0.2-0.7,0.3c-0.3,0.1-0.5,0.1-0.8,0.1
		c-0.8,0-1.4-0.2-1.8-0.7s-0.6-1.1-0.6-2c0-0.4,0.1-0.8,0.2-1.1s0.3-0.6,0.5-0.9s0.5-0.4,0.8-0.6c0.3-0.1,0.6-0.2,1-0.2
		c1.4,0,2.1,0.8,2.1,2.4L395.4,94.7z M391.9,94h2.4c0-0.4-0.1-0.7-0.3-1c-0.2-0.3-0.5-0.4-0.8-0.4c-0.4,0-0.7,0.1-0.9,0.4
		C392.1,93.3,392,93.6,391.9,94z"/>
	<path class="st6" d="M397.8,92l0.1,0.7c0.1-0.1,0.2-0.1,0.3-0.2s0.3-0.2,0.4-0.3c0.2-0.1,0.3-0.2,0.5-0.2c0.2-0.1,0.4-0.1,0.6-0.1
		c0.5,0,0.9,0.2,1.2,0.5c0.3,0.3,0.4,0.8,0.4,1.3v2.8l0.8,0.2v0.5h-2.4v-0.5l0.6-0.2v-2.7c0-0.4-0.1-0.6-0.2-0.8s-0.4-0.3-0.6-0.3
		c-0.1,0-0.3,0-0.4,0.1s-0.3,0.1-0.4,0.1c-0.1,0.1-0.2,0.1-0.3,0.2c-0.1,0.1-0.2,0.1-0.2,0.2l-0.2,0.2v3l0.7,0.2v0.5h-2.5v-0.5
		l0.8-0.2v-3.7l-0.8-0.2V92H397.8z"/>
	<path class="st6" d="M406.5,89.6v2.9c0.5-0.4,1-0.6,1.5-0.6c0.7,0,1.2,0.2,1.6,0.7s0.5,1.1,0.5,2c0,0.4-0.1,0.8-0.2,1.1
		s-0.3,0.7-0.5,0.9c-0.2,0.3-0.5,0.5-0.9,0.6c-0.3,0.1-0.7,0.2-1.2,0.2c-0.3,0-0.6,0-0.9,0s-0.5-0.1-0.7-0.1l-0.2-0.1v-6.8l-0.8-0.2
		v-0.5L406.5,89.6z M406.5,96.5c0.2,0.1,0.5,0.1,1,0.1c0.3,0,0.5,0,0.7-0.1s0.3-0.2,0.5-0.4c0.1-0.2,0.2-0.4,0.3-0.6
		c0.1-0.2,0.1-0.5,0.1-0.8c0-0.6-0.1-1.1-0.3-1.4c-0.2-0.3-0.5-0.5-0.9-0.5c-0.3,0-0.6,0.1-0.8,0.2c-0.2,0.1-0.4,0.3-0.5,0.5v3
		H406.5z"/>
	<path class="st6" d="M411,94.7c0-0.4,0.1-0.8,0.2-1.2s0.3-0.6,0.5-0.9c0.2-0.2,0.5-0.4,0.8-0.6c0.3-0.1,0.7-0.2,1-0.2
		c0.7,0,1.3,0.2,1.7,0.7c0.4,0.5,0.6,1.1,0.6,2c0,0.4-0.1,0.8-0.2,1.1s-0.3,0.6-0.5,0.9s-0.5,0.4-0.8,0.6c-0.3,0.1-0.7,0.2-1,0.2
		c-0.8,0-1.3-0.2-1.8-0.7C411.2,96.2,411,95.6,411,94.7z M413.5,92.7c-1,0-1.5,0.6-1.5,2c0,1.3,0.5,1.9,1.4,1.9
		c0.5,0,0.8-0.2,1.1-0.5c0.2-0.3,0.3-0.8,0.3-1.5C414.8,93.3,414.4,92.7,413.5,92.7z"/>
	<path class="st6" d="M421.7,92v4.5l0.8,0.2v0.6h-1.7l-0.1-0.7c-0.3,0.2-0.6,0.4-1,0.6c-0.4,0.1-0.7,0.2-0.9,0.2
		c-0.5,0-0.9-0.2-1.2-0.5c-0.3-0.3-0.4-0.8-0.4-1.3v-2.8l-0.8-0.2V92h1.8v3.5c0,0.4,0.1,0.6,0.2,0.8s0.4,0.3,0.6,0.3
		c0.3,0,0.5-0.1,0.8-0.2c0.2-0.1,0.4-0.3,0.5-0.4l0.2-0.2v-3l-0.9-0.2V92H421.7z"/>
	<path class="st6" d="M427.4,93.6h-0.7l-0.2-0.9c-0.3-0.1-0.6-0.1-0.9-0.1c-0.5,0-0.9,0.2-1.1,0.5s-0.4,0.8-0.4,1.4s0.1,1.1,0.4,1.5
		c0.3,0.3,0.7,0.5,1.1,0.5c0.1,0,0.3,0,0.4,0s0.3-0.1,0.4-0.1s0.2-0.1,0.3-0.1c0.1-0.1,0.2-0.1,0.2-0.2l0.2-0.1l0.4,0.6l-0.1,0.1
		c-0.1,0.1-0.2,0.1-0.3,0.2c-0.1,0.1-0.3,0.2-0.5,0.2c-0.2,0.1-0.4,0.1-0.5,0.2c-0.2,0.1-0.4,0.1-0.6,0.1c-0.8,0-1.4-0.2-1.9-0.7
		s-0.6-1.1-0.6-2c0-0.4,0.1-0.8,0.2-1.1s0.3-0.6,0.5-0.9c0.2-0.2,0.5-0.4,0.8-0.6c0.3-0.1,0.7-0.2,1.1-0.2c0.1,0,0.3,0,0.4,0
		s0.3,0,0.4,0.1c0.1,0,0.3,0.1,0.4,0.1s0.2,0.1,0.3,0.1l0.2,0.1L427.4,93.6z"/>
	<path class="st6" d="M430,89.6v6.9l1,0.2v0.5h-2.9v-0.5l0.8-0.2v-6.1l-0.8-0.2v-0.5L430,89.6z"/>
	<path class="st6" d="M435.9,94.7h-3.5c0,0.5,0.1,1,0.4,1.3s0.6,0.5,1.1,0.5c0.1,0,0.3,0,0.4,0s0.3-0.1,0.4-0.1s0.2-0.1,0.4-0.1
		c0.1,0,0.2-0.1,0.3-0.1l0.2-0.1l0.3,0.5c-0.2,0.2-0.4,0.3-0.6,0.4c-0.2,0.1-0.4,0.2-0.7,0.3c-0.3,0.1-0.5,0.1-0.8,0.1
		c-0.8,0-1.4-0.2-1.8-0.7s-0.6-1.1-0.6-2c0-0.4,0.1-0.8,0.2-1.1s0.3-0.6,0.5-0.9s0.5-0.4,0.8-0.6c0.3-0.1,0.6-0.2,1-0.2
		c1.4,0,2.1,0.8,2.1,2.4L435.9,94.7z M432.5,94h2.4c0-0.4-0.1-0.7-0.3-1c-0.2-0.3-0.5-0.4-0.8-0.4c-0.4,0-0.7,0.1-0.9,0.4
		C432.7,93.3,432.5,93.6,432.5,94z"/>
	<path class="st6" d="M390.9,107.7h0.7l0.1,0.9c0.1,0,0.2,0,0.3,0.1s0.3,0,0.4,0c0.4,0,0.7-0.1,0.9-0.2c0.2-0.1,0.3-0.3,0.3-0.6
		c0-0.2-0.1-0.3-0.2-0.4c-0.1-0.1-0.3-0.2-0.5-0.3s-0.4-0.1-0.7-0.2c-0.2-0.1-0.5-0.2-0.7-0.3s-0.4-0.3-0.5-0.5s-0.2-0.4-0.2-0.7
		c0-0.5,0.2-0.9,0.5-1.1s0.8-0.4,1.3-0.4c0.2,0,0.5,0,0.7,0.1c0.2,0,0.5,0.1,0.7,0.2l0.2,0.1v1.4h-0.6l-0.2-0.8
		c-0.1,0-0.2,0-0.3-0.1s-0.3,0-0.5,0c-0.1,0-0.2,0-0.3,0c-0.1,0-0.2,0.1-0.3,0.1c-0.1,0-0.2,0.1-0.2,0.2c0,0.1-0.1,0.2-0.1,0.3
		c0,0.2,0.1,0.3,0.2,0.5s0.3,0.2,0.5,0.3s0.4,0.2,0.7,0.2c0.2,0.1,0.5,0.2,0.7,0.3s0.4,0.3,0.5,0.4c0.1,0.2,0.2,0.4,0.2,0.7
		s-0.1,0.5-0.2,0.7s-0.3,0.4-0.5,0.5s-0.4,0.2-0.7,0.3c-0.3,0.1-0.6,0.1-0.9,0.1c-0.1,0-0.2,0-0.4,0c-0.1,0-0.2,0-0.4,0
		c-0.1,0-0.2,0-0.3-0.1s-0.2,0-0.3-0.1l-0.2-0.1L390.9,107.7z"/>
	<path class="st6" d="M400.6,104v4.5l0.8,0.2v0.6h-1.7l-0.1-0.7c-0.3,0.2-0.6,0.4-1,0.6c-0.4,0.1-0.7,0.2-0.9,0.2
		c-0.5,0-0.9-0.2-1.2-0.5c-0.3-0.3-0.4-0.8-0.4-1.3v-2.8l-0.8-0.2V104h1.8v3.5c0,0.4,0.1,0.6,0.2,0.8s0.4,0.3,0.6,0.3
		c0.3,0,0.5-0.1,0.8-0.2c0.2-0.1,0.4-0.3,0.5-0.4l0.2-0.2v-3l-0.9-0.2V104H400.6z"/>
	<path class="st6" d="M403.7,104l0.1,0.7c0.5-0.6,1-0.8,1.5-0.8c0.3,0,0.5,0,0.8,0.1h0.1v1.5h-0.7l-0.1-0.8c-0.6,0-1.1,0.3-1.5,0.8
		v3l1,0.2v0.5h-2.8v-0.5l0.8-0.2v-3.7l-0.8-0.2V104H403.7z"/>
	<path class="st6" d="M410.7,101.6v6.9l1,0.2v0.5h-2.9v-0.5l0.8-0.2v-6.1l-0.8-0.2v-0.5L410.7,101.6z"/>
	<path class="st6" d="M416.7,106.7h-3.5c0,0.5,0.1,1,0.4,1.3s0.6,0.5,1.1,0.5c0.1,0,0.3,0,0.4,0s0.3-0.1,0.4-0.1s0.2-0.1,0.4-0.1
		c0.1,0,0.2-0.1,0.3-0.1l0.2-0.1l0.3,0.5c-0.2,0.2-0.4,0.3-0.6,0.4c-0.2,0.1-0.4,0.2-0.7,0.3c-0.3,0.1-0.5,0.1-0.8,0.1
		c-0.8,0-1.4-0.2-1.8-0.7s-0.6-1.1-0.6-2c0-0.4,0.1-0.8,0.2-1.1s0.3-0.6,0.5-0.9s0.5-0.4,0.8-0.6c0.3-0.1,0.6-0.2,1-0.2
		c1.4,0,2.1,0.8,2.1,2.4L416.7,106.7z M413.3,106h2.4c0-0.4-0.1-0.7-0.3-1c-0.2-0.3-0.5-0.4-0.8-0.4c-0.4,0-0.7,0.1-0.9,0.4
		C413.4,105.3,413.3,105.6,413.3,106z"/>
	<path class="st6" d="M424.4,101.6v6.9l0.9,0.2v0.6h-1.7l-0.1-0.6c-0.4,0.4-1,0.7-1.7,0.7c-0.6,0-1.1-0.2-1.5-0.7
		c-0.3-0.5-0.5-1.1-0.5-1.9c0-0.9,0.2-1.6,0.7-2.1c0.4-0.5,1.1-0.8,2-0.8c0.3,0,0.6,0.1,1,0.2v-1.7l-0.8-0.2v-0.5L424.4,101.6z
		 M423.4,107.8v-2.9c-0.2-0.1-0.6-0.2-1-0.2c-1,0-1.5,0.7-1.5,2c0,0.6,0.1,1.1,0.3,1.4s0.5,0.5,0.9,0.5c0.3,0,0.6-0.1,0.8-0.3
		C423.2,108.1,423.3,108,423.4,107.8z"/>
	<path class="st6" d="M425.9,106.7c0-0.4,0.1-0.8,0.2-1.2s0.3-0.6,0.5-0.9c0.2-0.2,0.5-0.4,0.8-0.6c0.3-0.1,0.7-0.2,1-0.2
		c0.7,0,1.3,0.2,1.7,0.7c0.4,0.5,0.6,1.1,0.6,2c0,0.4-0.1,0.8-0.2,1.1s-0.3,0.6-0.5,0.9s-0.5,0.4-0.8,0.6c-0.3,0.1-0.7,0.2-1,0.2
		c-0.8,0-1.3-0.2-1.8-0.7C426.1,108.2,425.9,107.6,425.9,106.7z M428.4,104.7c-1,0-1.5,0.6-1.5,2c0,1.3,0.5,1.9,1.4,1.9
		c0.5,0,0.8-0.2,1.1-0.5c0.2-0.3,0.3-0.8,0.3-1.5C429.8,105.3,429.3,104.7,428.4,104.7z"/>
	<path class="st6" d="M431.7,107.7h0.7l0.1,0.9c0.1,0,0.2,0,0.3,0.1s0.3,0,0.4,0c0.4,0,0.7-0.1,0.9-0.2c0.2-0.1,0.3-0.3,0.3-0.6
		c0-0.2-0.1-0.3-0.2-0.4c-0.1-0.1-0.3-0.2-0.5-0.3s-0.4-0.1-0.7-0.2c-0.2-0.1-0.5-0.2-0.7-0.3s-0.4-0.3-0.5-0.5s-0.2-0.4-0.2-0.7
		c0-0.5,0.2-0.9,0.5-1.1s0.8-0.4,1.3-0.4c0.2,0,0.5,0,0.7,0.1c0.2,0,0.5,0.1,0.7,0.2l0.2,0.1v1.4h-0.6l-0.2-0.8
		c-0.1,0-0.2,0-0.3-0.1s-0.3,0-0.5,0c-0.1,0-0.2,0-0.3,0c-0.1,0-0.2,0.1-0.3,0.1c-0.1,0-0.2,0.1-0.2,0.2c0,0.1-0.1,0.2-0.1,0.3
		c0,0.2,0.1,0.3,0.2,0.5s0.3,0.2,0.5,0.3s0.4,0.2,0.7,0.2c0.2,0.1,0.5,0.2,0.7,0.3s0.4,0.3,0.5,0.4c0.1,0.2,0.2,0.4,0.2,0.7
		s-0.1,0.5-0.2,0.7s-0.3,0.4-0.5,0.5s-0.4,0.2-0.7,0.3c-0.3,0.1-0.6,0.1-0.9,0.1c-0.1,0-0.2,0-0.4,0c-0.1,0-0.2,0-0.4,0
		c-0.1,0-0.2,0-0.3-0.1s-0.2,0-0.3-0.1l-0.2-0.1L431.7,107.7z"/>
</g>
<g>
	<path class="st6" d="M308.2,14.3v-0.6l0.8-0.2V8.1l-0.8-0.2V7.3h1.9h1c0.7,0,1.3,0.2,1.7,0.5c0.4,0.4,0.6,0.9,0.6,1.5
		c0,0.8-0.2,1.4-0.7,1.8s-1.1,0.6-2,0.6H310v1.8l0.9,0.2v0.6C310.9,14.3,308.2,14.3,308.2,14.3z M310.1,8.1v2.8h0.7
		c1.1,0,1.6-0.5,1.6-1.4c0-0.4-0.1-0.8-0.3-1c-0.2-0.3-0.5-0.4-1-0.4H310.1z"/>
	<path class="st6" d="M314.1,11.7c0-0.4,0.1-0.8,0.2-1.2s0.3-0.6,0.5-0.9c0.2-0.2,0.5-0.4,0.8-0.6c0.3-0.1,0.7-0.2,1-0.2
		c0.7,0,1.3,0.2,1.7,0.7c0.4,0.5,0.6,1.1,0.6,2c0,0.4-0.1,0.8-0.2,1.1s-0.3,0.6-0.5,0.9s-0.5,0.4-0.8,0.6c-0.3,0.1-0.7,0.2-1,0.2
		c-0.8,0-1.3-0.2-1.8-0.7C314.3,13.2,314.1,12.6,314.1,11.7z M316.6,9.7c-1,0-1.5,0.6-1.5,2c0,1.3,0.5,1.9,1.4,1.9
		c0.5,0,0.8-0.2,1.1-0.5c0.2-0.3,0.3-0.8,0.3-1.5C318,10.3,317.5,9.7,316.6,9.7z"/>
	<path class="st6" d="M321.7,9v4.5l0.8,0.2v0.5h-2.6v-0.5l0.8-0.2V9.8l-0.8-0.2V9H321.7z M321.1,6.6c0.4,0,0.6,0.2,0.6,0.8
		c0,0.2-0.1,0.4-0.2,0.5s-0.3,0.2-0.5,0.2s-0.3-0.1-0.4-0.2s-0.2-0.3-0.2-0.5s0.1-0.4,0.2-0.5C320.8,6.7,320.9,6.6,321.1,6.6z"/>
	<path class="st6" d="M324.9,6.6v6.9l1,0.2v0.5H323v-0.5l0.8-0.2V7.4L323,7.2V6.7L324.9,6.6z"/>
	<path class="st6" d="M326.4,12.7h0.7l0.1,0.9c0.1,0,0.2,0,0.3,0.1s0.3,0,0.4,0c0.4,0,0.7-0.1,0.9-0.2c0.2-0.1,0.3-0.3,0.3-0.6
		c0-0.2-0.1-0.3-0.2-0.4s-0.3-0.2-0.5-0.3c-0.2-0.1-0.4-0.1-0.7-0.2c-0.2-0.1-0.5-0.2-0.7-0.3c-0.2-0.1-0.4-0.3-0.5-0.5
		s-0.2-0.4-0.2-0.7c0-0.5,0.2-0.9,0.5-1.1s0.8-0.4,1.3-0.4c0.2,0,0.5,0,0.7,0.1c0.2,0,0.5,0.1,0.7,0.2l0.2,0.1v1.4h-0.6l-0.2-0.8
		c-0.1,0-0.2,0-0.3-0.1s-0.3,0-0.5,0c-0.1,0-0.2,0-0.3,0c-0.1,0-0.2,0.1-0.3,0.1c-0.1,0-0.2,0.1-0.2,0.2s-0.1,0.2-0.1,0.3
		c0,0.2,0.1,0.3,0.2,0.5s0.3,0.2,0.5,0.3c0.2,0.1,0.4,0.2,0.7,0.2c0.2,0.1,0.5,0.2,0.7,0.3c0.2,0.1,0.4,0.3,0.5,0.4
		c0.1,0.2,0.2,0.4,0.2,0.7c0,0.3-0.1,0.5-0.2,0.7s-0.3,0.4-0.5,0.5s-0.4,0.2-0.7,0.3c-0.3,0.1-0.6,0.1-0.9,0.1c-0.1,0-0.2,0-0.4,0
		c-0.1,0-0.2,0-0.4,0c-0.1,0-0.2,0-0.3-0.1s-0.2,0-0.3-0.1l-0.2-0.1L326.4,12.7z"/>
	<path class="st6" d="M338,6.6v6.9l0.9,0.2v0.6h-1.7l-0.1-0.6c-0.4,0.4-1,0.7-1.7,0.7c-0.6,0-1.1-0.2-1.5-0.7
		c-0.3-0.5-0.5-1.1-0.5-1.9c0-0.9,0.2-1.6,0.7-2.1c0.4-0.5,1.1-0.8,2-0.8c0.3,0,0.6,0.1,1,0.2V7.4l-0.8-0.2V6.7L338,6.6z M337,12.8
		V9.9c-0.2-0.1-0.6-0.2-1-0.2c-1,0-1.5,0.7-1.5,2c0,0.6,0.1,1.1,0.3,1.4s0.5,0.5,0.9,0.5c0.3,0,0.6-0.1,0.8-0.3
		C336.7,13.1,336.9,13,337,12.8z"/>
	<path class="st6" d="M344,11.8h-3.5c0,0.5,0.1,1,0.4,1.3s0.6,0.5,1.1,0.5c0.1,0,0.3,0,0.4,0s0.3-0.1,0.4-0.1s0.2-0.1,0.4-0.1
		c0.1,0,0.2-0.1,0.3-0.1l0.2-0.1l0.3,0.5c-0.2,0.2-0.4,0.3-0.6,0.4s-0.4,0.2-0.7,0.3c-0.3,0.1-0.5,0.1-0.8,0.1
		c-0.8,0-1.4-0.2-1.8-0.7s-0.6-1.1-0.6-2c0-0.4,0.1-0.8,0.2-1.1s0.3-0.6,0.5-0.9s0.5-0.4,0.8-0.6c0.3-0.1,0.6-0.2,1-0.2
		c1.4,0,2.1,0.8,2.1,2.4L344,11.8z M340.6,11h2.4c0-0.4-0.1-0.7-0.3-1c-0.2-0.3-0.5-0.4-0.8-0.4c-0.4,0-0.7,0.1-0.9,0.4
		C340.7,10.3,340.6,10.6,340.6,11z"/>
	<path class="st6" d="M351.3,10.6h-0.7l-0.2-0.9c-0.3-0.1-0.6-0.1-0.9-0.1c-0.5,0-0.9,0.2-1.1,0.5s-0.4,0.8-0.4,1.4s0.1,1.1,0.4,1.5
		c0.3,0.3,0.7,0.5,1.1,0.5c0.1,0,0.3,0,0.4,0s0.3-0.1,0.4-0.1s0.2-0.1,0.3-0.1c0.1-0.1,0.2-0.1,0.2-0.2L351,13l0.4,0.6l-0.1,0.1
		c-0.1,0.1-0.2,0.1-0.3,0.2c-0.1,0.1-0.3,0.2-0.5,0.2c-0.2,0.1-0.4,0.1-0.5,0.2c-0.2,0.1-0.4,0.1-0.6,0.1c-0.8,0-1.4-0.2-1.9-0.7
		s-0.6-1.1-0.6-2c0-0.4,0.1-0.8,0.2-1.1c0.1-0.3,0.3-0.6,0.5-0.9c0.2-0.2,0.5-0.4,0.8-0.6c0.3-0.1,0.7-0.2,1.1-0.2
		c0.1,0,0.3,0,0.4,0s0.3,0,0.4,0.1c0.1,0,0.3,0.1,0.4,0.1s0.2,0.1,0.3,0.1l0.2,0.1L351.3,10.6z"/>
	<path class="st6" d="M352.2,11.7c0-0.4,0.1-0.8,0.2-1.2s0.3-0.6,0.5-0.9c0.2-0.2,0.5-0.4,0.8-0.6c0.3-0.1,0.7-0.2,1-0.2
		c0.7,0,1.3,0.2,1.7,0.7c0.4,0.5,0.6,1.1,0.6,2c0,0.4-0.1,0.8-0.2,1.1s-0.3,0.6-0.5,0.9s-0.5,0.4-0.8,0.6c-0.3,0.1-0.7,0.2-1,0.2
		c-0.8,0-1.3-0.2-1.8-0.7C352.4,13.2,352.2,12.6,352.2,11.7z M354.7,9.7c-1,0-1.5,0.6-1.5,2c0,1.3,0.5,1.9,1.4,1.9
		c0.5,0,0.8-0.2,1.1-0.5c0.2-0.3,0.3-0.8,0.3-1.5C356,10.3,355.6,9.7,354.7,9.7z"/>
	<path class="st6" d="M362.9,9v4.5l0.8,0.2v0.6H362l-0.1-0.7c-0.3,0.2-0.6,0.4-1,0.6c-0.4,0.1-0.7,0.2-0.9,0.2
		c-0.5,0-0.9-0.2-1.2-0.5c-0.3-0.3-0.4-0.8-0.4-1.3V9.8l-0.8-0.2V9h1.8v3.5c0,0.4,0.1,0.6,0.2,0.8c0.1,0.2,0.4,0.3,0.6,0.3
		c0.3,0,0.5-0.1,0.8-0.2c0.2-0.1,0.4-0.3,0.5-0.4l0.2-0.2v-3l-0.9-0.2V9H362.9z"/>
	<path class="st6" d="M366.3,9v0.6l-0.7,0.1l1.2,3.7l1.2-3.6l-0.7-0.2V9h2.2v0.6L369,9.7l-1.7,4.6h-1.1l-1.6-4.5l-0.5-0.2V9H366.3z"
		/>
	<path class="st6" d="M374.5,11.8H371c0,0.5,0.1,1,0.4,1.3s0.6,0.5,1.1,0.5c0.1,0,0.3,0,0.4,0s0.3-0.1,0.4-0.1s0.2-0.1,0.4-0.1
		c0.1,0,0.2-0.1,0.3-0.1l0.2-0.1l0.3,0.5c-0.2,0.2-0.4,0.3-0.6,0.4s-0.4,0.2-0.7,0.3c-0.3,0.1-0.5,0.1-0.8,0.1
		c-0.8,0-1.4-0.2-1.8-0.7s-0.6-1.1-0.6-2c0-0.4,0.1-0.8,0.2-1.1s0.3-0.6,0.5-0.9s0.5-0.4,0.8-0.6c0.3-0.1,0.6-0.2,1-0.2
		c1.4,0,2.1,0.8,2.1,2.4L374.5,11.8z M371.1,11h2.4c0-0.4-0.1-0.7-0.3-1c-0.2-0.3-0.5-0.4-0.8-0.4c-0.4,0-0.7,0.1-0.9,0.4
		C371.2,10.3,371.1,10.6,371.1,11z"/>
	<path class="st6" d="M376.9,9l0.1,0.7c0.5-0.6,1-0.8,1.5-0.8c0.3,0,0.5,0,0.8,0.1h0.1v1.5h-0.7l-0.1-0.8c-0.6,0-1.1,0.3-1.5,0.8v3
		l1,0.2v0.5h-2.8v-0.5l0.8-0.2V9.8l-0.8-0.2V9H376.9z"/>
	<path class="st6" d="M381.7,7.6V9h1.5v0.8h-1.5V13c0,0.4,0.2,0.6,0.5,0.6c0.2,0,0.5-0.1,0.8-0.2l0.3,0.5c-0.5,0.3-0.9,0.5-1.4,0.5
		c-0.3,0-0.6-0.1-0.8-0.3c-0.2-0.2-0.3-0.6-0.3-1.1V9.9h-1V9.3l1-0.1V7.9L381.7,7.6z"/>
	<path class="st6" d="M388.9,9v4.5l0.8,0.2v0.6H388l-0.1-0.7c-0.3,0.2-0.6,0.4-1,0.6c-0.4,0.1-0.7,0.2-0.9,0.2
		c-0.5,0-0.9-0.2-1.2-0.5c-0.3-0.3-0.4-0.8-0.4-1.3V9.8l-0.8-0.2V9h1.8v3.5c0,0.4,0.1,0.6,0.2,0.8c0.1,0.2,0.4,0.3,0.6,0.3
		c0.3,0,0.5-0.1,0.8-0.2c0.2-0.1,0.4-0.3,0.5-0.4l0.2-0.2v-3l-0.9-0.2V9H388.9z"/>
	<path class="st6" d="M392,9l0.1,0.7c0.5-0.6,1-0.8,1.5-0.8c0.3,0,0.5,0,0.8,0.1h0.1v1.5h-0.7l-0.1-0.8c-0.6,0-1.1,0.3-1.5,0.8v3
		l1,0.2v0.5h-2.8v-0.5l0.8-0.2V9.8l-0.8-0.2V9H392z"/>
	<path class="st6" d="M399.5,11.8H396c0,0.5,0.1,1,0.4,1.3s0.6,0.5,1.1,0.5c0.1,0,0.3,0,0.4,0s0.3-0.1,0.4-0.1s0.2-0.1,0.4-0.1
		c0.1,0,0.2-0.1,0.3-0.1l0.2-0.1l0.3,0.5c-0.2,0.2-0.4,0.3-0.6,0.4s-0.4,0.2-0.7,0.3c-0.3,0.1-0.5,0.1-0.8,0.1
		c-0.8,0-1.4-0.2-1.8-0.7s-0.6-1.1-0.6-2c0-0.4,0.1-0.8,0.2-1.1s0.3-0.6,0.5-0.9s0.5-0.4,0.8-0.6c0.3-0.1,0.6-0.2,1-0.2
		c1.4,0,2.1,0.8,2.1,2.4L399.5,11.8z M396.1,11h2.4c0-0.4-0.1-0.7-0.3-1c-0.2-0.3-0.5-0.4-0.8-0.4c-0.4,0-0.7,0.1-0.9,0.4
		C396.3,10.3,396.1,10.6,396.1,11z"/>
	<path class="st6" d="M401.3,13c0.4,0,0.7,0.2,0.7,0.7c0,0.6-0.4,1.3-1.2,2.1l-0.4-0.4c0.4-0.5,0.5-0.8,0.5-1.1v-0.1
		c0-0.1,0-0.1-0.1-0.2c0-0.1-0.1-0.1-0.1-0.2s0-0.2,0-0.2c0-0.2,0.1-0.3,0.2-0.4S401.1,13,401.3,13z"/>
	<path class="st6" d="M409.8,11.8h-3.5c0,0.5,0.1,1,0.4,1.3s0.6,0.5,1.1,0.5c0.1,0,0.3,0,0.4,0s0.3-0.1,0.4-0.1s0.2-0.1,0.4-0.1
		c0.1,0,0.2-0.1,0.3-0.1l0.2-0.1l0.3,0.5c-0.2,0.2-0.4,0.3-0.6,0.4s-0.4,0.2-0.7,0.3c-0.3,0.1-0.5,0.1-0.8,0.1
		c-0.8,0-1.4-0.2-1.8-0.7s-0.6-1.1-0.6-2c0-0.4,0.1-0.8,0.2-1.1s0.3-0.6,0.5-0.9s0.5-0.4,0.8-0.6c0.3-0.1,0.6-0.2,1-0.2
		c1.4,0,2.1,0.8,2.1,2.4L409.8,11.8z M406.4,11h2.4c0-0.4-0.1-0.7-0.3-1c-0.2-0.3-0.5-0.4-0.8-0.4c-0.4,0-0.7,0.1-0.9,0.4
		C406.5,10.3,406.4,10.6,406.4,11z M409.1,7L407,8.3l-0.3-0.5l2-1.5L409.1,7z"/>
	<path class="st6" d="M412.1,9l0.1,0.6c0.5-0.4,1-0.7,1.5-0.7c0.7,0,1.2,0.2,1.6,0.7s0.5,1.1,0.5,2c0,0.4-0.1,0.8-0.2,1.1
		c-0.1,0.3-0.3,0.6-0.5,0.9s-0.5,0.4-0.8,0.6c-0.3,0.1-0.7,0.2-1.2,0.2c-0.3,0-0.6,0-0.9-0.1v1.6l1.1,0.2v0.5h-2.9V16l0.8-0.2v-6
		l-0.8-0.2V9H412.1z M412.3,10.4v3c0.2,0.1,0.6,0.2,1.1,0.2c1,0,1.5-0.7,1.5-2c0-0.6-0.1-1-0.3-1.4c-0.2-0.3-0.5-0.5-1-0.5
		c-0.3,0-0.5,0.1-0.7,0.2S412.4,10.1,412.3,10.4z"/>
	<path class="st6" d="M417.1,9.3c0.7-0.3,1.4-0.4,2-0.4s1,0.1,1.3,0.4s0.5,0.6,0.5,1.2v3.1l0.8,0.2v0.6h-1.5l-0.2-0.7
		c-0.5,0.5-1.1,0.8-1.6,0.8s-0.9-0.1-1.2-0.4c-0.3-0.3-0.4-0.6-0.4-1.1c0-1,0.8-1.6,2.3-1.6h0.8v-0.8c0-0.6-0.3-0.9-1-0.9
		c-0.4,0-0.7,0-0.9,0.1h-0.1l-0.1,0.8h-0.7L417.1,9.3z M419.9,12h-0.7c-0.5,0-0.9,0.1-1.1,0.2s-0.3,0.3-0.3,0.6
		c0,0.3,0.1,0.5,0.2,0.6s0.3,0.2,0.5,0.2c0.1,0,0.2,0,0.3-0.1c0.1,0,0.2-0.1,0.3-0.2s0.2-0.1,0.3-0.2s0.2-0.1,0.2-0.2l0.2-0.2V12
		H419.9z"/>
	<path class="st6" d="M424.2,9v4.5l0.8,0.2v0.5h-2.6v-0.5l0.8-0.2V9.8l-0.8-0.2V9H424.2z M423.7,6.6c0.4,0,0.6,0.2,0.6,0.8
		c0,0.2-0.1,0.4-0.2,0.5s-0.3,0.2-0.5,0.2s-0.3-0.1-0.4-0.2S423,7.6,423,7.4s0.1-0.4,0.2-0.5C423.3,6.7,423.5,6.6,423.7,6.6z"/>
	<path class="st6" d="M425.8,12.7h0.7l0.1,0.9c0.1,0,0.2,0,0.3,0.1s0.3,0,0.4,0c0.4,0,0.7-0.1,0.9-0.2c0.2-0.1,0.3-0.3,0.3-0.6
		c0-0.2-0.1-0.3-0.2-0.4s-0.3-0.2-0.5-0.3c-0.2-0.1-0.4-0.1-0.7-0.2c-0.2-0.1-0.5-0.2-0.7-0.3c-0.2-0.1-0.4-0.3-0.5-0.5
		s-0.2-0.4-0.2-0.7c0-0.5,0.2-0.9,0.5-1.1S427,9,427.5,9c0.2,0,0.5,0,0.7,0.1c0.2,0,0.5,0.1,0.7,0.2l0.2,0.1v1.4h-0.6l-0.2-0.8
		c-0.1,0-0.2,0-0.3-0.1s-0.3,0-0.5,0c-0.1,0-0.2,0-0.3,0c-0.1,0-0.2,0.1-0.3,0.1c-0.1,0-0.2,0.1-0.2,0.2s-0.1,0.2-0.1,0.3
		c0,0.2,0.1,0.3,0.2,0.5s0.3,0.2,0.5,0.3c0.2,0.1,0.4,0.2,0.7,0.2c0.2,0.1,0.5,0.2,0.7,0.3c0.2,0.1,0.4,0.3,0.5,0.4
		c0.1,0.2,0.2,0.4,0.2,0.7c0,0.3-0.1,0.5-0.2,0.7s-0.3,0.4-0.5,0.5s-0.4,0.2-0.7,0.3c-0.3,0.1-0.6,0.1-0.9,0.1c-0.1,0-0.2,0-0.4,0
		c-0.1,0-0.2,0-0.4,0c-0.1,0-0.2,0-0.3-0.1s-0.2,0-0.3-0.1l-0.2-0.1L425.8,12.7z"/>
	<path class="st6" d="M312.7,23.8h-3.5c0,0.5,0.1,1,0.4,1.3s0.6,0.5,1.1,0.5c0.1,0,0.3,0,0.4,0s0.3-0.1,0.4-0.1s0.2-0.1,0.4-0.1
		c0.1,0,0.2-0.1,0.3-0.1l0.2-0.1l0.3,0.5c-0.2,0.2-0.4,0.3-0.6,0.4s-0.4,0.2-0.7,0.3c-0.3,0.1-0.5,0.1-0.8,0.1
		c-0.8,0-1.4-0.2-1.8-0.7s-0.6-1.1-0.6-2c0-0.4,0.1-0.8,0.2-1.1s0.3-0.6,0.5-0.9s0.5-0.4,0.8-0.6c0.3-0.1,0.6-0.2,1-0.2
		c1.4,0,2.1,0.8,2.1,2.4L312.7,23.8z M309.3,23h2.4c0-0.4-0.1-0.7-0.3-1c-0.2-0.3-0.5-0.4-0.8-0.4c-0.4,0-0.7,0.1-0.9,0.4
		C309.5,22.3,309.3,22.6,309.3,23z"/>
	<path class="st6" d="M315.3,19.6V21h1.5v0.8h-1.5V25c0,0.4,0.2,0.6,0.5,0.6c0.2,0,0.5-0.1,0.8-0.2l0.3,0.5
		c-0.5,0.3-0.9,0.5-1.4,0.5c-0.3,0-0.6-0.1-0.8-0.3c-0.2-0.2-0.3-0.6-0.3-1.1v-3.1h-1v-0.6l1-0.1v-1.3L315.3,19.6z"/>
	<path class="st6" d="M324.4,18.6v6.9l0.9,0.2v0.6h-1.7l-0.1-0.6c-0.4,0.4-1,0.7-1.7,0.7c-0.6,0-1.1-0.2-1.5-0.7
		c-0.3-0.5-0.5-1.1-0.5-1.9c0-0.9,0.2-1.6,0.7-2.1c0.4-0.5,1.1-0.8,2-0.8c0.3,0,0.6,0.1,1,0.2v-1.7l-0.8-0.2v-0.5L324.4,18.6z
		 M323.4,24.8v-2.9c-0.2-0.1-0.6-0.2-1-0.2c-1,0-1.5,0.7-1.5,2c0,0.6,0.1,1.1,0.3,1.4s0.5,0.5,0.9,0.5c0.3,0,0.6-0.1,0.8-0.3
		C323.1,25.1,323.3,25,323.4,24.8z"/>
	<path class="st6" d="M327.6,21l0.1,0.7c0.5-0.6,1-0.8,1.5-0.8c0.3,0,0.5,0,0.8,0.1h0.1v1.5h-0.7l-0.1-0.8c-0.6,0-1.1,0.3-1.5,0.8v3
		l1,0.2v0.5H326v-0.5l0.8-0.2v-3.7l-0.8-0.2V21H327.6z"/>
	<path class="st6" d="M330.6,23.7c0-0.4,0.1-0.8,0.2-1.2s0.3-0.6,0.5-0.9c0.2-0.2,0.5-0.4,0.8-0.6c0.3-0.1,0.7-0.2,1-0.2
		c0.7,0,1.3,0.2,1.7,0.7c0.4,0.5,0.6,1.1,0.6,2c0,0.4-0.1,0.8-0.2,1.1s-0.3,0.6-0.5,0.9s-0.5,0.4-0.8,0.6c-0.3,0.1-0.7,0.2-1,0.2
		c-0.8,0-1.3-0.2-1.8-0.7C330.8,25.2,330.6,24.6,330.6,23.7z M333.1,21.7c-1,0-1.5,0.6-1.5,2c0,1.3,0.5,1.9,1.4,1.9
		c0.5,0,0.8-0.2,1.1-0.5c0.2-0.3,0.3-0.8,0.3-1.5C334.4,22.3,334,21.7,333.1,21.7z"/>
	<path class="st6" d="M338.1,21v4.5l0.8,0.2v0.5h-2.6v-0.5l0.8-0.2v-3.7l-0.8-0.2V21H338.1z M337.6,18.6c0.4,0,0.6,0.2,0.6,0.8
		c0,0.2-0.1,0.4-0.2,0.5s-0.3,0.2-0.5,0.2s-0.3-0.1-0.4-0.2s-0.2-0.3-0.2-0.5s0.1-0.4,0.2-0.5C337.2,18.7,337.4,18.6,337.6,18.6z"/>
	<path class="st6" d="M341.4,19.6V21h1.5v0.8h-1.5V25c0,0.4,0.2,0.6,0.5,0.6c0.2,0,0.5-0.1,0.8-0.2l0.3,0.5
		c-0.5,0.3-0.9,0.5-1.4,0.5c-0.3,0-0.6-0.1-0.8-0.3c-0.2-0.2-0.3-0.6-0.3-1.1v-3.1h-1v-0.6l1-0.1v-1.3L341.4,19.6z"/>
	<path class="st6" d="M344.4,26.4c-0.2,0-0.3-0.1-0.5-0.2c-0.1-0.1-0.2-0.3-0.2-0.5s0.1-0.4,0.2-0.5s0.3-0.2,0.5-0.2
		s0.3,0.1,0.5,0.2c0.1,0.1,0.2,0.3,0.2,0.5s-0.1,0.4-0.2,0.5S344.6,26.4,344.4,26.4z"/>
	<path class="st6" d="M349.6,24.2l0.2,1c0.1,0.1,0.3,0.1,0.5,0.2s0.4,0.1,0.6,0.1s0.4,0,0.6-0.1c0.2,0,0.4-0.1,0.5-0.2
		s0.3-0.2,0.3-0.3c0.1-0.1,0.1-0.3,0.1-0.4c0-0.2-0.1-0.4-0.2-0.5s-0.2-0.2-0.4-0.3s-0.4-0.2-0.6-0.3c-0.2-0.1-0.4-0.1-0.6-0.2
		s-0.5-0.2-0.7-0.3c-0.2-0.1-0.4-0.2-0.6-0.4s-0.3-0.3-0.4-0.5s-0.2-0.5-0.2-0.8s0.1-0.6,0.2-0.9s0.3-0.5,0.5-0.6
		c0.2-0.2,0.5-0.3,0.8-0.4s0.6-0.1,0.9-0.1c0.1,0,0.3,0,0.5,0s0.3,0,0.5,0.1c0.2,0,0.3,0.1,0.4,0.1s0.3,0.1,0.4,0.1l0.3,0.1v1.7
		h-0.7l-0.3-1.1c-0.2-0.1-0.4-0.1-0.6-0.1s-0.4,0-0.6,0s-0.4,0-0.5,0.1c-0.2,0-0.3,0.1-0.4,0.2s-0.2,0.2-0.3,0.3
		c-0.1,0.1-0.1,0.2-0.1,0.3c0,0.3,0.1,0.5,0.3,0.7c0.2,0.2,0.4,0.3,0.7,0.4s0.6,0.2,0.9,0.3c0.3,0.1,0.6,0.2,0.9,0.4
		c0.3,0.2,0.5,0.3,0.7,0.6c0.2,0.2,0.3,0.6,0.3,0.9s-0.1,0.7-0.2,0.9s-0.3,0.5-0.5,0.7s-0.5,0.3-0.8,0.4s-0.7,0.1-1,0.1
		c-0.1,0-0.3,0-0.5,0s-0.3,0-0.5-0.1c-0.2,0-0.3-0.1-0.5-0.1c-0.1,0-0.3-0.1-0.3-0.1l-0.3-0.1v-1.8L349.6,24.2L349.6,24.2z"/>
	<path class="st6" d="M354.4,23.7c0-0.4,0.1-0.8,0.2-1.2s0.3-0.6,0.5-0.9c0.2-0.2,0.5-0.4,0.8-0.6c0.3-0.1,0.7-0.2,1-0.2
		c0.7,0,1.3,0.2,1.7,0.7c0.4,0.5,0.6,1.1,0.6,2c0,0.4-0.1,0.8-0.2,1.1s-0.3,0.6-0.5,0.9s-0.5,0.4-0.8,0.6c-0.3,0.1-0.7,0.2-1,0.2
		c-0.8,0-1.3-0.2-1.8-0.7C354.6,25.2,354.4,24.6,354.4,23.7z M356.9,21.7c-1,0-1.5,0.6-1.5,2c0,1.3,0.5,1.9,1.4,1.9
		c0.5,0,0.8-0.2,1.1-0.5c0.2-0.3,0.3-0.8,0.3-1.5C358.3,22.3,357.8,21.7,356.9,21.7z"/>
	<path class="st6" d="M365.1,21v4.5l0.8,0.2v0.6h-1.7l-0.1-0.7c-0.3,0.2-0.6,0.4-1,0.6c-0.4,0.1-0.7,0.2-0.9,0.2
		c-0.5,0-0.9-0.2-1.2-0.5c-0.3-0.3-0.4-0.8-0.4-1.3v-2.8l-0.8-0.2V21h1.8v3.5c0,0.4,0.1,0.6,0.2,0.8c0.1,0.2,0.4,0.3,0.6,0.3
		c0.3,0,0.5-0.1,0.8-0.2c0.2-0.1,0.4-0.3,0.5-0.4l0.2-0.2v-3l-0.9-0.2V21H365.1z"/>
	<path class="st6" d="M366.7,24.7h0.7l0.1,0.9c0.1,0,0.2,0,0.3,0.1s0.3,0,0.4,0c0.4,0,0.7-0.1,0.9-0.2c0.2-0.1,0.3-0.3,0.3-0.6
		c0-0.2-0.1-0.3-0.2-0.4s-0.3-0.2-0.5-0.3c-0.2-0.1-0.4-0.1-0.7-0.2c-0.2-0.1-0.5-0.2-0.7-0.3c-0.2-0.1-0.4-0.3-0.5-0.5
		s-0.2-0.4-0.2-0.7c0-0.5,0.2-0.9,0.5-1.1s0.8-0.4,1.3-0.4c0.2,0,0.5,0,0.7,0.1c0.2,0,0.5,0.1,0.7,0.2l0.2,0.1v1.4h-0.6l-0.2-0.8
		c-0.1,0-0.2,0-0.3-0.1s-0.3,0-0.5,0c-0.1,0-0.2,0-0.3,0c-0.1,0-0.2,0.1-0.3,0.1c-0.1,0-0.2,0.1-0.2,0.2s-0.1,0.2-0.1,0.3
		c0,0.2,0.1,0.3,0.2,0.5s0.3,0.2,0.5,0.3c0.2,0.1,0.4,0.2,0.7,0.2c0.2,0.1,0.5,0.2,0.7,0.3c0.2,0.1,0.4,0.3,0.5,0.4
		c0.1,0.2,0.2,0.4,0.2,0.7c0,0.3-0.1,0.5-0.2,0.7s-0.3,0.4-0.5,0.5s-0.4,0.2-0.7,0.3c-0.3,0.1-0.6,0.1-0.9,0.1c-0.1,0-0.2,0-0.4,0
		c-0.1,0-0.2,0-0.4,0c-0.1,0-0.2,0-0.3-0.1s-0.2,0-0.3-0.1l-0.2-0.1L366.7,24.7z"/>
	<path class="st6" d="M375.2,21l0.1,0.6c0.5-0.4,1-0.7,1.5-0.7c0.7,0,1.2,0.2,1.6,0.7s0.5,1.1,0.5,2c0,0.4-0.1,0.8-0.2,1.1
		c-0.1,0.3-0.3,0.6-0.5,0.9s-0.5,0.4-0.8,0.6c-0.3,0.1-0.7,0.2-1.2,0.2c-0.3,0-0.6,0-0.9-0.1v1.6l1.1,0.2v0.5h-2.9V28l0.8-0.2v-6
		l-0.8-0.2V21H375.2z M375.3,22.4v3c0.2,0.1,0.6,0.2,1.1,0.2c1,0,1.5-0.7,1.5-2c0-0.6-0.1-1-0.3-1.4c-0.2-0.3-0.5-0.5-1-0.5
		c-0.3,0-0.5,0.1-0.7,0.2S375.5,22.1,375.3,22.4z"/>
	<path class="st6" d="M379.8,23.7c0-0.4,0.1-0.8,0.2-1.2s0.3-0.6,0.5-0.9c0.2-0.2,0.5-0.4,0.8-0.6c0.3-0.1,0.7-0.2,1-0.2
		c0.7,0,1.3,0.2,1.7,0.7c0.4,0.5,0.6,1.1,0.6,2c0,0.4-0.1,0.8-0.2,1.1s-0.3,0.6-0.5,0.9s-0.5,0.4-0.8,0.6c-0.3,0.1-0.7,0.2-1,0.2
		c-0.8,0-1.3-0.2-1.8-0.7C380,25.2,379.8,24.6,379.8,23.7z M382.3,21.7c-1,0-1.5,0.6-1.5,2c0,1.3,0.5,1.9,1.4,1.9
		c0.5,0,0.8-0.2,1.1-0.5c0.2-0.3,0.3-0.8,0.3-1.5C383.6,22.3,383.2,21.7,382.3,21.7z"/>
	<path class="st6" d="M387.3,21v4.5l0.8,0.2v0.5h-2.6v-0.5l0.8-0.2v-3.7l-0.8-0.2V21H387.3z M386.8,18.6c0.4,0,0.6,0.2,0.6,0.8
		c0,0.2-0.1,0.4-0.2,0.5s-0.3,0.2-0.5,0.2s-0.3-0.1-0.4-0.2s-0.2-0.3-0.2-0.5s0.1-0.4,0.2-0.5C386.4,18.7,386.6,18.6,386.8,18.6z"/>
	<path class="st6" d="M390.6,18.6v6.9l1,0.2v0.5h-2.9v-0.5l0.8-0.2v-6.1l-0.8-0.2v-0.5L390.6,18.6z"/>
	<path class="st6" d="M392.1,24.7h0.7l0.1,0.9c0.1,0,0.2,0,0.3,0.1s0.3,0,0.4,0c0.4,0,0.7-0.1,0.9-0.2c0.2-0.1,0.3-0.3,0.3-0.6
		c0-0.2-0.1-0.3-0.2-0.4s-0.3-0.2-0.5-0.3c-0.2-0.1-0.4-0.1-0.7-0.2c-0.2-0.1-0.5-0.2-0.7-0.3c-0.2-0.1-0.4-0.3-0.5-0.5
		s-0.2-0.4-0.2-0.7c0-0.5,0.2-0.9,0.5-1.1s0.8-0.4,1.3-0.4c0.2,0,0.5,0,0.7,0.1c0.2,0,0.5,0.1,0.7,0.2l0.2,0.1v1.4h-0.6l-0.2-0.8
		c-0.1,0-0.2,0-0.3-0.1s-0.3,0-0.5,0c-0.1,0-0.2,0-0.3,0c-0.1,0-0.2,0.1-0.3,0.1c-0.1,0-0.2,0.1-0.2,0.2s-0.1,0.2-0.1,0.3
		c0,0.2,0.1,0.3,0.2,0.5s0.3,0.2,0.5,0.3c0.2,0.1,0.4,0.2,0.7,0.2c0.2,0.1,0.5,0.2,0.7,0.3c0.2,0.1,0.4,0.3,0.5,0.4
		c0.1,0.2,0.2,0.4,0.2,0.7c0,0.3-0.1,0.5-0.2,0.7s-0.3,0.4-0.5,0.5s-0.4,0.2-0.7,0.3c-0.3,0.1-0.6,0.1-0.9,0.1c-0.1,0-0.2,0-0.4,0
		c-0.1,0-0.2,0-0.4,0c-0.1,0-0.2,0-0.3-0.1s-0.2,0-0.3-0.1l-0.2-0.1L392.1,24.7z"/>
	<path class="st6" d="M397.7,25c0.4,0,0.7,0.2,0.7,0.7c0,0.6-0.4,1.3-1.2,2.1l-0.4-0.4c0.4-0.5,0.5-0.8,0.5-1.1v-0.1
		c0-0.1,0-0.1-0.1-0.2c0-0.1-0.1-0.1-0.1-0.2s0-0.2,0-0.2c0-0.2,0.1-0.3,0.2-0.4S397.5,25,397.7,25z"/>
	<path class="st6" d="M406.3,18.6v6.9l0.9,0.2v0.6h-1.7l-0.1-0.6c-0.4,0.4-1,0.7-1.7,0.7c-0.6,0-1.1-0.2-1.5-0.7
		c-0.3-0.5-0.5-1.1-0.5-1.9c0-0.9,0.2-1.6,0.7-2.1c0.4-0.5,1.1-0.8,2-0.8c0.3,0,0.6,0.1,1,0.2v-1.7l-0.8-0.2v-0.5L406.3,18.6z
		 M405.3,24.8v-2.9c-0.2-0.1-0.6-0.2-1-0.2c-1,0-1.5,0.7-1.5,2c0,0.6,0.1,1.1,0.3,1.4s0.5,0.5,0.9,0.5c0.3,0,0.6-0.1,0.8-0.3
		C405.1,25.1,405.2,25,405.3,24.8z"/>
	<path class="st6" d="M407.8,23.7c0-0.4,0.1-0.8,0.2-1.2s0.3-0.6,0.5-0.9c0.2-0.2,0.5-0.4,0.8-0.6c0.3-0.1,0.7-0.2,1-0.2
		c0.7,0,1.3,0.2,1.7,0.7c0.4,0.5,0.6,1.1,0.6,2c0,0.4-0.1,0.8-0.2,1.1s-0.3,0.6-0.5,0.9s-0.5,0.4-0.8,0.6c-0.3,0.1-0.7,0.2-1,0.2
		c-0.8,0-1.3-0.2-1.8-0.7C408,25.2,407.8,24.6,407.8,23.7z M410.3,21.7c-1,0-1.5,0.6-1.5,2c0,1.3,0.5,1.9,1.4,1.9
		c0.5,0,0.8-0.2,1.1-0.5c0.2-0.3,0.3-0.8,0.3-1.5C411.7,22.3,411.2,21.7,410.3,21.7z"/>
	<path class="st6" d="M418.5,21v4.5l0.8,0.2v0.6h-1.7l-0.1-0.7c-0.3,0.2-0.6,0.4-1,0.6c-0.4,0.1-0.7,0.2-0.9,0.2
		c-0.5,0-0.9-0.2-1.2-0.5c-0.3-0.3-0.4-0.8-0.4-1.3v-2.8l-0.8-0.2V21h1.8v3.5c0,0.4,0.1,0.6,0.2,0.8c0.1,0.2,0.4,0.3,0.6,0.3
		c0.3,0,0.5-0.1,0.8-0.2c0.2-0.1,0.4-0.3,0.5-0.4l0.2-0.2v-3l-0.9-0.2V21H418.5z"/>
	<path class="st6" d="M422,21v0.6l-0.3,0.1l0.8,1.3l1.2-1.9h1.5v0.6l-0.8,0.2l-1.2,1.8l1.3,1.9l0.9,0.2v0.5H423v-0.5l0.4-0.1
		l-0.8-1.3l-1.2,2h-1.5v-0.5l0.9-0.2l1.3-1.9l-1.3-1.9l-0.8-0.1V21H422z"/>
	<path class="st6" d="M312.7,35.8h-3.5c0,0.5,0.1,1,0.4,1.3s0.6,0.5,1.1,0.5c0.1,0,0.3,0,0.4,0s0.3-0.1,0.4-0.1s0.2-0.1,0.4-0.1
		c0.1,0,0.2-0.1,0.3-0.1l0.2-0.1l0.3,0.5c-0.2,0.2-0.4,0.3-0.6,0.4s-0.4,0.2-0.7,0.3c-0.3,0.1-0.5,0.1-0.8,0.1
		c-0.8,0-1.4-0.2-1.8-0.7s-0.6-1.1-0.6-2c0-0.4,0.1-0.8,0.2-1.1s0.3-0.6,0.5-0.9s0.5-0.4,0.8-0.6c0.3-0.1,0.6-0.2,1-0.2
		c1.4,0,2.1,0.8,2.1,2.4L312.7,35.8z M309.3,35h2.4c0-0.4-0.1-0.7-0.3-1c-0.2-0.3-0.5-0.4-0.8-0.4c-0.4,0-0.7,0.1-0.9,0.4
		C309.5,34.3,309.3,34.6,309.3,35z"/>
	<path class="st6" d="M315.3,31.6v1.5h1.5v0.8h-1.5v3.2c0,0.4,0.2,0.6,0.5,0.6c0.2,0,0.5-0.1,0.8-0.2l0.3,0.5
		c-0.5,0.3-0.9,0.5-1.4,0.5c-0.3,0-0.6-0.1-0.8-0.3c-0.2-0.2-0.3-0.6-0.3-1.1V34h-1v-0.6l1-0.1V32L315.3,31.6z"/>
	<path class="st6" d="M324.4,30.6v6.9l0.9,0.2v0.6h-1.7l-0.1-0.6c-0.4,0.4-1,0.7-1.7,0.7c-0.6,0-1.1-0.2-1.5-0.7
		c-0.3-0.5-0.5-1.1-0.5-1.9c0-0.9,0.2-1.6,0.7-2.1c0.4-0.5,1.1-0.8,2-0.8c0.3,0,0.6,0.1,1,0.2v-1.7l-0.8-0.2v-0.5L324.4,30.6z
		 M323.4,36.8v-2.9c-0.2-0.1-0.6-0.2-1-0.2c-1,0-1.5,0.7-1.5,2c0,0.6,0.1,1.1,0.3,1.4s0.5,0.5,0.9,0.5c0.3,0,0.6-0.1,0.8-0.3
		C323.1,37.1,323.3,37,323.4,36.8z"/>
	<path class="st6" d="M330.4,35.8h-3.5c0,0.5,0.1,1,0.4,1.3s0.6,0.5,1.1,0.5c0.1,0,0.3,0,0.4,0s0.3-0.1,0.4-0.1s0.2-0.1,0.4-0.1
		c0.1,0,0.2-0.1,0.3-0.1l0.2-0.1l0.3,0.5c-0.2,0.2-0.4,0.3-0.6,0.4s-0.4,0.2-0.7,0.3c-0.3,0.1-0.5,0.1-0.8,0.1
		c-0.8,0-1.4-0.2-1.8-0.7s-0.6-1.1-0.6-2c0-0.4,0.1-0.8,0.2-1.1s0.3-0.6,0.5-0.9s0.5-0.4,0.8-0.6c0.3-0.1,0.6-0.2,1-0.2
		c1.4,0,2.1,0.8,2.1,2.4L330.4,35.8z M327,35h2.4c0-0.4-0.1-0.7-0.3-1c-0.2-0.3-0.5-0.4-0.8-0.4c-0.4,0-0.7,0.1-0.9,0.4
		C327.2,34.3,327,34.6,327,35z"/>
	<path class="st6" d="M332.9,33l0.1,0.7c0.1-0.1,0.2-0.1,0.3-0.2s0.3-0.2,0.4-0.3c0.2-0.1,0.3-0.2,0.5-0.2c0.2-0.1,0.4-0.1,0.6-0.1
		c0.5,0,0.9,0.2,1.2,0.5c0.3,0.3,0.4,0.8,0.4,1.3v2.8l0.8,0.2v0.5h-2.4v-0.5l0.6-0.2v-2.7c0-0.4-0.1-0.6-0.2-0.8
		c-0.1-0.2-0.4-0.3-0.6-0.3c-0.1,0-0.3,0-0.4,0.1s-0.3,0.1-0.4,0.1c-0.1,0.1-0.2,0.1-0.3,0.2c-0.1,0.1-0.2,0.1-0.2,0.2l-0.2,0.2v3
		l0.7,0.2v0.5h-2.5v-0.5l0.8-0.2v-3.7l-0.8-0.2V33H332.9z"/>
	<path class="st6" d="M337.9,36.7h0.7l0.1,0.9c0.1,0,0.2,0,0.3,0.1s0.3,0,0.4,0c0.4,0,0.7-0.1,0.9-0.2c0.2-0.1,0.3-0.3,0.3-0.6
		c0-0.2-0.1-0.3-0.2-0.4s-0.3-0.2-0.5-0.3c-0.2-0.1-0.4-0.1-0.7-0.2c-0.2-0.1-0.5-0.2-0.7-0.3c-0.2-0.1-0.4-0.3-0.5-0.5
		s-0.2-0.4-0.2-0.7c0-0.5,0.2-0.9,0.5-1.1s0.8-0.4,1.3-0.4c0.2,0,0.5,0,0.7,0.1c0.2,0,0.5,0.1,0.7,0.2l0.2,0.1v1.4h-0.6l-0.2-0.8
		c-0.1,0-0.2,0-0.3-0.1s-0.3,0-0.5,0c-0.1,0-0.2,0-0.3,0c-0.1,0-0.2,0.1-0.3,0.1c-0.1,0-0.2,0.1-0.2,0.2s-0.1,0.2-0.1,0.3
		c0,0.2,0.1,0.3,0.2,0.5s0.3,0.2,0.5,0.3c0.2,0.1,0.4,0.2,0.7,0.2c0.2,0.1,0.5,0.2,0.7,0.3c0.2,0.1,0.4,0.3,0.5,0.4
		c0.1,0.2,0.2,0.4,0.2,0.7c0,0.3-0.1,0.5-0.2,0.7s-0.3,0.4-0.5,0.5s-0.4,0.2-0.7,0.3c-0.3,0.1-0.6,0.1-0.9,0.1c-0.1,0-0.2,0-0.4,0
		c-0.1,0-0.2,0-0.4,0c-0.1,0-0.2,0-0.3-0.1s-0.2,0-0.3-0.1l-0.2-0.1L337.9,36.7z"/>
	<path class="st6" d="M347.1,35.8h-3.5c0,0.5,0.1,1,0.4,1.3s0.6,0.5,1.1,0.5c0.1,0,0.3,0,0.4,0s0.3-0.1,0.4-0.1s0.2-0.1,0.4-0.1
		c0.1,0,0.2-0.1,0.3-0.1l0.2-0.1l0.3,0.5c-0.2,0.2-0.4,0.3-0.6,0.4s-0.4,0.2-0.7,0.3c-0.3,0.1-0.5,0.1-0.8,0.1
		c-0.8,0-1.4-0.2-1.8-0.7s-0.6-1.1-0.6-2c0-0.4,0.1-0.8,0.2-1.1s0.3-0.6,0.5-0.9s0.5-0.4,0.8-0.6c0.3-0.1,0.6-0.2,1-0.2
		c1.4,0,2.1,0.8,2.1,2.4L347.1,35.8z M343.7,35h2.4c0-0.4-0.1-0.7-0.3-1c-0.2-0.3-0.5-0.4-0.8-0.4c-0.4,0-0.7,0.1-0.9,0.4
		C343.8,34.3,343.7,34.6,343.7,35z"/>
</g>
<g>
	<path class="st6" d="M70.9,37.5v-0.6l0.8-0.2v-5.4l-0.8-0.2v-0.6h1.9h1c0.7,0,1.3,0.2,1.7,0.5c0.4,0.4,0.6,0.9,0.6,1.5
		c0,0.8-0.2,1.4-0.7,1.8s-1.1,0.6-2,0.6h-0.7v1.8l0.9,0.2v0.6C73.6,37.5,70.9,37.5,70.9,37.5z M72.8,31.3v2.8h0.7
		c1.1,0,1.6-0.5,1.6-1.4c0-0.4-0.1-0.8-0.3-1c-0.2-0.3-0.5-0.4-1-0.4H72.8z"/>
	<path class="st6" d="M81.3,35h-3.5c0,0.5,0.1,1,0.4,1.3s0.6,0.5,1.1,0.5c0.1,0,0.3,0,0.4,0s0.3-0.1,0.4-0.1s0.2-0.1,0.4-0.1
		c0.1,0,0.2-0.1,0.3-0.1l0.2-0.1l0.3,0.5c-0.2,0.2-0.4,0.3-0.6,0.4s-0.4,0.2-0.7,0.3c-0.3,0.1-0.5,0.1-0.8,0.1
		c-0.8,0-1.4-0.2-1.8-0.7s-0.6-1.1-0.6-2c0-0.4,0.1-0.8,0.2-1.1s0.3-0.6,0.5-0.9s0.5-0.4,0.8-0.6c0.3-0.1,0.6-0.2,1-0.2
		c1.4,0,2.1,0.8,2.1,2.4L81.3,35z M77.8,34.3h2.4c0-0.4-0.1-0.7-0.3-1c-0.2-0.3-0.5-0.4-0.8-0.4c-0.4,0-0.7,0.1-0.9,0.4
		C78,33.6,77.9,33.9,77.8,34.3z"/>
	<path class="st6" d="M83.9,30.8v1.5h1.5v0.8h-1.5v3.2c0,0.4,0.2,0.6,0.5,0.6c0.2,0,0.5-0.1,0.8-0.2l0.3,0.5
		c-0.5,0.3-0.9,0.5-1.4,0.5c-0.3,0-0.6-0.1-0.8-0.3c-0.2-0.2-0.3-0.6-0.3-1.1V33h-1v-0.6l1-0.1V31L83.9,30.8z"/>
	<path class="st6" d="M87.9,32.2v4.5l0.8,0.2v0.5H86V37l0.8-0.2V33L86,32.8v-0.5L87.9,32.2z M87.3,29.9c0.4,0,0.6,0.2,0.6,0.8
		c0,0.2-0.1,0.4-0.2,0.5s-0.3,0.2-0.5,0.2s-0.3-0.1-0.4-0.2s-0.2-0.3-0.2-0.5s0.1-0.4,0.2-0.5C87,30,87.1,29.9,87.3,29.9z"/>
	<path class="st6" d="M91.2,30.8v1.5h1.5v0.8h-1.5v3.2c0,0.4,0.2,0.6,0.5,0.6c0.2,0,0.5-0.1,0.8-0.2l0.3,0.5
		c-0.5,0.3-0.9,0.5-1.4,0.5c-0.3,0-0.6-0.1-0.8-0.3c-0.2-0.2-0.3-0.6-0.3-1.1V33h-1v-0.6l1-0.1V31L91.2,30.8z"/>
	<path class="st6" d="M97.8,35h-3.5c0,0.5,0.1,1,0.4,1.3s0.6,0.5,1.1,0.5c0.1,0,0.3,0,0.4,0s0.3-0.1,0.4-0.1s0.2-0.1,0.4-0.1
		c0.1,0,0.2-0.1,0.3-0.1l0.2-0.1l0.3,0.5c-0.2,0.2-0.4,0.3-0.6,0.4s-0.4,0.2-0.7,0.3c-0.3,0.1-0.5,0.1-0.8,0.1
		c-0.8,0-1.4-0.2-1.8-0.7s-0.6-1.1-0.6-2c0-0.4,0.1-0.8,0.2-1.1s0.3-0.6,0.5-0.9s0.5-0.4,0.8-0.6c0.3-0.1,0.6-0.2,1-0.2
		c1.4,0,2.1,0.8,2.1,2.4L97.8,35z M94.4,34.3h2.4c0-0.4-0.1-0.7-0.3-1c-0.2-0.3-0.5-0.4-0.8-0.4c-0.4,0-0.7,0.1-0.9,0.4
		C94.6,33.6,94.4,33.9,94.4,34.3z"/>
	<path class="st6" d="M98.7,35.9h0.7l0.1,0.9c0.1,0,0.2,0,0.3,0.1s0.3,0,0.4,0c0.4,0,0.7-0.1,0.9-0.2c0.2-0.1,0.3-0.3,0.3-0.6
		c0-0.2-0.1-0.3-0.2-0.4s-0.3-0.2-0.5-0.3c-0.2-0.1-0.4-0.1-0.7-0.2c-0.2-0.1-0.5-0.2-0.7-0.3c-0.2-0.1-0.4-0.3-0.5-0.5
		s-0.2-0.4-0.2-0.7c0-0.5,0.2-0.9,0.5-1.1s0.8-0.4,1.3-0.4c0.2,0,0.5,0,0.7,0.1c0.2,0,0.5,0.1,0.7,0.2l0.2,0.1V34h-0.6l-0.2-0.8
		c-0.1,0-0.2,0-0.3-0.1s-0.3,0-0.5,0c-0.1,0-0.2,0-0.3,0c-0.1,0-0.2,0.1-0.3,0.1c-0.1,0-0.2,0.1-0.2,0.2s-0.1,0.2-0.1,0.3
		c0,0.2,0.1,0.3,0.2,0.5s0.3,0.2,0.5,0.3c0.2,0.1,0.4,0.2,0.7,0.2c0.2,0.1,0.5,0.2,0.7,0.3c0.2,0.1,0.4,0.3,0.5,0.4
		c0.1,0.2,0.2,0.4,0.2,0.7c0,0.3-0.1,0.5-0.2,0.7s-0.3,0.4-0.5,0.5s-0.4,0.2-0.7,0.3c-0.3,0.1-0.6,0.1-0.9,0.1c-0.1,0-0.2,0-0.4,0
		c-0.1,0-0.2,0-0.4,0c-0.1,0-0.2,0-0.3-0.1s-0.2,0-0.3-0.1l-0.2-0.1L98.7,35.9z"/>
	<path class="st6" d="M105.6,35c0-0.4,0.1-0.8,0.2-1.2s0.3-0.6,0.5-0.9c0.2-0.2,0.5-0.4,0.8-0.6c0.3-0.1,0.7-0.2,1-0.2
		c0.7,0,1.3,0.2,1.7,0.7c0.4,0.5,0.6,1.1,0.6,2c0,0.4-0.1,0.8-0.2,1.1s-0.3,0.6-0.5,0.9s-0.5,0.4-0.8,0.6c-0.3,0.1-0.7,0.2-1,0.2
		c-0.8,0-1.3-0.2-1.8-0.7C105.8,36.5,105.6,35.9,105.6,35z M108.1,32.9c-1,0-1.5,0.6-1.5,2c0,1.3,0.5,1.9,1.4,1.9
		c0.5,0,0.8-0.2,1.1-0.5c0.2-0.3,0.3-0.8,0.3-1.5C109.5,33.6,109,32.9,108.1,32.9z"/>
	<path class="st6" d="M113,32.2l0.1,0.7c0.5-0.6,1-0.8,1.5-0.8c0.3,0,0.5,0,0.8,0.1h0.1v1.5h-0.7l-0.1-0.8c-0.6,0-1.1,0.3-1.5,0.8v3
		l1,0.2v0.5h-2.8V37l0.8-0.2V33l-0.8-0.2v-0.5L113,32.2z"/>
	<path class="st6" d="M120.5,35H117c0,0.5,0.1,1,0.4,1.3s0.6,0.5,1.1,0.5c0.1,0,0.3,0,0.4,0s0.3-0.1,0.4-0.1s0.2-0.1,0.4-0.1
		c0.1,0,0.2-0.1,0.3-0.1l0.2-0.1l0.3,0.5c-0.2,0.2-0.4,0.3-0.6,0.4s-0.4,0.2-0.7,0.3c-0.3,0.1-0.5,0.1-0.8,0.1
		c-0.8,0-1.4-0.2-1.8-0.7s-0.6-1.1-0.6-2c0-0.4,0.1-0.8,0.2-1.1s0.3-0.6,0.5-0.9s0.5-0.4,0.8-0.6c0.3-0.1,0.6-0.2,1-0.2
		c1.4,0,2.1,0.8,2.1,2.4L120.5,35z M117.1,34.3h2.4c0-0.4-0.1-0.7-0.3-1c-0.2-0.3-0.5-0.4-0.8-0.4c-0.4,0-0.7,0.1-0.9,0.4
		C117.2,33.6,117.1,33.9,117.1,34.3z"/>
	<path class="st6" d="M123.1,32.2v4.5l0.8,0.2v0.5h-2.6V37l0.8-0.2V33l-0.8-0.2v-0.5L123.1,32.2z M122.6,29.9c0.4,0,0.6,0.2,0.6,0.8
		c0,0.2-0.1,0.4-0.2,0.5s-0.3,0.2-0.5,0.2s-0.3-0.1-0.4-0.2s-0.2-0.3-0.2-0.5s0.1-0.4,0.2-0.5C122.2,30,122.4,29.9,122.6,29.9z"/>
	<path class="st6" d="M126.3,29.8v6.9l1,0.2v0.5h-2.9V37l0.8-0.2v-6.1l-0.8-0.2V30L126.3,29.8z"/>
	<path class="st6" d="M129.5,29.8v6.9l1,0.2v0.5h-2.9V37l0.8-0.2v-6.1l-0.8-0.2V30L129.5,29.8z"/>
	<path class="st6" d="M135.5,35H132c0,0.5,0.1,1,0.4,1.3c0.3,0.3,0.6,0.5,1.1,0.5c0.1,0,0.3,0,0.4,0c0.1,0,0.3-0.1,0.4-0.1
		s0.2-0.1,0.4-0.1c0.1,0,0.2-0.1,0.3-0.1l0.2-0.1l0.3,0.5c-0.2,0.2-0.4,0.3-0.6,0.4c-0.2,0.1-0.4,0.2-0.7,0.3
		c-0.3,0.1-0.5,0.1-0.8,0.1c-0.8,0-1.4-0.2-1.8-0.7c-0.4-0.5-0.6-1.1-0.6-2c0-0.4,0.1-0.8,0.2-1.1s0.3-0.6,0.5-0.9s0.5-0.4,0.8-0.6
		c0.3-0.1,0.6-0.2,1-0.2c1.4,0,2.1,0.8,2.1,2.4L135.5,35z M132,34.3h2.4c0-0.4-0.1-0.7-0.3-1s-0.5-0.4-0.8-0.4
		c-0.4,0-0.7,0.1-0.9,0.4C132.2,33.6,132.1,33.9,132,34.3z"/>
	<path class="st6" d="M136.3,35.9h0.7l0.1,0.9c0.1,0,0.2,0,0.3,0.1s0.3,0,0.4,0c0.4,0,0.7-0.1,0.9-0.2s0.3-0.3,0.3-0.6
		c0-0.2-0.1-0.3-0.2-0.4c-0.1-0.1-0.3-0.2-0.5-0.3c-0.2-0.1-0.4-0.1-0.7-0.2c-0.2-0.1-0.5-0.2-0.7-0.3c-0.2-0.1-0.4-0.3-0.5-0.5
		s-0.2-0.4-0.2-0.7c0-0.5,0.2-0.9,0.5-1.1s0.8-0.4,1.3-0.4c0.2,0,0.5,0,0.7,0.1c0.2,0,0.5,0.1,0.7,0.2l0.2,0.1V34H139v-1
		c-0.1,0-0.2,0-0.3-0.1s-0.3,0-0.5,0c-0.1,0-0.2,0-0.3,0s-0.2,0.1-0.3,0.1s-0.2,0.1-0.2,0.2s-0.1,0.2-0.1,0.3c0,0.2,0.1,0.3,0.2,0.5
		s0.3,0.2,0.5,0.3c0.2,0.1,0.4,0.2,0.7,0.2c0.2,0.1,0.5,0.2,0.7,0.3c0.2,0.1,0.4,0.3,0.5,0.4c0.1,0.2,0.2,0.4,0.2,0.7
		c0,0.3-0.1,0.5-0.2,0.7s-0.3,0.4-0.5,0.5s-0.4,0.2-0.7,0.3c-0.3,0.1-0.6,0.1-0.9,0.1c-0.1,0-0.2,0-0.4,0c-0.1,0-0.2,0-0.4,0
		c-0.1,0-0.2,0-0.3-0.1s-0.2,0-0.3-0.1l-0.2-0.1L136.3,35.9z"/>
	<path class="st6" d="M72.7,42.8v1.5h1.5v0.8h-1.5v3.2c0,0.4,0.2,0.6,0.5,0.6c0.2,0,0.5-0.1,0.8-0.2l0.3,0.5
		c-0.5,0.3-0.9,0.5-1.4,0.5c-0.3,0-0.6-0.1-0.8-0.3c-0.2-0.2-0.3-0.6-0.3-1.1V45h-1v-0.6l1-0.1V43L72.7,42.8z"/>
	<path class="st6" d="M76.5,44.2l0.1,0.7c0.5-0.6,1-0.8,1.5-0.8c0.3,0,0.5,0,0.8,0.1H79v1.5h-0.7l-0.1-0.8c-0.6,0-1.1,0.3-1.5,0.8v3
		l1,0.2v0.5h-2.8V49l0.8-0.2V45l-0.8-0.2v-0.5L76.5,44.2z"/>
	<path class="st6" d="M81.3,44.2v4.5l0.8,0.2v0.5h-2.6V49l0.8-0.2V45l-0.8-0.2v-0.5L81.3,44.2z M80.8,41.9c0.4,0,0.6,0.2,0.6,0.8
		c0,0.2-0.1,0.4-0.2,0.5s-0.3,0.2-0.5,0.2s-0.3-0.1-0.4-0.2s-0.2-0.3-0.2-0.5s0.1-0.4,0.2-0.5C80.4,42,80.6,41.9,80.8,41.9z"/>
	<path class="st6" d="M83.2,44.5c0.7-0.3,1.4-0.4,2-0.4s1,0.1,1.3,0.4s0.5,0.6,0.5,1.2v3.1l0.8,0.2v0.6h-1.5l-0.2-0.7
		c-0.5,0.5-1.1,0.8-1.6,0.8s-0.9-0.1-1.2-0.4c-0.3-0.3-0.4-0.6-0.4-1.1c0-1,0.8-1.6,2.3-1.6H86v-0.8c0-0.6-0.3-0.9-1-0.9
		c-0.4,0-0.7,0-0.9,0.1H84l-0.1,0.8h-0.7L83.2,44.5z M86,47.2h-0.7c-0.5,0-0.9,0.1-1.1,0.2s-0.3,0.3-0.3,0.6c0,0.3,0.1,0.5,0.2,0.6
		s0.3,0.2,0.5,0.2c0.1,0,0.2,0,0.3-0.1c0.1,0,0.2-0.1,0.3-0.2s0.2-0.1,0.3-0.2s0.2-0.1,0.2-0.2L86,48V47.2z"/>
	<path class="st6" d="M90.1,44.2l0.1,0.7c0.1-0.1,0.2-0.1,0.3-0.2s0.3-0.2,0.4-0.3c0.2-0.1,0.3-0.2,0.5-0.2c0.2-0.1,0.4-0.1,0.6-0.1
		c0.5,0,0.9,0.2,1.2,0.5c0.3,0.3,0.4,0.8,0.4,1.3v2.8l0.8,0.2v0.5H92V49l0.6-0.2V46c0-0.4-0.1-0.6-0.2-0.8c-0.1-0.2-0.4-0.3-0.6-0.3
		c-0.1,0-0.3,0-0.4,0.1s-0.3,0.1-0.4,0.1c-0.1,0.1-0.2,0.1-0.3,0.2c-0.1,0.1-0.2,0.1-0.2,0.2l-0.2,0.2v3L91,49v0.5h-2.5V49l0.8-0.2
		V45l-0.8-0.2v-0.5L90.1,44.2z"/>
	<path class="st6" d="M97.4,47.9c-0.3,0-0.5,0-0.8-0.1v0.9h1.5c0.7,0,1.1,0.1,1.5,0.4c0.3,0.2,0.5,0.6,0.5,1.1s-0.2,1-0.7,1.3
		C99,51.8,98.3,52,97.5,52c-1.6,0-2.4-0.5-2.4-1.5c0-0.4,0.2-0.8,0.7-1.1c0.1-0.1,0.2-0.1,0.4-0.2c-0.2,0-0.3-0.1-0.4-0.2
		s-0.2-0.2-0.2-0.3c0-0.2,0.1-0.5,0.4-1l0.1-0.2c-0.1,0-0.1-0.1-0.2-0.2s-0.2-0.2-0.3-0.3c-0.2-0.3-0.3-0.6-0.3-1.1
		c0-0.6,0.2-1.1,0.6-1.4s0.9-0.5,1.6-0.5c0.4,0,0.7,0,0.9,0.1h0.1h1.8v0.5l-1,0.1c0.2,0.2,0.3,0.6,0.3,1c0,0.7-0.2,1.1-0.6,1.5
		C98.6,47.8,98.1,47.9,97.4,47.9z M97.9,49.5h-1.1c0,0-0.1,0.1-0.2,0.1s-0.2,0.1-0.2,0.2c-0.2,0.2-0.2,0.4-0.2,0.6
		c0,0.3,0.1,0.6,0.4,0.7s0.6,0.2,1.2,0.2c1,0,1.5-0.3,1.5-1c0-0.3-0.1-0.5-0.3-0.6S98.3,49.5,97.9,49.5z M97.5,44.8
		c-0.8,0-1.1,0.4-1.1,1.2c0,0.4,0.1,0.7,0.3,0.9s0.5,0.3,0.8,0.3c0.4,0,0.7-0.1,0.9-0.3s0.3-0.5,0.3-0.9
		C98.6,45.2,98.2,44.8,97.5,44.8z"/>
	<path class="st6" d="M106,44.2v4.5l0.8,0.2v0.6h-1.7l-0.1-0.7c-0.3,0.2-0.6,0.4-1,0.6c-0.4,0.1-0.7,0.2-0.9,0.2
		c-0.5,0-0.9-0.2-1.2-0.5c-0.3-0.3-0.4-0.8-0.4-1.3V45l-0.8-0.2v-0.5h1.8v3.5c0,0.4,0.1,0.6,0.2,0.8c0.1,0.2,0.4,0.3,0.6,0.3
		c0.3,0,0.5-0.1,0.8-0.2c0.2-0.1,0.4-0.3,0.5-0.4l0.2-0.2v-3l-0.9-0.2v-0.5L106,44.2z"/>
	<path class="st6" d="M109.2,41.8v6.9l1,0.2v0.5h-2.9V49l0.8-0.2v-6.1l-0.8-0.2V42L109.2,41.8z"/>
	<path class="st6" d="M111,44.5c0.7-0.3,1.4-0.4,2-0.4s1,0.1,1.3,0.4s0.5,0.6,0.5,1.2v3.1l0.8,0.2v0.6h-1.5l-0.2-0.7
		c-0.5,0.5-1.1,0.8-1.6,0.8s-0.9-0.1-1.2-0.4c-0.3-0.3-0.4-0.6-0.4-1.1c0-1,0.8-1.6,2.3-1.6h0.8v-0.8c0-0.6-0.3-0.9-1-0.9
		c-0.4,0-0.7,0-0.9,0.1h-0.1l-0.1,0.8H111V44.5z M113.8,47.2h-0.7c-0.5,0-0.9,0.1-1.1,0.2s-0.3,0.3-0.3,0.6c0,0.3,0.1,0.5,0.2,0.6
		s0.3,0.2,0.5,0.2c0.1,0,0.2,0,0.3-0.1c0.1,0,0.2-0.1,0.3-0.2s0.2-0.1,0.3-0.2s0.2-0.1,0.2-0.2l0.2-0.2L113.8,47.2L113.8,47.2z"/>
	<path class="st6" d="M118.1,44.2v4.5l0.8,0.2v0.5h-2.6V49l0.8-0.2V45l-0.8-0.2v-0.5L118.1,44.2z M117.6,41.9c0.4,0,0.6,0.2,0.6,0.8
		c0,0.2-0.1,0.4-0.2,0.5s-0.3,0.2-0.5,0.2s-0.3-0.1-0.4-0.2s-0.2-0.3-0.2-0.5s0.1-0.4,0.2-0.5C117.2,42,117.4,41.9,117.6,41.9z"/>
	<path class="st6" d="M121.3,44.2l0.1,0.7c0.5-0.6,1-0.8,1.5-0.8c0.3,0,0.5,0,0.8,0.1h0.1v1.5h-0.7l-0.1-0.8c-0.6,0-1.1,0.3-1.5,0.8
		v3l1,0.2v0.5h-2.8V49l0.8-0.2V45l-0.8-0.2v-0.5L121.3,44.2z"/>
	<path class="st6" d="M128.8,47h-3.5c0,0.5,0.1,1,0.4,1.3s0.6,0.5,1.1,0.5c0.1,0,0.3,0,0.4,0s0.3-0.1,0.4-0.1s0.2-0.1,0.4-0.1
		c0.1,0,0.2-0.1,0.3-0.1l0.2-0.1l0.3,0.5c-0.2,0.2-0.4,0.3-0.6,0.4c-0.2,0.1-0.4,0.2-0.7,0.3c-0.3,0.1-0.5,0.1-0.8,0.1
		c-0.8,0-1.4-0.2-1.8-0.7s-0.6-1.1-0.6-2c0-0.4,0.1-0.8,0.2-1.1s0.3-0.6,0.5-0.9s0.5-0.4,0.8-0.6c0.3-0.1,0.6-0.2,1-0.2
		c1.4,0,2.1,0.8,2.1,2.4L128.8,47z M125.4,46.3h2.4c0-0.4-0.1-0.7-0.3-1c-0.2-0.3-0.5-0.4-0.8-0.4c-0.4,0-0.7,0.1-0.9,0.4
		C125.5,45.6,125.4,45.9,125.4,46.3z"/>
	<path class="st6" d="M129.6,47.9h0.7l0.1,0.9c0.1,0,0.2,0,0.3,0.1s0.3,0,0.4,0c0.4,0,0.7-0.1,0.9-0.2s0.3-0.3,0.3-0.6
		c0-0.2-0.1-0.3-0.2-0.4c-0.1-0.1-0.3-0.2-0.5-0.3c-0.2-0.1-0.4-0.1-0.7-0.2c-0.2-0.1-0.5-0.2-0.7-0.3c-0.2-0.1-0.4-0.3-0.5-0.5
		s-0.2-0.4-0.2-0.7c0-0.5,0.2-0.9,0.5-1.1s0.8-0.4,1.3-0.4c0.2,0,0.5,0,0.7,0.1c0.2,0,0.5,0.1,0.7,0.2l0.2,0.1V46h-0.6l-0.2-0.8
		c-0.1,0-0.2,0-0.3-0.1s-0.3,0-0.5,0c-0.1,0-0.2,0-0.3,0s-0.2,0.1-0.3,0.1s-0.2,0.1-0.2,0.2s-0.1,0.2-0.1,0.3c0,0.2,0.1,0.3,0.2,0.5
		s0.3,0.2,0.5,0.3c0.2,0.1,0.4,0.2,0.7,0.2c0.2,0.1,0.5,0.2,0.7,0.3c0.2,0.1,0.4,0.3,0.5,0.4c0.1,0.2,0.2,0.4,0.2,0.7
		c0,0.3-0.1,0.5-0.2,0.7s-0.3,0.4-0.5,0.5s-0.4,0.2-0.7,0.3c-0.3,0.1-0.6,0.1-0.9,0.1c-0.1,0-0.2,0-0.4,0c-0.1,0-0.2,0-0.4,0
		c-0.1,0-0.2,0-0.3-0.1s-0.2,0-0.3-0.1l-0.2-0.1L129.6,47.9z"/>
</g>
<g>
	<path class="st6" d="M11.6,70.2v-0.6l0.9-0.2v-1.8L10.6,64l-0.7-0.2v-0.6l2.5-0.1v0.6l-0.7,0.2l1.3,2.8l1.5-2.8l-0.8-0.2v-0.6
		l2.4-0.1v0.6l-0.6,0.2l-2,3.6v1.8l0.8,0.2V70h-2.7V70.2z"/>
	<path class="st6" d="M21.1,67.7h-3.5c0,0.5,0.1,1,0.4,1.3s0.6,0.5,1.1,0.5c0.1,0,0.3,0,0.4,0s0.3-0.1,0.4-0.1s0.2-0.1,0.4-0.1
		c0.1,0,0.2-0.1,0.3-0.1l0.2-0.1l0.3,0.5c-0.2,0.2-0.4,0.3-0.6,0.4c-0.2,0.1-0.4,0.2-0.7,0.3c-0.3,0.1-0.5,0.1-0.8,0.1
		c-0.8,0-1.4-0.2-1.8-0.7s-0.6-1.1-0.6-2c0-0.4,0.1-0.8,0.2-1.1s0.3-0.6,0.5-0.9s0.5-0.4,0.8-0.6c0.3-0.1,0.6-0.2,1-0.2
		c1.4,0,2.1,0.8,2.1,2.4L21.1,67.7z M17.7,67h2.4c0-0.4-0.1-0.7-0.3-1c-0.2-0.3-0.5-0.4-0.8-0.4c-0.4,0-0.7,0.1-0.9,0.4
		C17.9,66.2,17.8,66.6,17.7,67z"/>
	<path class="st6" d="M26.9,64.9v4.5l0.8,0.2v0.6H26l-0.1-0.7c-0.3,0.2-0.6,0.4-1,0.6c-0.4,0.1-0.7,0.2-0.9,0.2
		c-0.5,0-0.9-0.2-1.2-0.5c-0.3-0.3-0.4-0.8-0.4-1.3v-2.8l-0.8-0.2V65h1.8v3.5c0,0.4,0.1,0.6,0.2,0.8s0.4,0.3,0.6,0.3
		c0.3,0,0.5-0.1,0.8-0.2c0.2-0.1,0.4-0.3,0.5-0.4l0.2-0.2v-3l-0.9-0.2V65L26.9,64.9z"/>
	<path class="st6" d="M30.5,64.9v0.6l-0.3,0.1l0.8,1.3l1.2-1.9h1.5v0.6l-0.8,0.2l-1.2,1.8l1.3,1.9l0.9,0.2v0.5h-2.4v-0.5l0.4-0.1
		l-0.8-1.3l-1.2,2h-1.5v-0.5l0.9-0.2l1.3-1.9l-1.3-1.9l-0.8-0.1V65L30.5,64.9z"/>
	<path class="st6" d="M40.9,67.7h-3.5c0,0.5,0.1,1,0.4,1.3c0.3,0.3,0.6,0.5,1.1,0.5c0.1,0,0.3,0,0.4,0c0.1,0,0.3-0.1,0.4-0.1
		s0.2-0.1,0.4-0.1c0.1,0,0.2-0.1,0.3-0.1l0.2-0.1l0.3,0.5c-0.2,0.2-0.4,0.3-0.6,0.4c-0.2,0.1-0.4,0.2-0.7,0.3s-0.5,0.1-0.8,0.1
		c-0.8,0-1.4-0.2-1.8-0.7c-0.4-0.5-0.6-1.1-0.6-2c0-0.4,0.1-0.8,0.2-1.1s0.3-0.6,0.5-0.9s0.5-0.4,0.8-0.6c0.3-0.1,0.6-0.2,1-0.2
		c1.4,0,2.1,0.8,2.1,2.4L40.9,67.7z M37.5,67h2.4c0-0.4-0.1-0.7-0.3-1s-0.5-0.4-0.8-0.4c-0.4,0-0.7,0.1-0.9,0.4
		C37.6,66.2,37.5,66.6,37.5,67z"/>
	<path class="st6" d="M43.3,64.9l0.1,0.7c0.1-0.1,0.2-0.1,0.3-0.2s0.3-0.2,0.4-0.3c0.2-0.1,0.3-0.2,0.5-0.2c0.2-0.1,0.4-0.1,0.6-0.1
		c0.5,0,0.9,0.2,1.2,0.5s0.4,0.8,0.4,1.3v2.8l0.8,0.2v0.5h-2.4v-0.5l0.6-0.2v-2.7c0-0.4-0.1-0.6-0.2-0.8c-0.1-0.2-0.4-0.3-0.6-0.3
		c-0.1,0-0.3,0-0.4,0.1s-0.3,0.1-0.4,0.1c-0.1,0.1-0.2,0.1-0.3,0.2c-0.1,0.1-0.2,0.1-0.2,0.2l-0.2,0.2v3l0.7,0.2v0.5h-2.5v-0.5
		l0.8-0.2v-3.7l-0.8-0.2V65L43.3,64.9z"/>
	<path class="st6" d="M51,65.2c0.7-0.3,1.4-0.4,2-0.4s1,0.1,1.3,0.4s0.5,0.6,0.5,1.2v3.1l0.8,0.2v0.6h-1.5l-0.2-0.7
		c-0.5,0.5-1.1,0.8-1.6,0.8s-0.9-0.1-1.2-0.4c-0.3-0.3-0.4-0.6-0.4-1.1c0-1,0.8-1.6,2.3-1.6h0.8v-0.8c0-0.6-0.3-0.9-1-0.9
		c-0.4,0-0.7,0-0.9,0.1h-0.1l-0.1,0.8H51V65.2z M53.8,67.9h-0.7c-0.5,0-0.9,0.1-1.1,0.2s-0.3,0.3-0.3,0.6s0.1,0.5,0.2,0.6
		c0.1,0.1,0.3,0.2,0.5,0.2c0.1,0,0.2,0,0.3-0.1c0.1,0,0.2-0.1,0.3-0.2s0.2-0.1,0.3-0.2s0.2-0.1,0.2-0.2l0.2-0.2L53.8,67.9L53.8,67.9
		z"/>
	<path class="st6" d="M57.9,64.9l0.1,0.7c0.1-0.1,0.2-0.2,0.3-0.3s0.3-0.2,0.4-0.3s0.3-0.1,0.5-0.2c0.2,0,0.4-0.1,0.5-0.1
		c0.7,0,1.1,0.3,1.4,0.9c0.1-0.1,0.3-0.2,0.4-0.3s0.3-0.2,0.5-0.3s0.3-0.1,0.5-0.2s0.3-0.1,0.4-0.1c1,0,1.5,0.6,1.5,1.8v2.8l0.8,0.2
		V70H63v-0.5l0.7-0.2v-2.7c0-0.4-0.1-0.6-0.2-0.8c-0.1-0.2-0.3-0.2-0.6-0.2c-0.1,0-0.3,0-0.4,0.1s-0.3,0.1-0.4,0.1s-0.2,0.1-0.3,0.2
		c-0.1,0.1-0.2,0.1-0.2,0.2l-0.2,0.2v3l0.7,0.2v0.5h-2.3v-0.5l0.7-0.2v-2.7c0-0.4-0.1-0.6-0.2-0.8c-0.1-0.2-0.3-0.2-0.6-0.2
		c-0.1,0-0.3,0-0.4,0.1s-0.3,0.1-0.4,0.1s-0.2,0.1-0.3,0.2c-0.1,0.1-0.2,0.1-0.2,0.2l-0.2,0.2v3l0.7,0.2v0.5h-2.5v-0.5l0.8-0.2v-3.7
		l-0.8-0.2V65L57.9,64.9z"/>
	<path class="st6" d="M66.4,65.2c0.7-0.3,1.4-0.4,2-0.4s1,0.1,1.3,0.4s0.5,0.6,0.5,1.2v3.1l0.8,0.2v0.6h-1.5l-0.2-0.7
		c-0.5,0.5-1.1,0.8-1.6,0.8s-0.9-0.1-1.2-0.4c-0.3-0.3-0.4-0.6-0.4-1.1c0-1,0.8-1.6,2.3-1.6h0.8v-0.8c0-0.6-0.3-0.9-1-0.9
		c-0.4,0-0.7,0-0.9,0.1h-0.1l-0.1,0.8h-0.7L66.4,65.2z M69.2,67.9h-0.7c-0.5,0-0.9,0.1-1.1,0.2s-0.3,0.3-0.3,0.6s0.1,0.5,0.2,0.6
		s0.3,0.2,0.5,0.2c0.1,0,0.2,0,0.3-0.1c0.1,0,0.2-0.1,0.3-0.2s0.2-0.1,0.3-0.2s0.2-0.1,0.2-0.2l0.2-0.2L69.2,67.9L69.2,67.9z"/>
	<path class="st6" d="M73.4,64.9l0.1,0.7c0.1-0.1,0.2-0.1,0.3-0.2s0.3-0.2,0.4-0.3c0.2-0.1,0.3-0.2,0.5-0.2c0.2-0.1,0.4-0.1,0.6-0.1
		c0.5,0,0.9,0.2,1.2,0.5c0.3,0.3,0.4,0.8,0.4,1.3v2.8l0.8,0.2v0.5h-2.4v-0.5l0.6-0.2v-2.7c0-0.4-0.1-0.6-0.2-0.8s-0.4-0.3-0.6-0.3
		c-0.1,0-0.3,0-0.4,0.1s-0.3,0.1-0.4,0.1c-0.1,0.1-0.2,0.1-0.3,0.2c-0.1,0.1-0.2,0.1-0.2,0.2l-0.2,0.2v3l0.7,0.2v0.5h-2.5v-0.5
		l0.8-0.2v-3.7l-0.8-0.2V65L73.4,64.9z"/>
	<path class="st6" d="M83,62.5v6.9l0.9,0.2v0.6h-1.7l-0.1-0.6c-0.4,0.4-1,0.7-1.7,0.7c-0.6,0-1.1-0.2-1.5-0.7
		c-0.3-0.5-0.5-1.1-0.5-1.9c0-0.9,0.2-1.6,0.7-2.1c0.4-0.5,1.1-0.8,2-0.8c0.3,0,0.6,0.1,1,0.2v-1.7l-0.8-0.2v-0.5L83,62.5z M82,68.8
		v-2.9c-0.2-0.1-0.6-0.2-1-0.2c-1,0-1.5,0.7-1.5,2c0,0.6,0.1,1.1,0.3,1.4s0.5,0.5,0.9,0.5c0.3,0,0.6-0.1,0.8-0.3
		C81.8,69.1,81.9,68.9,82,68.8z"/>
	<path class="st6" d="M89,67.7h-3.5c0,0.5,0.1,1,0.4,1.3s0.6,0.5,1.1,0.5c0.1,0,0.3,0,0.4,0s0.3-0.1,0.4-0.1s0.2-0.1,0.4-0.1
		c0.1,0,0.2-0.1,0.3-0.1l0.2-0.1l0.3,0.5c-0.2,0.2-0.4,0.3-0.6,0.4c-0.2,0.1-0.4,0.2-0.7,0.3c-0.3,0.1-0.5,0.1-0.8,0.1
		c-0.8,0-1.4-0.2-1.8-0.7s-0.6-1.1-0.6-2c0-0.4,0.1-0.8,0.2-1.1s0.3-0.6,0.5-0.9s0.5-0.4,0.8-0.6c0.3-0.1,0.6-0.2,1-0.2
		c1.4,0,2.1,0.8,2.1,2.4L89,67.7z M85.6,67H88c0-0.4-0.1-0.7-0.3-1c-0.2-0.3-0.5-0.4-0.8-0.4c-0.4,0-0.7,0.1-0.9,0.4
		C85.8,66.2,85.7,66.6,85.6,67z"/>
	<path class="st6" d="M10.2,79.6c0-0.4,0.1-0.8,0.2-1.2s0.3-0.6,0.5-0.9c0.2-0.2,0.5-0.4,0.8-0.6c0.3-0.1,0.7-0.2,1-0.2
		c0.7,0,1.3,0.2,1.7,0.7s0.6,1.1,0.6,2c0,0.4-0.1,0.8-0.2,1.1s-0.3,0.6-0.5,0.9s-0.5,0.4-0.8,0.6c-0.3,0.1-0.7,0.2-1,0.2
		c-0.8,0-1.3-0.2-1.8-0.7C10.4,81.2,10.2,80.5,10.2,79.6z M12.7,77.6c-1,0-1.5,0.6-1.5,2c0,1.3,0.5,1.9,1.4,1.9
		c0.5,0,0.8-0.2,1.1-0.5c0.2-0.3,0.3-0.8,0.3-1.5C14,78.2,13.6,77.6,12.7,77.6z"/>
	<path class="st6" d="M20.9,76.9v4.5l0.8,0.2v0.6H20l-0.1-0.7c-0.3,0.2-0.6,0.4-1,0.6c-0.4,0.1-0.7,0.2-0.9,0.2
		c-0.5,0-0.9-0.2-1.2-0.5c-0.3-0.3-0.4-0.8-0.4-1.3v-2.8l-0.8-0.2V77h1.8v3.5c0,0.4,0.1,0.6,0.2,0.8s0.4,0.3,0.6,0.3
		c0.3,0,0.5-0.1,0.8-0.2c0.2-0.1,0.4-0.3,0.5-0.4l0.2-0.2v-3l-0.9-0.2V77L20.9,76.9z"/>
	<path class="st6" d="M26.5,75.5V77H28v0.8h-1.5V81c0,0.4,0.2,0.6,0.5,0.6c0.2,0,0.5-0.1,0.8-0.2l0.3,0.5c-0.5,0.3-0.9,0.5-1.4,0.5
		c-0.3,0-0.6-0.1-0.8-0.3c-0.2-0.2-0.3-0.6-0.3-1.1v-3.1h-1v-0.6l1-0.1v-1.3L26.5,75.5z"/>
	<path class="st6" d="M30.3,76.9l0.1,0.7c0.5-0.6,1-0.8,1.5-0.8c0.3,0,0.5,0,0.8,0.1h0.1v1.5h-0.7L32,77.6c-0.6,0-1.1,0.3-1.5,0.8v3
		l1,0.2v0.5h-2.8v-0.5l0.8-0.2v-3.7l-0.8-0.2V77L30.3,76.9z"/>
	<path class="st6" d="M35.1,76.9v4.5l0.8,0.2v0.5h-2.6v-0.5l0.8-0.2v-3.7l-0.8-0.2V77L35.1,76.9z M34.6,74.6c0.4,0,0.6,0.2,0.6,0.8
		c0,0.2-0.1,0.4-0.2,0.5s-0.3,0.2-0.5,0.2s-0.3-0.1-0.4-0.2c-0.1-0.1-0.2-0.3-0.2-0.5s0.1-0.4,0.2-0.5
		C34.2,74.6,34.4,74.6,34.6,74.6z"/>
	<path class="st6" d="M37,77.2c0.7-0.3,1.4-0.4,2-0.4s1,0.1,1.3,0.4s0.5,0.6,0.5,1.2v3.1l0.8,0.2v0.6h-1.5l-0.2-0.7
		c-0.5,0.5-1.1,0.8-1.6,0.8s-0.9-0.1-1.2-0.4c-0.3-0.3-0.4-0.6-0.4-1.1c0-1,0.8-1.6,2.3-1.6h0.8v-0.8c0-0.6-0.3-0.9-1-0.9
		c-0.4,0-0.7,0-0.9,0.1h-0.1l-0.1,0.8H37V77.2z M39.8,79.9h-0.7c-0.5,0-0.9,0.1-1.1,0.2s-0.3,0.3-0.3,0.6s0.1,0.5,0.2,0.6
		c0.1,0.1,0.3,0.2,0.5,0.2c0.1,0,0.2,0,0.3-0.1c0.1,0,0.2-0.1,0.3-0.2s0.2-0.1,0.3-0.2s0.2-0.1,0.2-0.2l0.2-0.2L39.8,79.9L39.8,79.9
		z"/>
	<path class="st6" d="M43.9,76.9l0.1,0.7c0.1-0.1,0.2-0.1,0.3-0.2s0.3-0.2,0.4-0.3c0.2-0.1,0.3-0.2,0.5-0.2c0.2-0.1,0.4-0.1,0.6-0.1
		c0.5,0,0.9,0.2,1.2,0.5s0.4,0.8,0.4,1.3v2.8l0.8,0.2v0.5h-2.4v-0.5l0.6-0.2v-2.7c0-0.4-0.1-0.6-0.2-0.8c-0.1-0.2-0.4-0.3-0.6-0.3
		c-0.1,0-0.3,0-0.4,0.1s-0.3,0.1-0.4,0.1c-0.1,0.1-0.2,0.1-0.3,0.2c-0.1,0.1-0.2,0.1-0.2,0.2l-0.2,0.2v3l0.7,0.2v0.5h-2.5v-0.5
		l0.8-0.2v-3.7l-0.8-0.2V77L43.9,76.9z"/>
	<path class="st6" d="M51.2,80.6c-0.3,0-0.5,0-0.8-0.1v0.9H52c0.7,0,1.1,0.1,1.5,0.4c0.3,0.2,0.5,0.6,0.5,1.1s-0.2,1-0.7,1.3
		c-0.4,0.3-1.1,0.5-1.9,0.5c-1.6,0-2.4-0.5-2.4-1.5c0-0.4,0.2-0.8,0.7-1.1c0.1-0.1,0.2-0.1,0.4-0.2c-0.2,0-0.3-0.1-0.4-0.2
		c-0.1-0.1-0.2-0.2-0.2-0.3c0-0.2,0.1-0.5,0.4-1l0.1-0.2c-0.1,0-0.1-0.1-0.2-0.2s-0.2-0.2-0.3-0.3c-0.2-0.3-0.3-0.6-0.3-1.1
		c0-0.6,0.2-1.1,0.6-1.4s0.9-0.5,1.6-0.5c0.4,0,0.7,0,0.9,0.1h0.1h1.8v0.5l-1,0.1c0.2,0.2,0.3,0.6,0.3,1c0,0.7-0.2,1.1-0.6,1.5
		C52.5,80.4,51.9,80.6,51.2,80.6z M51.7,82.2h-1.1c0,0-0.1,0.1-0.2,0.1s-0.2,0.1-0.2,0.2C50,82.7,50,82.9,50,83.1
		c0,0.3,0.1,0.6,0.4,0.7c0.3,0.1,0.6,0.2,1.2,0.2c1,0,1.5-0.3,1.5-1c0-0.3-0.1-0.5-0.3-0.6S52.2,82.2,51.7,82.2z M51.3,77.5
		c-0.8,0-1.1,0.4-1.1,1.2c0,0.4,0.1,0.7,0.3,0.9s0.5,0.3,0.8,0.3c0.4,0,0.7-0.1,0.9-0.3s0.3-0.5,0.3-0.9
		C52.4,77.9,52.1,77.5,51.3,77.5z"/>
	<path class="st6" d="M59.8,76.9v4.5l0.8,0.2v0.6h-1.7l-0.1-0.7c-0.3,0.2-0.6,0.4-1,0.6c-0.4,0.1-0.7,0.2-0.9,0.2
		c-0.5,0-0.9-0.2-1.2-0.5s-0.4-0.8-0.4-1.3v-2.8l-0.8-0.2V77h1.8v3.5c0,0.4,0.1,0.6,0.2,0.8c0.1,0.2,0.4,0.3,0.6,0.3
		c0.3,0,0.5-0.1,0.8-0.2c0.2-0.1,0.4-0.3,0.5-0.4l0.2-0.2v-3l-0.9-0.2V77L59.8,76.9z"/>
	<path class="st6" d="M63,74.5v6.9l1,0.2v0.5h-2.9v-0.5l0.8-0.2v-6.1l-0.8-0.2v-0.5L63,74.5z"/>
	<path class="st6" d="M64.8,77.2c0.7-0.3,1.4-0.4,2-0.4s1,0.1,1.3,0.4s0.5,0.6,0.5,1.2v3.1l0.8,0.2v0.6h-1.5l-0.2-0.7
		c-0.5,0.5-1.1,0.8-1.6,0.8s-0.9-0.1-1.2-0.4c-0.3-0.3-0.4-0.6-0.4-1.1c0-1,0.8-1.6,2.3-1.6h0.8v-0.8c0-0.6-0.3-0.9-1-0.9
		c-0.4,0-0.7,0-0.9,0.1h-0.1l-0.1,0.8h-0.7L64.8,77.2z M67.6,79.9h-0.7c-0.5,0-0.9,0.1-1.1,0.2s-0.3,0.3-0.3,0.6s0.1,0.5,0.2,0.6
		s0.3,0.2,0.5,0.2c0.1,0,0.2,0,0.3-0.1c0.1,0,0.2-0.1,0.3-0.2s0.2-0.1,0.3-0.2s0.2-0.1,0.2-0.2l0.2-0.2L67.6,79.9L67.6,79.9z"/>
	<path class="st6" d="M72,76.9v4.5l0.8,0.2v0.5h-2.6v-0.5l0.8-0.2v-3.7l-0.8-0.2V77L72,76.9z M71.4,74.6c0.4,0,0.6,0.2,0.6,0.8
		c0,0.2-0.1,0.4-0.2,0.5s-0.3,0.2-0.5,0.2S71,76,70.9,75.9c-0.1-0.1-0.2-0.3-0.2-0.5s0.1-0.4,0.2-0.5C71.1,74.6,71.2,74.6,71.4,74.6
		z"/>
	<path class="st6" d="M75.1,76.9l0.1,0.7c0.5-0.6,1-0.8,1.5-0.8c0.3,0,0.5,0,0.8,0.1h0.1v1.5h-0.7l-0.1-0.8c-0.6,0-1.1,0.3-1.5,0.8
		v3l1,0.2v0.5h-2.8v-0.5l0.8-0.2v-3.7l-0.8-0.2V77L75.1,76.9z"/>
	<path class="st6" d="M82.6,79.7h-3.5c0,0.5,0.1,1,0.4,1.3s0.6,0.5,1.1,0.5c0.1,0,0.3,0,0.4,0s0.3-0.1,0.4-0.1s0.2-0.1,0.4-0.1
		c0.1,0,0.2-0.1,0.3-0.1l0.2-0.1l0.3,0.5c-0.2,0.2-0.4,0.3-0.6,0.4c-0.2,0.1-0.4,0.2-0.7,0.3c-0.3,0.1-0.5,0.1-0.8,0.1
		c-0.8,0-1.4-0.2-1.8-0.7s-0.6-1.1-0.6-2c0-0.4,0.1-0.8,0.2-1.1s0.3-0.6,0.5-0.9s0.5-0.4,0.8-0.6c0.3-0.1,0.6-0.2,1-0.2
		c1.4,0,2.1,0.8,2.1,2.4L82.6,79.7z M79.2,79h2.4c0-0.4-0.1-0.7-0.3-1c-0.2-0.3-0.5-0.4-0.8-0.4c-0.4,0-0.7,0.1-0.9,0.4
		C79.4,78.2,79.2,78.6,79.2,79z"/>
	<path class="st6" d="M83.5,80.6h0.7l0.1,0.9c0.1,0,0.2,0,0.3,0.1s0.3,0,0.4,0c0.4,0,0.7-0.1,0.9-0.2c0.2-0.1,0.3-0.3,0.3-0.6
		c0-0.2-0.1-0.3-0.2-0.4c-0.1-0.1-0.3-0.2-0.5-0.3s-0.4-0.1-0.7-0.2c-0.2-0.1-0.5-0.2-0.7-0.3s-0.4-0.3-0.5-0.5s-0.2-0.4-0.2-0.7
		c0-0.5,0.2-0.9,0.5-1.1s0.8-0.4,1.3-0.4c0.2,0,0.5,0,0.7,0.1c0.2,0,0.5,0.1,0.7,0.2l0.2,0.1v1.4h-0.6L86,77.9c-0.1,0-0.2,0-0.3-0.1
		s-0.3,0-0.5,0c-0.1,0-0.2,0-0.3,0c-0.1,0-0.2,0.1-0.3,0.1c-0.1,0-0.2,0.1-0.2,0.2c0,0.1-0.1,0.2-0.1,0.3c0,0.2,0.1,0.3,0.2,0.5
		s0.3,0.2,0.5,0.3s0.4,0.2,0.7,0.2c0.2,0.1,0.5,0.2,0.7,0.3s0.4,0.3,0.5,0.4c0.1,0.2,0.2,0.4,0.2,0.7s-0.1,0.5-0.2,0.7
		s-0.3,0.4-0.5,0.5s-0.4,0.2-0.7,0.3c-0.3,0.1-0.6,0.1-0.9,0.1c-0.1,0-0.2,0-0.4,0c-0.1,0-0.2,0-0.4,0c-0.1,0-0.2,0-0.3-0.1
		s-0.2,0-0.3-0.1l-0.2-0.1L83.5,80.6z"/>
</g>
<g>
	<path class="st6" d="M13.4,159.3v-0.6l0.9-0.2v-5l-0.3,0.8l-1.5,3.1h-0.8l-1.5-3.2l-0.2-0.7v5l0.9,0.2v0.6H8.2v-0.6l0.8-0.2v-5.4
		l-0.8-0.2v-0.6h2.2l1.8,4l1.9-4h2.1v0.6l-0.9,0.2v5.4l0.9,0.2v0.6L13.4,159.3L13.4,159.3z"/>
	<path class="st6" d="M21.9,154v4.5l0.8,0.2v0.6H21l-0.1-0.7c-0.3,0.2-0.6,0.4-1,0.6c-0.4,0.1-0.7,0.2-0.9,0.2
		c-0.5,0-0.9-0.2-1.2-0.5c-0.3-0.3-0.4-0.8-0.4-1.3v-2.8l-0.8-0.2V154h1.8v3.5c0,0.4,0.1,0.6,0.2,0.8s0.4,0.3,0.6,0.3
		c0.3,0,0.5-0.1,0.8-0.2c0.2-0.1,0.4-0.3,0.5-0.4l0.2-0.2v-3l-0.9-0.2V154H21.9z"/>
	<path class="st6" d="M23.5,157.7h0.7l0.1,0.9c0.1,0,0.2,0,0.3,0.1s0.3,0,0.4,0c0.4,0,0.7-0.1,0.9-0.2c0.2-0.1,0.3-0.3,0.3-0.6
		c0-0.2-0.1-0.3-0.2-0.4c-0.1-0.1-0.3-0.2-0.5-0.3s-0.4-0.1-0.7-0.2c-0.2-0.1-0.5-0.2-0.7-0.3s-0.4-0.3-0.5-0.5s-0.2-0.4-0.2-0.7
		c0-0.5,0.2-0.9,0.5-1.1s0.8-0.4,1.3-0.4c0.2,0,0.5,0,0.7,0.1c0.2,0,0.5,0.1,0.7,0.2l0.2,0.1v1.4h-0.6L26,155c-0.1,0-0.2,0-0.3-0.1
		s-0.3,0-0.5,0c-0.1,0-0.2,0-0.3,0c-0.1,0-0.2,0.1-0.3,0.1c-0.1,0-0.2,0.1-0.2,0.2c0,0.1-0.1,0.2-0.1,0.3c0,0.2,0.1,0.3,0.2,0.5
		s0.3,0.2,0.5,0.3s0.4,0.2,0.7,0.2c0.2,0.1,0.5,0.2,0.7,0.3s0.4,0.3,0.5,0.4c0.1,0.2,0.2,0.4,0.2,0.7s-0.1,0.5-0.2,0.7
		s-0.3,0.4-0.5,0.5s-0.4,0.2-0.7,0.3c-0.3,0.1-0.6,0.1-0.9,0.1c-0.1,0-0.2,0-0.4,0c-0.1,0-0.2,0-0.4,0c-0.1,0-0.2,0-0.3-0.1
		s-0.2,0-0.3-0.1l-0.2-0.1L23.5,157.7z"/>
	<path class="st6" d="M32.7,156.8h-3.5c0,0.5,0.1,1,0.4,1.3s0.6,0.5,1.1,0.5c0.1,0,0.3,0,0.4,0s0.3-0.1,0.4-0.1s0.2-0.1,0.4-0.1
		c0.1,0,0.2-0.1,0.3-0.1l0.2-0.1l0.3,0.5c-0.2,0.2-0.4,0.3-0.6,0.4c-0.2,0.1-0.4,0.2-0.7,0.3c-0.3,0.1-0.5,0.1-0.8,0.1
		c-0.8,0-1.4-0.2-1.8-0.7s-0.6-1.1-0.6-2c0-0.4,0.1-0.8,0.2-1.1s0.3-0.6,0.5-0.9s0.5-0.4,0.8-0.6c0.3-0.1,0.6-0.2,1-0.2
		c1.4,0,2.1,0.8,2.1,2.4L32.7,156.8z M29.2,156h2.4c0-0.4-0.1-0.7-0.3-1c-0.2-0.3-0.5-0.4-0.8-0.4c-0.4,0-0.7,0.1-0.9,0.4
		C29.4,155.3,29.3,155.6,29.2,156z"/>
	<path class="st6" d="M33.8,154.3c0.7-0.3,1.4-0.4,2-0.4s1,0.1,1.3,0.4s0.5,0.6,0.5,1.2v3.1l0.8,0.2v0.6h-1.5l-0.2-0.7
		c-0.5,0.5-1.1,0.8-1.6,0.8s-0.9-0.1-1.2-0.4c-0.3-0.3-0.4-0.6-0.4-1.1c0-1,0.8-1.6,2.3-1.6h0.8v-0.8c0-0.6-0.3-0.9-1-0.9
		c-0.4,0-0.7,0-0.9,0.1h-0.1l-0.1,0.8h-0.7L33.8,154.3z M36.6,157h-0.7c-0.5,0-0.9,0.1-1.1,0.2s-0.3,0.3-0.3,0.6s0.1,0.5,0.2,0.6
		c0.1,0.1,0.3,0.2,0.5,0.2c0.1,0,0.2,0,0.3-0.1c0.1,0,0.2-0.1,0.3-0.2s0.2-0.1,0.3-0.2s0.2-0.1,0.2-0.2l0.2-0.2L36.6,157L36.6,157z"
		/>
	<path class="st6" d="M44.1,154v4.5l0.8,0.2v0.6h-1.7l-0.1-0.7c-0.3,0.2-0.6,0.4-1,0.6c-0.4,0.1-0.7,0.2-0.9,0.2
		c-0.5,0-0.9-0.2-1.2-0.5s-0.4-0.8-0.4-1.3v-2.8l-0.8-0.2V154h1.8v3.5c0,0.4,0.1,0.6,0.2,0.8c0.1,0.2,0.4,0.3,0.6,0.3
		c0.3,0,0.5-0.1,0.8-0.2c0.2-0.1,0.4-0.3,0.5-0.4l0.2-0.2v-3l-0.9-0.2V154H44.1z"/>
	<path class="st6" d="M52.1,155.6h-0.7l-0.2-0.9c-0.3-0.1-0.6-0.1-0.9-0.1c-0.5,0-0.9,0.2-1.1,0.5s-0.4,0.8-0.4,1.4s0.1,1.1,0.4,1.5
		c0.3,0.3,0.7,0.5,1.1,0.5c0.1,0,0.3,0,0.4,0c0.1,0,0.3-0.1,0.4-0.1c0.1,0,0.2-0.1,0.3-0.1c0.1-0.1,0.2-0.1,0.2-0.2L52,158l0.4,0.6
		l-0.1,0.1c-0.1,0.1-0.2,0.1-0.3,0.2c-0.1,0.1-0.3,0.2-0.5,0.2c-0.2,0.1-0.4,0.1-0.5,0.2c-0.2,0.1-0.4,0.1-0.6,0.1
		c-0.8,0-1.4-0.2-1.9-0.7s-0.6-1.1-0.6-2c0-0.4,0.1-0.8,0.2-1.1c0.1-0.3,0.3-0.6,0.5-0.9c0.2-0.2,0.5-0.4,0.8-0.6
		c0.3-0.1,0.7-0.2,1.1-0.2c0.1,0,0.3,0,0.4,0c0.1,0,0.3,0,0.4,0.1c0.1,0,0.3,0.1,0.4,0.1c0.1,0,0.2,0.1,0.3,0.1l0.2,0.1L52.1,155.6z
		"/>
	<path class="st6" d="M53,156.7c0-0.4,0.1-0.8,0.2-1.2s0.3-0.6,0.5-0.9c0.2-0.2,0.5-0.4,0.8-0.6c0.3-0.1,0.7-0.2,1-0.2
		c0.7,0,1.3,0.2,1.7,0.7s0.6,1.1,0.6,2c0,0.4-0.1,0.8-0.2,1.1s-0.3,0.6-0.5,0.9s-0.5,0.4-0.8,0.6c-0.3,0.1-0.7,0.2-1,0.2
		c-0.8,0-1.3-0.2-1.8-0.7C53.2,158.3,53,157.6,53,156.7z M55.5,154.7c-1,0-1.5,0.6-1.5,2c0,1.3,0.5,1.9,1.4,1.9
		c0.5,0,0.8-0.2,1.1-0.5c0.2-0.3,0.3-0.8,0.3-1.5C56.8,155.3,56.4,154.7,55.5,154.7z"/>
	<path class="st6" d="M63.7,154v4.5l0.8,0.2v0.6h-1.7l-0.1-0.7c-0.3,0.2-0.6,0.4-1,0.6c-0.4,0.1-0.7,0.2-0.9,0.2
		c-0.5,0-0.9-0.2-1.2-0.5s-0.4-0.8-0.4-1.3v-2.8l-0.8-0.2V154h1.8v3.5c0,0.4,0.1,0.6,0.2,0.8c0.1,0.2,0.4,0.3,0.6,0.3
		c0.3,0,0.5-0.1,0.8-0.2c0.2-0.1,0.4-0.3,0.5-0.4l0.2-0.2v-3l-0.9-0.2V154H63.7z"/>
	<path class="st6" d="M66.8,154l0.1,0.7c0.5-0.6,1-0.8,1.5-0.8c0.3,0,0.5,0,0.8,0.1h0.1v1.5h-0.7l-0.1-0.8c-0.6,0-1.1,0.3-1.5,0.8v3
		l1,0.2v0.5h-2.8v-0.5l0.8-0.2v-3.7l-0.8-0.2V154H66.8z"/>
	<path class="st6" d="M71.6,152.6v1.5h1.5v0.8h-1.5v3.2c0,0.4,0.2,0.6,0.5,0.6c0.2,0,0.5-0.1,0.8-0.2l0.3,0.5
		c-0.5,0.3-0.9,0.5-1.4,0.5c-0.3,0-0.6-0.1-0.8-0.3c-0.2-0.2-0.3-0.6-0.3-1.1V155h-1v-0.6l1-0.1V153L71.6,152.6z"/>
</g>
<g>
	<path class="st6" d="M34,213v-0.6l0.8-0.2v-5.4l-0.8-0.2V206h1.9h1c0.7,0,1.3,0.2,1.7,0.5c0.4,0.4,0.6,0.9,0.6,1.5
		c0,0.8-0.2,1.4-0.7,1.8s-1.1,0.6-2,0.6h-0.7v1.8l0.9,0.2v0.6H34z M35.9,206.8v2.8h0.7c1.1,0,1.6-0.5,1.6-1.4c0-0.4-0.1-0.8-0.3-1
		s-0.5-0.4-1-0.4H35.9z"/>
	<path class="st6" d="M39.9,210.4c0-0.4,0.1-0.8,0.2-1.2c0.1-0.4,0.3-0.6,0.5-0.9c0.2-0.2,0.5-0.4,0.8-0.6c0.3-0.1,0.7-0.2,1-0.2
		c0.7,0,1.3,0.2,1.7,0.7s0.6,1.1,0.6,2c0,0.4-0.1,0.8-0.2,1.1c-0.1,0.3-0.3,0.6-0.5,0.9s-0.5,0.4-0.8,0.6c-0.3,0.1-0.7,0.2-1,0.2
		c-0.8,0-1.3-0.2-1.8-0.7C40.1,211.9,39.9,211.3,39.9,210.4z M42.4,208.4c-1,0-1.5,0.6-1.5,2c0,1.3,0.5,1.9,1.4,1.9
		c0.5,0,0.8-0.2,1.1-0.5c0.2-0.3,0.3-0.8,0.3-1.5C43.7,209,43.3,208.4,42.4,208.4z"/>
	<path class="st6" d="M47.4,207.7v4.5l0.8,0.2v0.5h-2.6v-0.5l0.8-0.2v-3.7l-0.8-0.2v-0.5L47.4,207.7z M46.9,205.3
		c0.4,0,0.6,0.2,0.6,0.8c0,0.2-0.1,0.4-0.2,0.5s-0.3,0.2-0.5,0.2s-0.3-0.1-0.4-0.2s-0.2-0.3-0.2-0.5s0.1-0.4,0.2-0.5
		C46.5,205.4,46.7,205.3,46.9,205.3z"/>
	<path class="st6" d="M50.7,206.3v1.5h1.5v0.8h-1.5v3.2c0,0.4,0.2,0.6,0.5,0.6c0.2,0,0.5-0.1,0.8-0.2l0.3,0.5
		c-0.5,0.3-0.9,0.5-1.4,0.5c-0.3,0-0.6-0.1-0.8-0.3c-0.2-0.2-0.3-0.6-0.3-1.1v-3.2h-1V208l1-0.1v-1.3L50.7,206.3z"/>
	<path class="st6" d="M54.5,207.7l0.1,0.7c0.5-0.6,1-0.8,1.5-0.8c0.3,0,0.5,0,0.8,0.1H57v1.5h-0.7l-0.1-0.8c-0.6,0-1.1,0.3-1.5,0.8
		v3l1,0.2v0.5h-2.8v-0.5l0.8-0.2v-3.7l-0.8-0.2v-0.5L54.5,207.7z"/>
	<path class="st6" d="M59.4,207.7v4.5l0.8,0.2v0.5h-2.6v-0.5l0.8-0.2v-3.7l-0.8-0.2v-0.5L59.4,207.7z M58.8,205.3
		c0.4,0,0.6,0.2,0.6,0.8c0,0.2-0.1,0.4-0.2,0.5s-0.3,0.2-0.5,0.2s-0.3-0.1-0.4-0.2s-0.2-0.3-0.2-0.5s0.1-0.4,0.2-0.5
		C58.5,205.4,58.6,205.3,58.8,205.3z"/>
	<path class="st6" d="M62.5,207.7l0.1,0.7c0.1-0.1,0.2-0.1,0.3-0.2s0.3-0.2,0.4-0.3c0.2-0.1,0.3-0.2,0.5-0.2
		c0.2-0.1,0.4-0.1,0.6-0.1c0.5,0,0.9,0.2,1.2,0.5s0.4,0.8,0.4,1.3v2.8l0.8,0.2v0.5h-2.4v-0.5l0.6-0.2v-2.7c0-0.4-0.1-0.6-0.2-0.8
		c-0.1-0.2-0.4-0.3-0.6-0.3c-0.1,0-0.3,0-0.4,0.1c-0.1,0-0.3,0.1-0.4,0.1c-0.1,0.1-0.2,0.1-0.3,0.2s-0.2,0.1-0.2,0.2l-0.2,0.2v3
		l0.7,0.2v0.5h-2.5v-0.5l0.8-0.2v-3.7l-0.8-0.2v-0.5L62.5,207.7z"/>
	<path class="st6" d="M72,210.5h-3.5c0,0.5,0.1,1,0.4,1.3s0.6,0.5,1.1,0.5c0.1,0,0.3,0,0.4,0s0.3-0.1,0.4-0.1s0.2-0.1,0.4-0.1
		c0.1,0,0.2-0.1,0.3-0.1l0.2-0.1l0.3,0.5c-0.2,0.2-0.4,0.3-0.6,0.4s-0.4,0.2-0.7,0.3c-0.3,0.1-0.5,0.1-0.8,0.1
		c-0.8,0-1.4-0.2-1.8-0.7s-0.6-1.1-0.6-2c0-0.4,0.1-0.8,0.2-1.1s0.3-0.6,0.5-0.9s0.5-0.4,0.8-0.6c0.3-0.1,0.6-0.2,1-0.2
		c1.4,0,2.1,0.8,2.1,2.3L72,210.5z M68.6,209.7H71c0-0.4-0.1-0.7-0.3-1c-0.2-0.3-0.5-0.4-0.8-0.4c-0.4,0-0.7,0.1-0.9,0.4
		C68.8,209,68.6,209.3,68.6,209.7z"/>
	<path class="st6" d="M76.5,205.3v2.9c0.5-0.4,1-0.6,1.5-0.6c0.7,0,1.2,0.2,1.6,0.7s0.5,1.1,0.5,2c0,0.4-0.1,0.8-0.2,1.1
		c-0.1,0.3-0.3,0.7-0.5,0.9c-0.2,0.3-0.5,0.5-0.9,0.6c-0.3,0.1-0.7,0.2-1.2,0.2c-0.3,0-0.6,0-0.9,0s-0.5-0.1-0.7-0.1l-0.2-0.1v-6.8
		l-0.8-0.2v-0.5L76.5,205.3z M76.5,212.2c0.2,0.1,0.5,0.1,1,0.1c0.3,0,0.5,0,0.7-0.1s0.3-0.2,0.5-0.4c0.1-0.2,0.2-0.4,0.3-0.6
		s0.1-0.5,0.1-0.8c0-0.6-0.1-1.1-0.3-1.4s-0.5-0.5-0.9-0.5c-0.3,0-0.6,0.1-0.8,0.2c-0.2,0.1-0.4,0.3-0.5,0.5L76.5,212.2L76.5,212.2z
		"/>
	<path class="st6" d="M82.8,207.7v4.5l0.8,0.2v0.5H81v-0.5l0.8-0.2v-3.7l-0.8-0.2v-0.5L82.8,207.7z M82.3,205.3
		c0.4,0,0.6,0.2,0.6,0.8c0,0.2-0.1,0.4-0.2,0.5s-0.3,0.2-0.5,0.2s-0.3-0.1-0.4-0.2s-0.2-0.3-0.2-0.5s0.1-0.4,0.2-0.5
		C81.9,205.4,82.1,205.3,82.3,205.3z"/>
	<path class="st6" d="M88.8,210.5h-3.5c0,0.5,0.1,1,0.4,1.3s0.6,0.5,1.1,0.5c0.1,0,0.3,0,0.4,0s0.3-0.1,0.4-0.1s0.2-0.1,0.4-0.1
		c0.1,0,0.2-0.1,0.3-0.1l0.2-0.1l0.3,0.5c-0.2,0.2-0.4,0.3-0.6,0.4s-0.4,0.2-0.7,0.3c-0.3,0.1-0.5,0.1-0.8,0.1
		c-0.8,0-1.4-0.2-1.8-0.7s-0.6-1.1-0.6-2c0-0.4,0.1-0.8,0.2-1.1s0.3-0.6,0.5-0.9s0.5-0.4,0.8-0.6c0.3-0.1,0.6-0.2,1-0.2
		c1.4,0,2.1,0.8,2.1,2.3L88.8,210.5z M85.4,209.7h2.4c0-0.4-0.1-0.7-0.3-1c-0.2-0.3-0.5-0.4-0.8-0.4c-0.4,0-0.7,0.1-0.9,0.4
		C85.6,209,85.4,209.3,85.4,209.7z"/>
	<path class="st6" d="M91.3,207.7l0.1,0.7c0.1-0.1,0.2-0.1,0.3-0.2c0.1-0.1,0.3-0.2,0.4-0.3c0.2-0.1,0.3-0.2,0.5-0.2
		c0.2-0.1,0.4-0.1,0.6-0.1c0.5,0,0.9,0.2,1.2,0.5s0.4,0.8,0.4,1.3v2.8l0.8,0.2v0.5h-2.4v-0.5l0.6-0.2v-2.7c0-0.4-0.1-0.6-0.2-0.8
		c-0.1-0.2-0.4-0.3-0.6-0.3c-0.1,0-0.3,0-0.4,0.1c-0.1,0-0.3,0.1-0.4,0.1c-0.1,0.1-0.2,0.1-0.3,0.2c-0.1,0.1-0.2,0.1-0.2,0.2
		l-0.2,0.2v3l0.7,0.2v0.5h-2.5v-0.5l0.8-0.2v-3.7l-0.8-0.2v-0.5L91.3,207.7z"/>
	<path class="st6" d="M38.6,217.3v6.9l0.9,0.2v0.5h-1.7l-0.1-0.6c-0.4,0.4-1,0.7-1.7,0.7c-0.6,0-1.1-0.2-1.5-0.7
		c-0.3-0.5-0.5-1.1-0.5-1.9c0-0.9,0.2-1.6,0.7-2.1c0.4-0.5,1.1-0.8,2-0.8c0.3,0,0.6,0.1,1,0.2V218l-0.8-0.2v-0.5H38.6z M37.6,223.5
		v-2.9c-0.2-0.1-0.6-0.2-1-0.2c-1,0-1.5,0.7-1.5,2c0,0.6,0.1,1,0.3,1.4s0.5,0.5,0.9,0.5c0.3,0,0.6-0.1,0.8-0.3
		C37.3,223.8,37.5,223.7,37.6,223.5z"/>
	<path class="st6" d="M44.6,222.5h-3.5c0,0.5,0.1,1,0.4,1.3c0.3,0.3,0.6,0.5,1.1,0.5c0.1,0,0.3,0,0.4,0c0.1,0,0.3-0.1,0.4-0.1
		s0.2-0.1,0.4-0.1c0.1,0,0.2-0.1,0.3-0.1l0.2-0.1l0.3,0.5c-0.2,0.2-0.4,0.3-0.6,0.4c-0.2,0.1-0.4,0.2-0.7,0.3
		c-0.3,0.1-0.5,0.1-0.8,0.1c-0.8,0-1.4-0.2-1.8-0.7c-0.4-0.5-0.6-1.1-0.6-2c0-0.4,0.1-0.8,0.2-1.1s0.3-0.6,0.5-0.9s0.5-0.4,0.8-0.6
		c0.3-0.1,0.6-0.2,1-0.2c1.4,0,2.1,0.8,2.1,2.3L44.6,222.5z M41.2,221.7h2.4c0-0.4-0.1-0.7-0.3-1s-0.5-0.4-0.8-0.4
		c-0.4,0-0.7,0.1-0.9,0.4S41.2,221.3,41.2,221.7z"/>
	<path class="st6" d="M45.5,223.4h0.7l0.1,0.9c0.1,0,0.2,0,0.3,0.1s0.3,0,0.4,0c0.4,0,0.7-0.1,0.9-0.2s0.3-0.3,0.3-0.6
		c0-0.2-0.1-0.3-0.2-0.4c-0.1-0.1-0.3-0.2-0.5-0.3c-0.2-0.1-0.4-0.1-0.7-0.2c-0.2-0.1-0.5-0.2-0.7-0.3c-0.2-0.1-0.4-0.3-0.5-0.5
		s-0.2-0.4-0.2-0.7c0-0.5,0.2-0.9,0.5-1.1c0.3-0.3,0.8-0.4,1.3-0.4c0.2,0,0.5,0,0.7,0.1s0.5,0.1,0.7,0.2l0.2,0.1v1.3h-0.6l-0.2-0.8
		c-0.1,0-0.2,0-0.3-0.1c-0.2,0-0.3,0-0.5,0c-0.1,0-0.2,0-0.3,0s-0.2,0.1-0.3,0.1s-0.2,0.1-0.2,0.2s-0.1,0.2-0.1,0.3
		c0,0.2,0.1,0.3,0.2,0.5c0.1,0.1,0.3,0.2,0.5,0.3c0.2,0.1,0.4,0.2,0.7,0.2c0.2,0.1,0.5,0.2,0.7,0.3c0.2,0.1,0.4,0.3,0.5,0.4
		s0.2,0.4,0.2,0.7c0,0.3-0.1,0.5-0.2,0.7c-0.1,0.2-0.3,0.4-0.5,0.5s-0.4,0.2-0.7,0.3c-0.3,0.1-0.6,0.1-0.9,0.1c-0.1,0-0.2,0-0.4,0
		c-0.1,0-0.2,0-0.4,0c-0.1,0-0.2,0-0.3-0.1c-0.1,0-0.2,0-0.3-0.1l-0.2-0.1L45.5,223.4z"/>
	<path class="st6" d="M54.4,221.3h-0.7l-0.2-0.9c-0.3-0.1-0.6-0.1-0.9-0.1c-0.5,0-0.9,0.2-1.1,0.5s-0.4,0.8-0.4,1.4s0.1,1.1,0.4,1.5
		c0.3,0.3,0.7,0.5,1.1,0.5c0.1,0,0.3,0,0.4,0c0.1,0,0.3-0.1,0.4-0.1c0.1,0,0.2-0.1,0.3-0.1c0.1-0.1,0.2-0.1,0.2-0.2l0.2-0.2l0.4,0.6
		l-0.1,0.1c-0.1,0.1-0.2,0.1-0.3,0.2s-0.3,0.2-0.5,0.2c-0.2,0.1-0.4,0.1-0.5,0.2c-0.2,0-0.4,0.1-0.6,0.1c-0.8,0-1.4-0.2-1.9-0.7
		s-0.6-1.1-0.6-2c0-0.4,0.1-0.8,0.2-1.1c0.1-0.3,0.3-0.6,0.5-0.9c0.2-0.2,0.5-0.4,0.8-0.6c0.3-0.1,0.7-0.2,1.1-0.2
		c0.1,0,0.3,0,0.4,0c0.1,0,0.3,0,0.4,0.1c0.1,0,0.3,0.1,0.4,0.1c0.1,0,0.2,0.1,0.3,0.1l0.2,0.1L54.4,221.3z"/>
	<path class="st6" d="M59.7,222.5h-3.5c0,0.5,0.1,1,0.4,1.3c0.3,0.3,0.6,0.5,1.1,0.5c0.1,0,0.3,0,0.4,0c0.1,0,0.3-0.1,0.4-0.1
		s0.2-0.1,0.4-0.1c0.1,0,0.2-0.1,0.3-0.1l0.2-0.1l0.3,0.5c-0.2,0.2-0.4,0.3-0.6,0.4c-0.2,0.1-0.4,0.2-0.7,0.3
		c-0.3,0.1-0.5,0.1-0.8,0.1c-0.8,0-1.4-0.2-1.8-0.7c-0.4-0.5-0.6-1.1-0.6-2c0-0.4,0.1-0.8,0.2-1.1s0.3-0.6,0.5-0.9s0.5-0.4,0.8-0.6
		c0.3-0.1,0.6-0.2,1-0.2c1.4,0,2.1,0.8,2.1,2.3L59.7,222.5z M56.3,221.7h2.4c0-0.4-0.1-0.7-0.3-1s-0.5-0.4-0.8-0.4
		c-0.4,0-0.7,0.1-0.9,0.4S56.3,221.3,56.3,221.7z"/>
	<path class="st6" d="M62.2,219.7l0.1,0.7c0.1-0.1,0.2-0.1,0.3-0.2s0.3-0.2,0.4-0.3c0.2-0.1,0.3-0.2,0.5-0.2
		c0.2-0.1,0.4-0.1,0.6-0.1c0.5,0,0.9,0.2,1.2,0.5s0.4,0.8,0.4,1.3v2.8l0.8,0.2v0.5h-2.4v-0.5l0.6-0.2v-2.7c0-0.4-0.1-0.6-0.2-0.8
		c-0.1-0.2-0.4-0.3-0.6-0.3c-0.1,0-0.3,0-0.4,0.1c-0.1,0-0.3,0.1-0.4,0.1c-0.1,0.1-0.2,0.1-0.3,0.2s-0.2,0.1-0.2,0.2l-0.2,0.2v3
		l0.7,0.2v0.5h-2.5v-0.5l0.8-0.2v-3.7l-0.8-0.2v-0.5L62.2,219.7z"/>
	<path class="st6" d="M71.8,217.3v6.9l0.9,0.2v0.5H71l-0.1-0.6c-0.4,0.4-1,0.7-1.7,0.7c-0.6,0-1.1-0.2-1.5-0.7
		c-0.3-0.5-0.5-1.1-0.5-1.9c0-0.9,0.2-1.6,0.7-2.1c0.4-0.5,1.1-0.8,2-0.8c0.3,0,0.6,0.1,1,0.2V218l-0.8-0.2v-0.5H71.8z M70.8,223.5
		v-2.9c-0.2-0.1-0.6-0.2-1-0.2c-1,0-1.5,0.7-1.5,2c0,0.6,0.1,1,0.3,1.4s0.5,0.5,0.9,0.5c0.3,0,0.6-0.1,0.8-0.3
		C70.6,223.8,70.7,223.7,70.8,223.5z"/>
	<path class="st6" d="M78.3,219.7v4.5l0.8,0.2v0.5h-1.7l-0.1-0.7c-0.3,0.2-0.6,0.4-1,0.6c-0.4,0.1-0.7,0.2-0.9,0.2
		c-0.5,0-0.9-0.2-1.2-0.5c-0.3-0.3-0.4-0.8-0.4-1.3v-2.8l-0.8-0.2v-0.5h1.8v3.5c0,0.4,0.1,0.6,0.2,0.8c0.1,0.2,0.4,0.3,0.6,0.3
		c0.3,0,0.5-0.1,0.8-0.2c0.2-0.1,0.4-0.3,0.5-0.4l0.2-0.2v-3l-0.9-0.2v-0.5L78.3,219.7z"/>
	<path class="st6" d="M84.3,222.5h-3.5c0,0.5,0.1,1,0.4,1.3s0.6,0.5,1.1,0.5c0.1,0,0.3,0,0.4,0s0.3-0.1,0.4-0.1s0.2-0.1,0.4-0.1
		c0.1,0,0.2-0.1,0.3-0.1l0.2-0.1l0.3,0.5c-0.2,0.2-0.4,0.3-0.6,0.4s-0.4,0.2-0.7,0.3c-0.3,0.1-0.5,0.1-0.8,0.1
		c-0.8,0-1.4-0.2-1.8-0.7s-0.6-1.1-0.6-2c0-0.4,0.1-0.8,0.2-1.1s0.3-0.6,0.5-0.9s0.5-0.4,0.8-0.6c0.3-0.1,0.6-0.2,1-0.2
		c1.4,0,2.1,0.8,2.1,2.3L84.3,222.5z M80.9,221.7h2.4c0-0.4-0.1-0.7-0.3-1c-0.2-0.3-0.5-0.4-0.8-0.4c-0.4,0-0.7,0.1-0.9,0.4
		C81.1,221,80.9,221.3,80.9,221.7z"/>
</g>
</svg>
