<?xml version="1.0" encoding="utf-8"?>
<!-- Generator: Adobe Illustrator 22.0.1, SVG Export Plug-In . SVG Version: 6.00 Build 0)  -->
<svg version="1.1" id="Calque_1" xmlns="http://www.w3.org/2000/svg" xmlns:xlink="http://www.w3.org/1999/xlink" x="0px" y="0px"
	 viewBox="0 0 154 178.4" style="enable-background:new 0 0 154 178.4;" xml:space="preserve">
<style type="text/css">
	.st0{fill:#F4C870;}
	.st1{fill:#FFFFFF;}
	.st2{opacity:0.2;}
	.st3{fill:#231F20;}
	.st4{fill:#EB9E99;}
	.st5{fill:#7B653A;}
	.st6{fill:#D18E89;}
	.st7{opacity:0.1;}
	.st8{fill:#E8452F;}
	.st9{fill:#434342;}
</style>
<g>
	<g>
		<path class="st0" d="M130.6,81.8c-0.7-30.1-24.7-54.3-54.3-54.3S22.6,51.8,21.9,81.8c-6.5,8.7-10.3,19-10.3,30
			c0,30.7,28.9,55.6,64.6,55.6s64.6-24.9,64.6-55.6C140.9,100.8,137.1,90.5,130.6,81.8z"/>
	</g>
	<g>
		<path class="st0" d="M26.5,60.7c0,0-8.1-49.5-1.5-51.6c6.5-2.1,32.1,22.1,32.1,22.1S38.4,62.2,26.5,60.7z"/>
	</g>
	<g>
		<path class="st0" d="M98.7,32.5c0,0,34.1-22.9,38.2-19.3c4.1,3.7-8.1,45.3-10.7,47.9C123.5,63.8,96.6,35.9,98.7,32.5z"/>
	</g>
	<g>
		<path class="st1" d="M131.2,81.8c-3.6-1.1-13.4,7.2-21,9c-7.7,1.8-13.1-3.3-17.3-9.1c-7-9.7-22.6-9.9-32.5,0
			c-5.1,5.1-9.7,10.8-17.3,9.1c-7.7-1.8-17.5-10-21-9c-6.5,8.7-10.3,19-10.3,30c0,30.7,28.9,55.6,64.6,55.6c0.1,0,0.2,0,0.3,0
			c0.1,0,0.2,0,0.3,0c35.7,0,64.6-24.9,64.6-55.6C141.5,100.8,137.7,90.5,131.2,81.8z"/>
	</g>
	<g class="st2">
		<path class="st3" d="M21.9,81.8c0,0-9,31.4,5,53.2c18.8,29.1,49.9,32.4,49.9,32.4s-41.5-0.1-56.9-28.3S13.8,93,21.9,81.8z"/>
	</g>
	<g>
		<path class="st4" d="M51.5,33.7c0,0-22.7-21.9-24.3-18.4c-1.6,3.5,3.2,40.6,3.2,40.6S38.5,40,51.5,33.7z"/>
	</g>
	<g>
		<path class="st4" d="M104,35.4c0,0,27.1-17.6,28.2-15c1.1,2.6-9.9,36-9.9,36S116.4,41.9,104,35.4z"/>
	</g>
	<g>
		<path class="st5" d="M76.2,168.6c-36.3,0-65.8-25.5-65.8-56.7c0-10.8,3.6-21.3,10.3-30.4c0.2-7.3,1.7-14.3,4.6-20.9
			c-1.4-8.7-7.2-47.6-2.1-52C25,7,28.9,6.7,43.1,17.8c7.6,5.9,14.7,12.4,14.8,12.5L56.3,32c-0.1-0.1-7.1-6.5-14.6-12.4
			c-14.1-11-16.7-9.5-16.9-9.3c-2.8,2.4-0.7,27.3,2.9,50.1l0.1,0.3l-0.1,0.3c-2.8,6.5-4.4,13.5-4.5,20.7l0,0.4l-0.2,0.3
			c-6.6,8.8-10,18.9-10,29.3c0,30,28.5,54.4,63.4,54.4s63.4-24.4,63.4-54.4c0-10.4-3.5-20.6-10-29.3l-0.2-0.3l0-0.4
			c-0.1-4.9-2.6-14.8-4.3-20.3l-0.1-0.4l0.1-0.4c5.8-15.7,13.7-41,11.5-46.2c-0.1-0.2-0.2-0.4-0.7-0.5c-5.1-1.4-25.1,11.1-36.5,19.4
			L98,31.6c3.1-2.3,30.7-22,38.5-19.8c1.1,0.3,1.8,1,2.2,1.9c3.2,7.5-9.3,42-11.3,47.5c1.5,4.9,4.1,14.7,4.3,20.2
			c6.7,9.1,10.3,19.6,10.3,30.5C142,143.2,112.5,168.6,76.2,168.6z"/>
	</g>
	<g>
		<path class="st5" d="M47.2,36.1c0,0,0.8-0.7,2.4-1.7c1.6-1,3.9-2.3,6.8-3.6c2.9-1.3,6.5-2.6,10.4-3.4c2-0.4,4-0.7,6.2-0.9
			c2.1-0.2,4.3-0.2,6.4,0c2.2,0.2,4.3,0.4,6.4,0.8c2.1,0.4,4.1,1,6,1.6c3.8,1.3,7.2,2.9,10,4.5c2.8,1.6,4.9,3.2,6.3,4.4
			c1.4,1.2,2.2,2,2.2,2s-0.9-0.6-2.4-1.6c-1.6-1-3.9-2.3-6.7-3.6c-2.8-1.3-6.2-2.7-10-3.8c-1.9-0.5-3.8-1-5.8-1.3
			c-2-0.4-4.1-0.6-6.1-0.7c-2-0.1-4.1-0.2-6.2,0c-2,0.1-4,0.3-5.9,0.7c-3.8,0.6-7.4,1.6-10.3,2.6c-3,1-5.4,2-7.1,2.8
			C48.2,35.6,47.2,36.1,47.2,36.1z"/>
	</g>
	<g>
		<circle class="st1" cx="59.1" cy="55" r="5.3"/>
	</g>
	<g>
		<path class="st1" d="M99.4,55.4c0,2.9-2.4,5.3-5.3,5.3c-2.9,0-5.3-2.4-5.3-5.3c0-2.9,2.4-5.3,5.3-5.3
			C97.1,50.1,99.4,52.5,99.4,55.4z"/>
	</g>
	<g>
		<path class="st6" d="M105.9,97.5c0,0-3.7,9.3-12.9,11.6s-16.5-5.1-16.5-5.1s-7.2,7.4-16.5,5.1c-9.2-2.3-12.9-11.6-12.9-11.6
			s-0.5,29.3,8.8,43.3c9,13.6,20.6,13.6,20.6,13.6s11.6,0,20.6-13.6C106.4,126.8,105.9,97.5,105.9,97.5z"/>
	</g>
	<g>
		<path class="st4" d="M55.3,139.8c0,0,8.4-9.6,21-9.6s20.9,10.6,20.9,10.6s-8.7,13.8-20.6,13.6C64.6,154.2,55.3,139.8,55.3,139.8z"
			/>
	</g>
	<g>
		<g>
			<path class="st5" d="M105,97.2c-4.6,11.3-18.9,14.8-27.7,6c-0.4-0.4-1-0.4-1.4,0c-8.8,8.8-23.1,5.3-27.7-6
				c-0.4-1-1.9-0.9-1.9,0.3c-0.3,19,2.1,45.3,21.1,55.2c17.5,9.1,32.4-9.5,36.4-25.2c2.5-9.7,3.4-20,3.3-30c0-1.3-2-1.3-2,0
				c0.3,17.9-1.6,42.5-18.6,52.7c-5.3,3.2-10.2,4.1-15.9,1.8c-12.2-4.9-17.6-17.3-20-29.3c-1.6-8.2-2.4-16.8-2.2-25.2
				c-0.6,0.1-1.3,0.2-1.9,0.3c2.2,5.3,6.7,10,12.2,11.9c3.8,1.3,7.9,1,11.7-0.4c1.9-0.8,3.7-1.8,5.4-3.1c0.6-0.5,2.3-1.3,1.1-1.4
				c-1.3-0.1,0.6,1,1.1,1.4c1.5,1.1,3.1,2.1,4.8,2.8c3.9,1.7,8.2,2,12.2,0.7c5.5-1.8,10.1-6.6,12.2-11.9
				C107.3,96.6,105.4,96.1,105,97.2z"/>
		</g>
	</g>
	<g>
		<g>
			<path class="st5" d="M75.6,93c0,3.7,0,7.3,0,11c0,1.3,2,1.3,2,0c0-3.7,0-7.3,0-11C77.5,91.7,75.6,91.7,75.6,93L75.6,93z"/>
		</g>
	</g>
	<g class="st7">
		<path class="st3" d="M30.4,55.9c0,0,3.4-6.8,9.4-13.2c-1.8,1.1-5,2.2-7.1-1c-3.2-4.7-5.5-26.4-5.5-26.4
			C25.7,18.9,30.4,55.9,30.4,55.9z"/>
	</g>
	<g class="st7">
		<path class="st3" d="M119.7,44.5c-1.2,0.8-2.5,1.2-3.8,1.3c4.3,5.5,6.4,10.6,6.4,10.6s6.7-20.6,9.1-30.7
			C131.4,25.8,122.8,42.4,119.7,44.5z"/>
	</g>
	<g>
		<path class="st8" d="M44.7,64.7c-4.1-4.1-10.7-4.1-14.8,0c-4.1,4.1-4.1,10.7,0,14.8l14.8,14.8l14.8-14.8c4.1-4.1,4.1-10.7,0-14.8
			C55.4,60.6,48.8,60.6,44.7,64.7z"/>
	</g>
	<g>
		<path class="st8" d="M108.2,64.7c-4.1-4.1-10.7-4.1-14.8,0c-4.1,4.1-4.1,10.7,0,14.8l14.8,14.8L123,79.4c4.1-4.1,4.1-10.7,0-14.8
			C118.9,60.6,112.3,60.6,108.2,64.7z"/>
	</g>
	<g>
		<path class="st9" d="M87.3,86.9c0,3.4-4.8,6.1-10.7,6.1s-10.7-2.7-10.7-6.1c0-3.4,4.8-6.1,10.7-6.1S87.3,83.5,87.3,86.9z"/>
	</g>
	<g>
		<circle class="st1" cx="71.7" cy="84.8" r="2.1"/>
	</g>
</g>
</svg>
