<?xml version="1.0" encoding="utf-8"?>
<!-- Generator: Adobe Illustrator 22.0.1, SVG Export Plug-In . SVG Version: 6.00 Build 0)  -->
<svg version="1.1" id="Layer_1" xmlns="http://www.w3.org/2000/svg" xmlns:xlink="http://www.w3.org/1999/xlink" x="0px" y="0px"
	 viewBox="0 0 822.5 512" style="enable-background:new 0 0 822.5 512;" xml:space="preserve">
<style type="text/css">
	.st0{fill:#F3C76F;}
	.st1{fill:#EA9D97;}
	.st2{fill:#7B653A;}
	.st3{font-family:'Roboto-Black';}
	.st4{font-size:40px;}
</style>
<path class="st0" d="M518.6,269.2c-58.4,0-105.9,47.5-105.9,105.9s47.5,105.9,105.9,105.9s105.9-47.5,105.9-105.9
	S577,269.2,518.6,269.2z M518.6,304.6c-38.9,0-70.6,31.7-70.6,70.6c0,4.9-4,8.8-8.8,8.8s-8.8-4-8.8-8.8c0-48.7,39.6-88.3,88.3-88.3
	c4.9,0,8.8,4,8.8,8.8C527.4,300.6,523.5,304.6,518.6,304.6z"/>
<path class="st1" d="M421.5,136.8c0-58.4-47.5-105.9-105.9-105.9S209.6,78.4,209.6,136.8s47.5,105.9,105.9,105.9
	S421.5,195.2,421.5,136.8z M306.7,57.4c0-4.9,4-8.8,8.8-8.8c48.7,0,88.3,39.6,88.3,88.3c0,4.9-4,8.8-8.8,8.8s-8.8-4-8.8-8.8
	c0-38.9-31.7-70.6-70.6-70.6C310.7,66.2,306.7,62.3,306.7,57.4z"/>
<g>
	<path class="st2" d="M518.6,286.9c-48.7,0-88.3,39.6-88.3,88.3c0,4.9,4,8.8,8.8,8.8s8.8-4,8.8-8.8c0-38.9,31.7-70.6,70.6-70.6
		c4.9,0,8.8-4,8.8-8.8C527.4,290.8,523.5,286.9,518.6,286.9z"/>
	<path class="st2" d="M386.2,136.8c0,4.9,4,8.8,8.8,8.8s8.8-4,8.8-8.8c0-48.7-39.6-88.3-88.3-88.3c-4.9,0-8.8,4-8.8,8.8
		s4,8.8,8.8,8.8C354.5,66.2,386.2,97.9,386.2,136.8z"/>
	<path class="st2" d="M703.3,204.1c-0.9-2.2-2.6-3.9-4.8-4.8c-1.1-0.4-2.2-0.7-3.4-0.7h-88.3c-4.9,0-8.8,4-8.8,8.8s4,8.8,8.8,8.8h67
		l-68.8,68.8c-0.4,0.4-0.5,0.8-0.8,1.2c-22.2-21.4-52.4-34.7-85.6-34.7C450.5,251.6,395,307,395,375.2s55.4,123.6,123.6,123.6
		s123.6-55.4,123.6-123.6c0-28.8-10-55.3-26.6-76.3c0.7-0.4,1.4-0.7,1.9-1.3l68.8-68.8v67c0,4.9,4,8.8,8.8,8.8s8.8-4,8.8-8.8v-88.3
		C704,206.3,703.8,205.2,703.3,204.1z M518.6,481.1c-58.4,0-105.9-47.5-105.9-105.9s47.5-105.9,105.9-105.9s105.9,47.5,105.9,105.9
		S577,481.1,518.6,481.1z"/>
	<path class="st2" d="M355.8,322.2h-31.4V260c64-4.6,114.8-58,114.8-123.1c0-68.1-55.4-123.6-123.6-123.6S192,68.7,192,136.8
		c0,65.2,50.7,118.6,114.8,123.1v62.2h-30.9c-4.9,0-8.8,4-8.8,8.8s4,8.8,8.8,8.8h30.9v26.5c0,4.9,4,8.8,8.8,8.8s8.8-4,8.8-8.8v-26.5
		h31.4c4.9,0,8.8-4,8.8-8.8S360.7,322.2,355.8,322.2z M209.6,136.8c0-58.4,47.5-105.9,105.9-105.9s105.9,47.5,105.9,105.9
		S374,242.8,315.6,242.8S209.6,195.2,209.6,136.8z"/>
</g>
<text transform="matrix(1 0 0 1 689.5688 384.001)"><tspan x="0" y="0" class="st0 st3 st4">40 Cm</tspan><tspan x="0" y="48" class="st0 st3 st4">10 Kg</tspan></text>
<text transform="matrix(1 0 0 1 22.1042 136.8279)"><tspan x="0" y="0" class="st1 st3 st4">35 Cm</tspan><tspan x="35.3" y="48" class="st1 st3 st4">8 Kg</tspan></text>
</svg>
