<?xml version="1.0" encoding="utf-8"?>
<!-- Generator: Adobe Illustrator 22.0.1, SVG Export Plug-In . SVG Version: 6.00 Build 0)  -->
<svg version="1.1" id="Calque_1" xmlns="http://www.w3.org/2000/svg" xmlns:xlink="http://www.w3.org/1999/xlink" x="0px" y="0px"
	 viewBox="0 0 2416 2152" style="enable-background:new 0 0 2416 2152;" xml:space="preserve">
<style type="text/css">
	.st0{fill:#F4C870;}
	.st1{fill:#231F20;}
	.st2{fill:#E95023;}
	.st3{fill:#EB9E99;}
	.st4{fill:#7B653A;}
	.st5{fill:none;stroke:#7B653A;stroke-width:11;stroke-miterlimit:10;}
</style>
<g>
	<g>
		<g>
			<path class="st0" d="M1230.5,580.6v521.6H725.8c10.5-19.6,22.5-38.7,36.1-57.1c1.8-61.3,14.7-120.7,38.5-176.6
				c-11.7-73.4-61.2-402-17.5-438.7c15.1-12.7,47.9-15.4,168.2,77.9c61.4,47.6,118.9,99.9,124.3,104.9c22.2-9.1,47.8-17.4,75.9-23.3
				c16.7-3.4,34.1-6.3,52-7.5C1212.4,581,1221.4,580.6,1230.5,580.6z"/>
		</g>
	</g>
	<g>
		<g>
			<path class="st1" d="M1230.5,1102.1V1781c-306.3,0-555.4-214.8-555.4-478.9c0-69.5,17.4-137.5,50.7-199.9L1230.5,1102.1
				L1230.5,1102.1z"/>
		</g>
	</g>
	<g>
		<g>
			<path class="st2" d="M1785.9,1302.1c0,264.1-249.2,478.9-555.4,478.9v-678.8h504.7C1768.5,1164.6,1785.9,1232.6,1785.9,1302.1z"
				/>
		</g>
	</g>
	<g>
		<g>
			<path class="st3" d="M1699.1,1045.1c13.6,18.4,25.7,37.5,36.1,57.1h-504.7V580.6c9-0.1,18,0.2,27.1,0.7
				c18.3,1.3,36.3,3.7,53.9,7.1c17.6,3.3,34.6,8.2,50.8,13.5c19.1,6.3,36.9,13.8,53,21.6c30.5-22,259.3-184.3,324.4-166.1
				c8.9,2.5,15.4,8,18.7,16c26.7,63.3-78.6,354.4-95.8,401.2C1675.2,915.7,1697.1,998.6,1699.1,1045.1z"/>
		</g>
	</g>
</g>
<g>
	<g>
		<path class="st4" d="M1785.9,1302.1c0,264.1-249.2,478.9-555.4,478.9s-555.4-214.8-555.4-478.9c0-69.5,17.4-137.5,50.7-199.9
			c10.5-19.6,22.5-38.7,36.1-57.1c1.8-61.3,14.7-120.7,38.5-176.6c-11.7-73.4-61.2-402-17.5-438.7c15.1-12.7,47.9-15.4,168.2,77.9
			c61.4,47.6,118.9,99.9,124.3,104.9c0.2,0.2,0.4,0.4,0.4,0.4l-13.5,14.7c-0.1-0.1-2.6-2.4-7-6.3c-17.5-15.8-65.7-58.5-116.6-97.9
			c-119.4-92.6-141-80-143.1-78.3c-23.7,19.9-5.9,230.8,24.9,423.2l0.5,2.9l-1.2,2.7c-23.9,55.3-36.7,114.2-38.1,175l-0.1,3.2
			l-1.9,2.6c-11.6,15.4-22,31.3-31.2,47.7c-35.2,62.1-53.5,130.3-53.5,199.9c0,253.1,240.2,459,535.5,459s535.4-205.9,535.4-459
			c0-69.7-18.4-137.9-53.5-199.9c-9.2-16.3-19.7-32.2-31.2-47.7l-1.9-2.6l-0.1-3.2c-0.9-41.5-22.4-125.3-36.5-171.5l-1-3.2l1.2-3.2
			c49.2-132.7,115.7-346,97.3-389.7c-0.7-1.6-1.9-3.5-5.7-4.5c-41.3-11.6-201.4,87.6-299.1,157.1c-3.1,2.2-6.2,4.4-9.2,6.6
			l-11.7-16.2c0.3-0.2,0.6-0.4,1-0.7c30.5-22,259.3-184.3,324.4-166.1c8.9,2.5,15.4,8,18.7,16c26.7,63.3-78.6,354.4-95.8,401.2
			c12.4,41,34.4,124,36.3,170.4c13.6,18.4,25.7,37.5,36.1,57.1C1768.5,1164.6,1785.9,1232.6,1785.9,1302.1z"/>
	</g>
	<g>
		<path class="st4" d="M1518.3,694c-0.4-0.3-7.6-5.5-20.5-13.3c-13.3-8.1-32.6-19-56.5-30.3c-24-11.2-52.6-22.7-84.1-31.7
			c-15.7-4.6-32.3-8.2-49.2-11.3c-16.8-3.1-34.2-5.1-51.5-6.1c-8.6-0.6-17.3-1-26-1c-8.7-0.1-17.4,0.2-25.9,0.7
			c-17.1,1.1-33.9,2.8-50.1,5.5c-32.3,5.3-62.1,13.5-87.2,21.9c-25.1,8.5-45.5,17.1-59.7,23.6c-13.7,6.2-21.5,10.5-22,10.7
			c0.4-0.4,7.3-5.9,20.1-14.2c11.8-7.6,28.5-17.4,49.5-27.2c2.6-1.2,5.2-2.4,7.9-3.6c3.9-1.8,8-3.5,12.2-5.2
			c22.2-9.1,47.8-17.4,75.9-23.3c16.7-3.4,34.1-6.3,52-7.5c9.1-0.7,18.1-1,27.2-1.1c9-0.1,18,0.2,27.1,0.7
			c18.3,1.3,36.3,3.7,53.9,7.1c17.6,3.3,34.6,8.2,50.8,13.5c19.1,6.3,36.9,13.8,53,21.6c6.9,3.4,13.6,6.8,19.9,10.3
			c3.9,2.1,7.7,4.3,11.3,6.4c23.4,13.7,41.4,27.2,53.5,37.2C1511.7,687.2,1517.9,693.6,1518.3,694z"/>
	</g>
</g>
<polyline class="st5" points="758.8,391.6 588.5,163.6 270.6,163.6 "/>
<polyline class="st5" points="1762.8,423.3 1933.1,195.3 2251.1,195.3 "/>
<polyline class="st5" points="810.9,1726.1 640.6,1954 322.7,1954 "/>
<polyline class="st5" points="1651,1698.8 1821.3,1926.7 2139.2,1926.7 "/>
<g>
	<path class="st3" d="M104.4,118.6H87.9V66.1l-16.2,4.7V58.3l31.2-10.8h1.5C104.4,47.5,104.4,118.6,104.4,118.6z"/>
	<path class="st3" d="M131.8,124.7h-11.7l24.3-77.2h11.7L131.8,124.7z"/>
	<path class="st3" d="M204.4,90.8h7.2v12.7h-7.2v15.1H188v-15.1h-27.5l-1-10.1L188,47.7v-0.1h16.5v43.2H204.4z M175.2,90.8H188V69
		l-1,1.7L175.2,90.8z"/>
	<path class="st3" d="M304.3,118.6h-17V88.9H262v29.7h-17.1V47.5H262v28.2h25.2V47.5h17L304.3,118.6L304.3,118.6z"/>
	<path class="st3" d="M345.8,112.9c-3.5,4.5-8.2,6.7-14.1,6.7c-5.8,0-10.2-1.7-13.2-5.1s-4.5-8.2-4.5-14.5V65.8h16.5v34.3
		c0,4.5,2.2,6.8,6.6,6.8c3.8,0,6.5-1.4,8.1-4.1v-37h16.6v52.8h-15.4L345.8,112.9z"/>
	<path class="st3" d="M386.3,65.8l0.5,6.2c3.7-4.8,8.8-7.2,15.1-7.2c6.7,0,11.2,2.7,13.5,8c3.6-5.3,8.8-8,15.5-8
		c10.7,0,16.2,6.5,16.5,19.4v34.4H431V85.3c0-2.7-0.5-4.7-1.4-5.9c-0.9-1.2-2.6-1.9-5-1.9c-3.3,0-5.7,1.4-7.3,4.3v0.7v36.1h-16.5
		V85.4c0-2.8-0.4-4.8-1.3-6s-2.6-1.9-5-1.9c-3.2,0-5.6,1.4-7.2,4.3v36.8h-16.5V65.8H386.3z"/>
	<path class="st3" d="M486.6,118.6c-0.6-1.1-1.1-2.7-1.6-4.7c-3,3.8-7.3,5.7-12.7,5.7c-5,0-9.2-1.5-12.7-4.5s-5.2-6.8-5.2-11.4
		c0-5.7,2.1-10.1,6.3-13c4.2-2.9,10.4-4.4,18.5-4.4h5.1v-2.8c0-4.9-2.1-7.3-6.3-7.3c-3.9,0-5.9,1.9-5.9,5.8h-16.5
		c0-5.1,2.2-9.2,6.5-12.4s9.9-4.8,16.6-4.8s12.1,1.6,16,4.9s5.9,7.8,6,13.5v23.4c0.1,4.9,0.8,8.6,2.2,11.1v0.8h-16.3V118.6z
		 M476.3,107.9c2.1,0,3.8-0.4,5.1-1.3c1.4-0.9,2.3-1.9,2.9-3v-8.4h-4.8c-5.7,0-8.6,2.6-8.6,7.7c0,1.5,0.5,2.7,1.5,3.6
		C473.5,107.4,474.8,107.9,476.3,107.9z"/>
	<path class="st3" d="M509.8,52.2c0-2.3,0.8-4.3,2.5-5.8s3.9-2.2,6.6-2.2c2.7,0,4.9,0.7,6.6,2.2c1.7,1.5,2.5,3.4,2.5,5.8
		s-0.8,4.3-2.5,5.8s-3.9,2.2-6.6,2.2c-2.7,0-4.9-0.7-6.6-2.2C510.7,56.4,509.8,54.5,509.8,52.2z M527.3,118.6h-16.5V65.8h16.5V118.6
		z"/>
	<path class="st3" d="M552.5,65.8L553,72c3.6-4.8,8.7-7.2,15.1-7.2c5.5,0,9.6,1.6,12.3,4.9s4.1,8.2,4.2,14.8v34h-16.5V85.3
		c0-2.7-0.5-4.6-1.6-5.9s-3-1.9-5.9-1.9c-3.2,0-5.6,1.3-7.2,3.8v37.3h-16.5V65.8H552.5z"/>
</g>
<g>
	<path class="st3" d="M1973.6,142.6h-16.5V90.1l-16.2,4.7V82.3l31.2-10.8h1.5V142.6z"/>
	<path class="st3" d="M2001,148.7h-11.7l24.3-77.2h11.7L2001,148.7z"/>
	<path class="st3" d="M2073.6,114.8h7.2v12.7h-7.2v15.1h-16.5v-15.1h-27.5l-1-10.1l28.5-45.8v-0.1h16.5V114.8z M2044.4,114.8h12.8
		V93l-1,1.7L2044.4,114.8z"/>
	<path class="st3" d="M2171.5,118.5c-0.2,4.9-1.6,9.3-4,13.1s-5.9,6.7-10.3,8.8c-4.4,2.1-9.4,3.1-15.1,3.1c-9.3,0-16.7-3-22.1-9.1
		c-5.4-6.1-8.1-14.7-8.1-25.8v-3.5c0-7,1.2-13.1,3.6-18.3c2.4-5.2,5.9-9.3,10.5-12.1c4.6-2.8,9.8-4.3,15.8-4.3
		c8.6,0,15.6,2.3,20.8,6.8s8.2,10.8,8.9,18.8h-17.1c-0.1-4.3-1.2-7.4-3.3-9.3s-5.2-2.8-9.4-2.8c-4.3,0-7.4,1.6-9.4,4.8
		c-2,3.2-3,8.3-3.1,15.3v5c0,7.6,1,13,2.9,16.3s5.2,4.9,9.8,4.9c3.9,0,7-0.9,9-2.8c2.1-1.9,3.2-4.8,3.3-8.8L2171.5,118.5
		L2171.5,118.5z"/>
	<path class="st3" d="M2195,95.5c3.5-4.4,8-6.6,13.5-6.6c5.8,0,10.2,1.7,13.2,5.2s4.5,8.5,4.5,15.3v33.3h-16.5v-33
		c0-2.8-0.6-4.9-1.7-6.2c-1.1-1.3-3.1-2-5.8-2c-3.4,0-5.8,1.1-7.2,3.2v37.9h-16.5v-75h16.5V95.5z"/>
	<path class="st3" d="M2235.2,76.2c0-2.3,0.8-4.3,2.5-5.8s3.9-2.2,6.6-2.2c2.7,0,4.9,0.7,6.6,2.2c1.7,1.5,2.5,3.4,2.5,5.8
		s-0.8,4.3-2.5,5.8s-3.9,2.2-6.6,2.2c-2.7,0-4.9-0.7-6.6-2.2C2236.1,80.4,2235.2,78.5,2235.2,76.2z M2252.7,142.6h-16.5V89.8h16.5
		V142.6z"/>
	<path class="st3" d="M2288.4,143.6c-8.1,0-14.7-2.4-19.7-7.3c-5-4.8-7.5-11.1-7.5-18.9V116c0-5.4,1-10.2,3-14.3
		c2-4.1,4.9-7.3,8.8-9.6c3.8-2.3,8.4-3.4,13.7-3.4c7.4,0,13.3,2.3,17.6,6.9s6.4,11,6.4,19.3v6.4H2278c0.6,3,1.9,5.3,3.9,7
		c2,1.7,4.6,2.5,7.7,2.5c5.2,0,9.3-1.8,12.2-5.5l7.5,8.9c-2.1,2.8-5,5.1-8.7,6.8S2292.7,143.6,2288.4,143.6z M2286.5,101.5
		c-4.8,0-7.7,3.2-8.6,9.6h16.6v-1.3c0.1-2.6-0.6-4.7-2-6.1C2291.1,102.2,2289.1,101.5,2286.5,101.5z"/>
	<path class="st3" d="M2332.4,89.8l0.5,6.2c3.6-4.8,8.7-7.2,15.1-7.2c5.5,0,9.6,1.6,12.3,4.9s4.1,8.2,4.2,14.8v34H2348v-33.3
		c0-2.7-0.5-4.6-1.6-5.9s-3-1.9-5.9-1.9c-3.2,0-5.6,1.3-7.2,3.8v37.3h-16.5V89.8H2332.4z"/>
</g>
<g>
	<path class="st3" d="M1861.7,2056.8h-16.5v-52.5l-16.2,4.7v-12.5l31.2-10.8h1.5V2056.8z"/>
	<path class="st3" d="M1889,2062.9h-11.7l24.3-77.2h11.7L1889,2062.9z"/>
	<path class="st3" d="M1961.7,2029h7.2v12.7h-7.2v15.1h-16.5v-15.1h-27.5l-1-10.1l28.5-45.8v-0.1h16.5V2029z M1932.4,2029h12.8
		v-21.9l-1,1.7L1932.4,2029z"/>
	<path class="st3" d="M2059.6,2032.7c-0.2,4.9-1.6,9.3-4,13.1s-5.9,6.7-10.3,8.8c-4.4,2.1-9.4,3.1-15.1,3.1c-9.3,0-16.7-3-22.1-9.1
		c-5.4-6.1-8.1-14.7-8.1-25.8v-3.5c0-7,1.2-13.1,3.6-18.3s5.9-9.3,10.5-12.1c4.6-2.8,9.8-4.3,15.8-4.3c8.6,0,15.6,2.3,20.8,6.8
		c5.2,4.5,8.2,10.8,8.9,18.8h-17.1c-0.1-4.3-1.2-7.4-3.3-9.3c-2.1-1.9-5.2-2.8-9.4-2.8c-4.3,0-7.4,1.6-9.4,4.8
		c-2,3.2-3,8.3-3.1,15.3v5c0,7.6,1,13,2.9,16.3s5.2,4.9,9.8,4.9c3.9,0,7-0.9,9-2.8s3.2-4.8,3.3-8.8L2059.6,2032.7L2059.6,2032.7z"/>
	<path class="st3" d="M2083,2009.6c3.5-4.4,8-6.6,13.5-6.6c5.8,0,10.2,1.7,13.2,5.2s4.5,8.5,4.5,15.3v33.3h-16.5v-33
		c0-2.8-0.6-4.9-1.7-6.2s-3.1-2-5.8-2c-3.4,0-5.8,1.1-7.2,3.2v37.9h-16.5v-75h16.5V2009.6z"/>
	<path class="st3" d="M2153.1,2056.8c-0.6-1.1-1.1-2.7-1.6-4.7c-3,3.8-7.3,5.7-12.7,5.7c-5,0-9.2-1.5-12.7-4.5s-5.2-6.8-5.2-11.4
		c0-5.7,2.1-10.1,6.3-13s10.4-4.4,18.5-4.4h5.1v-2.8c0-4.9-2.1-7.3-6.3-7.3c-3.9,0-5.9,1.9-5.9,5.8h-16.5c0-5.1,2.2-9.2,6.5-12.4
		s9.9-4.8,16.6-4.8s12.1,1.6,16,4.9s5.9,7.8,6,13.5v23.4c0.1,4.9,0.8,8.6,2.2,11.1v0.8h-16.3V2056.8z M2142.8,2046.1
		c2.1,0,3.8-0.4,5.1-1.3s2.3-1.9,2.9-3v-8.4h-4.8c-5.7,0-8.6,2.6-8.6,7.7c0,1.5,0.5,2.7,1.5,3.6S2141.3,2046.1,2142.8,2046.1z"/>
	<path class="st3" d="M2195.6,1990.8v13.1h8.7v11.4h-8.7v24.2c0,2,0.4,3.4,1.1,4.2s2.1,1.2,4.2,1.2c1.6,0,3-0.1,4.1-0.3v11.8
		c-3,0.9-6.1,1.4-9.3,1.4c-5.7,0-9.8-1.3-12.5-4s-4.1-6.7-4.1-12.2v-26.2h-6.7V2004h6.7v-13.1L2195.6,1990.8L2195.6,1990.8z"/>
</g>
<g>
	<path class="st3" d="M244.5,2074.8H228v-52.5l-16.2,4.7v-12.5l31.2-10.8h1.5V2074.8z"/>
	<path class="st3" d="M271.9,2080.9h-11.7l24.3-77.2h11.7L271.9,2080.9z"/>
	<path class="st3" d="M344.5,2047h7.2v12.7h-7.2v15.1H328v-15.1h-27.5l-1-10.1l28.5-45.8v-0.1h16.5V2047z M315.3,2047h12.8v-21.9
		l-1,1.7L315.3,2047z"/>
	<path class="st3" d="M421.6,2055.9c0-2.5-0.9-4.5-2.7-5.9c-1.8-1.4-4.9-2.8-9.4-4.3s-8.1-2.9-10.9-4.3
		c-9.2-4.5-13.8-10.7-13.8-18.7c0-3.9,1.1-7.4,3.4-10.4s5.5-5.4,9.7-7c4.2-1.7,8.9-2.5,14.2-2.5c5.1,0,9.7,0.9,13.7,2.7
		c4.1,1.8,7.2,4.4,9.4,7.8s3.4,7.2,3.4,11.5h-17.1c0-2.9-0.9-5.1-2.7-6.7c-1.8-1.6-4.2-2.4-7.2-2.4c-3.1,0-5.5,0.7-7.3,2
		c-1.8,1.4-2.7,3.1-2.7,5.2c0,1.8,1,3.5,2.9,5c2,1.5,5.4,3,10.3,4.6s9,3.3,12.1,5.1c7.7,4.4,11.5,10.5,11.5,18.3
		c0,6.2-2.3,11.1-7,14.6s-11.1,5.3-19.3,5.3c-5.8,0-11-1-15.6-3.1c-4.7-2.1-8.2-4.9-10.5-8.5c-2.4-3.6-3.5-7.7-3.5-12.4h17.2
		c0,3.8,1,6.6,3,8.4c2,1.8,5.2,2.7,9.6,2.7c2.8,0,5.1-0.6,6.7-1.8C420.8,2059.8,421.6,2058.1,421.6,2055.9z"/>
	<path class="st3" d="M446.6,2008.4c0-2.3,0.8-4.3,2.5-5.8s3.9-2.2,6.6-2.2s4.9,0.7,6.6,2.2s2.5,3.4,2.5,5.8s-0.8,4.3-2.5,5.8
		s-3.9,2.2-6.6,2.2s-4.9-0.7-6.6-2.2C447.5,2012.6,446.6,2010.7,446.6,2008.4z M464.1,2074.8h-16.5V2022h16.5V2074.8z"/>
	<path class="st3" d="M489.4,2022l0.5,6.2c3.6-4.8,8.7-7.2,15.1-7.2c5.5,0,9.6,1.6,12.3,4.9s4.1,8.2,4.2,14.8v34H505v-33.3
		c0-2.7-0.5-4.6-1.6-5.9s-3-1.9-5.9-1.9c-3.2,0-5.6,1.3-7.2,3.8v37.3h-16.5V2022H489.4z"/>
	<path class="st3" d="M528.7,2048c0-5.3,0.9-10.1,2.6-14.2s4.3-7.3,7.6-9.5s7.1-3.3,11.5-3.3c5.5,0,9.8,1.9,12.9,5.6l0.6-4.6h14.9
		v50.8c0,4.7-1.1,8.7-3.2,12.1c-2.2,3.4-5.3,6.1-9.4,7.9s-8.9,2.8-14.3,2.8c-3.9,0-7.6-0.7-11.3-2.2c-3.6-1.5-6.4-3.4-8.3-5.7
		l6.9-9.7c3.1,3.6,7.1,5.4,12.1,5.4c7.3,0,10.9-3.7,10.9-11.2v-1.7c-3.2,3.5-7.1,5.2-12,5.2c-6.4,0-11.7-2.5-15.6-7.4
		c-4-4.9-6-11.5-6-19.8L528.7,2048L528.7,2048z M545.2,2049c0,4.3,0.8,7.8,2.4,10.3c1.6,2.5,3.9,3.8,6.8,3.8c3.5,0,6.1-1.2,7.8-3.6
		v-22.2c-1.6-2.4-4.2-3.6-7.7-3.6c-2.9,0-5.2,1.3-6.9,3.9C546,2040.3,545.2,2044.1,545.2,2049z"/>
	<path class="st3" d="M613.7,2075.8c-8.1,0-14.7-2.4-19.7-7.3c-5-4.8-7.5-11.1-7.5-18.9v-1.4c0-5.4,1-10.2,3-14.3
		c2-4.1,4.9-7.3,8.8-9.6c3.8-2.3,8.4-3.4,13.7-3.4c7.4,0,13.3,2.3,17.6,6.9s6.4,11,6.4,19.3v6.4h-32.7c0.6,3,1.9,5.3,3.9,7
		s4.6,2.5,7.7,2.5c5.2,0,9.3-1.8,12.2-5.5l7.5,8.9c-2.1,2.8-5,5.1-8.7,6.8C622.1,2075,618,2075.8,613.7,2075.8z M611.9,2033.7
		c-4.8,0-7.7,3.2-8.6,9.6h16.6v-1.3c0.1-2.6-0.6-4.7-2-6.1C616.5,2034.4,614.5,2033.7,611.9,2033.7z"/>
</g>
<g>
	<path class="st4" d="M230.6,277.6h-13.7v-56.9h13.7V277.6z"/>
	<path class="st4" d="M251.6,235.3l0.4,5c2.9-3.8,6.9-5.7,12.1-5.7c4.4,0,7.7,1.3,9.9,3.9c2.2,2.6,3.3,6.6,3.4,11.9v27.2h-13.2
		v-26.7c0-2.1-0.4-3.7-1.3-4.7s-2.4-1.5-4.7-1.5c-2.6,0-4.5,1-5.7,3v29.8h-13.2v-42.3h12.3V235.3z"/>
	<path class="st4" d="M300,224.8v10.5h7v9.1h-7v19.3c0,1.6,0.3,2.7,0.9,3.3c0.6,0.6,1.7,0.9,3.4,0.9c1.3,0,2.4-0.1,3.3-0.2v9.4
		c-2.4,0.8-4.8,1.1-7.4,1.1c-4.5,0-7.9-1.1-10-3.2c-2.2-2.1-3.2-5.4-3.2-9.7v-21h-5.4v-9.1h5.4v-10.5h13V224.8z"/>
	<path class="st4" d="M332.5,278.4c-6.5,0-11.7-1.9-15.7-5.8s-6-8.9-6-15.1v-1.1c0-4.3,0.8-8.1,2.4-11.4c1.6-3.3,3.9-5.9,7-7.7
		s6.7-2.7,10.9-2.7c5.9,0,10.6,1.8,14.1,5.5c3.4,3.7,5.2,8.8,5.2,15.4v5.1h-26.2c0.5,2.4,1.5,4.2,3.1,5.6s3.6,2,6.2,2
		c4.2,0,7.4-1.5,9.8-4.4l6,7.1c-1.6,2.3-4,4.1-7,5.4S336,278.4,332.5,278.4z M331,244.7c-3.9,0-6.1,2.6-6.9,7.7h13.3v-1
		c0.1-2.1-0.5-3.7-1.6-4.9C334.7,245.3,333.1,244.7,331,244.7z"/>
	<path class="st4" d="M369.5,277.6h-13.2v-60h13.2V277.6z"/>
	<path class="st4" d="M391.5,277.6h-13.2v-60h13.2V277.6z"/>
	<path class="st4" d="M399.5,224.4c0-1.9,0.7-3.4,2-4.6c1.4-1.2,3.1-1.8,5.3-1.8c2.2,0,3.9,0.6,5.3,1.8s2,2.7,2,4.6s-0.7,3.4-2,4.6
		c-1.4,1.2-3.1,1.8-5.3,1.8c-2.2,0-3.9-0.6-5.3-1.8C400.2,227.8,399.5,226.3,399.5,224.4z M413.5,277.6h-13.2v-42.3h13.2V277.6z"/>
	<path class="st4" d="M420.1,256.1c0-4.3,0.7-8,2.1-11.3s3.4-5.8,6.1-7.6c2.6-1.8,5.7-2.7,9.2-2.7c4.4,0,7.8,1.5,10.3,4.5l0.5-3.7
		h12V276c0,3.7-0.9,7-2.6,9.7s-4.2,4.9-7.5,6.3c-3.3,1.5-7.1,2.2-11.4,2.2c-3.1,0-6.1-0.6-9-1.8c-2.9-1.2-5.1-2.7-6.7-4.6l5.5-7.7
		c2.4,2.9,5.7,4.3,9.7,4.3c5.8,0,8.8-3,8.8-9v-1.3c-2.5,2.8-5.7,4.2-9.6,4.2c-5.2,0-9.3-2-12.5-5.9s-4.8-9.2-4.8-15.8v-0.5H420.1z
		 M433.3,257c0,3.5,0.7,6.2,2,8.2s3.1,3,5.5,3c2.8,0,4.9-1,6.2-2.9v-17.8c-1.3-1.9-3.3-2.9-6.1-2.9c-2.3,0-4.2,1-5.5,3.1
		C433.9,249.9,433.3,253,433.3,257z"/>
	<path class="st4" d="M488.1,278.4c-6.5,0-11.7-1.9-15.7-5.8s-6-8.9-6-15.1v-1.1c0-4.3,0.8-8.1,2.4-11.4c1.6-3.3,3.9-5.9,7-7.7
		s6.7-2.7,10.9-2.7c5.9,0,10.6,1.8,14.1,5.5c3.4,3.7,5.2,8.8,5.2,15.4v5.1h-26.2c0.5,2.4,1.5,4.2,3.1,5.6s3.6,2,6.2,2
		c4.2,0,7.4-1.5,9.8-4.4l6,7.1c-1.6,2.3-4,4.1-7,5.4S491.5,278.4,488.1,278.4z M486.6,244.7c-3.9,0-6.1,2.6-6.9,7.7H493v-1
		c0.1-2.1-0.5-3.7-1.6-4.9S488.7,244.7,486.6,244.7z"/>
	<path class="st4" d="M523.3,235.3l0.4,5c2.9-3.8,6.9-5.7,12.1-5.7c4.4,0,7.7,1.3,9.9,3.9c2.2,2.6,3.3,6.6,3.4,11.9v27.2h-13.2
		v-26.7c0-2.1-0.4-3.7-1.3-4.7c-0.9-1-2.4-1.5-4.7-1.5c-2.6,0-4.5,1-5.7,3v29.8H511v-42.3h12.3V235.3z"/>
	<path class="st4" d="M571.6,224.8v10.5h7v9.1h-7v19.3c0,1.6,0.3,2.7,0.9,3.3c0.6,0.6,1.7,0.9,3.4,0.9c1.3,0,2.4-0.1,3.3-0.2v9.4
		c-2.4,0.8-4.8,1.1-7.4,1.1c-4.5,0-7.9-1.1-10-3.2c-2.2-2.1-3.2-5.4-3.2-9.7v-21h-5.4v-9.1h5.4v-10.5h13V224.8z"/>
</g>
<g>
	<path class="st4" d="M447.5,1850.8l12.7,39.6l12.7-39.6h18v56.9h-13.8v-13.3l1.3-27.2l-13.8,40.5h-9.1l-13.8-40.5l1.3,27.2v13.3
		h-13.7v-56.9H447.5z"/>
	<path class="st4" d="M522.8,1907.7c-0.5-0.9-0.9-2.1-1.2-3.8c-2.4,3-5.8,4.6-10.2,4.6c-4,0-7.4-1.2-10.2-3.6
		c-2.8-2.4-4.2-5.4-4.2-9.1c0-4.6,1.7-8,5.1-10.4c3.4-2.3,8.3-3.5,14.8-3.5h4.1v-2.2c0-3.9-1.7-5.8-5-5.8c-3.1,0-4.7,1.5-4.7,4.6
		h-13.2c0-4.1,1.7-7.4,5.2-9.9s7.9-3.8,13.3-3.8c5.4,0,9.6,1.3,12.8,3.9c3.1,2.6,4.7,6.2,4.8,10.8v18.7c0.1,3.9,0.7,6.8,1.8,8.9v0.7
		L522.8,1907.7L522.8,1907.7z M514.6,1899.1c1.6,0,3-0.4,4.1-1.1s1.9-1.5,2.3-2.4v-6.8h-3.8c-4.6,0-6.9,2.1-6.9,6.2
		c0,1.2,0.4,2.2,1.2,2.9C512.3,1898.7,513.3,1899.1,514.6,1899.1z"/>
	<path class="st4" d="M555.4,1907.7h-13.2v-60h13.2V1907.7z"/>
	<path class="st4" d="M563.4,1854.5c0-1.9,0.7-3.4,2-4.6c1.4-1.2,3.1-1.8,5.3-1.8s3.9,0.6,5.3,1.8c1.4,1.2,2,2.7,2,4.6
		s-0.7,3.4-2,4.6c-1.4,1.2-3.1,1.8-5.3,1.8s-3.9-0.6-5.3-1.8C564.1,1858,563.4,1856.4,563.4,1854.5z M577.4,1907.7h-13.2v-42.3h13.2
		V1907.7z"/>
	<path class="st4" d="M597.6,1865.4l0.4,5c2.9-3.8,6.9-5.7,12.1-5.7c4.4,0,7.7,1.3,9.9,3.9s3.3,6.6,3.4,11.9v27.2h-13.2V1881
		c0-2.1-0.4-3.7-1.3-4.7c-0.9-1-2.4-1.5-4.7-1.5c-2.6,0-4.5,1-5.7,3v29.8h-13.2v-42.3L597.6,1865.4L597.6,1865.4z"/>
</g>
<g>
	<path class="st4" d="M1847.9,1889.7h-13.7v-56.9h13.7V1889.7z"/>
	<path class="st4" d="M1868.9,1847.4l0.4,5c2.9-3.8,6.9-5.7,12.1-5.7c4.4,0,7.7,1.3,9.9,3.9c2.2,2.6,3.3,6.6,3.4,11.9v27.2h-13.2
		V1863c0-2.1-0.4-3.7-1.3-4.7s-2.4-1.5-4.7-1.5c-2.6,0-4.5,1-5.7,3v29.8h-13.2v-42.3L1868.9,1847.4L1868.9,1847.4z"/>
	<path class="st4" d="M1900.3,1868.3c0-6.7,1.4-12,4.3-15.8c2.9-3.9,6.9-5.8,12.1-5.8c3.8,0,7,1.5,9.5,4.5v-21.4h13.2v60h-11.8
		l-0.7-4.5c-2.7,3.5-6.1,5.3-10.3,5.3c-5,0-9-1.9-12-5.8C1901.7,1880.9,1900.3,1875.4,1900.3,1868.3z M1913.4,1869.1
		c0,7.5,2.2,11.2,6.6,11.2c2.9,0,5-1.2,6.2-3.7v-16.1c-1.2-2.5-3.3-3.8-6.2-3.8c-4.1,0-6.3,3.3-6.6,9.8V1869.1z"/>
	<path class="st4" d="M1967.4,1890.5c-6.5,0-11.7-1.9-15.7-5.8s-6-8.9-6-15.1v-1.1c0-4.3,0.8-8.1,2.4-11.4s3.9-5.9,7-7.7
		c3.1-1.8,6.7-2.7,10.9-2.7c5.9,0,10.6,1.8,14.1,5.5c3.4,3.7,5.2,8.8,5.2,15.4v5.1H1959c0.5,2.4,1.5,4.2,3.1,5.6s3.6,2,6.2,2
		c4.2,0,7.4-1.5,9.8-4.4l6,7.1c-1.6,2.3-4,4.1-7,5.4S1970.8,1890.5,1967.4,1890.5z M1965.7,1829.7h13.9l-10.9,12.3H1958
		L1965.7,1829.7z M1965.9,1856.8c-3.9,0-6.1,2.6-6.9,7.7h13.3v-1c0.1-2.1-0.5-3.7-1.6-4.9C1969.6,1857.4,1968,1856.8,1965.9,1856.8z
		"/>
	<path class="st4" d="M2029.7,1868.9c0,6.6-1.5,11.8-4.4,15.7c-3,3.9-6.9,5.9-12,5.9c-3.9,0-7.1-1.4-9.6-4.3v19.7h-13.2v-58.5h12.3
		l0.4,3.9c2.5-3.1,5.8-4.7,10-4.7c5.2,0,9.3,1.9,12.1,5.8c2.9,3.8,4.3,9.1,4.3,15.8L2029.7,1868.9L2029.7,1868.9z M2016.6,1868.1
		c0-7.5-2.2-11.2-6.6-11.2c-3.1,0-5.2,1.1-6.2,3.4v16.6c1.1,2.3,3.3,3.5,6.3,3.5c4.2,0,6.4-3.6,6.5-10.9L2016.6,1868.1
		L2016.6,1868.1z"/>
	<path class="st4" d="M2056,1890.5c-6.5,0-11.7-1.9-15.7-5.8s-6-8.9-6-15.1v-1.1c0-4.3,0.8-8.1,2.4-11.4s3.9-5.9,7-7.7
		c3.1-1.8,6.7-2.7,10.9-2.7c5.9,0,10.6,1.8,14.1,5.5c3.4,3.7,5.2,8.8,5.2,15.4v5.1h-26.2c0.5,2.4,1.5,4.2,3.1,5.6s3.6,2,6.2,2
		c4.2,0,7.4-1.5,9.8-4.4l6,7.1c-1.6,2.3-4,4.1-7,5.4S2059.4,1890.5,2056,1890.5z M2054.5,1856.8c-3.9,0-6.1,2.6-6.9,7.7h13.3v-1
		c0.1-2.1-0.5-3.7-1.6-4.9C2058.2,1857.4,2056.6,1856.8,2054.5,1856.8z"/>
	<path class="st4" d="M2091.2,1847.4l0.4,5c2.9-3.8,6.9-5.7,12.1-5.7c4.4,0,7.7,1.3,9.9,3.9s3.3,6.6,3.4,11.9v27.2h-13.2V1863
		c0-2.1-0.4-3.7-1.3-4.7c-0.9-1-2.4-1.5-4.7-1.5c-2.6,0-4.5,1-5.7,3v29.8h-13.2v-42.3L2091.2,1847.4L2091.2,1847.4z"/>
	<path class="st4" d="M2122.5,1868.3c0-6.7,1.4-12,4.3-15.8c2.9-3.9,6.9-5.8,12.1-5.8c3.8,0,7,1.5,9.5,4.5v-21.4h13.2v60h-11.8
		l-0.7-4.5c-2.7,3.5-6.1,5.3-10.3,5.3c-5,0-9-1.9-12-5.8C2124,1880.9,2122.5,1875.4,2122.5,1868.3z M2135.7,1869.1
		c0,7.5,2.2,11.2,6.6,11.2c2.9,0,5-1.2,6.2-3.7v-16.1c-1.2-2.5-3.3-3.8-6.2-3.8c-4.1,0-6.3,3.3-6.6,9.8V1869.1z"/>
	<path class="st4" d="M2193,1889.7c-0.5-0.9-0.9-2.1-1.2-3.8c-2.4,3-5.8,4.6-10.2,4.6c-4,0-7.4-1.2-10.2-3.6s-4.2-5.4-4.2-9.1
		c0-4.6,1.7-8,5.1-10.4c3.4-2.3,8.3-3.5,14.8-3.5h4.1v-2.2c0-3.9-1.7-5.8-5-5.8c-3.1,0-4.7,1.5-4.7,4.6h-13.2c0-4.1,1.7-7.4,5.2-9.9
		s7.9-3.8,13.3-3.8s9.6,1.3,12.8,3.9c3.1,2.6,4.7,6.2,4.8,10.8v18.7c0.1,3.9,0.7,6.8,1.8,8.9v0.7L2193,1889.7L2193,1889.7z
		 M2184.8,1881.1c1.6,0,3-0.4,4.1-1.1s1.9-1.5,2.3-2.4v-6.8h-3.8c-4.6,0-6.9,2.1-6.9,6.2c0,1.2,0.4,2.2,1.2,2.9
		C2182.5,1880.7,2183.5,1881.1,2184.8,1881.1z"/>
	<path class="st4" d="M2223.7,1847.4l0.4,5c2.9-3.8,6.9-5.7,12.1-5.7c4.4,0,7.7,1.3,9.9,3.9s3.3,6.6,3.4,11.9v27.2h-13.2V1863
		c0-2.1-0.4-3.7-1.3-4.7c-0.9-1-2.4-1.5-4.7-1.5c-2.6,0-4.5,1-5.7,3v29.8h-13.2v-42.3L2223.7,1847.4L2223.7,1847.4z"/>
	<path class="st4" d="M2272.1,1836.9v10.5h7v9.1h-7v19.3c0,1.6,0.3,2.7,0.9,3.3c0.6,0.6,1.7,0.9,3.4,0.9c1.3,0,2.4-0.1,3.3-0.2v9.4
		c-2.4,0.8-4.8,1.1-7.4,1.1c-4.5,0-7.9-1.1-10-3.2c-2.2-2.1-3.2-5.4-3.2-9.7v-21h-5.4v-9.1h5.4v-10.5L2272.1,1836.9L2272.1,1836.9z"
		/>
</g>
<g>
	<path class="st4" d="M1983,286.7h-22.1v22.7h-13.7v-56.9h38V263h-24.3v13.1h22.1V286.7z"/>
	<path class="st4" d="M1990.2,256.2c0-1.9,0.7-3.4,2-4.6c1.4-1.2,3.1-1.8,5.3-1.8c2.2,0,3.9,0.6,5.3,1.8s2,2.7,2,4.6
		c0,1.9-0.7,3.4-2,4.6c-1.4,1.2-3.1,1.8-5.3,1.8c-2.2,0-3.9-0.6-5.3-1.8C1990.9,259.6,1990.2,258,1990.2,256.2z M2004.2,309.3H1991
		V267h13.2V309.3z"/>
	<path class="st4" d="M2010.6,287.9c0-6.7,1.4-12,4.3-15.8c2.9-3.9,6.9-5.8,12.1-5.8c3.8,0,7,1.5,9.5,4.5v-21.4h13.2v60H2038
		l-0.7-4.5c-2.7,3.5-6.1,5.3-10.3,5.3c-5,0-9-1.9-12-5.8C2012.1,300.5,2010.6,295,2010.6,287.9z M2023.8,288.7
		c0,7.5,2.2,11.2,6.6,11.2c2.9,0,5-1.2,6.2-3.7v-16.1c-1.2-2.5-3.3-3.8-6.2-3.8c-4.1,0-6.3,3.3-6.6,9.8V288.7z"/>
	<path class="st4" d="M2077.7,310.1c-6.5,0-11.7-1.9-15.7-5.8s-6-8.9-6-15.1v-1.1c0-4.3,0.8-8.1,2.4-11.4c1.6-3.3,3.9-5.9,7-7.7
		c3.1-1.8,6.7-2.7,10.9-2.7c5.9,0,10.6,1.8,14.1,5.5c3.4,3.7,5.2,8.8,5.2,15.4v5.1h-26.2c0.5,2.4,1.5,4.2,3.1,5.6s3.6,2,6.2,2
		c4.2,0,7.4-1.5,9.8-4.4l6,7.1c-1.6,2.3-4,4.1-7,5.4S2081.2,310.1,2077.7,310.1z M2076.1,249.3h13.9l-10.9,12.3h-10.7L2076.1,249.3z
		 M2076.2,276.4c-3.9,0-6.1,2.6-6.9,7.7h13.3v-1c0.1-2.1-0.5-3.7-1.6-4.9C2079.9,277,2078.3,276.4,2076.2,276.4z"/>
	<path class="st4" d="M2114.7,309.3h-13.2v-60h13.2V309.3z"/>
	<path class="st4" d="M2143.3,310.1c-6.5,0-11.7-1.9-15.7-5.8s-6-8.9-6-15.1v-1.1c0-4.3,0.8-8.1,2.4-11.4c1.6-3.3,3.9-5.9,7-7.7
		c3.1-1.8,6.7-2.7,10.9-2.7c5.9,0,10.6,1.8,14.1,5.5c3.4,3.7,5.2,8.8,5.2,15.4v5.1H2135c0.5,2.4,1.5,4.2,3.1,5.6s3.6,2,6.2,2
		c4.2,0,7.4-1.5,9.8-4.4l6,7.1c-1.6,2.3-4,4.1-7,5.4S2146.7,310.1,2143.3,310.1z M2141.8,276.4c-3.9,0-6.1,2.6-6.9,7.7h13.3v-1
		c0.1-2.1-0.5-3.7-1.6-4.9C2145.5,277,2143.9,276.4,2141.8,276.4z"/>
</g>
</svg>
