<?xml version="1.0" encoding="utf-8"?>
<!-- Generator: Adobe Illustrator 22.0.1, SVG Export Plug-In . SVG Version: 6.00 Build 0)  -->
<svg version="1.1" id="Calque_1" xmlns="http://www.w3.org/2000/svg" xmlns:xlink="http://www.w3.org/1999/xlink" x="0px" y="0px"
	 viewBox="0 0 168.8 174.7" style="enable-background:new 0 0 168.8 174.7;" xml:space="preserve">
<style type="text/css">
	.st0{fill:#F4C870;}
	.st1{fill:#FFFFFF;}
	.st2{opacity:0.2;}
	.st3{fill:#231F20;}
	.st4{fill:#EB9E99;}
	.st5{fill:#7B653A;}
	.st6{fill:#D18E89;}
	.st7{opacity:0.1;}
	.st8{fill:#434342;}
	.st9{fill:#9AD4E0;}
</style>
<g>
	<g>
		<path class="st0" d="M141.6,79.7c-0.7-30.1-24.7-54.3-54.3-54.3c-29.6,0-53.7,24.2-54.3,54.3c-6.5,8.7-10.3,19-10.3,30
			c0,30.7,28.9,55.6,64.6,55.6c35.7,0,64.6-24.9,64.6-55.6C151.9,98.7,148.1,88.4,141.6,79.7z"/>
	</g>
	<g>
		<path class="st0" d="M37.5,58.6c0,0-8.1-49.5-1.5-51.6C42.5,4.8,68.1,29,68.1,29S49.4,60.1,37.5,58.6z"/>
	</g>
	<g>
		<path class="st0" d="M109.7,30.4c0,0,34.1-22.9,38.2-19.3c4.1,3.7-8.1,45.3-10.7,47.9C134.5,61.7,107.6,33.8,109.7,30.4z"/>
	</g>
	<g>
		<path class="st1" d="M142.2,79.7c-3.6-1.1-13.4,7.2-21,9c-7.7,1.8-13.1-3.3-17.3-9.1c-7-9.7-22.6-9.9-32.5,0
			c-5.1,5.1-9.7,10.8-17.3,9.1c-7.7-1.8-17.5-10-21-9c-6.5,8.7-10.3,19-10.3,30c0,30.7,28.9,55.6,64.6,55.6c0.1,0,0.2,0,0.3,0
			c0.1,0,0.2,0,0.3,0c35.7,0,64.6-24.9,64.6-55.6C152.5,98.7,148.7,88.4,142.2,79.7z"/>
	</g>
	<g class="st2">
		<path class="st3" d="M32.9,79.7c0,0-9,31.4,5,53.2c18.8,29.1,49.9,32.4,49.9,32.4s-41.5-0.1-56.9-28.3
			C15.5,108.7,24.8,90.9,32.9,79.7z"/>
	</g>
	<g>
		<path class="st4" d="M62.5,31.6c0,0-22.7-21.9-24.3-18.4c-1.6,3.5,3.2,40.6,3.2,40.6S49.5,37.9,62.5,31.6z"/>
	</g>
	<g>
		<path class="st4" d="M115,33.3c0,0,27.1-17.6,28.2-15c1.1,2.6-9.9,36-9.9,36S127.4,39.8,115,33.3z"/>
	</g>
	<g>
		<path class="st5" d="M87.2,166.5c-36.3,0-65.8-25.5-65.8-56.7c0-10.8,3.6-21.3,10.3-30.4c0.2-7.3,1.7-14.3,4.6-20.9
			c-1.4-8.7-7.2-47.6-2.1-52c1.8-1.5,5.7-1.8,19.9,9.2c7.6,5.9,14.7,12.4,14.8,12.5l-1.6,1.7c-0.1-0.1-7.1-6.5-14.6-12.4
			C38.5,6.5,36,8,35.7,8.2c-2.8,2.4-0.7,27.3,2.9,50.1l0.1,0.3L38.6,59c-2.8,6.5-4.4,13.5-4.5,20.7l0,0.4l-0.2,0.3
			c-6.6,8.8-10,18.9-10,29.3c0,30,28.5,54.4,63.4,54.4c35,0,63.4-24.4,63.4-54.4c0-10.4-3.5-20.6-10-29.3l-0.2-0.3l0-0.4
			c-0.1-4.9-2.6-14.8-4.3-20.3l-0.1-0.4l0.1-0.4c5.8-15.7,13.7-41,11.5-46.2c-0.1-0.2-0.2-0.4-0.7-0.5c-5-1.4-25.1,11.1-36.5,19.4
			l-1.4-1.9c3.1-2.3,30.7-21.9,38.5-19.8c1.1,0.3,1.8,1,2.2,1.9c3.2,7.5-9.3,42-11.3,47.5c1.5,4.9,4.1,14.7,4.3,20.2
			c6.7,9.1,10.3,19.6,10.3,30.5C153,141.1,123.5,166.5,87.2,166.5z"/>
	</g>
	<g>
		<path class="st5" d="M58.2,34c0,0,0.8-0.7,2.4-1.7c1.6-1,3.9-2.3,6.8-3.6c2.9-1.3,6.5-2.6,10.4-3.4c2-0.4,4-0.7,6.2-0.9
			c2.1-0.2,4.3-0.2,6.4,0c2.2,0.2,4.3,0.4,6.4,0.8c2.1,0.4,4.1,1,6,1.6c3.8,1.3,7.2,2.9,10,4.5c2.8,1.6,4.9,3.2,6.3,4.4
			c1.4,1.2,2.2,2,2.2,2s-0.9-0.6-2.4-1.6c-1.6-1-3.9-2.3-6.7-3.6c-2.8-1.3-6.2-2.7-10-3.8c-1.9-0.5-3.8-1-5.8-1.3
			c-2-0.4-4.1-0.6-6.1-0.7c-2-0.1-4.1-0.2-6.2,0c-2,0.1-4,0.3-5.9,0.7C74.4,28,70.9,29,67.9,30c-3,1-5.4,2-7.1,2.8
			C59.2,33.5,58.2,34,58.2,34z"/>
	</g>
	<g>
		<path class="st1" d="M75.4,52.9c0,2.9-2.4,5.3-5.3,5.3c-2.9,0-5.3-2.4-5.3-5.3c0-2.9,2.4-5.3,5.3-5.3C73,47.5,75.4,49.9,75.4,52.9
			z"/>
	</g>
	<g>
		<path class="st1" d="M110.4,53.3c0,2.9-2.4,5.3-5.3,5.3s-5.3-2.4-5.3-5.3c0-2.9,2.4-5.3,5.3-5.3S110.4,50.4,110.4,53.3z"/>
	</g>
	<g>
		<path class="st6" d="M116.9,95.4c0,0-3.7,9.3-12.9,11.6c-9.2,2.3-16.5-5.1-16.5-5.1s-7.2,7.4-16.5,5.1
			c-9.2-2.3-12.9-11.6-12.9-11.6s-0.5,29.3,8.8,43.3c9,13.6,20.6,13.6,20.6,13.6s11.6,0,20.6-13.6
			C117.4,124.7,116.9,95.4,116.9,95.4z"/>
	</g>
	<g>
		<path class="st4" d="M66.3,137.7c0,0,8.4-9.6,21-9.6c12.6,0,20.9,10.6,20.9,10.6s-8.7,13.8-20.6,13.6
			C75.6,152.1,66.3,137.7,66.3,137.7z"/>
	</g>
	<g>
		<g>
			<path class="st5" d="M116,95.1c-4.6,11.3-18.9,14.8-27.7,6c-0.4-0.4-1-0.4-1.4,0c-8.8,8.8-23.1,5.3-27.7-6
				c-0.4-1-1.9-0.9-1.9,0.3c-0.3,19,2.1,45.3,21.1,55.2c17.5,9.1,32.4-9.5,36.4-25.2c2.5-9.7,3.4-20,3.3-30c0-1.3-2-1.3-2,0
				c0.3,17.9-1.6,42.5-18.6,52.7c-5.3,3.2-10.2,4.1-15.9,1.8c-12.2-4.9-17.6-17.3-20-29.3c-1.6-8.2-2.4-16.8-2.2-25.2
				c-0.6,0.1-1.3,0.2-1.9,0.3c2.2,5.3,6.7,10,12.2,11.9c3.8,1.3,7.9,1,11.7-0.4c1.9-0.8,3.7-1.8,5.4-3.1c0.6-0.5,2.3-1.3,1.1-1.4
				c-1.3-0.1,0.6,1,1.1,1.4c1.5,1.1,3.1,2.1,4.8,2.8c3.9,1.7,8.2,2,12.2,0.7c5.5-1.8,10.1-6.6,12.2-11.9
				C118.3,94.5,116.4,94,116,95.1z"/>
		</g>
	</g>
	<g>
		<g>
			<path class="st5" d="M86.6,90.9c0,3.7,0,7.3,0,11c0,1.3,2,1.3,2,0c0-3.7,0-7.3,0-11C88.5,89.6,86.6,89.6,86.6,90.9L86.6,90.9z"/>
		</g>
	</g>
	<g class="st7">
		<path class="st3" d="M41.4,53.8c0,0,3.4-6.8,9.4-13.2c-1.8,1.1-5,2.2-7.1-1c-3.2-4.7-5.5-26.4-5.5-26.4
			C36.7,16.8,41.4,53.8,41.4,53.8z"/>
	</g>
	<g class="st7">
		<path class="st3" d="M130.7,42.4c-1.2,0.8-2.5,1.2-3.8,1.3c4.3,5.5,6.4,10.6,6.4,10.6s6.7-20.6,9.1-30.7
			C142.4,23.7,133.8,40.3,130.7,42.4z"/>
	</g>
	<g>
		<g>
			<path class="st8" d="M106,76.4c1.6-3.6,4.9-6.7,9-6.7c4.4,0,8.7,3.2,11.2,6.7c0.7,1,2.5,0,1.7-1c-6.1-8.3-18.8-11.1-23.6,0
				C103.8,76.5,105.5,77.5,106,76.4L106,76.4z"/>
		</g>
	</g>
	<g>
		<g>
			<path class="st8" d="M70.1,75.4c-4.8-11.1-17.5-8.3-23.6,0c-0.8,1,1,2,1.7,1c2.5-3.4,6.8-6.7,11.2-6.7c4.1,0,7.5,3.1,9,6.7
				C68.9,77.5,70.6,76.5,70.1,75.4L70.1,75.4z"/>
		</g>
	</g>
	<g>
		<g>
			<path class="st5" d="M152.1,82.7c-5.8-2.9-12-5.1-18.1-7.3c-1.4-0.5-3.1,0.6-2.3,2.5c2.8,6.4,6.2,12.9,10.6,18.3
				c2.5,3.1,5.3,5.7,9.3,6.3c3.8,0.5,7.9-0.9,10-4.2C166.5,90.8,157.8,85.5,152.1,82.7z M158.9,95c-1.2,4.1-6.7,4.3-9.8,2.5
				c-2.8-1.7-4.8-5-6.6-7.7c-1.8-2.8-3.6-6-5.2-9.1c2.8,1,5.6,2.1,8.3,3.3C149.3,85.6,160.6,89.4,158.9,95z"/>
		</g>
		<g>
			<path class="st9" d="M133.6,77.3c0,0,8.6,19.5,15.7,22.5c7.1,3.1,14.1-2.9,11-8.8C157.1,85.1,133.6,77.3,133.6,77.3z"/>
		</g>
		<g class="st2">
			<path class="st3" d="M160.9,94.8c-1.1,0.7-4.3,2.5-8.6,2.2c-4.1-0.3-10.5-6.4-13.6-9.7c3,5.3,7,10.9,10.5,12.5
				C154.8,102.2,160.2,99.1,160.9,94.8z"/>
		</g>
	</g>
	<g>
		<g>
			<path class="st5" d="M10.9,98.3c2.1,3.3,6.3,4.7,10,4.2c4-0.6,6.9-3.2,9.3-6.3c4.4-5.5,7.8-11.9,10.6-18.3c0.8-1.9-0.9-3-2.3-2.5
				c-6.1,2.2-12.3,4.4-18.1,7.3C14.8,85.5,6,90.8,10.9,98.3z M26.9,84c2.7-1.2,5.5-2.3,8.3-3.3c-1.6,3.1-3.4,6.3-5.2,9.1
				c-1.7,2.7-3.8,6-6.6,7.7c-3,1.9-8.6,1.6-9.8-2.5C12,89.4,23.2,85.6,26.9,84z"/>
		</g>
		<g>
			<path class="st9" d="M39,77.3c0,0-8.6,19.5-15.7,22.5c-7.1,3.1-14.1-2.9-11-8.8C15.4,85.1,39,77.3,39,77.3z"/>
		</g>
		<g class="st2">
			<path class="st3" d="M11.6,94.8c1.1,0.7,4.3,2.5,8.6,2.2c4.1-0.3,10.5-6.4,13.6-9.7c-3,5.3-7,10.9-10.5,12.5
				C17.8,102.2,12.3,99.1,11.6,94.8z"/>
		</g>
	</g>
	<g>
		<path class="st8" d="M98.3,84.8c0,3.4-4.8,6.1-10.7,6.1c-5.9,0-10.7-2.7-10.7-6.1s4.8-6.1,10.7-6.1C93.5,78.6,98.3,81.4,98.3,84.8
			z"/>
	</g>
	<g>
		<circle class="st1" cx="82.7" cy="82.7" r="2.1"/>
	</g>
</g>
</svg>
