<?xml version="1.0" encoding="utf-8"?>
<!-- Generator: Adobe Illustrator 22.0.1, SVG Export Plug-In . SVG Version: 6.00 Build 0)  -->
<svg version="1.1" id="Calque_1" xmlns="http://www.w3.org/2000/svg" xmlns:xlink="http://www.w3.org/1999/xlink" x="0px" y="0px"
	 viewBox="0 0 168.8 174.7" style="enable-background:new 0 0 168.8 174.7;" xml:space="preserve">
<style type="text/css">
	.st0{fill:#F4C870;}
	.st1{fill:#FFFFFF;}
	.st2{opacity:0.2;}
	.st3{fill:#231F20;}
	.st4{fill:#EB9E99;}
	.st5{fill:#7B653A;}
	.st6{opacity:0.1;}
	.st7{fill:#434342;}
</style>
<g>
	<g>
		<path class="st0" d="M140.2,79.8c-0.7-30.1-24.7-54.3-54.3-54.3c-29.6,0-53.7,24.2-54.3,54.3c-6.5,8.7-10.3,19-10.3,30
			c0,30.7,28.9,55.6,64.6,55.6c35.7,0,64.6-24.9,64.6-55.6C150.5,98.8,146.7,88.5,140.2,79.8z"/>
	</g>
	<g>
		<path class="st0" d="M36.2,58.7c0,0-8.1-49.5-1.5-51.6c6.5-2.1,32.1,22.1,32.1,22.1S48.1,60.2,36.2,58.7z"/>
	</g>
	<g>
		<path class="st0" d="M108.4,30.5c0,0,34.1-22.9,38.2-19.3c4.1,3.7-8.1,45.3-10.7,47.9C133.2,61.8,106.2,33.9,108.4,30.5z"/>
	</g>
	<g>
		<path class="st1" d="M140.8,79.8c-3.6-1.1-13.4,7.2-21,9c-7.7,1.8-13.1-3.3-17.3-9.1c-7-9.7-22.6-9.9-32.5,0
			c-5.1,5.1-9.7,10.8-17.3,9.1c-7.7-1.8-17.5-10-21-9c-6.5,8.7-10.3,19-10.3,30c0,30.7,28.9,55.6,64.6,55.6c0.1,0,0.2,0,0.3,0
			c0.1,0,0.2,0,0.3,0c35.7,0,64.6-24.9,64.6-55.6C151.1,98.8,147.3,88.5,140.8,79.8z"/>
	</g>
	<g class="st2">
		<path class="st3" d="M31.6,79.8c0,0-9,31.4,5,53.2c18.8,29.1,49.9,32.4,49.9,32.4s-41.5-0.1-56.9-28.3
			C14.2,108.8,23.4,91,31.6,79.8z"/>
	</g>
	<g>
		<path class="st4" d="M61.2,31.7c0,0-22.7-21.9-24.3-18.4c-1.6,3.5,3.2,40.6,3.2,40.6S48.2,38,61.2,31.7z"/>
	</g>
	<g>
		<path class="st4" d="M113.7,33.4c0,0,27.1-17.6,28.2-15c1.1,2.6-9.9,36-9.9,36S126,39.9,113.7,33.4z"/>
	</g>
	<g>
		<path class="st5" d="M85.9,166.6c-36.3,0-65.8-25.5-65.8-56.7c0-10.8,3.6-21.3,10.3-30.4c0.2-7.3,1.7-14.3,4.6-20.9
			c-1.4-8.7-7.2-47.6-2.1-52c1.8-1.5,5.7-1.8,19.9,9.2c7.6,5.9,14.7,12.4,14.8,12.5L66,30c-0.1-0.1-7.1-6.5-14.6-12.4
			c-14.2-11-16.7-9.5-16.9-9.3c-2.8,2.4-0.7,27.3,2.9,50.1l0.1,0.3l-0.1,0.3c-2.8,6.5-4.4,13.5-4.5,20.7l0,0.4l-0.2,0.3
			c-6.6,8.8-10,18.9-10,29.3c0,30,28.5,54.4,63.4,54.4c35,0,63.4-24.4,63.4-54.4c0-10.4-3.5-20.6-10-29.3l-0.2-0.3l0-0.4
			c-0.1-4.9-2.6-14.8-4.3-20.3l-0.1-0.4l0.1-0.4c5.8-15.7,13.7-41,11.5-46.2c-0.1-0.2-0.2-0.4-0.7-0.5c-5.1-1.4-25.1,11.1-36.5,19.4
			l-1.4-1.9c3.1-2.3,30.7-22,38.5-19.8c1.1,0.3,1.8,1,2.2,1.9c3.2,7.5-9.3,42-11.3,47.5c1.5,4.9,4.1,14.7,4.3,20.2
			c6.7,9.1,10.3,19.6,10.3,30.5C151.7,141.2,122.2,166.6,85.9,166.6z"/>
	</g>
	<g>
		<path class="st5" d="M56.9,34.1c0,0,0.8-0.7,2.4-1.7c1.6-1,3.9-2.3,6.8-3.6c2.9-1.3,6.5-2.6,10.4-3.4c2-0.4,4-0.7,6.2-0.9
			c2.1-0.2,4.3-0.2,6.4,0c2.2,0.2,4.3,0.4,6.4,0.8c2.1,0.4,4.1,1,6,1.6c3.8,1.3,7.2,2.9,10,4.5c2.8,1.6,4.9,3.2,6.3,4.4
			c1.4,1.2,2.2,2,2.2,2s-0.9-0.6-2.4-1.6c-1.6-1-3.9-2.3-6.7-3.6c-2.8-1.3-6.2-2.7-10-3.8c-1.9-0.5-3.8-1-5.8-1.3
			c-2-0.4-4.1-0.6-6.1-0.7c-2-0.1-4.1-0.2-6.2,0c-2,0.1-4,0.3-5.9,0.7c-3.8,0.6-7.4,1.6-10.3,2.6c-3,1-5.4,2-7.1,2.8
			C57.8,33.6,56.9,34.1,56.9,34.1z"/>
	</g>
	<g>
		<path class="st1" d="M74.1,53c0,2.9-2.4,5.3-5.3,5.3s-5.3-2.4-5.3-5.3c0-2.9,2.4-5.3,5.3-5.3S74.1,50,74.1,53z"/>
	</g>
	<g>
		<path class="st1" d="M109.1,53.4c0,2.9-2.4,5.3-5.3,5.3c-2.9,0-5.3-2.4-5.3-5.3c0-2.9,2.4-5.3,5.3-5.3
			C106.7,48.1,109.1,50.5,109.1,53.4z"/>
	</g>
	<g>
		<g>
			<path class="st5" d="M85.2,91c0,14.1,0,28.3,0,42.4c0,1.3,2,1.3,2,0c0-14.1,0-28.3,0-42.4C87.2,89.7,85.2,89.7,85.2,91L85.2,91z"
				/>
		</g>
	</g>
	<g class="st6">
		<path class="st3" d="M40.1,53.9c0,0,3.4-6.8,9.4-13.2c-1.8,1.1-5,2.2-7.1-1c-3.2-4.7-5.5-26.4-5.5-26.4
			C35.3,16.9,40.1,53.9,40.1,53.9z"/>
	</g>
	<g>
		<g>
			<path class="st5" d="M111.6,107c-0.4,13.8-11.3,25.4-25.4,25.4c-14.1,0-25-11.5-25.4-25.4c0-1.3-2-1.3-2,0
				c0.4,14.9,12.2,27.4,27.4,27.4c15.2,0,27-12.5,27.4-27.4C113.6,105.7,111.6,105.7,111.6,107L111.6,107z"/>
		</g>
	</g>
	<g class="st6">
		<path class="st3" d="M129.5,42.5c-1.2,0.8-2.5,1.2-3.8,1.3c4.3,5.5,6.4,10.6,6.4,10.6s6.7-20.6,9.1-30.7
			C141.2,23.8,132.6,40.4,129.5,42.5z"/>
	</g>
	<g>
		<path class="st7" d="M75.7,61.6c0,0-7.8-2.6-19.8-2c-6,0.3-20.1,2.7-20.1,2.7l-0.2,5.6l2.8,1.7c0,0-0.7,18.4,17.2,19.9
			C73.5,91,76.3,69.5,75.7,61.6z"/>
	</g>
	<g>
		<path class="st7" d="M96.7,61.6c0,0,7.8-2.6,19.8-1.9c6,0.3,20.1,2.7,20.1,2.7l0.2,5.6l-2.8,1.7c0,0,0.6,18.4-17.2,19.9
			C98.9,90.9,96.1,69.5,96.7,61.6z"/>
	</g>
	<g>
		<path class="st7" d="M75.7,61.6c0,0,5.7-2.9,10.8-2.9c5.1,0,10.2,2.9,10.2,2.9l0.9,3.5l-0.9,1.4c0,0-5.2-3.9-10.1-3.9
			c-4.9,0-11,3.9-11,3.9s-1-1.1-1-1.3S75.7,61.6,75.7,61.6z"/>
	</g>
	<g>
		<path class="st7" d="M96.9,84.9c0,3.4-4.8,6.1-10.7,6.1c-5.9,0-10.7-2.7-10.7-6.1c0-3.4,4.8-6.1,10.7-6.1
			C92.1,78.8,96.9,81.5,96.9,84.9z"/>
	</g>
	<g>
		<circle class="st1" cx="81.3" cy="82.8" r="2.1"/>
	</g>
</g>
</svg>
