<?xml version="1.0" encoding="utf-8"?>
<!-- Generator: Adobe Illustrator 22.0.1, SVG Export Plug-In . SVG Version: 6.00 Build 0)  -->
<svg version="1.1" id="Calque_1" xmlns="http://www.w3.org/2000/svg" xmlns:xlink="http://www.w3.org/1999/xlink" x="0px" y="0px"
	 viewBox="0 0 90 68" style="enable-background:new 0 0 90 68;" xml:space="preserve">
<style type="text/css">
	.st0{fill:#EB9E99;}
</style>
<g>
	<path class="st0" d="M66,28.6c-3.2,0-5.8,3.4-5.8,7.7c0,4.3,2.5,7.7,5.8,7.7c3.2,0,5.8-3.4,5.8-7.7C71.8,32,69.2,28.6,66,28.6
		L66,28.6z M66,28.6"/>
	<path class="st0" d="M32.6,36.3c0-4.3-2.5-7.7-5.8-7.7c-3.2,0-5.8,3.4-5.8,7.7c0,4.3,2.5,7.7,5.8,7.7C30,44,32.6,40.6,32.6,36.3
		L32.6,36.3z M32.6,36.3"/>
	<path class="st0" d="M38.3,33.7c4.1,0,7.4-4.4,7.4-9.9c0-5.4-3.3-9.9-7.4-9.9c-4.1,0-7.4,4.4-7.4,9.9
		C30.9,29.3,34.2,33.7,38.3,33.7L38.3,33.7z M38.3,33.7"/>
	<path class="st0" d="M60.1,43.3c-0.2-0.2-0.3-0.4-0.4-0.6c-1.6-3.5-6.2-7.7-13.5-7.8L46,35c-7.2,0-11.7,3.9-13.5,7.6
		c-0.1,0.1-0.2,0.3-0.3,0.5c-0.2,0.2-0.3,0.4-0.5,0.6c-1.5,2.4-2.3,5-2.2,7.5c0.1,2.6,1.2,4.7,3.1,5.9c0.8,0.5,1.6,0.7,2.4,0.7
		c1.8,0,3.4-1,5.2-2.1c1.2-0.7,2.4-1.5,3.8-2c0.2-0.1,0.8-0.1,1.8-0.1c1.2,0,2.1,0.1,2.3,0.2c1.3,0.6,2.5,1.4,3.6,2.1
		c1.7,1.1,3.3,2.2,5.1,2.2c0.8,0,1.5-0.2,2.2-0.6c3.8-2.2,4.5-8.1,1.6-13.3C60.4,43.8,60.2,43.5,60.1,43.3L60.1,43.3z M60.1,43.3"/>
	<path class="st0" d="M53.9,33.7c4.1,0,7.4-4.4,7.4-9.9c0-5.4-3.3-9.9-7.4-9.9c-4.1,0-7.4,4.4-7.4,9.9
		C46.5,29.3,49.8,33.7,53.9,33.7L53.9,33.7z M53.9,33.7"/>
</g>
</svg>
