<?xml version="1.0" encoding="utf-8"?>
<!-- Generator: Adobe Illustrator 22.0.1, SVG Export Plug-In . SVG Version: 6.00 Build 0)  -->
<svg version="1.1" id="Calque_1" xmlns="http://www.w3.org/2000/svg" xmlns:xlink="http://www.w3.org/1999/xlink" x="0px" y="0px"
	 viewBox="0 0 360 99" style="enable-background:new 0 0 360 99;" xml:space="preserve">
<style type="text/css">
	.st0{fill:#EB9E99;}
	.st1{fill:#F4C870;}
	.st2{font-family:'Bitter-Regular';}
	.st3{font-size:12px;}
</style>
<g>
	<path class="st0" d="M89.2,18.8c-1.1,0-1.9,1.1-1.9,2.5c0,1.4,0.8,2.5,1.9,2.5c1.1,0,1.9-1.1,1.9-2.5
		C91.2,19.9,90.3,18.8,89.2,18.8L89.2,18.8z M89.2,18.8"/>
	<path class="st0" d="M80,20.5c1.3,0,2.4-1.5,2.4-3.3c0-1.8-1.1-3.3-2.4-3.3c-1.3,0-2.4,1.5-2.4,3.3C77.6,19,78.7,20.5,80,20.5
		L80,20.5z M80,20.5"/>
	<path class="st0" d="M87.3,23.7c-0.1-0.1-0.1-0.1-0.1-0.2c-0.5-1.2-2-2.5-4.5-2.6l-0.1,0c-2.4,0-3.9,1.3-4.5,2.5
		c0,0-0.1,0.1-0.1,0.2c-0.1,0.1-0.1,0.1-0.2,0.2c-0.5,0.8-0.8,1.7-0.7,2.5c0,0.9,0.4,1.6,1,2c0.2,0.2,0.5,0.2,0.8,0.2
		c0.6,0,1.1-0.3,1.7-0.7c0.4-0.2,0.8-0.5,1.2-0.7c0.1,0,0.3,0,0.6,0c0.4,0,0.7,0,0.8,0.1c0.4,0.2,0.8,0.4,1.2,0.7
		c0.6,0.4,1.1,0.7,1.7,0.7c0.3,0,0.5-0.1,0.7-0.2c1.3-0.7,1.5-2.7,0.5-4.4C87.4,23.8,87.3,23.7,87.3,23.7L87.3,23.7z M87.3,23.7"/>
	<path class="st0" d="M85.2,20.5c1.3,0,2.4-1.5,2.4-3.3c0-1.8-1.1-3.3-2.4-3.3c-1.3,0-2.4,1.5-2.4,3.3C82.8,19,83.9,20.5,85.2,20.5
		L85.2,20.5z M85.2,20.5"/>
	<path class="st0" d="M78.1,21.3c0-1.4-0.8-2.5-1.9-2.5c-1.1,0-1.9,1.1-1.9,2.5c0,1.4,0.8,2.5,1.9,2.5
		C77.3,23.9,78.1,22.8,78.1,21.3L78.1,21.3z M78.1,21.3"/>
</g>
<g>
	<path class="st0" d="M109.2,18.8c-1.1,0-1.9,1.1-1.9,2.5c0,1.4,0.8,2.5,1.9,2.5c1.1,0,1.9-1.1,1.9-2.5
		C111.2,19.9,110.3,18.8,109.2,18.8L109.2,18.8z M109.2,18.8"/>
	<path class="st0" d="M100,20.5c1.3,0,2.4-1.5,2.4-3.3c0-1.8-1.1-3.3-2.4-3.3c-1.3,0-2.4,1.5-2.4,3.3C97.6,19,98.7,20.5,100,20.5
		L100,20.5z M100,20.5"/>
	<path class="st0" d="M107.3,23.7c-0.1-0.1-0.1-0.1-0.1-0.2c-0.5-1.2-2-2.5-4.5-2.6l-0.1,0c-2.4,0-3.9,1.3-4.5,2.5
		c0,0-0.1,0.1-0.1,0.2c-0.1,0.1-0.1,0.1-0.2,0.2c-0.5,0.8-0.8,1.7-0.7,2.5c0,0.9,0.4,1.6,1,2c0.2,0.2,0.5,0.2,0.8,0.2
		c0.6,0,1.1-0.3,1.7-0.7c0.4-0.2,0.8-0.5,1.2-0.7c0.1,0,0.3,0,0.6,0c0.4,0,0.7,0,0.8,0.1c0.4,0.2,0.8,0.4,1.2,0.7
		c0.6,0.4,1.1,0.7,1.7,0.7c0.3,0,0.5-0.1,0.7-0.2c1.3-0.7,1.5-2.7,0.5-4.4C107.4,23.8,107.3,23.7,107.3,23.7L107.3,23.7z
		 M107.3,23.7"/>
	<path class="st0" d="M105.2,20.5c1.3,0,2.4-1.5,2.4-3.3c0-1.8-1.1-3.3-2.4-3.3c-1.3,0-2.4,1.5-2.4,3.3
		C102.8,19,103.9,20.5,105.2,20.5L105.2,20.5z M105.2,20.5"/>
	<path class="st0" d="M98.1,21.3c0-1.4-0.8-2.5-1.9-2.5c-1.1,0-1.9,1.1-1.9,2.5c0,1.4,0.8,2.5,1.9,2.5
		C97.3,23.9,98.1,22.8,98.1,21.3L98.1,21.3z M98.1,21.3"/>
</g>
<g>
	<path class="st0" d="M129.2,18.8c-1.1,0-1.9,1.1-1.9,2.5c0,1.4,0.8,2.5,1.9,2.5c1.1,0,1.9-1.1,1.9-2.5
		C131.2,19.9,130.3,18.8,129.2,18.8L129.2,18.8z M129.2,18.8"/>
	<path class="st0" d="M120,20.5c1.3,0,2.4-1.5,2.4-3.3c0-1.8-1.1-3.3-2.4-3.3c-1.3,0-2.4,1.5-2.4,3.3C117.6,19,118.7,20.5,120,20.5
		L120,20.5z M120,20.5"/>
	<path class="st0" d="M127.3,23.7c-0.1-0.1-0.1-0.1-0.1-0.2c-0.5-1.2-2-2.5-4.5-2.6l-0.1,0c-2.4,0-3.9,1.3-4.5,2.5
		c0,0-0.1,0.1-0.1,0.2c-0.1,0.1-0.1,0.1-0.2,0.2c-0.5,0.8-0.8,1.7-0.7,2.5c0,0.9,0.4,1.6,1,2c0.2,0.2,0.5,0.2,0.8,0.2
		c0.6,0,1.1-0.3,1.7-0.7c0.4-0.2,0.8-0.5,1.2-0.7c0.1,0,0.3,0,0.6,0c0.4,0,0.7,0,0.8,0.1c0.4,0.2,0.8,0.4,1.2,0.7
		c0.6,0.4,1.1,0.7,1.7,0.7c0.3,0,0.5-0.1,0.7-0.2c1.3-0.7,1.5-2.7,0.5-4.4C127.4,23.8,127.3,23.7,127.3,23.7L127.3,23.7z
		 M127.3,23.7"/>
	<path class="st0" d="M125.2,20.5c1.3,0,2.4-1.5,2.4-3.3c0-1.8-1.1-3.3-2.4-3.3c-1.3,0-2.4,1.5-2.4,3.3
		C122.8,19,123.9,20.5,125.2,20.5L125.2,20.5z M125.2,20.5"/>
	<path class="st0" d="M118.1,21.3c0-1.4-0.8-2.5-1.9-2.5c-1.1,0-1.9,1.1-1.9,2.5c0,1.4,0.8,2.5,1.9,2.5
		C117.3,23.9,118.1,22.8,118.1,21.3L118.1,21.3z M118.1,21.3"/>
</g>
<g>
	<path class="st0" d="M149.2,18.8c-1.1,0-1.9,1.1-1.9,2.5c0,1.4,0.8,2.5,1.9,2.5c1.1,0,1.9-1.1,1.9-2.5
		C151.2,19.9,150.3,18.8,149.2,18.8L149.2,18.8z M149.2,18.8"/>
	<path class="st0" d="M140,20.5c1.3,0,2.4-1.5,2.4-3.3c0-1.8-1.1-3.3-2.4-3.3c-1.3,0-2.4,1.5-2.4,3.3C137.6,19,138.7,20.5,140,20.5
		L140,20.5z M140,20.5"/>
	<path class="st0" d="M147.3,23.7c-0.1-0.1-0.1-0.1-0.1-0.2c-0.5-1.2-2-2.5-4.5-2.6l-0.1,0c-2.4,0-3.9,1.3-4.5,2.5
		c0,0-0.1,0.1-0.1,0.2c-0.1,0.1-0.1,0.1-0.2,0.2c-0.5,0.8-0.8,1.7-0.7,2.5c0,0.9,0.4,1.6,1,2c0.2,0.2,0.5,0.2,0.8,0.2
		c0.6,0,1.1-0.3,1.7-0.7c0.4-0.2,0.8-0.5,1.2-0.7c0.1,0,0.3,0,0.6,0c0.4,0,0.7,0,0.8,0.1c0.4,0.2,0.8,0.4,1.2,0.7
		c0.6,0.4,1.1,0.7,1.7,0.7c0.3,0,0.5-0.1,0.7-0.2c1.3-0.7,1.5-2.7,0.5-4.4C147.4,23.8,147.3,23.7,147.3,23.7L147.3,23.7z
		 M147.3,23.7"/>
	<path class="st0" d="M145.2,20.5c1.3,0,2.4-1.5,2.4-3.3c0-1.8-1.1-3.3-2.4-3.3c-1.3,0-2.4,1.5-2.4,3.3
		C142.8,19,143.9,20.5,145.2,20.5L145.2,20.5z M145.2,20.5"/>
	<path class="st0" d="M138.1,21.3c0-1.4-0.8-2.5-1.9-2.5c-1.1,0-1.9,1.1-1.9,2.5c0,1.4,0.8,2.5,1.9,2.5
		C137.3,23.9,138.1,22.8,138.1,21.3L138.1,21.3z M138.1,21.3"/>
</g>
<g>
	<path class="st0" d="M89.2,45.3c-1.1,0-1.9,1.1-1.9,2.5c0,1.4,0.8,2.5,1.9,2.5c1.1,0,1.9-1.1,1.9-2.5
		C91.2,46.4,90.3,45.3,89.2,45.3L89.2,45.3z M89.2,45.3"/>
	<path class="st0" d="M80,47c1.3,0,2.4-1.5,2.4-3.3c0-1.8-1.1-3.3-2.4-3.3c-1.3,0-2.4,1.5-2.4,3.3C77.6,45.5,78.7,47,80,47L80,47z
		 M80,47"/>
	<path class="st0" d="M87.3,50.1c-0.1-0.1-0.1-0.1-0.1-0.2c-0.5-1.2-2-2.5-4.5-2.6l-0.1,0c-2.4,0-3.9,1.3-4.5,2.5
		c0,0-0.1,0.1-0.1,0.2c-0.1,0.1-0.1,0.1-0.2,0.2c-0.5,0.8-0.8,1.7-0.7,2.5c0,0.9,0.4,1.6,1,2c0.2,0.2,0.5,0.2,0.8,0.2
		c0.6,0,1.1-0.3,1.7-0.7c0.4-0.2,0.8-0.5,1.2-0.7c0.1,0,0.3,0,0.6,0c0.4,0,0.7,0,0.8,0.1c0.4,0.2,0.8,0.4,1.2,0.7
		c0.6,0.4,1.1,0.7,1.7,0.7c0.3,0,0.5-0.1,0.7-0.2c1.3-0.7,1.5-2.7,0.5-4.4C87.4,50.3,87.3,50.2,87.3,50.1L87.3,50.1z M87.3,50.1"/>
	<path class="st0" d="M85.2,47c1.3,0,2.4-1.5,2.4-3.3c0-1.8-1.1-3.3-2.4-3.3c-1.3,0-2.4,1.5-2.4,3.3C82.8,45.5,83.9,47,85.2,47
		L85.2,47z M85.2,47"/>
	<path class="st0" d="M78.1,47.8c0-1.4-0.8-2.5-1.9-2.5c-1.1,0-1.9,1.1-1.9,2.5c0,1.4,0.8,2.5,1.9,2.5
		C77.3,50.4,78.1,49.2,78.1,47.8L78.1,47.8z M78.1,47.8"/>
</g>
<g>
	<path class="st0" d="M109.2,45.3c-1.1,0-1.9,1.1-1.9,2.5c0,1.4,0.8,2.5,1.9,2.5c1.1,0,1.9-1.1,1.9-2.5
		C111.2,46.4,110.3,45.3,109.2,45.3L109.2,45.3z M109.2,45.3"/>
	<path class="st0" d="M100,47c1.3,0,2.4-1.5,2.4-3.3c0-1.8-1.1-3.3-2.4-3.3c-1.3,0-2.4,1.5-2.4,3.3C97.6,45.5,98.7,47,100,47L100,47
		z M100,47"/>
	<path class="st0" d="M107.3,50.1c-0.1-0.1-0.1-0.1-0.1-0.2c-0.5-1.2-2-2.5-4.5-2.6l-0.1,0c-2.4,0-3.9,1.3-4.5,2.5
		c0,0-0.1,0.1-0.1,0.2c-0.1,0.1-0.1,0.1-0.2,0.2c-0.5,0.8-0.8,1.7-0.7,2.5c0,0.9,0.4,1.6,1,2c0.2,0.2,0.5,0.2,0.8,0.2
		c0.6,0,1.1-0.3,1.7-0.7c0.4-0.2,0.8-0.5,1.2-0.7c0.1,0,0.3,0,0.6,0c0.4,0,0.7,0,0.8,0.1c0.4,0.2,0.8,0.4,1.2,0.7
		c0.6,0.4,1.1,0.7,1.7,0.7c0.3,0,0.5-0.1,0.7-0.2c1.3-0.7,1.5-2.7,0.5-4.4C107.4,50.3,107.3,50.2,107.3,50.1L107.3,50.1z
		 M107.3,50.1"/>
	<path class="st0" d="M105.2,47c1.3,0,2.4-1.5,2.4-3.3c0-1.8-1.1-3.3-2.4-3.3c-1.3,0-2.4,1.5-2.4,3.3C102.8,45.5,103.9,47,105.2,47
		L105.2,47z M105.2,47"/>
	<path class="st0" d="M98.1,47.8c0-1.4-0.8-2.5-1.9-2.5c-1.1,0-1.9,1.1-1.9,2.5c0,1.4,0.8,2.5,1.9,2.5
		C97.3,50.4,98.1,49.2,98.1,47.8L98.1,47.8z M98.1,47.8"/>
</g>
<g>
	<path class="st0" d="M89.2,71.8c-1.1,0-1.9,1.1-1.9,2.5c0,1.4,0.8,2.5,1.9,2.5c1.1,0,1.9-1.1,1.9-2.5
		C91.2,72.9,90.3,71.8,89.2,71.8L89.2,71.8z M89.2,71.8"/>
	<path class="st0" d="M80,73.4c1.3,0,2.4-1.5,2.4-3.3c0-1.8-1.1-3.3-2.4-3.3c-1.3,0-2.4,1.5-2.4,3.3C77.6,72,78.7,73.4,80,73.4
		L80,73.4z M80,73.4"/>
	<path class="st0" d="M87.3,76.6c-0.1-0.1-0.1-0.1-0.1-0.2c-0.5-1.2-2-2.5-4.5-2.6l-0.1,0c-2.4,0-3.9,1.3-4.5,2.5
		c0,0-0.1,0.1-0.1,0.2c-0.1,0.1-0.1,0.1-0.2,0.2c-0.5,0.8-0.8,1.7-0.7,2.5c0,0.9,0.4,1.6,1,2c0.2,0.2,0.5,0.2,0.8,0.2
		c0.6,0,1.1-0.3,1.7-0.7c0.4-0.2,0.8-0.5,1.2-0.7c0.1,0,0.3,0,0.6,0c0.4,0,0.7,0,0.8,0.1c0.4,0.2,0.8,0.4,1.2,0.7
		c0.6,0.4,1.1,0.7,1.7,0.7c0.3,0,0.5-0.1,0.7-0.2c1.3-0.7,1.5-2.7,0.5-4.4C87.4,76.8,87.3,76.7,87.3,76.6L87.3,76.6z M87.3,76.6"/>
	<path class="st0" d="M85.2,73.4c1.3,0,2.4-1.5,2.4-3.3c0-1.8-1.1-3.3-2.4-3.3c-1.3,0-2.4,1.5-2.4,3.3C82.8,72,83.9,73.4,85.2,73.4
		L85.2,73.4z M85.2,73.4"/>
	<path class="st0" d="M78.1,74.3c0-1.4-0.8-2.5-1.9-2.5c-1.1,0-1.9,1.1-1.9,2.5c0,1.4,0.8,2.5,1.9,2.5
		C77.3,76.9,78.1,75.7,78.1,74.3L78.1,74.3z M78.1,74.3"/>
</g>
<g>
	<path class="st0" d="M109.2,71.8c-1.1,0-1.9,1.1-1.9,2.5c0,1.4,0.8,2.5,1.9,2.5c1.1,0,1.9-1.1,1.9-2.5
		C111.2,72.9,110.3,71.8,109.2,71.8L109.2,71.8z M109.2,71.8"/>
	<path class="st0" d="M100,73.4c1.3,0,2.4-1.5,2.4-3.3c0-1.8-1.1-3.3-2.4-3.3c-1.3,0-2.4,1.5-2.4,3.3C97.6,72,98.7,73.4,100,73.4
		L100,73.4z M100,73.4"/>
	<path class="st0" d="M107.3,76.6c-0.1-0.1-0.1-0.1-0.1-0.2c-0.5-1.2-2-2.5-4.5-2.6l-0.1,0c-2.4,0-3.9,1.3-4.5,2.5
		c0,0-0.1,0.1-0.1,0.2c-0.1,0.1-0.1,0.1-0.2,0.2c-0.5,0.8-0.8,1.7-0.7,2.5c0,0.9,0.4,1.6,1,2c0.2,0.2,0.5,0.2,0.8,0.2
		c0.6,0,1.1-0.3,1.7-0.7c0.4-0.2,0.8-0.5,1.2-0.7c0.1,0,0.3,0,0.6,0c0.4,0,0.7,0,0.8,0.1c0.4,0.2,0.8,0.4,1.2,0.7
		c0.6,0.4,1.1,0.7,1.7,0.7c0.3,0,0.5-0.1,0.7-0.2c1.3-0.7,1.5-2.7,0.5-4.4C107.4,76.8,107.3,76.7,107.3,76.6L107.3,76.6z
		 M107.3,76.6"/>
	<path class="st0" d="M105.2,73.4c1.3,0,2.4-1.5,2.4-3.3c0-1.8-1.1-3.3-2.4-3.3c-1.3,0-2.4,1.5-2.4,3.3
		C102.8,72,103.9,73.4,105.2,73.4L105.2,73.4z M105.2,73.4"/>
	<path class="st0" d="M98.1,74.3c0-1.4-0.8-2.5-1.9-2.5c-1.1,0-1.9,1.1-1.9,2.5c0,1.4,0.8,2.5,1.9,2.5
		C97.3,76.9,98.1,75.7,98.1,74.3L98.1,74.3z M98.1,74.3"/>
</g>
<g>
	<path class="st0" d="M129.2,71.8c-1.1,0-1.9,1.1-1.9,2.5c0,1.4,0.8,2.5,1.9,2.5c1.1,0,1.9-1.1,1.9-2.5
		C131.2,72.9,130.3,71.8,129.2,71.8L129.2,71.8z M129.2,71.8"/>
	<path class="st0" d="M120,73.4c1.3,0,2.4-1.5,2.4-3.3c0-1.8-1.1-3.3-2.4-3.3c-1.3,0-2.4,1.5-2.4,3.3C117.6,72,118.7,73.4,120,73.4
		L120,73.4z M120,73.4"/>
	<path class="st0" d="M127.3,76.6c-0.1-0.1-0.1-0.1-0.1-0.2c-0.5-1.2-2-2.5-4.5-2.6l-0.1,0c-2.4,0-3.9,1.3-4.5,2.5
		c0,0-0.1,0.1-0.1,0.2c-0.1,0.1-0.1,0.1-0.2,0.2c-0.5,0.8-0.8,1.7-0.7,2.5c0,0.9,0.4,1.6,1,2c0.2,0.2,0.5,0.2,0.8,0.2
		c0.6,0,1.1-0.3,1.7-0.7c0.4-0.2,0.8-0.5,1.2-0.7c0.1,0,0.3,0,0.6,0c0.4,0,0.7,0,0.8,0.1c0.4,0.2,0.8,0.4,1.2,0.7
		c0.6,0.4,1.1,0.7,1.7,0.7c0.3,0,0.5-0.1,0.7-0.2c1.3-0.7,1.5-2.7,0.5-4.4C127.4,76.8,127.3,76.7,127.3,76.6L127.3,76.6z
		 M127.3,76.6"/>
	<path class="st0" d="M125.2,73.4c1.3,0,2.4-1.5,2.4-3.3c0-1.8-1.1-3.3-2.4-3.3c-1.3,0-2.4,1.5-2.4,3.3
		C122.8,72,123.9,73.4,125.2,73.4L125.2,73.4z M125.2,73.4"/>
	<path class="st0" d="M118.1,74.3c0-1.4-0.8-2.5-1.9-2.5c-1.1,0-1.9,1.1-1.9,2.5c0,1.4,0.8,2.5,1.9,2.5
		C117.3,76.9,118.1,75.7,118.1,74.3L118.1,74.3z M118.1,74.3"/>
</g>
<g>
	<path class="st0" d="M149.2,71.8c-1.1,0-1.9,1.1-1.9,2.5c0,1.4,0.8,2.5,1.9,2.5c1.1,0,1.9-1.1,1.9-2.5
		C151.2,72.9,150.3,71.8,149.2,71.8L149.2,71.8z M149.2,71.8"/>
	<path class="st0" d="M140,73.4c1.3,0,2.4-1.5,2.4-3.3c0-1.8-1.1-3.3-2.4-3.3c-1.3,0-2.4,1.5-2.4,3.3C137.6,72,138.7,73.4,140,73.4
		L140,73.4z M140,73.4"/>
	<path class="st0" d="M147.3,76.6c-0.1-0.1-0.1-0.1-0.1-0.2c-0.5-1.2-2-2.5-4.5-2.6l-0.1,0c-2.4,0-3.9,1.3-4.5,2.5
		c0,0-0.1,0.1-0.1,0.2c-0.1,0.1-0.1,0.1-0.2,0.2c-0.5,0.8-0.8,1.7-0.7,2.5c0,0.9,0.4,1.6,1,2c0.2,0.2,0.5,0.2,0.8,0.2
		c0.6,0,1.1-0.3,1.7-0.7c0.4-0.2,0.8-0.5,1.2-0.7c0.1,0,0.3,0,0.6,0c0.4,0,0.7,0,0.8,0.1c0.4,0.2,0.8,0.4,1.2,0.7
		c0.6,0.4,1.1,0.7,1.7,0.7c0.3,0,0.5-0.1,0.7-0.2c1.3-0.7,1.5-2.7,0.5-4.4C147.4,76.8,147.3,76.7,147.3,76.6L147.3,76.6z
		 M147.3,76.6"/>
	<path class="st0" d="M145.2,73.4c1.3,0,2.4-1.5,2.4-3.3c0-1.8-1.1-3.3-2.4-3.3c-1.3,0-2.4,1.5-2.4,3.3
		C142.8,72,143.9,73.4,145.2,73.4L145.2,73.4z M145.2,73.4"/>
	<path class="st0" d="M138.1,74.3c0-1.4-0.8-2.5-1.9-2.5c-1.1,0-1.9,1.1-1.9,2.5c0,1.4,0.8,2.5,1.9,2.5
		C137.3,76.9,138.1,75.7,138.1,74.3L138.1,74.3z M138.1,74.3"/>
</g>
<g>
	<path class="st0" d="M312.1,19.3c-1.1,0-1.9,1.1-1.9,2.5c0,1.4,0.8,2.5,1.9,2.5c1.1,0,1.9-1.1,1.9-2.5
		C314,20.4,313.1,19.3,312.1,19.3L312.1,19.3z M312.1,19.3"/>
	<path class="st0" d="M302.8,21c1.3,0,2.4-1.5,2.4-3.3c0-1.8-1.1-3.3-2.4-3.3c-1.3,0-2.4,1.5-2.4,3.3C300.4,19.5,301.5,21,302.8,21
		L302.8,21z M302.8,21"/>
	<path class="st0" d="M310.1,24.2C310,24.1,310,24,310,24c-0.5-1.2-2-2.5-4.5-2.6l-0.1,0c-2.4,0-3.9,1.3-4.5,2.5
		c0,0-0.1,0.1-0.1,0.2c-0.1,0.1-0.1,0.1-0.2,0.2c-0.5,0.8-0.8,1.7-0.7,2.5c0,0.9,0.4,1.6,1,2c0.2,0.2,0.5,0.2,0.8,0.2
		c0.6,0,1.1-0.3,1.7-0.7c0.4-0.2,0.8-0.5,1.2-0.7c0.1,0,0.3,0,0.6,0c0.4,0,0.7,0,0.8,0.1c0.4,0.2,0.8,0.4,1.2,0.7
		c0.6,0.4,1.1,0.7,1.7,0.7c0.3,0,0.5-0.1,0.7-0.2c1.3-0.7,1.5-2.7,0.5-4.4C310.2,24.3,310.2,24.2,310.1,24.2L310.1,24.2z
		 M310.1,24.2"/>
	<path class="st0" d="M308,21c1.3,0,2.4-1.5,2.4-3.3c0-1.8-1.1-3.3-2.4-3.3c-1.3,0-2.4,1.5-2.4,3.3C305.6,19.5,306.7,21,308,21
		L308,21z M308,21"/>
	<path class="st0" d="M301,21.8c0-1.4-0.8-2.5-1.9-2.5c-1.1,0-1.9,1.1-1.9,2.5c0,1.4,0.8,2.5,1.9,2.5C300.1,24.4,301,23.3,301,21.8
		L301,21.8z M301,21.8"/>
</g>
<g>
	<path class="st0" d="M332.1,19.3c-1.1,0-1.9,1.1-1.9,2.5c0,1.4,0.8,2.5,1.9,2.5c1.1,0,1.9-1.1,1.9-2.5
		C334,20.4,333.1,19.3,332.1,19.3L332.1,19.3z M332.1,19.3"/>
	<path class="st0" d="M322.8,21c1.3,0,2.4-1.5,2.4-3.3c0-1.8-1.1-3.3-2.4-3.3c-1.3,0-2.4,1.5-2.4,3.3C320.4,19.5,321.5,21,322.8,21
		L322.8,21z M322.8,21"/>
	<path class="st0" d="M330.1,24.2C330,24.1,330,24,330,24c-0.5-1.2-2-2.5-4.5-2.6l-0.1,0c-2.4,0-3.9,1.3-4.5,2.5
		c0,0-0.1,0.1-0.1,0.2c-0.1,0.1-0.1,0.1-0.2,0.2c-0.5,0.8-0.8,1.7-0.7,2.5c0,0.9,0.4,1.6,1,2c0.2,0.2,0.5,0.2,0.8,0.2
		c0.6,0,1.1-0.3,1.7-0.7c0.4-0.2,0.8-0.5,1.2-0.7c0.1,0,0.3,0,0.6,0c0.4,0,0.7,0,0.8,0.1c0.4,0.2,0.8,0.4,1.2,0.7
		c0.6,0.4,1.1,0.7,1.7,0.7c0.3,0,0.5-0.1,0.7-0.2c1.3-0.7,1.5-2.7,0.5-4.4C330.2,24.3,330.2,24.2,330.1,24.2L330.1,24.2z
		 M330.1,24.2"/>
	<path class="st0" d="M328,21c1.3,0,2.4-1.5,2.4-3.3c0-1.8-1.1-3.3-2.4-3.3c-1.3,0-2.4,1.5-2.4,3.3C325.6,19.5,326.7,21,328,21
		L328,21z M328,21"/>
	<path class="st0" d="M321,21.8c0-1.4-0.8-2.5-1.9-2.5c-1.1,0-1.9,1.1-1.9,2.5c0,1.4,0.8,2.5,1.9,2.5C320.1,24.4,321,23.3,321,21.8
		L321,21.8z M321,21.8"/>
</g>
<g>
	<path class="st0" d="M312.1,45.8c-1.1,0-1.9,1.1-1.9,2.5c0,1.4,0.8,2.5,1.9,2.5c1.1,0,1.9-1.1,1.9-2.5
		C314,46.9,313.1,45.8,312.1,45.8L312.1,45.8z M312.1,45.8"/>
	<path class="st0" d="M302.8,47.5c1.3,0,2.4-1.5,2.4-3.3c0-1.8-1.1-3.3-2.4-3.3c-1.3,0-2.4,1.5-2.4,3.3
		C300.4,46,301.5,47.5,302.8,47.5L302.8,47.5z M302.8,47.5"/>
	<path class="st0" d="M310.1,50.7c-0.1-0.1-0.1-0.1-0.1-0.2c-0.5-1.2-2-2.5-4.5-2.6l-0.1,0c-2.4,0-3.9,1.3-4.5,2.5
		c0,0-0.1,0.1-0.1,0.2c-0.1,0.1-0.1,0.1-0.2,0.2c-0.5,0.8-0.8,1.7-0.7,2.5c0,0.9,0.4,1.6,1,2c0.2,0.2,0.5,0.2,0.8,0.2
		c0.6,0,1.1-0.3,1.7-0.7c0.4-0.2,0.8-0.5,1.2-0.7c0.1,0,0.3,0,0.6,0c0.4,0,0.7,0,0.8,0.1c0.4,0.2,0.8,0.4,1.2,0.7
		c0.6,0.4,1.1,0.7,1.7,0.7c0.3,0,0.5-0.1,0.7-0.2c1.3-0.7,1.5-2.7,0.5-4.4C310.2,50.8,310.2,50.7,310.1,50.7L310.1,50.7z
		 M310.1,50.7"/>
	<path class="st0" d="M308,47.5c1.3,0,2.4-1.5,2.4-3.3c0-1.8-1.1-3.3-2.4-3.3c-1.3,0-2.4,1.5-2.4,3.3C305.6,46,306.7,47.5,308,47.5
		L308,47.5z M308,47.5"/>
	<path class="st0" d="M301,48.3c0-1.4-0.8-2.5-1.9-2.5c-1.1,0-1.9,1.1-1.9,2.5c0,1.4,0.8,2.5,1.9,2.5C300.1,50.9,301,49.8,301,48.3
		L301,48.3z M301,48.3"/>
</g>
<g>
	<path class="st0" d="M332.1,45.8c-1.1,0-1.9,1.1-1.9,2.5c0,1.4,0.8,2.5,1.9,2.5c1.1,0,1.9-1.1,1.9-2.5
		C334,46.9,333.1,45.8,332.1,45.8L332.1,45.8z M332.1,45.8"/>
	<path class="st0" d="M322.8,47.5c1.3,0,2.4-1.5,2.4-3.3c0-1.8-1.1-3.3-2.4-3.3c-1.3,0-2.4,1.5-2.4,3.3
		C320.4,46,321.5,47.5,322.8,47.5L322.8,47.5z M322.8,47.5"/>
	<path class="st0" d="M330.1,50.7c-0.1-0.1-0.1-0.1-0.1-0.2c-0.5-1.2-2-2.5-4.5-2.6l-0.1,0c-2.4,0-3.9,1.3-4.5,2.5
		c0,0-0.1,0.1-0.1,0.2c-0.1,0.1-0.1,0.1-0.2,0.2c-0.5,0.8-0.8,1.7-0.7,2.5c0,0.9,0.4,1.6,1,2c0.2,0.2,0.5,0.2,0.8,0.2
		c0.6,0,1.1-0.3,1.7-0.7c0.4-0.2,0.8-0.5,1.2-0.7c0.1,0,0.3,0,0.6,0c0.4,0,0.7,0,0.8,0.1c0.4,0.2,0.8,0.4,1.2,0.7
		c0.6,0.4,1.1,0.7,1.7,0.7c0.3,0,0.5-0.1,0.7-0.2c1.3-0.7,1.5-2.7,0.5-4.4C330.2,50.8,330.2,50.7,330.1,50.7L330.1,50.7z
		 M330.1,50.7"/>
	<path class="st0" d="M328,47.5c1.3,0,2.4-1.5,2.4-3.3c0-1.8-1.1-3.3-2.4-3.3c-1.3,0-2.4,1.5-2.4,3.3C325.6,46,326.7,47.5,328,47.5
		L328,47.5z M328,47.5"/>
	<path class="st0" d="M321,48.3c0-1.4-0.8-2.5-1.9-2.5c-1.1,0-1.9,1.1-1.9,2.5c0,1.4,0.8,2.5,1.9,2.5C320.1,50.9,321,49.8,321,48.3
		L321,48.3z M321,48.3"/>
</g>
<g>
	<path class="st0" d="M312.1,72.3c-1.1,0-1.9,1.1-1.9,2.5c0,1.4,0.8,2.5,1.9,2.5c1.1,0,1.9-1.1,1.9-2.5
		C314,73.4,313.1,72.3,312.1,72.3L312.1,72.3z M312.1,72.3"/>
	<path class="st0" d="M302.8,74c1.3,0,2.4-1.5,2.4-3.3c0-1.8-1.1-3.3-2.4-3.3c-1.3,0-2.4,1.5-2.4,3.3C300.4,72.5,301.5,74,302.8,74
		L302.8,74z M302.8,74"/>
	<path class="st0" d="M310.1,77.1C310,77.1,310,77,310,77c-0.5-1.2-2-2.5-4.5-2.6l-0.1,0c-2.4,0-3.9,1.3-4.5,2.5
		c0,0-0.1,0.1-0.1,0.2c-0.1,0.1-0.1,0.1-0.2,0.2c-0.5,0.8-0.8,1.7-0.7,2.5c0,0.9,0.4,1.6,1,2c0.2,0.2,0.5,0.2,0.8,0.2
		c0.6,0,1.1-0.3,1.7-0.7c0.4-0.2,0.8-0.5,1.2-0.7c0.1,0,0.3,0,0.6,0c0.4,0,0.7,0,0.8,0.1c0.4,0.2,0.8,0.4,1.2,0.7
		c0.6,0.4,1.1,0.7,1.7,0.7c0.3,0,0.5-0.1,0.7-0.2c1.3-0.7,1.5-2.7,0.5-4.4C310.2,77.3,310.2,77.2,310.1,77.1L310.1,77.1z
		 M310.1,77.1"/>
	<path class="st0" d="M308,74c1.3,0,2.4-1.5,2.4-3.3c0-1.8-1.1-3.3-2.4-3.3c-1.3,0-2.4,1.5-2.4,3.3C305.6,72.5,306.7,74,308,74
		L308,74z M308,74"/>
	<path class="st0" d="M301,74.8c0-1.4-0.8-2.5-1.9-2.5c-1.1,0-1.9,1.1-1.9,2.5c0,1.4,0.8,2.5,1.9,2.5C300.1,77.4,301,76.2,301,74.8
		L301,74.8z M301,74.8"/>
</g>
<g>
	<path class="st0" d="M332.1,72.3c-1.1,0-1.9,1.1-1.9,2.5c0,1.4,0.8,2.5,1.9,2.5c1.1,0,1.9-1.1,1.9-2.5
		C334,73.4,333.1,72.3,332.1,72.3L332.1,72.3z M332.1,72.3"/>
	<path class="st0" d="M322.8,74c1.3,0,2.4-1.5,2.4-3.3c0-1.8-1.1-3.3-2.4-3.3c-1.3,0-2.4,1.5-2.4,3.3C320.4,72.5,321.5,74,322.8,74
		L322.8,74z M322.8,74"/>
	<path class="st0" d="M330.1,77.1C330,77.1,330,77,330,77c-0.5-1.2-2-2.5-4.5-2.6l-0.1,0c-2.4,0-3.9,1.3-4.5,2.5
		c0,0-0.1,0.1-0.1,0.2c-0.1,0.1-0.1,0.1-0.2,0.2c-0.5,0.8-0.8,1.7-0.7,2.5c0,0.9,0.4,1.6,1,2c0.2,0.2,0.5,0.2,0.8,0.2
		c0.6,0,1.1-0.3,1.7-0.7c0.4-0.2,0.8-0.5,1.2-0.7c0.1,0,0.3,0,0.6,0c0.4,0,0.7,0,0.8,0.1c0.4,0.2,0.8,0.4,1.2,0.7
		c0.6,0.4,1.1,0.7,1.7,0.7c0.3,0,0.5-0.1,0.7-0.2c1.3-0.7,1.5-2.7,0.5-4.4C330.2,77.3,330.2,77.2,330.1,77.1L330.1,77.1z
		 M330.1,77.1"/>
	<path class="st0" d="M328,74c1.3,0,2.4-1.5,2.4-3.3c0-1.8-1.1-3.3-2.4-3.3c-1.3,0-2.4,1.5-2.4,3.3C325.6,72.5,326.7,74,328,74
		L328,74z M328,74"/>
	<path class="st0" d="M321,74.8c0-1.4-0.8-2.5-1.9-2.5c-1.1,0-1.9,1.1-1.9,2.5c0,1.4,0.8,2.5,1.9,2.5C320.1,77.4,321,76.2,321,74.8
		L321,74.8z M321,74.8"/>
</g>
<g>
	<path class="st0" d="M352.1,72.3c-1.1,0-1.9,1.1-1.9,2.5c0,1.4,0.8,2.5,1.9,2.5c1.1,0,1.9-1.1,1.9-2.5
		C354,73.4,353.1,72.3,352.1,72.3L352.1,72.3z M352.1,72.3"/>
	<path class="st0" d="M342.8,74c1.3,0,2.4-1.5,2.4-3.3c0-1.8-1.1-3.3-2.4-3.3c-1.3,0-2.4,1.5-2.4,3.3C340.4,72.5,341.5,74,342.8,74
		L342.8,74z M342.8,74"/>
	<path class="st0" d="M350.1,77.1C350,77.1,350,77,350,77c-0.5-1.2-2-2.5-4.5-2.6l-0.1,0c-2.4,0-3.9,1.3-4.5,2.5
		c0,0-0.1,0.1-0.1,0.2c-0.1,0.1-0.1,0.1-0.2,0.2c-0.5,0.8-0.8,1.7-0.7,2.5c0,0.9,0.4,1.6,1,2c0.2,0.2,0.5,0.2,0.8,0.2
		c0.6,0,1.1-0.3,1.7-0.7c0.4-0.2,0.8-0.5,1.2-0.7c0.1,0,0.3,0,0.6,0c0.4,0,0.7,0,0.8,0.1c0.4,0.2,0.8,0.4,1.2,0.7
		c0.6,0.4,1.1,0.7,1.7,0.7c0.3,0,0.5-0.1,0.7-0.2c1.3-0.7,1.5-2.7,0.5-4.4C350.2,77.3,350.2,77.2,350.1,77.1L350.1,77.1z
		 M350.1,77.1"/>
	<path class="st0" d="M348,74c1.3,0,2.4-1.5,2.4-3.3c0-1.8-1.1-3.3-2.4-3.3c-1.3,0-2.4,1.5-2.4,3.3C345.6,72.5,346.7,74,348,74
		L348,74z M348,74"/>
	<path class="st0" d="M341,74.8c0-1.4-0.8-2.5-1.9-2.5c-1.1,0-1.9,1.1-1.9,2.5c0,1.4,0.8,2.5,1.9,2.5C340.1,77.4,341,76.2,341,74.8
		L341,74.8z M341,74.8"/>
</g>
<text transform="matrix(1 0 0 1 28.229 28)" class="st1 st2 st3">Calme</text>
<text transform="matrix(1 0 0 1 28.769 55.0002)" class="st1 st2 st3">Docile</text>
<text transform="matrix(1 0 0 1 16.5532 82)" class="st1 st2 st3">Solitude</text>
<text transform="matrix(1 0 0 1 194.5371 28)" class="st1 st2 st3">Facile à éduquer</text>
<text transform="matrix(1 0 0 1 182.3091 55.0002)" class="st1 st2 st3">Entente cogénères</text>
<text transform="matrix(1 0 0 1 189.3892 82)" class="st1 st2 st3">Besoin d’exercice</text>
</svg>
