<?xml version="1.0" encoding="utf-8"?>
<!-- Generator: Adobe Illustrator 22.0.1, SVG Export Plug-In . SVG Version: 6.00 Build 0)  -->
<svg version="1.1" id="Calque_1" xmlns="http://www.w3.org/2000/svg" xmlns:xlink="http://www.w3.org/1999/xlink" x="0px" y="0px"
	 viewBox="0 0 168.8 174.7" style="enable-background:new 0 0 168.8 174.7;" xml:space="preserve">
<style type="text/css">
	.st0{fill:#F4C870;}
	.st1{fill:#FFFFFF;}
	.st2{opacity:0.2;}
	.st3{fill:#231F20;}
	.st4{fill:#EB9E99;}
	.st5{fill:#7B653A;}
	.st6{fill:#434342;}
	.st7{fill:#D18E89;}
	.st8{opacity:0.1;}
</style>
<g>
	<g>
		<path class="st0" d="M139.9,79.4c-0.7-30.1-24.7-54.3-54.3-54.3c-29.6,0-53.7,24.2-54.3,54.3c-6.5,8.7-10.3,19-10.3,30
			c0,30.7,28.9,55.6,64.6,55.6c35.7,0,64.6-24.9,64.6-55.6C150.2,98.3,146.4,88,139.9,79.4z"/>
	</g>
	<g>
		<path class="st0" d="M35.8,58.2c0,0-8.1-49.5-1.5-51.6c6.5-2.1,32.1,22.1,32.1,22.1S47.7,59.8,35.8,58.2z"/>
	</g>
	<g>
		<path class="st0" d="M108,30c0,0,34.1-22.9,38.2-19.3c4.1,3.7-8.1,45.3-10.7,47.9C132.8,61.3,105.9,33.4,108,30z"/>
	</g>
	<g>
		<path class="st1" d="M140.5,79.4c-3.6-1.1-13.4,7.2-21,9c-7.7,1.8-13.1-3.3-17.3-9.1c-7-9.7-22.6-9.9-32.5,0
			c-5.1,5.1-9.7,10.8-17.3,9.1c-7.7-1.8-17.5-10-21-9c-6.5,8.7-10.3,19-10.3,30c0,30.7,28.9,55.6,64.6,55.6c0.1,0,0.2,0,0.3,0
			c0.1,0,0.2,0,0.3,0c35.7,0,64.6-24.9,64.6-55.6C150.8,98.3,147,88,140.5,79.4z"/>
	</g>
	<g class="st2">
		<path class="st3" d="M31.2,79.4c0,0-9,31.4,5,53.2C55,161.6,86.1,165,86.1,165s-41.5-0.1-56.9-28.3
			C13.8,108.4,23.1,90.6,31.2,79.4z"/>
	</g>
	<g>
		<path class="st4" d="M60.8,31.2c0,0-22.7-21.9-24.3-18.4c-1.6,3.5,3.2,40.6,3.2,40.6S47.8,37.5,60.8,31.2z"/>
	</g>
	<g>
		<path class="st4" d="M113.3,33c0,0,27.1-17.6,28.2-15c1.1,2.6-9.9,36-9.9,36S125.7,39.4,113.3,33z"/>
	</g>
	<g>
		<path class="st5" d="M85.5,166.1c-36.3,0-65.8-25.5-65.8-56.7c0-10.8,3.6-21.3,10.3-30.4c0.2-7.3,1.7-14.3,4.6-20.9
			c-1.4-8.7-7.2-47.6-2.1-52c1.8-1.5,5.7-1.8,19.9,9.2c7.6,5.9,14.7,12.4,14.8,12.5l-1.6,1.7C65.5,29.4,58.5,23,51,17.1
			C36.8,6.2,34.3,7.7,34,7.9C31.2,10.2,33.3,35.2,37,58l0.1,0.3l-0.1,0.3c-2.8,6.5-4.4,13.5-4.5,20.7l0,0.4l-0.2,0.3
			c-6.6,8.8-10,18.9-10,29.3c0,30,28.5,54.4,63.4,54.4c35,0,63.4-24.4,63.4-54.4c0-10.4-3.5-20.6-10-29.3l-0.2-0.3l0-0.4
			c-0.1-4.9-2.6-14.8-4.3-20.3l-0.1-0.4l0.1-0.4c5.8-15.7,13.7-41,11.5-46.2c-0.1-0.2-0.2-0.4-0.7-0.5c-5.1-1.4-25.1,11.1-36.5,19.4
			l-1.4-1.9c3.1-2.3,30.7-21.9,38.5-19.8c1.1,0.3,1.8,1,2.2,1.9c3.2,7.5-9.3,42-11.3,47.5c1.5,4.9,4.1,14.7,4.3,20.2
			c6.7,9.1,10.3,19.6,10.3,30.5C151.3,140.7,121.8,166.1,85.5,166.1z"/>
	</g>
	<g>
		<path class="st5" d="M56.5,33.6c0,0,0.8-0.7,2.4-1.7c1.6-1,3.9-2.3,6.8-3.6c2.9-1.3,6.5-2.6,10.4-3.4c2-0.4,4-0.7,6.2-0.9
			c2.1-0.2,4.3-0.2,6.4,0c2.2,0.2,4.3,0.4,6.4,0.8c2.1,0.4,4.1,1,6,1.6c3.8,1.3,7.2,2.9,10,4.5c2.8,1.6,4.9,3.2,6.3,4.4
			c1.4,1.2,2.2,2,2.2,2s-0.9-0.6-2.4-1.6c-1.6-1-3.9-2.3-6.7-3.6c-2.8-1.3-6.2-2.7-10-3.8c-1.9-0.5-3.8-1-5.8-1.3
			c-2-0.4-4.1-0.6-6.1-0.7c-2-0.1-4.1-0.2-6.2,0c-2,0.1-4,0.3-5.9,0.7c-3.8,0.6-7.4,1.6-10.3,2.6c-3,1-5.4,2-7.1,2.8
			C57.5,33.1,56.5,33.6,56.5,33.6z"/>
	</g>
	<g>
		<g>
			
				<ellipse transform="matrix(0.1602 -0.9871 0.9871 0.1602 -21.0251 114.5061)" class="st6" cx="56.8" cy="69.6" rx="8.7" ry="8.7"/>
		</g>
		<g>
			<path class="st1" d="M57.4,66.8c0,1.9-1.5,3.4-3.4,3.4c-1.9,0-3.4-1.5-3.4-3.4c0-1.9,1.5-3.4,3.4-3.4
				C55.9,63.4,57.4,64.9,57.4,66.8z"/>
		</g>
	</g>
	<g>
		<g>
			<ellipse transform="matrix(0.2411 -0.9705 0.9705 0.2411 19.716 164.4308)" class="st6" cx="115" cy="69.6" rx="8.7" ry="8.7"/>
		</g>
		<g>
			<circle class="st1" cx="112.2" cy="66.8" r="3.4"/>
		</g>
	</g>
	<g>
		<path class="st1" d="M73.7,52.5c0,2.9-2.4,5.3-5.3,5.3c-2.9,0-5.3-2.4-5.3-5.3c0-2.9,2.4-5.3,5.3-5.3
			C71.3,47.2,73.7,49.6,73.7,52.5z"/>
	</g>
	<g>
		<path class="st1" d="M108.7,52.9c0,2.9-2.4,5.3-5.3,5.3s-5.3-2.4-5.3-5.3c0-2.9,2.4-5.3,5.3-5.3S108.7,50,108.7,52.9z"/>
	</g>
	<g>
		<path class="st7" d="M115.2,95c0,0-3.7,9.3-12.9,11.6c-9.2,2.3-16.5-5.1-16.5-5.1s-7.2,7.4-16.5,5.1C60.1,104.3,56.5,95,56.5,95
			s-0.5,29.3,8.8,43.3c9,13.6,20.6,13.6,20.6,13.6s11.6,0,20.6-13.6C115.7,124.4,115.2,95,115.2,95z"/>
	</g>
	<g>
		<path class="st4" d="M64.6,137.3c0,0,8.4-9.6,21-9.6s20.9,10.6,20.9,10.6s-8.7,13.8-20.6,13.6C73.9,151.8,64.6,137.3,64.6,137.3z"
			/>
	</g>
	<g>
		<g>
			<path class="st5" d="M114.3,94.8c-4.6,11.3-18.9,14.8-27.7,6c-0.4-0.4-1-0.4-1.4,0c-8.8,8.8-23.1,5.3-27.7-6
				c-0.4-1-1.9-0.9-1.9,0.3c-0.3,19,2.1,45.3,21.1,55.2c17.5,9.1,32.4-9.5,36.4-25.2c2.5-9.7,3.4-20,3.3-30c0-1.3-2-1.3-2,0
				c0.3,17.9-1.6,42.5-18.6,52.7c-5.3,3.2-10.2,4.1-15.9,1.8c-12.2-4.9-17.6-17.3-20-29.3c-1.6-8.2-2.4-16.8-2.2-25.2
				c-0.6,0.1-1.3,0.2-1.9,0.3c2.2,5.3,6.7,10,12.2,11.9c3.8,1.3,7.9,1,11.7-0.4c1.9-0.8,3.7-1.8,5.4-3.1c0.6-0.5,2.3-1.3,1.1-1.4
				c-1.3-0.1,0.6,1,1.1,1.4c1.5,1.1,3.1,2.1,4.8,2.8c3.9,1.7,8.2,2,12.2,0.7c5.5-1.8,10.1-6.6,12.2-11.9
				C116.6,94.1,114.7,93.6,114.3,94.8z"/>
		</g>
	</g>
	<g>
		<g>
			<path class="st5" d="M84.9,90.5c0,3.7,0,7.3,0,11c0,1.3,2,1.3,2,0c0-3.7,0-7.3,0-11C86.8,89.2,84.9,89.2,84.9,90.5L84.9,90.5z"/>
		</g>
	</g>
	<g class="st8">
		<path class="st3" d="M39.7,53.5c0,0,3.4-6.8,9.4-13.2c-1.8,1.1-5,2.2-7.1-1c-3.2-4.7-5.5-26.4-5.5-26.4
			C35,16.4,39.7,53.5,39.7,53.5z"/>
	</g>
	<g class="st8">
		<path class="st3" d="M129,42c-1.2,0.8-2.5,1.2-3.8,1.3c4.3,5.5,6.4,10.6,6.4,10.6s6.7-20.6,9.1-30.7C140.7,23.3,132.1,39.9,129,42
			z"/>
	</g>
	<g>
		<ellipse class="st6" cx="85.8" cy="84.4" rx="10.7" ry="6.1"/>
	</g>
	<g>
		<circle class="st1" cx="81" cy="82.3" r="2.1"/>
	</g>
</g>
</svg>
