<?xml version="1.0" encoding="utf-8"?>
<!-- Generator: Adobe Illustrator 22.0.1, SVG Export Plug-In . SVG Version: 6.00 Build 0)  -->
<svg version="1.1" id="Calque_1" xmlns="http://www.w3.org/2000/svg" xmlns:xlink="http://www.w3.org/1999/xlink" x="0px" y="0px"
	 viewBox="0 0 300.9 138.9" style="enable-background:new 0 0 300.9 138.9;" xml:space="preserve">
<style type="text/css">
	.st0{fill:#EB9E99;}
	.st1{fill:#F4C870;}
</style>
<g>
	<path class="st0" d="M45.2,75.7H32V33.5l-13,3.8v-10L44,18.6h1.2V75.7z"/>
	<path class="st0" d="M63.2,47.8l3.5-29.2h33.4v10.3H77.5l-1.3,11.3c0.9-0.6,2.2-1,3.7-1.5c1.5-0.4,3-0.6,4.5-0.6
		c5.7,0,10,1.7,13.1,5s4.6,8.1,4.6,14.1c0,3.7-0.8,7-2.5,9.9c-1.6,3-3.9,5.2-6.9,6.8c-3,1.6-6.4,2.4-10.5,2.4
		c-3.6,0-6.9-0.7-10.1-2.2c-3.1-1.5-5.6-3.5-7.4-6.1c-1.8-2.6-2.7-5.5-2.6-8.7h13.3c0.1,2.1,0.8,3.7,2,5c1.2,1.2,2.8,1.8,4.7,1.8
		c4.4,0,6.7-3.3,6.7-9.9c0-6.1-2.7-9.1-8.2-9.1c-3.1,0-5.4,1-6.9,3L63.2,47.8z"/>
	<path class="st0" d="M162.2,65.1h-18.9l-3.3,10.7h-14.7l20.9-57.1h12.9l21.1,57.1h-14.8L162.2,65.1z M146.6,54.4h12.3l-6.2-19.8
		L146.6,54.4z"/>
	<path class="st0" d="M232.2,75.7h-13.7l-20.2-35.5v35.5h-13.8V18.6h13.8l20.2,35.5V18.6h13.7V75.7z"/>
	<path class="st0" d="M270.3,60.6c0-2-0.7-3.6-2.1-4.7c-1.4-1.1-3.9-2.3-7.5-3.5c-3.6-1.2-6.5-2.4-8.8-3.5
		c-7.4-3.6-11.1-8.6-11.1-15c0-3.2,0.9-6,2.8-8.4c1.8-2.4,4.5-4.3,7.8-5.6c3.4-1.3,7.2-2,11.4-2c4.1,0,7.8,0.7,11,2.2
		c3.3,1.5,5.8,3.5,7.6,6.3s2.7,5.8,2.7,9.3h-13.7c0-2.3-0.7-4.1-2.1-5.4c-1.4-1.3-3.4-1.9-5.8-1.9c-2.5,0-4.4,0.5-5.8,1.6
		s-2.1,2.5-2.1,4.1c0,1.5,0.8,2.8,2.4,4c1.6,1.2,4.3,2.4,8.3,3.7c3.9,1.3,7.2,2.6,9.7,4.1c6.2,3.6,9.3,8.5,9.3,14.7
		c0,5-1.9,8.9-5.6,11.8c-3.8,2.8-8.9,4.3-15.5,4.3c-4.6,0-8.8-0.8-12.6-2.5c-3.8-1.7-6.6-3.9-8.5-6.8c-1.9-2.9-2.8-6.2-2.8-10h13.8
		c0,3.1,0.8,5.3,2.4,6.8c1.6,1.5,4.2,2.2,7.7,2.2c2.3,0,4.1-0.5,5.4-1.5C269.7,63.7,270.3,62.3,270.3,60.6z"/>
</g>
<g>
	<path class="st1" d="M33.7,108.1c0-2.5,0.5-4.5,1.6-5.9c1.1-1.4,2.6-2.2,4.5-2.2c1.4,0,2.6,0.6,3.6,1.7v-8h4.9v22.4h-4.4l-0.2-1.7
		c-1,1.3-2.3,2-3.8,2c-1.9,0-3.4-0.7-4.5-2.2C34.3,112.8,33.7,110.8,33.7,108.1z M38.6,108.4c0,2.8,0.8,4.2,2.4,4.2
		c1.1,0,1.9-0.5,2.3-1.4v-6c-0.4-0.9-1.2-1.4-2.3-1.4c-1.5,0-2.3,1.2-2.5,3.7L38.6,108.4z"/>
	<path class="st1" d="M52.9,101.6l-2.2-1.2c0.8-1.4,1.2-2.8,1.2-4.1v-2.5h3.6v2.4c0,0.9-0.3,1.9-0.8,2.9
		C54.3,100,53.6,100.9,52.9,101.6z"/>
	<path class="st1" d="M66,116.4c-2.4,0-4.4-0.7-5.9-2.2c-1.5-1.4-2.2-3.3-2.2-5.6v-0.4c0-1.6,0.3-3,0.9-4.3c0.6-1.2,1.5-2.2,2.6-2.9
		c1.1-0.7,2.5-1,4.1-1c2.2,0,4,0.7,5.2,2.1c1.3,1.4,1.9,3.3,1.9,5.7v1.9h-9.8c0.2,0.9,0.6,1.6,1.2,2.1c0.6,0.5,1.4,0.8,2.3,0.8
		c1.6,0,2.8-0.5,3.6-1.6l2.2,2.7c-0.6,0.8-1.5,1.5-2.6,2C68.5,116.2,67.3,116.4,66,116.4z M65.5,103.9c-1.4,0-2.3,1-2.6,2.9h5v-0.4
		c0-0.8-0.2-1.4-0.6-1.8C66.8,104.1,66.2,103.9,65.5,103.9z"/>
	<path class="st1" d="M82.9,111.7c0-0.4-0.2-0.8-0.7-1c-0.4-0.3-1.3-0.5-2.5-0.8c-1.2-0.3-2.2-0.6-3-1.1c-0.8-0.4-1.4-1-1.8-1.6
		s-0.6-1.4-0.6-2.2c0-1.4,0.6-2.6,1.8-3.6c1.2-0.9,2.8-1.4,4.7-1.4c2.1,0,3.8,0.5,5,1.4c1.3,0.9,1.9,2.2,1.9,3.7h-4.9
		c0-1.3-0.7-1.9-2-1.9c-0.5,0-0.9,0.1-1.3,0.4c-0.3,0.3-0.5,0.6-0.5,1.1c0,0.4,0.2,0.8,0.6,1.1c0.4,0.3,1.1,0.5,2,0.7
		c0.9,0.2,1.8,0.4,2.5,0.6c2.4,0.8,3.6,2.3,3.6,4.4c0,1.4-0.6,2.6-1.9,3.5s-2.9,1.4-5,1.4c-1.4,0-2.6-0.2-3.6-0.7
		c-1.1-0.5-1.9-1.1-2.5-2s-0.9-1.7-0.9-2.6h4.6c0,0.7,0.3,1.3,0.7,1.6c0.5,0.3,1.1,0.5,1.8,0.5c0.7,0,1.2-0.1,1.5-0.4
		C82.7,112.5,82.9,112.1,82.9,111.7z"/>
	<path class="st1" d="M104.6,108.4c0,2.4-0.6,4.4-1.7,5.9c-1.1,1.5-2.6,2.2-4.5,2.2c-1.4,0-2.6-0.5-3.6-1.6v7.4H90v-21.8h4.6
		l0.1,1.5c0.9-1.2,2.2-1.7,3.7-1.7c1.9,0,3.5,0.7,4.5,2.1c1.1,1.4,1.6,3.4,1.6,5.9V108.4z M99.7,108.1c0-2.8-0.8-4.2-2.4-4.2
		c-1.2,0-1.9,0.4-2.3,1.3v6.2c0.4,0.9,1.2,1.3,2.4,1.3c1.6,0,2.4-1.4,2.4-4.1V108.1z"/>
	<path class="st1" d="M114.4,116.4c-2.4,0-4.4-0.7-5.9-2.2c-1.5-1.4-2.2-3.3-2.2-5.6v-0.4c0-1.6,0.3-3,0.9-4.3
		c0.6-1.2,1.5-2.2,2.6-2.9c1.1-0.7,2.5-1,4.1-1c2.2,0,4,0.7,5.2,2.1c1.3,1.4,1.9,3.3,1.9,5.7v1.9h-9.8c0.2,0.9,0.6,1.6,1.2,2.1
		s1.4,0.8,2.3,0.8c1.6,0,2.8-0.5,3.6-1.6l2.2,2.7c-0.6,0.8-1.5,1.5-2.6,2S115.7,116.4,114.4,116.4z M113.8,93.7h5.2l-4.1,4.6l-4,0
		L113.8,93.7z M113.8,103.9c-1.4,0-2.3,1-2.6,2.9h5v-0.4c0-0.8-0.2-1.4-0.6-1.8C115.2,104.1,114.6,103.9,113.8,103.9z"/>
	<path class="st1" d="M132.5,104.8l-1.6-0.1c-1.5,0-2.5,0.5-3,1.5v10H123v-15.8h4.6l0.2,2c0.8-1.5,2-2.3,3.5-2.3
		c0.5,0,1,0.1,1.4,0.2L132.5,104.8z"/>
	<path class="st1" d="M142.7,116.1c-0.2-0.3-0.3-0.8-0.5-1.4c-0.9,1.1-2.2,1.7-3.8,1.7c-1.5,0-2.7-0.4-3.8-1.3c-1-0.9-1.6-2-1.6-3.4
		c0-1.7,0.6-3,1.9-3.9c1.3-0.9,3.1-1.3,5.5-1.3h1.5v-0.8c0-1.5-0.6-2.2-1.9-2.2c-1.2,0-1.7,0.6-1.7,1.7h-4.9c0-1.5,0.6-2.8,1.9-3.7
		s3-1.4,5-1.4s3.6,0.5,4.8,1.5c1.2,1,1.8,2.3,1.8,4v7c0,1.4,0.2,2.6,0.7,3.3v0.2H142.7z M139.7,112.9c0.6,0,1.1-0.1,1.5-0.4
		c0.4-0.3,0.7-0.6,0.9-0.9v-2.5h-1.4c-1.7,0-2.6,0.8-2.6,2.3c0,0.4,0.2,0.8,0.5,1.1S139.2,112.9,139.7,112.9z"/>
	<path class="st1" d="M154.2,100.4l0.2,1.9c1.1-1.4,2.6-2.1,4.5-2.1c1.6,0,2.9,0.5,3.7,1.5s1.2,2.5,1.3,4.4v10.2h-4.9v-10
		c0-0.8-0.2-1.4-0.5-1.8s-0.9-0.6-1.7-0.6c-1,0-1.7,0.4-2.1,1.1v11.1h-4.9v-15.8H154.2z"/>
	<path class="st1" d="M173.2,112.6c0.7,0,1.2-0.2,1.6-0.6s0.6-0.9,0.6-1.6h4.6c0,1.7-0.6,3.1-1.9,4.3c-1.2,1.1-2.8,1.7-4.8,1.7
		c-2.3,0-4.1-0.7-5.4-2.2c-1.3-1.4-2-3.4-2-6v-0.2c0-1.6,0.3-3,0.9-4.2c0.6-1.2,1.4-2.2,2.5-2.8s2.4-1,3.9-1c2.1,0,3.7,0.6,4.9,1.7
		c1.2,1.1,1.8,2.7,1.8,4.6h-4.6c0-0.8-0.2-1.4-0.6-1.9c-0.4-0.4-0.9-0.7-1.6-0.7c-1.3,0-2,0.8-2.2,2.4c-0.1,0.5-0.1,1.2-0.1,2.1
		c0,1.6,0.2,2.7,0.6,3.3C171.8,112.3,172.4,112.6,173.2,112.6z"/>
	<path class="st1" d="M189.7,116.4c-2.4,0-4.4-0.7-5.9-2.2c-1.5-1.4-2.2-3.3-2.2-5.6v-0.4c0-1.6,0.3-3,0.9-4.3
		c0.6-1.2,1.5-2.2,2.6-2.9c1.1-0.7,2.5-1,4.1-1c2.2,0,4,0.7,5.2,2.1c1.3,1.4,1.9,3.3,1.9,5.7v1.9h-9.8c0.2,0.9,0.6,1.6,1.2,2.1
		c0.6,0.5,1.4,0.8,2.3,0.8c1.6,0,2.8-0.5,3.6-1.6l2.2,2.7c-0.6,0.8-1.5,1.5-2.6,2S191,116.4,189.7,116.4z M189.1,103.9
		c-1.4,0-2.3,1-2.6,2.9h5v-0.4c0-0.8-0.2-1.4-0.6-1.8C190.5,104.1,189.9,103.9,189.1,103.9z"/>
	<path class="st1" d="M205.1,108.1c0-2.5,0.5-4.5,1.6-5.9c1.1-1.4,2.6-2.2,4.5-2.2c1.4,0,2.6,0.6,3.6,1.7v-8h4.9v22.4h-4.4l-0.2-1.7
		c-1,1.3-2.3,2-3.8,2c-1.9,0-3.4-0.7-4.5-2.2C205.7,112.8,205.1,110.8,205.1,108.1z M210,108.4c0,2.8,0.8,4.2,2.4,4.2
		c1.1,0,1.9-0.5,2.3-1.4v-6c-0.4-0.9-1.2-1.4-2.3-1.4c-1.5,0-2.3,1.2-2.5,3.7L210,108.4z"/>
	<path class="st1" d="M230.1,116.4c-2.4,0-4.4-0.7-5.9-2.2c-1.5-1.4-2.2-3.3-2.2-5.6v-0.4c0-1.6,0.3-3,0.9-4.3
		c0.6-1.2,1.5-2.2,2.6-2.9c1.1-0.7,2.5-1,4.1-1c2.2,0,4,0.7,5.2,2.1c1.3,1.4,1.9,3.3,1.9,5.7v1.9H227c0.2,0.9,0.6,1.6,1.2,2.1
		c0.6,0.5,1.4,0.8,2.3,0.8c1.6,0,2.8-0.5,3.6-1.6l2.2,2.7c-0.6,0.8-1.5,1.5-2.6,2S231.4,116.4,230.1,116.4z M229.6,103.9
		c-1.4,0-2.3,1-2.6,2.9h5v-0.4c0-0.8-0.2-1.4-0.6-1.8C231,104.1,230.4,103.9,229.6,103.9z"/>
	<path class="st1" d="M252.5,110.3l2.5-9.9h5.2l-5.1,15.8h-5l-5.1-15.8h5.2L252.5,110.3z"/>
	<path class="st1" d="M261.6,96.3c0-0.7,0.3-1.3,0.8-1.7c0.5-0.4,1.2-0.7,2-0.7c0.8,0,1.5,0.2,2,0.7c0.5,0.4,0.8,1,0.8,1.7
		s-0.3,1.3-0.8,1.7s-1.2,0.7-2,0.7c-0.8,0-1.5-0.2-2-0.7C261.8,97.6,261.6,97,261.6,96.3z M266.8,116.1h-4.9v-15.8h4.9V116.1z"/>
	<path class="st1" d="M277.5,116.4c-2.4,0-4.4-0.7-5.9-2.2c-1.5-1.4-2.2-3.3-2.2-5.6v-0.4c0-1.6,0.3-3,0.9-4.3
		c0.6-1.2,1.5-2.2,2.6-2.9c1.1-0.7,2.5-1,4.1-1c2.2,0,4,0.7,5.2,2.1c1.3,1.4,1.9,3.3,1.9,5.7v1.9h-9.8c0.2,0.9,0.6,1.6,1.2,2.1
		c0.6,0.5,1.4,0.8,2.3,0.8c1.6,0,2.8-0.5,3.6-1.6l2.2,2.7c-0.6,0.8-1.5,1.5-2.6,2S278.7,116.4,277.5,116.4z M276.9,103.9
		c-1.4,0-2.3,1-2.6,2.9h5v-0.4c0-0.8-0.2-1.4-0.6-1.8C278.3,104.1,277.7,103.9,276.9,103.9z"/>
</g>
</svg>
