<?xml version="1.0" encoding="utf-8"?>
<!-- Generator: Adobe Illustrator 22.0.1, SVG Export Plug-In . SVG Version: 6.00 Build 0)  -->
<svg version="1.1" id="Calque_1" xmlns="http://www.w3.org/2000/svg" xmlns:xlink="http://www.w3.org/1999/xlink" x="0px" y="0px"
	 viewBox="0 0 151.5 176" style="enable-background:new 0 0 151.5 176;" xml:space="preserve">
<style type="text/css">
	.st0{fill:#F4C870;}
	.st1{fill:#FFFFFF;}
	.st2{opacity:0.2;}
	.st3{fill:#231F20;}
	.st4{fill:#EB9E99;}
	.st5{fill:#7B653A;}
	.st6{fill:#434342;}
	.st7{opacity:0.1;}
</style>
<g>
	<g>
		<path class="st0" d="M131.1,81.7c-0.7-30.1-24.7-54.3-54.3-54.3c-29.6,0-53.7,24.2-54.3,54.3c-6.5,8.7-10.3,19-10.3,30
			c0,30.7,28.9,55.6,64.6,55.6c35.7,0,64.6-24.9,64.6-55.6C141.4,100.7,137.6,90.4,131.1,81.7z"/>
	</g>
	<g>
		<path class="st0" d="M27.1,60.5c0,0-8.1-49.5-1.5-51.6C32.1,6.8,57.7,31,57.7,31S39,62.1,27.1,60.5z"/>
	</g>
	<g>
		<path class="st0" d="M99.3,32.4c0,0,34.1-22.9,38.2-19.3c4.1,3.7-8.1,45.3-10.7,47.9C124.1,63.7,97.1,35.8,99.3,32.4z"/>
	</g>
	<g>
		<path class="st1" d="M131.7,81.7c-3.6-1.1-13.4,7.2-21,9c-7.7,1.8-13.1-3.3-17.3-9.1c-7-9.7-22.6-9.9-32.5,0
			c-5.1,5.1-9.7,10.8-17.3,9.1c-7.7-1.8-17.5-10-21-9c-6.5,8.7-10.3,19-10.3,30c0,30.7,28.9,55.6,64.6,55.6c0.1,0,0.2,0,0.3,0
			c0.1,0,0.2,0,0.3,0c35.7,0,64.6-24.9,64.6-55.6C142,100.7,138.2,90.4,131.7,81.7z"/>
	</g>
	<g class="st2">
		<path class="st3" d="M22.5,81.7c0,0-9,31.4,5,53.2c18.8,29.1,49.9,32.4,49.9,32.4s-41.5-0.1-56.9-28.3
			C5.1,110.7,14.3,92.9,22.5,81.7z"/>
	</g>
	<g>
		<path class="st4" d="M52.1,33.6c0,0-22.7-21.9-24.3-18.4C26.2,18.8,31,55.8,31,55.8S39.1,39.9,52.1,33.6z"/>
	</g>
	<g>
		<path class="st4" d="M104.6,35.3c0,0,27.1-17.6,28.2-15c1.1,2.6-9.9,36-9.9,36S116.9,41.8,104.6,35.3z"/>
	</g>
	<g>
		<path class="st5" d="M76.8,168.5C40.5,168.5,11,143,11,111.8c0-10.8,3.6-21.3,10.3-30.4c0.2-7.3,1.7-14.3,4.6-20.9
			c-1.4-8.7-7.2-47.6-2.1-52c1.8-1.5,5.7-1.8,19.9,9.2c7.6,5.9,14.7,12.4,14.8,12.5l-1.6,1.7c-0.1-0.1-7.1-6.5-14.6-12.4
			c-14.2-11-16.7-9.5-16.9-9.3c-2.8,2.4-0.7,27.3,2.9,50.1l0.1,0.3L28.2,61c-2.8,6.5-4.4,13.5-4.5,20.7l0,0.4l-0.2,0.3
			c-6.6,8.8-10,18.9-10,29.3c0,30,28.5,54.4,63.4,54.4c35,0,63.4-24.4,63.4-54.4c0-10.4-3.5-20.6-10-29.3l-0.2-0.3l0-0.4
			c-0.1-4.9-2.6-14.8-4.3-20.3l-0.1-0.4l0.1-0.4c5.8-15.7,13.7-41,11.5-46.2c-0.1-0.2-0.2-0.4-0.7-0.5c-5-1.4-25.1,11.1-36.5,19.4
			l-1.4-1.9c3.1-2.3,30.7-21.9,38.5-19.8c1.1,0.3,1.8,1,2.2,1.9c3.2,7.5-9.3,42-11.3,47.5c1.5,4.9,4.1,14.7,4.3,20.2
			c6.7,9.1,10.3,19.6,10.3,30.5C142.6,143,113.1,168.5,76.8,168.5z"/>
	</g>
	<g>
		<path class="st5" d="M47.8,36c0,0,0.8-0.7,2.4-1.7c1.6-1,3.9-2.3,6.8-3.6c2.9-1.3,6.5-2.6,10.4-3.4c2-0.4,4-0.7,6.2-0.9
			c2.1-0.2,4.3-0.2,6.4,0c2.2,0.2,4.3,0.4,6.4,0.8c2.1,0.4,4.1,1,6,1.6c3.8,1.3,7.2,2.9,10,4.5c2.8,1.6,4.9,3.2,6.3,4.4
			c1.4,1.2,2.2,2,2.2,2s-0.9-0.6-2.4-1.6c-1.6-1-3.9-2.3-6.7-3.6c-2.8-1.3-6.2-2.7-10-3.8c-1.9-0.5-3.8-1-5.8-1.3
			c-2-0.4-4.1-0.6-6.1-0.7c-2-0.1-4.1-0.2-6.2,0c-2,0.1-4,0.3-5.9,0.7C64,30,60.4,31,57.5,31.9c-3,1-5.4,2-7.1,2.8
			C48.7,35.5,47.8,36,47.8,36z"/>
	</g>
	<g>
		<g>
			<ellipse transform="matrix(0.2306 -0.973 0.973 0.2306 -33.0663 102.1157)" class="st6" cx="48" cy="72" rx="8.7" ry="8.7"/>
		</g>
		<g>
			<circle class="st1" cx="45.2" cy="69.2" r="3.4"/>
		</g>
	</g>
	<g>
		<path class="st1" d="M65,54.9c0,2.9-2.4,5.3-5.3,5.3c-2.9,0-5.3-2.4-5.3-5.3c0-2.9,2.4-5.3,5.3-5.3C62.6,49.5,65,51.9,65,54.9z"/>
	</g>
	<g>
		<path class="st1" d="M100,55.3c0,2.9-2.4,5.3-5.3,5.3c-2.9,0-5.3-2.4-5.3-5.3c0-2.9,2.4-5.3,5.3-5.3C97.6,50,100,52.3,100,55.3z"
			/>
	</g>
	<g>
		<g>
			<path class="st5" d="M76.1,92.8c0,14.1,0,28.3,0,42.4c0,1.3,2,1.3,2,0c0-14.1,0-28.3,0-42.4C78.1,91.6,76.1,91.6,76.1,92.8
				L76.1,92.8z"/>
		</g>
	</g>
	<g class="st7">
		<path class="st3" d="M31,55.8c0,0,3.4-6.8,9.4-13.2c-1.8,1.1-5,2.2-7.1-1c-3.2-4.7-5.5-26.4-5.5-26.4C26.2,18.8,31,55.8,31,55.8z"
			/>
	</g>
	<g>
		<g>
			<path class="st5" d="M102.5,108.9c-0.4,13.8-11.3,25.4-25.4,25.4c-14.1,0-25-11.5-25.4-25.4c0-1.3-2-1.3-2,0
				c0.4,14.9,12.2,27.4,27.4,27.4c15.2,0,27-12.5,27.4-27.4C104.5,107.6,102.5,107.6,102.5,108.9L102.5,108.9z"/>
		</g>
	</g>
	<g class="st7">
		<path class="st3" d="M120.4,44.4c-1.2,0.8-2.5,1.2-3.8,1.3c4.3,5.5,6.4,10.6,6.4,10.6s6.7-20.6,9.1-30.7
			C132.1,25.6,123.5,42.2,120.4,44.4z"/>
	</g>
	<g>
		<g>
			<path class="st6" d="M95.5,74.8c1.6-3.6,4.9-6.7,9-6.7c4.4,0,8.7,3.2,11.2,6.7c0.7,1,2.5,0,1.7-1c-6.1-8.3-18.8-11.1-23.6,0
				C93.3,74.9,95,75.9,95.5,74.8L95.5,74.8z"/>
		</g>
	</g>
	<g>
		<ellipse class="st6" cx="77.1" cy="86.7" rx="10.7" ry="6.1"/>
	</g>
	<g>
		<circle class="st1" cx="72.2" cy="84.6" r="2.1"/>
	</g>
</g>
</svg>
