<?xml version="1.0" encoding="utf-8"?>
<!-- Generator: Adobe Illustrator 22.0.1, SVG Export Plug-In . SVG Version: 6.00 Build 0)  -->
<svg version="1.1" id="Calque_1" xmlns="http://www.w3.org/2000/svg" xmlns:xlink="http://www.w3.org/1999/xlink" x="0px" y="0px"
	 viewBox="0 0 146.6 176" style="enable-background:new 0 0 146.6 176;" xml:space="preserve">
<style type="text/css">
	.st0{fill:#F4C870;}
	.st1{fill:#FFFFFF;}
	.st2{opacity:0.2;}
	.st3{fill:#231F20;}
	.st4{fill:#EB9E99;}
	.st5{fill:#7B653A;}
	.st6{opacity:0.1;}
	.st7{fill:#434342;}
</style>
<g>
	<g>
		<path class="st0" d="M128.2,79.3C127.6,49.2,103.5,25,73.9,25c-29.6,0-53.7,24.2-54.3,54.3c-6.5,8.7-10.3,19-10.3,30
			c0,30.7,28.9,55.6,64.6,55.6c35.7,0,64.6-24.9,64.6-55.6C138.5,98.2,134.7,87.9,128.2,79.3z"/>
	</g>
	<g>
		<path class="st0" d="M24.2,58.1c0,0-8.1-49.5-1.5-51.6c6.5-2.1,32.1,22.1,32.1,22.1S36.1,59.7,24.2,58.1z"/>
	</g>
	<g>
		<path class="st0" d="M96.4,29.9c0,0,34.1-22.9,38.2-19.3c4.1,3.7-8.1,45.3-10.7,47.9C121.2,61.2,94.2,33.3,96.4,29.9z"/>
	</g>
	<g>
		<path class="st1" d="M128.8,79.3c-3.6-1.1-13.4,7.2-21,9c-7.7,1.8-13.1-3.3-17.3-9.1c-7-9.7-22.6-9.9-32.5,0
			c-5.1,5.1-9.7,10.8-17.3,9.1c-7.7-1.8-17.5-10-21-9c-6.5,8.7-10.3,19-10.3,30c0,30.7,28.9,55.6,64.6,55.6c0.1,0,0.2,0,0.3,0
			c0.1,0,0.2,0,0.3,0c35.7,0,64.6-24.9,64.6-55.6C139.1,98.2,135.3,87.9,128.8,79.3z"/>
	</g>
	<g class="st2">
		<path class="st3" d="M19.6,79.3c0,0-9,31.4,5,53.2c18.8,29.1,49.9,32.4,49.9,32.4s-41.5-0.1-56.9-28.3
			C2.2,108.2,11.4,90.4,19.6,79.3z"/>
	</g>
	<g>
		<path class="st4" d="M49.2,31.1c0,0-22.7-21.9-24.3-18.4c-1.6,3.5,3.2,40.6,3.2,40.6S36.2,37.4,49.2,31.1z"/>
	</g>
	<g>
		<path class="st4" d="M101.7,32.9c0,0,27.1-17.6,28.2-15c1.1,2.6-9.9,36-9.9,36S114,39.3,101.7,32.9z"/>
	</g>
	<g>
		<path class="st5" d="M73.9,166c-36.3,0-65.8-25.5-65.8-56.7c0-10.8,3.6-21.3,10.3-30.4c0.2-7.3,1.7-14.3,4.6-20.9
			c-1.4-8.7-7.2-47.6-2.1-52c1.8-1.5,5.7-1.8,19.9,9.2c7.6,5.9,14.7,12.4,14.8,12.5L54,29.4c-0.1-0.1-7.1-6.5-14.6-12.4
			c-14.2-11-16.7-9.5-16.9-9.3c-2.8,2.4-0.7,27.3,2.9,50.1l0.1,0.3l-0.1,0.3c-2.8,6.5-4.4,13.5-4.5,20.7l0,0.4L20.5,80
			c-6.6,8.8-10,18.9-10,29.3c0,30,28.5,54.4,63.4,54.4s63.4-24.4,63.4-54.4c0-10.4-3.5-20.6-10-29.3l-0.2-0.3l0-0.4
			c-0.1-4.9-2.6-14.8-4.3-20.3l-0.1-0.4l0.1-0.4c5.8-15.7,13.7-41,11.5-46.2c-0.1-0.2-0.2-0.4-0.7-0.5c-5-1.4-25.1,11.1-36.5,19.4
			L95.7,29c3.1-2.3,30.8-21.9,38.5-19.8c1.1,0.3,1.8,1,2.2,1.9c3.2,7.5-9.3,42-11.3,47.5c1.5,4.9,4.1,14.7,4.3,20.2
			c6.7,9.1,10.3,19.6,10.3,30.5C139.7,140.6,110.2,166,73.9,166z"/>
	</g>
	<g>
		<path class="st5" d="M44.9,33.5c0,0,0.8-0.7,2.4-1.7c1.6-1,3.9-2.3,6.8-3.6c2.9-1.3,6.5-2.6,10.4-3.4c2-0.4,4-0.7,6.2-0.9
			c2.1-0.2,4.3-0.2,6.4,0c2.2,0.2,4.3,0.4,6.4,0.8c2.1,0.4,4.1,1,6,1.6c3.8,1.3,7.2,2.9,10,4.5c2.8,1.6,4.9,3.2,6.3,4.4
			c1.4,1.2,2.2,2,2.2,2s-0.9-0.6-2.4-1.6c-1.6-1-3.9-2.3-6.7-3.6c-2.8-1.3-6.2-2.7-10-3.8c-1.9-0.5-3.8-1-5.8-1.3
			c-2-0.4-4.1-0.6-6.1-0.7c-2-0.1-4.1-0.2-6.2,0c-2,0.1-4,0.3-5.9,0.7c-3.8,0.6-7.4,1.6-10.3,2.6c-3,1-5.4,2-7.1,2.8
			C45.8,33,44.9,33.5,44.9,33.5z"/>
	</g>
	<g>
		<path class="st1" d="M62.1,52.4c0,2.9-2.4,5.3-5.3,5.3c-2.9,0-5.3-2.4-5.3-5.3c0-2.9,2.4-5.3,5.3-5.3
			C59.7,47.1,62.1,49.4,62.1,52.4z"/>
	</g>
	<g>
		<circle class="st1" cx="91.8" cy="52.8" r="5.3"/>
	</g>
	<g>
		<g>
			<path class="st5" d="M73.2,90.4c0,8.4,0,16.7,0,25.1c0,1.3,2,1.3,2,0c0-8.4,0-16.7,0-25.1C75.2,89.1,73.2,89.1,73.2,90.4
				L73.2,90.4z"/>
		</g>
	</g>
	<g>
		<path class="st4" d="M88.6,116.8l-14.5-1v-0.4l-14.7,1c0,0-1,15.5,4,20.6s10.7,4.5,10.7,4.5v-0.1c0,0,5.4,0.9,10.4-4.1
			C89.7,132.4,88.6,116.8,88.6,116.8z"/>
	</g>
	<g class="st2">
		<path class="st3" d="M63.8,116.5c0,0-0.2,13.8,2.4,18.2c2.6,4.4,8.2,6.3,8.2,6.3l6-0.7c0,0-4.4,3.1-12.5,1.7
			c-8.1-1.4-9.9-6.6-11.2-10.1c-1.3-3.5-1.2-16.1-1.2-16.1L63.8,116.5z"/>
	</g>
	<g>
		<path class="st5" d="M74.4,141.9L74.4,141.9c-4.6,0-8.9-1.6-11.5-4.2c-5.3-5.3-4.3-20.5-4.3-21.2l0-0.7l16.3-1.1v0.5l14.4,1l0,0.7
			c0,0.6,1,15.9-4.3,21.2C82.7,140.4,78.8,141.9,74.4,141.9z M60.2,117.2c-0.1,3-0.3,15.1,3.8,19.3c2.3,2.3,6.2,3.7,10.4,3.7
			c3.9,0,7.4-1.2,9.6-3.4c4.2-4.2,4-16.3,3.8-19.3l-14.5-1v-0.3L60.2,117.2z"/>
	</g>
	<g class="st6">
		<path class="st3" d="M28.1,53.3c0,0,3.4-6.8,9.4-13.2c-1.8,1.1-5,2.2-7.1-1c-3.2-4.7-5.5-26.4-5.5-26.4
			C23.3,16.3,28.1,53.3,28.1,53.3z"/>
	</g>
	<g>
		<g>
			<path class="st5" d="M99.6,106.4c-0.2,6.7-3.3,9.2-9.7,9.1c-5.2-0.1-10.4-1-15.7-1c-5.1,0-10.1,0.8-15.2,1
				c-6.6,0.2-10.1-2.1-10.2-9.1c0-1.3-2-1.3-2,0c0.1,4.9,1.5,9.4,6.7,10.7c6.6,1.6,14-0.6,20.7-0.6c6.6,0,13.8,2.1,20.3,0.7
				c5.5-1.2,7-5.6,7.1-10.8C101.6,105.2,99.6,105.2,99.6,106.4L99.6,106.4z"/>
		</g>
	</g>
	<g class="st6">
		<path class="st3" d="M117.5,41.9c-1.2,0.8-2.5,1.2-3.8,1.3c4.3,5.5,6.4,10.6,6.4,10.6s6.7-20.6,9.1-30.7
			C129.2,23.2,120.6,39.8,117.5,41.9z"/>
	</g>
	<g>
		<g>
			<path class="st7" d="M92.6,72.3c1.6-3.6,4.9-6.7,9-6.7c4.4,0,8.7,3.2,11.2,6.7c0.7,1,2.5,0,1.7-1c-6.1-8.3-18.8-11.1-23.6,0
				C90.4,72.5,92.1,73.5,92.6,72.3L92.6,72.3z"/>
		</g>
	</g>
	<g>
		<g>
			<path class="st7" d="M56.7,71.3c-4.8-11.1-17.5-8.3-23.6,0c-0.8,1,1,2,1.7,1c2.5-3.4,6.8-6.7,11.2-6.7c4.1,0,7.5,3.1,9,6.7
				C55.5,73.5,57.2,72.5,56.7,71.3L56.7,71.3z"/>
		</g>
	</g>
	<g>
		<g>
			<path class="st5" d="M73.2,115.5c0,4.7,0,9.4,0,14.1c0,1.3,2,1.3,2,0c0-4.7,0-9.4,0-14.1C75.1,114.2,73.2,114.2,73.2,115.5
				L73.2,115.5z"/>
		</g>
	</g>
	<g>
		<ellipse class="st7" cx="74.2" cy="84.3" rx="10.7" ry="6.1"/>
	</g>
	<g>
		<circle class="st1" cx="69.3" cy="82.2" r="2.1"/>
	</g>
</g>
</svg>
