<?xml version="1.0" encoding="utf-8"?>
<!-- Generator: Adobe Illustrator 22.0.0, SVG Export Plug-In . SVG Version: 6.00 Build 0)  -->
<svg version="1.1" id="Calque_1" xmlns="http://www.w3.org/2000/svg" xmlns:xlink="http://www.w3.org/1999/xlink" x="0px" y="0px"
	 viewBox="0 0 148 107.1" style="enable-background:new 0 0 148 107.1;" xml:space="preserve">
<style type="text/css">
	.st0{fill:#F9AF39;}
	.st1{fill:#008F48;}
</style>
<path class="st0" d="M9.5,20.5c0,0,1.2,6.7,3.4,8.3C15,30.3,31,22.7,31,22.7s4.3,4.1,11.9,5.2l6.4-16.8c0,0,29.4,28.2,90-3.7
	l3.4-0.3l4,1.2l-0.9,2.4c0,0-30.6,18.4-42.3,22c0,0-2.8,6.4,10.7,14.1l-2.1,4.3c0,0-7.3-3.7-14.1,0c0,0-8.9-15-16.8,2.1
	c0,0-2.8,7-17.8,7.7c0,0-21.4-6.7-20.2,6.1l-7-1.5c0,0,0-6.1-7.3-5.2c0,0-23.3-1.8-23.9-36.1L9.5,20.5z"/>
<g>
	<path class="st1" d="M90.6,94.9c0,0-8.2,3.4-8.8-1.3C81.8,93.6,82.1,89.6,90.6,94.9z"/>
	<path class="st1" d="M55.4,103.1c0,0,12.4-6.9,19.4-9.9c6.9-3,11.3-3.3,15-5.2c3.7-1.9-13.2,5.5-14.5,6.2s-20.4,10.6-18.9,10.9
		C57.8,105.3,55.4,103.1,55.4,103.1z"/>
	<path class="st1" d="M78.6,100.9c0,0-7.8,2.6-8.4-2.1C70.2,98.8,71.4,94.9,78.6,100.9z"/>
	<path class="st1" d="M84.9,97.8c0,0-8.2,3.4-8.8-1.3C76.1,96.5,76.4,92.5,84.9,97.8z"/>
	<path class="st1" d="M99.3,90.3c0,0-6,5-8.8,1.2C90.5,91.5,89.9,87.1,99.3,90.3z"/>
	<path class="st1" d="M105.6,85.3c0,0-5.2,5.7-8.8,1.2C96.8,86.5,96.2,82.1,105.6,85.3z"/>
	<path class="st1" d="M72.4,86.4c0,0-0.2,9.9-5.1,7.3C67.3,93.7,65,89.9,72.4,86.4z"/>
	<path class="st1" d="M79.5,84c0,0-0.2,9.9-5.1,7.3C74.4,91.3,72.2,87.6,79.5,84z"/>
	<path class="st1" d="M85.8,81.5c0,0-0.2,9.9-5.1,7.3C80.7,88.8,78.4,85.1,85.8,81.5z"/>
	<path class="st1" d="M92,78.7c0,0-0.2,9.9-5.1,7.3C87,86,84.7,82.3,92,78.7z"/>
	<path class="st1" d="M98.8,75.1c0,0-0.2,9.9-5.1,7.3C93.7,82.4,91.4,78.6,98.8,75.1z"/>
	<path class="st1" d="M108.4,74.6c0,0-2.2,9-7.2,7C101.2,81.6,99.4,76.7,108.4,74.6z"/>
</g>
<g>
	<path class="st1" d="M68.4,103.2c0,0-12.5-6.8-19.4-9.8s-11.3-3.3-15-5.2c-3.7-1.9,13.2,5.5,14.5,6.2s20.4,10.6,18.9,10.8
		C66,105.5,68.4,103.2,68.4,103.2z"/>
	<path class="st1" d="M45.2,101.1c0,0,7.8,2.6,8.3-2.2C53.5,98.9,52.3,95.1,45.2,101.1z"/>
	<path class="st1" d="M38.9,98c0,0,8.2,3.4,8.8-1.3C47.6,96.7,47.4,92.7,38.9,98z"/>
	<path class="st1" d="M33.2,95.2c0,0,8.2,3.4,8.8-1.3C41.9,93.9,41.7,89.9,33.2,95.2z"/>
	<path class="st1" d="M24.4,90.6c0,0,6,5,8.8,1.2C33.3,91.7,33.9,87.3,24.4,90.6z"/>
	<path class="st1" d="M18.1,85.6c0,0,5.2,5.7,8.8,1.2C27,86.8,27.6,82.4,18.1,85.6z"/>
	<path class="st1" d="M51.4,86.6c0,0,0.2,9.9,5.1,7.3C56.5,93.9,58.7,90.1,51.4,86.6z"/>
	<path class="st1" d="M44.2,84.2c0,0,0.2,9.9,5.1,7.3C49.3,91.5,51.6,87.8,44.2,84.2z"/>
	<path class="st1" d="M38,81.7c0,0,0.2,9.9,5.1,7.3C43.1,89,45.3,85.3,38,81.7z"/>
	<path class="st1" d="M31.7,79c0,0,0.2,9.9,5.1,7.3C36.8,86.3,39,82.5,31.7,79z"/>
	<path class="st1" d="M25,75.3c0,0,0.2,9.9,5.1,7.3C30.1,82.6,32.3,78.9,25,75.3z"/>
	<path class="st1" d="M15.3,74.9c0,0,2.3,9,7.2,7C22.5,81.9,24.3,77,15.3,74.9z"/>
</g>
</svg>
