<?xml version="1.0" encoding="utf-8"?>
<!-- Generator: Adobe Illustrator 22.0.0, SVG Export Plug-In . SVG Version: 6.00 Build 0)  -->
<svg version="1.1" id="Logo_Twitter" xmlns="http://www.w3.org/2000/svg" xmlns:xlink="http://www.w3.org/1999/xlink" x="0px"
	 y="0px" viewBox="0 0 98.4 80" style="enable-background:new 0 0 98.4 80;" xml:space="preserve">
<style type="text/css">
	.st0{fill:#2AA0DB;}
</style>
<title>logo_twitter</title>
<g id="logo_twit">
	<path class="st0" d="M68.2,0C57,0,47.9,9.1,48,20.3c0,1.5,0.2,3,0.5,4.5C32.3,24,17.1,16.3,6.9,3.7c-5.4,9.2-2.6,21.1,6.2,27
		c-3.2-0.1-6.3-1-9.1-2.5v0.3c0,9.6,6.8,17.9,16.2,19.8c-1.7,0.5-3.5,0.7-5.3,0.7c-1.3,0-2.5-0.1-3.8-0.4c2.7,8.2,10.2,13.8,18.8,14
		c-7.1,5.6-15.9,8.6-25,8.6c-1.6,0-3.3-0.1-4.9-0.3c9.2,5.9,20,9.1,31,9c37.1,0,57.5-30.8,57.5-57.5c0-0.9,0-1.8-0.1-2.6
		c4-2.9,7.4-6.4,10.1-10.5c-3.7,1.6-7.6,2.7-11.6,3.2c4.2-2.5,7.3-6.5,8.8-11.2c-4,2.4-8.3,4-12.8,4.9C79.1,2.3,73.7,0,68.2,0"/>
</g>
</svg>
