<?xml version="1.0" encoding="utf-8"?>
<!-- Generator: Adobe Illustrator 22.0.0, SVG Export Plug-In . SVG Version: 6.00 Build 0)  -->
<svg version="1.1" id="Logo_Pinterest" xmlns="http://www.w3.org/2000/svg" xmlns:xlink="http://www.w3.org/1999/xlink" x="0px"
	 y="0px" viewBox="0 0 77.9 80" style="enable-background:new 0 0 77.9 80;" xml:space="preserve">
<style type="text/css">
	.st0{fill:#EF0C0C;}
</style>
<title>logo_pinterest</title>
<path class="st0" d="M38.9,0c-21.5,0-39,17.9-39,40c-0.1,16.3,9.7,31,24.8,37.2c-0.3-3.2-0.6-8,0.1-11.5c0.7-3.1,4.6-19.9,4.6-19.9
	C28.6,44,28.2,42,28.2,40c0-5.6,3.1-9.7,7.1-9.7c3.3,0,4.9,2.6,4.9,5.6c0,3.4-2.1,8.6-3.2,13.3c-0.8,3.1,1,6.2,4.1,7
	c0.5,0.1,1.1,0.2,1.7,0.2c6.9,0,12.2-7.5,12.2-18.3c0-9.6-6.7-16.3-16.3-16.3c-9.4-0.3-17.3,7.1-17.6,16.6c0,0.3,0,0.5,0,0.8
	c0,3.3,1,6.4,2.9,9.1c0.3,0.3,0.4,0.7,0.3,1.1c-0.3,1.3-1,4-1.1,4.5c-0.2,0.7-0.6,0.9-1.3,0.5c-4.9-2.2-8-9.6-8-15.5
	c0-12.6,8.9-24.2,25.7-24.2c13.5,0,24,9.9,24,23.1c0,13.8-8.5,24.9-20.2,24.9c-4,0-7.7-2.1-8.9-4.6c0,0-2,7.6-2.4,9.5
	c-0.9,3.5-3.2,7.8-4.8,10.5C31.1,79.4,35,80,38.9,80c21.5,0,39-17.9,39-40S60.4,0,38.9,0z"/>
</svg>
