<?xml version="1.0" encoding="utf-8"?>
<!-- Generator: Adobe Illustrator 21.1.0, SVG Export Plug-In . SVG Version: 6.00 Build 0)  -->
<svg version="1.1" id="Capa_1" xmlns="http://www.w3.org/2000/svg" xmlns:xlink="http://www.w3.org/1999/xlink" x="0px" y="0px"
	 viewBox="0 0 376.1 376.1" style="enable-background:new 0 0 376.1 376.1;" xml:space="preserve">
<style type="text/css">
	.st0{fill:url(#SVGID_1_);}
	.st1{fill:url(#SVGID_2_);}
	.st2{fill:url(#SVGID_3_);}
</style>
<g>
	<g>
		<linearGradient id="SVGID_1_" gradientUnits="userSpaceOnUse" x1="56.3447" y1="188.038" x2="319.731" y2="188.038">
			<stop  offset="0" style="stop-color:#D6006D"/>
			<stop  offset="0.1894" style="stop-color:#D5066C"/>
			<stop  offset="0.4329" style="stop-color:#D41668"/>
			<stop  offset="0.7059" style="stop-color:#D33062"/>
			<stop  offset="0.9987" style="stop-color:#D05559"/>
			<stop  offset="1" style="stop-color:#D05559"/>
		</linearGradient>
		<path class="st0" d="M266.6,0.1H108.3C94.3-0.7,80.7,4.3,70.5,13.8c-9.9,10.7-14.9,24.9-14,39.4V323c0,39.1,27.4,53.1,53.1,53.1
			h157c39.1,0,53.1-27.4,53.1-53.1V53.1C319.7,14,292.3,0.1,266.6,0.1z M307.7,323c0.1,12.3-4,41.1-41,41.1h-157
			c-12.3,0-41.1-4-41.1-41.1v-32h239.2V323z M307.7,279.1H68.5V69.8h239.2V279.1z M307.7,57.9H68.5v-4.7c-0.8-11.3,3-22.4,10.5-30.9
			c8.2-7.3,19-11,29.9-10.2h157.8c12.3,0,41.1,4,41.1,41.1V57.9z"/>
	</g>
</g>
<g>
	<g>
		<linearGradient id="SVGID_2_" gradientUnits="userSpaceOnUse" x1="163.411" y1="35.356" x2="213.011" y2="35.356">
			<stop  offset="0" style="stop-color:#D6006D"/>
			<stop  offset="0.1894" style="stop-color:#D5066C"/>
			<stop  offset="0.4329" style="stop-color:#D41668"/>
			<stop  offset="0.7059" style="stop-color:#D33062"/>
			<stop  offset="0.9987" style="stop-color:#D05559"/>
			<stop  offset="1" style="stop-color:#D05559"/>
		</linearGradient>
		<path class="st1" d="M207,29.4h-37.6c-3.3,0-6,2.7-6,6c0,3.3,2.7,6,6,6H207c3.3,0,6-2.7,6-6C213,32,210.3,29.4,207,29.4z"/>
	</g>
</g>
<g>
	<g>
		<linearGradient id="SVGID_3_" gradientUnits="userSpaceOnUse" x1="161.8109" y1="328.6361" x2="214.451" y2="328.6361">
			<stop  offset="0" style="stop-color:#D6006D"/>
			<stop  offset="0.1894" style="stop-color:#D5066C"/>
			<stop  offset="0.4329" style="stop-color:#D41668"/>
			<stop  offset="0.7059" style="stop-color:#D33062"/>
			<stop  offset="0.9987" style="stop-color:#D05559"/>
			<stop  offset="1" style="stop-color:#D05559"/>
		</linearGradient>
		<path class="st2" d="M188.1,302.3c-14.5,0-26.3,11.9-26.2,26.4s11.9,26.3,26.4,26.2c14.5,0,26.2-11.8,26.2-26.2
			C214.5,314.1,202.6,302.3,188.1,302.3z M188.1,343L188.1,343L188.1,343c-7.9,0-14.3-6.4-14.2-14.3c0-7.9,6.5-14.3,14.4-14.2
			c7.9,0,14.2,6.4,14.2,14.3C202.4,336.6,196,343,188.1,343z"/>
	</g>
</g>
</svg>
