<?xml version="1.0" encoding="utf-8"?>
<!-- Generator: Adobe Illustrator 21.1.0, SVG Export Plug-In . SVG Version: 6.00 Build 0)  -->
<svg version="1.1" id="Calque_1" xmlns="http://www.w3.org/2000/svg" xmlns:xlink="http://www.w3.org/1999/xlink" x="0px" y="0px"
	 viewBox="0 0 11.4 15.5" style="enable-background:new 0 0 11.4 15.5;" xml:space="preserve">
<style type="text/css">
	.st0{clip-path:url(#SVGID_2_);fill:url(#SVGID_3_);}
	.st1{clip-path:url(#SVGID_5_);fill:url(#SVGID_6_);}
</style>
<g>
	<defs>
		<path id="SVGID_1_" d="M7.7,4.5c-0.8,0.6-1,1.1-2.1,1.2C4.6,5.8,4,5,3.2,4.8C2.3,4.6,0,4.6,0,6.7v0.1c0,0.4,0.1,0.9,0.3,1.4
			c1.1,3.3,3.6,6.8,5.4,7.2h1c1.8-0.4,3.9-4.3,4.6-7.8v-2C10.9,4.5,10,4.2,9.1,4.2C8.5,4.2,8,4.4,7.7,4.5"/>
	</defs>
	<clipPath id="SVGID_2_">
		<use xlink:href="#SVGID_1_"  style="overflow:visible;"/>
	</clipPath>
	
		<linearGradient id="SVGID_3_" gradientUnits="userSpaceOnUse" x1="0" y1="15.0335" x2="1" y2="15.0335" gradientTransform="matrix(1.1072 16.6689 16.6689 -1.1072 -245.6168 16.5345)">
		<stop  offset="0" style="stop-color:#D20073"/>
		<stop  offset="0.1618" style="stop-color:#D20B72"/>
		<stop  offset="0.3699" style="stop-color:#D22170"/>
		<stop  offset="0.6032" style="stop-color:#D2356B"/>
		<stop  offset="0.8532" style="stop-color:#D24962"/>
		<stop  offset="1" style="stop-color:#D2565A"/>
	</linearGradient>
	<polygon class="st0" points="11.2,3.4 12,15.4 0,16.2 -0.7,4.2 	"/>
</g>
<g>
	<defs>
		<path id="SVGID_4_" d="M4.6,2.4C4,1.6,2.9,1.3,2.4,1.5c0,0.5,1.4,2.8,3.3,2.4c1.9-0.4,2.5-2.5,2.5-3.2C7.4,0.7,6.4,1.5,6.2,2.1
			C6.1,1.3,6.2,0.5,5.1,0C4,0.7,4.6,2.4,4.6,2.4"/>
	</defs>
	<clipPath id="SVGID_5_">
		<use xlink:href="#SVGID_4_"  style="overflow:visible;"/>
	</clipPath>
	
		<linearGradient id="SVGID_6_" gradientUnits="userSpaceOnUse" x1="0" y1="15.2578" x2="1" y2="15.2578" gradientTransform="matrix(1.1072 16.6689 16.6689 -1.1072 -249.1954 16.7751)">
		<stop  offset="0" style="stop-color:#D20073"/>
		<stop  offset="0.1618" style="stop-color:#D20B72"/>
		<stop  offset="0.3699" style="stop-color:#D22170"/>
		<stop  offset="0.6032" style="stop-color:#D2356B"/>
		<stop  offset="0.8532" style="stop-color:#D24962"/>
		<stop  offset="1" style="stop-color:#D2565A"/>
	</linearGradient>
	<polygon class="st1" points="8.2,-0.4 8.5,4.3 2.4,4.7 2.1,0 	"/>
</g>
</svg>
