<?xml version="1.0" encoding="utf-8"?>
<!-- Generator: Adobe Illustrator 22.0.1, SVG Export Plug-In . SVG Version: 6.00 Build 0)  -->
<svg version="1.1" id="Hamburger" xmlns="http://www.w3.org/2000/svg" xmlns:xlink="http://www.w3.org/1999/xlink" x="0px" y="0px"
	 viewBox="0 0 50 25" style="enable-background:new 0 0 50 25;" xml:space="preserve">
<style type="text/css">
	.st0{fill:#FFFFFF;}
</style>
<title>Hamburger menu - Ham</title>
<path class="st0" d="M2,0h26c1.1,0,2,0.9,2,2v1c0,1.1-0.9,2-2,2H2C0.9,5,0,4.1,0,3V2C0,0.9,0.9,0,2,0z"/>
<path class="st0" d="M2,10h26c1.1,0,2,0.9,2,2v1c0,1.1-0.9,2-2,2H2c-1.1,0-2-0.9-2-2v-1C0,10.9,0.9,10,2,10z"/>
<path class="st0" d="M2,20h26c1.1,0,2,0.9,2,2v1c0,1.1-0.9,2-2,2H2c-1.1,0-2-0.9-2-2v-1C0,20.9,0.9,20,2,20z"/>
</svg>
